<?xml version="1.0" encoding="UTF-8" standalone="no"?>
<!DOCTYPE svg PUBLIC "-//W3C//DTD SVG 1.1//EN" "http://www.w3.org/Graphics/SVG/1.1/DTD/svg11.dtd">
<svg xmlns="http://www.w3.org/2000/svg" version="1.1" viewBox="0.00 0.00 923.00 830.00">
<g stroke-width="2.00" fill="none" stroke-linecap="butt">
<path stroke="#ee8099" vector-effect="non-scaling-stroke" d="
  M 123.23 126.12
  L 78.72 141.84
  A 1.31 1.30 -13.2 0 0 77.86 143.22
  L 106.06 389.19"
/>
<path stroke="#e38098" vector-effect="non-scaling-stroke" d="
  M 106.06 389.19
  L 135.75 646.73
  A 3.38 3.37 -78.9 0 0 137.47 649.30
  L 459.51 827.72
  A 1.72 1.54 -43.4 0 0 461.08 827.68
  L 783.74 648.91
  A 1.71 1.69 79.1 0 0 784.61 647.61
  L 842.67 143.03
  Q 842.76 142.25 842.02 141.99
  L 461.43 6.30
  A 3.13 3.09 44.6 0 0 459.32 6.30
  L 123.23 126.12"
/>
<path stroke="#d20031" vector-effect="non-scaling-stroke" d="
  M 106.06 389.19
  Q 106.68 390.49 107.30 391.71
  Q 107.85 392.79 108.07 394.37
  C 108.32 396.08 109.13 397.59 109.15 399.25
  Q 109.20 403.64 109.72 407.99
  Q 109.75 408.26 110.01 408.32
  Q 110.22 408.38 110.25 408.59
  Q 110.61 411.12 111.00 413.63
  C 111.43 416.43 111.02 419.37 111.34 422.34
  Q 111.35 422.37 111.37 422.38
  L 111.67 422.51
  Q 111.94 422.62 111.98 422.90
  L 112.59 427.23
  Q 112.64 427.60 112.90 427.88
  Q 113.06 428.06 113.18 428.26
  Q 113.37 428.56 113.38 429.04
  Q 113.44 433.25 113.15 437.44
  A 1.93 1.91 33.4 0 0 113.37 438.48
  Q 114.46 440.47 114.45 442.70
  Q 114.45 443.17 114.79 443.50
  C 116.06 444.74 115.90 447.53 115.91 449.17
  C 115.93 452.42 116.90 455.40 116.89 458.71
  Q 116.89 459.18 117.13 459.58
  C 118.62 462.00 117.88 469.33 117.88 472.40
  Q 117.88 474.07 118.65 476.99
  C 119.52 480.26 118.54 483.03 119.30 486.19
  C 120.32 490.37 120.01 494.84 120.60 498.58
  C 121.07 501.62 121.15 505.83 122.64 508.51
  C 124.02 510.99 123.84 513.68 124.13 516.39
  C 124.49 519.79 124.39 524.06 125.13 527.91
  C 125.79 531.31 125.60 534.10 125.63 537.39
  C 125.64 538.22 126.08 538.89 126.37 539.65
  C 126.96 541.17 126.55 543.36 126.77 545.03
  Q 126.83 545.51 127.14 545.87
  C 128.47 547.41 127.66 550.88 128.21 553.01
  Q 128.68 554.86 127.35 558.38
  Q 126.46 560.70 127.50 566.16
  Q 127.52 566.28 127.64 566.27
  Q 127.77 566.27 127.87 566.14
  Q 127.89 566.12 127.90 566.15
  Q 128.58 572.17 130.18 577.99
  C 130.47 579.08 131.34 579.96 131.40 581.41
  Q 131.40 581.53 131.53 581.53
  Q 131.70 581.53 131.78 581.45
  Q 131.83 581.40 131.84 581.47
  Q 132.10 583.75 132.01 586.04
  Q 131.94 587.95 132.42 590.39
  C 132.94 593.06 132.17 595.95 132.96 598.54
  C 134.21 602.65 132.61 607.13 133.88 611.34
  Q 134.43 613.17 135.06 614.97
  C 136.19 618.20 136.26 620.73 136.09 623.98
  A 1.20 1.17 30.2 0 0 136.29 624.70
  C 136.88 625.59 136.57 626.58 136.63 627.38
  Q 136.89 630.71 137.32 634.05
  Q 137.34 634.18 137.58 639.50
  Q 137.73 642.73 139.27 645.57
  Q 140.18 647.23 142.35 648.54
  C 145.50 650.45 148.49 652.46 151.83 654.11
  Q 156.65 656.49 161.29 659.20
  Q 163.13 660.27 169.01 663.12
  Q 173.81 665.45 177.89 668.97
  Q 178.26 669.29 178.75 669.33
  Q 180.00 669.45 180.80 670.40
  Q 181.12 670.78 181.55 671.00
  Q 185.10 672.79 188.51 674.85
  C 189.75 675.59 191.14 675.88 192.77 677.22
  Q 194.85 678.91 201.00 681.28
  Q 203.57 682.27 205.36 683.28
  Q 207.46 684.47 209.50 685.74
  Q 211.96 687.28 215.90 689.03
  Q 219.43 690.60 222.61 692.81
  Q 224.32 693.99 226.07 694.90
  C 229.09 696.47 232.10 698.58 234.85 699.99
  C 239.76 702.52 244.61 705.57 249.30 707.99
  Q 255.86 711.37 262.22 715.08
  Q 264.28 716.27 266.98 717.49
  C 270.97 719.28 272.54 721.42 276.25 723.00
  Q 279.07 724.20 284.50 727.89
  C 286.48 729.24 288.80 729.85 290.87 731.24
  Q 294.73 733.85 295.35 734.18
  C 300.33 736.85 305.62 740.06 310.83 742.17
  C 313.24 743.14 315.46 744.42 317.12 745.63
  Q 317.31 745.78 317.46 746.24
  Q 317.61 746.71 318.08 746.84
  Q 320.65 747.59 322.69 749.25
  C 323.55 749.96 324.49 750.00 325.51 750.20
  Q 325.99 750.29 326.39 750.54
  C 327.83 751.46 329.52 752.15 330.85 752.98
  Q 334.30 755.13 337.94 756.93
  Q 341.06 758.47 344.98 760.91
  Q 348.75 763.26 352.90 764.94
  C 355.97 766.20 358.16 768.37 361.12 769.94
  C 370.02 774.68 378.60 779.93 387.52 784.65
  Q 390.80 786.38 397.52 790.48
  C 398.55 791.11 399.85 791.18 401.05 792.06
  Q 405.25 795.12 411.11 797.41
  C 412.31 797.88 413.50 798.89 415.06 799.45
  C 417.72 800.40 420.11 802.23 422.35 803.42
  C 424.87 804.74 427.16 806.65 429.57 807.80
  Q 432.30 809.11 435.05 810.41
  C 436.41 811.05 437.44 812.17 438.64 812.84
  Q 443.98 815.80 449.56 818.27
  C 452.64 819.64 455.57 821.88 458.69 823.13
  Q 460.44 823.83 460.44 821.94
  Q 460.54 687.63 460.63 553.75
  Q 460.64 537.60 460.61 521.44
  C 460.61 519.73 460.21 518.32 459.67 516.78
  A 1.25 1.24 81.4 0 0 458.54 515.94
  C 452.28 515.71 445.53 516.20 439.84 515.94
  C 433.68 515.65 427.38 515.15 421.38 515.15
  Q 406.32 515.14 391.25 515.38
  Q 389.76 515.41 388.25 515.42
  Q 377.62 515.54 367.01 516.09
  Q 364.35 516.23 361.78 516.86
  C 358.70 517.61 357.99 523.75 356.47 526.37
  C 355.58 527.89 355.43 529.58 354.46 530.99
  Q 353.98 531.68 353.53 532.41
  Q 353.27 532.84 353.28 533.35
  C 353.31 535.29 351.83 536.62 351.54 538.63
  Q 351.47 539.11 351.19 539.51
  C 350.27 540.79 349.68 541.44 349.38 543.14
  Q 349.02 545.16 347.95 546.90
  C 347.17 548.18 347.11 549.39 346.50 550.69
  C 345.61 552.56 345.47 554.31 344.48 556.08
  C 343.24 558.32 342.82 560.85 341.65 563.14
  C 339.77 566.83 338.73 569.53 337.47 572.91
  C 336.81 574.67 335.40 576.64 335.08 578.98
  A 1.49 1.48 72.2 0 1 334.63 579.86
  Q 333.14 581.23 332.85 581.98
  Q 329.78 589.84 326.86 597.74
  Q 326.23 599.44 326.14 600.30
  Q 326.10 600.79 325.78 601.15
  Q 325.20 601.81 325.11 602.24
  Q 324.49 605.01 322.79 607.31
  A 2.18 2.15 68.6 0 0 322.43 608.15
  Q 321.36 613.53 318.08 617.88
  Q 317.73 618.34 317.88 618.90
  Q 318.15 619.87 317.40 620.21
  A 0.22 0.21 -86.3 0 0 317.27 620.33
  L 313.18 629.95
  A 0.52 0.27 25.2 0 1 312.59 629.97
  Q 312.03 629.70 312.14 628.99"
/>
<path stroke="#e38098" vector-effect="non-scaling-stroke" d="
  M 312.14 628.99
  L 358.20 513.76
  A 0.87 0.85 -78.7 0 1 358.99 513.22
  L 560.51 513.29
  A 1.14 1.13 -11.2 0 1 561.56 513.99
  L 608.90 632.46
  Q 609.25 633.31 610.17 633.31
  L 698.51 633.30
  A 0.23 0.23 0.0 0 0 698.72 632.98
  L 460.16 96.50"
/>
<path stroke="#d20031" vector-effect="non-scaling-stroke" d="
  M 460.16 96.50
  Q 459.81 96.45 459.57 96.28
  A 0.68 0.67 26.6 0 1 459.31 95.51
  Q 460.54 91.87 460.54 88.00
  C 460.54 80.66 460.11 73.03 460.23 66.00
  Q 460.66 39.12 460.22 11.20
  Q 460.20 9.82 458.87 10.16
  C 457.87 10.41 456.88 10.08 455.74 10.57
  C 448.37 13.75 440.61 16.11 433.11 19.00
  Q 430.94 19.83 428.70 20.09
  C 426.69 20.31 423.91 20.07 422.52 21.79
  A 1.49 1.47 -77.1 0 1 421.74 22.29
  C 419.22 22.92 416.79 22.87 414.40 23.87
  C 411.74 24.99 408.87 25.51 406.32 26.69
  C 403.62 27.95 401.03 28.39 398.47 29.64
  Q 398.02 29.86 397.52 29.85
  Q 396.54 29.83 395.83 30.49
  Q 395.47 30.83 395.00 30.95
  Q 393.06 31.44 390.13 32.80
  Q 386.65 34.43 380.64 35.41
  A 0.23 0.21 76.6 0 1 380.41 35.26
  Q 380.35 35.08 380.15 35.16
  Q 379.60 35.40 379.29 35.95
  Q 379.05 36.38 378.56 36.37
  Q 376.14 36.34 374.11 37.68
  Q 373.91 37.81 373.84 38.03
  Q 373.80 38.17 373.72 38.29
  Q 373.57 38.51 373.22 38.63
  Q 371.72 39.14 370.25 39.70
  Q 369.79 39.88 369.28 39.86
  Q 368.55 39.83 368.28 40.39
  Q 368.08 40.82 367.60 40.83
  C 364.97 40.84 363.21 42.41 361.09 43.02
  Q 358.84 43.67 356.68 44.59
  C 355.78 44.98 354.77 44.87 353.87 45.57
  Q 353.49 45.86 353.01 45.89
  Q 351.48 45.96 350.42 46.97
  Q 350.02 47.35 349.48 47.41
  Q 346.24 47.79 343.80 49.76
  Q 343.49 50.01 343.19 50.08
  Q 342.81 50.17 342.41 50.12
  A 1.02 1.00 35.5 0 0 341.84 50.21
  Q 338.83 51.57 335.83 52.98
  C 332.23 54.68 328.11 55.64 324.27 57.29
  Q 320.86 58.74 318.61 59.48
  Q 309.17 62.57 300.00 66.41
  C 297.69 67.37 294.95 68.10 292.47 69.19
  Q 289.60 70.44 286.85 71.17
  C 283.64 72.01 280.61 73.63 277.32 74.08
  Q 275.31 74.35 273.75 74.88
  Q 273.48 74.98 273.18 75.29
  Q 272.84 75.65 272.35 75.73
  Q 270.59 76.00 268.84 76.32
  C 266.78 76.70 264.90 78.02 262.59 78.37
  Q 262.13 78.44 261.76 78.71
  Q 260.98 79.26 260.01 79.12
  Q 259.49 79.04 259.17 79.45
  L 258.71 80.03
  Q 258.40 80.42 257.90 80.52
  C 255.95 80.89 254.59 81.13 252.80 82.38
  Q 251.79 83.08 250.54 83.31
  Q 250.06 83.39 249.66 83.69
  Q 248.20 84.79 246.31 84.65
  A 0.97 0.92 30.2 0 0 245.76 84.78
  Q 242.22 86.88 238.16 87.54
  Q 237.80 87.60 237.50 87.80
  Q 237.00 88.11 236.25 88.19
  Q 233.43 88.48 229.89 89.65
  C 229.13 89.90 228.12 89.87 227.26 90.58
  Q 226.89 90.89 226.43 91.04
  C 224.49 91.66 222.75 92.57 220.77 93.18
  C 218.48 93.89 216.62 95.10 214.33 95.65
  C 211.87 96.23 210.41 97.20 208.38 97.70
  Q 205.73 98.36 205.70 98.37
  C 202.43 99.56 199.22 100.64 196.02 102.01
  Q 194.46 102.67 192.74 102.82
  Q 192.63 102.83 192.63 102.94
  Q 192.63 103.08 192.54 103.22
  Q 192.51 103.27 192.45 103.29
  Q 189.76 103.99 187.14 104.98
  Q 186.74 105.12 186.40 105.38
  Q 185.73 105.88 184.95 105.90
  Q 184.45 105.92 183.99 106.10
  Q 180.66 107.42 177.44 108.97
  C 175.33 109.99 173.52 110.12 171.30 110.58
  Q 170.81 110.68 170.44 111.03
  Q 169.68 111.75 169.38 111.87
  C 165.51 113.43 161.74 115.66 158.08 116.98
  C 151.46 119.38 144.68 121.31 138.06 123.68
  Q 131.29 126.11 124.52 128.54
  C 122.78 129.16 120.94 129.40 119.11 129.80
  A 0.21 0.20 7.0 0 1 118.88 129.51
  Q 118.94 129.38 119.01 129.25
  Q 119.27 128.76 119.82 128.89
  Q 120.25 129.00 120.14 128.55
  Q 120.02 128.12 120.47 128.13
  Q 120.64 128.13 120.82 128.11
  Q 121.24 128.08 121.49 127.75
  Q 121.79 127.36 122.16 127.36
  Q 122.59 127.35 122.88 127.04
  Q 123.48 126.40 123.23 126.12"
/>
<path stroke="#e38098" vector-effect="non-scaling-stroke" d="
  M 244.59 579.71
  L 260.08 544.79"
/>
<path stroke="#e38098" vector-effect="non-scaling-stroke" d="
  M 275.68 509.80
  L 376.31 284.02"
/>
<path stroke="#e38098" vector-effect="non-scaling-stroke" d="
  M 396.41 239.13
  L 421.28 183.48"
/>
<path stroke="#ee8099" vector-effect="non-scaling-stroke" d="
  M 460.16 96.50
  L 421.28 183.48"
/>
<path stroke="#d20031" vector-effect="non-scaling-stroke" d="
  M 421.28 183.48
  Q 421.19 182.89 420.38 183.09
  A 1.14 1.13 -84.3 0 0 419.62 183.72
  Q 414.41 195.27 409.35 206.88
  C 407.83 210.36 405.62 214.35 403.99 218.18
  Q 402.83 220.90 401.40 223.50
  Q 401.14 223.98 401.11 224.51
  Q 401.08 224.97 400.85 225.37
  Q 399.62 227.52 399.09 229.92
  Q 398.99 230.33 398.73 230.65
  Q 397.60 232.00 397.59 233.82
  Q 397.59 234.32 397.16 234.58
  Q 396.26 235.14 396.46 236.17
  Q 396.54 236.59 396.31 236.96
  Q 395.76 237.86 396.41 239.13"
/>
<path stroke="#ee8099" vector-effect="non-scaling-stroke" d="
  M 396.41 239.13
  L 376.31 284.02"
/>
<path stroke="#d20031" vector-effect="non-scaling-stroke" d="
  M 376.31 284.02
  Q 374.73 284.24 374.21 285.86
  Q 374.08 286.30 373.75 286.62
  C 373.40 286.97 373.16 287.18 372.95 287.66
  C 371.31 291.47 369.30 295.10 367.78 298.94
  C 364.39 307.54 360.82 316.18 356.96 324.58
  Q 355.02 328.81 353.19 333.08
  C 351.65 336.65 349.79 340.00 348.34 343.57
  C 347.38 345.96 345.96 348.14 344.93 350.54
  Q 343.16 354.67 342.56 355.85
  Q 336.40 367.92 334.36 373.74
  Q 332.90 377.91 331.41 380.35
  Q 331.15 380.78 331.14 381.28
  C 331.11 382.08 331.23 382.27 330.83 382.99
  Q 329.43 385.51 327.99 388.01
  C 326.98 389.78 327.43 391.59 326.43 393.46
  Q 324.71 396.64 323.03 400.75
  C 322.10 403.05 320.32 405.30 319.45 407.57
  C 317.06 413.76 313.48 420.99 311.43 425.67
  Q 308.07 433.32 304.64 440.92
  C 302.30 446.10 299.81 453.01 296.92 458.88
  C 295.55 461.66 294.54 464.68 293.17 467.57
  C 291.11 471.91 289.45 476.24 287.17 480.38
  C 285.45 483.49 284.47 487.00 282.77 490.20
  C 280.79 493.95 279.60 497.41 277.88 501.00
  Q 276.62 503.62 275.58 506.37
  Q 274.87 508.25 275.68 509.80"
/>
<path stroke="#ee8099" vector-effect="non-scaling-stroke" d="
  M 275.68 509.80
  L 260.08 544.79"
/>
<path stroke="#d20031" vector-effect="non-scaling-stroke" d="
  M 260.08 544.79
  Q 259.40 544.46 258.86 545.04
  Q 258.49 545.44 258.46 545.98
  Q 258.44 546.41 258.11 546.40
  Q 257.69 546.39 257.52 546.78
  Q 250.48 563.37 245.88 572.63
  Q 243.93 576.58 244.59 579.71"
/>
<path stroke="#ee8099" vector-effect="non-scaling-stroke" d="
  M 244.59 579.71
  L 221.13 632.86
  Q 220.96 633.25 221.39 633.25
  L 309.43 633.29
  A 1.47 1.47 0.0 0 0 310.79 632.37
  L 312.14 628.99"
/>
<path stroke="#ee8099" vector-effect="non-scaling-stroke" d="
  M 432.80 438.70
  L 459.96 438.75"
/>
<path stroke="#e38098" vector-effect="non-scaling-stroke" d="
  M 459.96 438.75
  L 529.24 439.05
  A 0.46 0.45 79.2 0 0 529.66 438.42
  L 460.65 272.38
  A 0.69 0.69 0.0 0 0 459.38 272.39
  C 459.03 273.24 458.96 274.33 458.59 275.20
  C 437.43 325.46 416.65 375.90 395.86 426.31
  Q 393.34 432.42 390.83 438.43
  Q 390.57 439.05 391.24 439.05
  L 432.80 438.70"
/>
<path stroke="#d20031" vector-effect="non-scaling-stroke" d="
  M 459.96 438.75
  Q 460.08 438.13 460.72 438.12
  Q 460.84 438.12 460.88 438.00
  Q 460.94 437.81 460.75 437.87
  A 0.22 0.21 11.2 0 1 460.52 437.53
  Q 461.82 435.98 460.62 434.33
  Q 460.33 433.92 460.34 433.42
  C 460.60 419.69 460.29 404.75 460.39 392.26
  C 460.56 369.68 460.45 347.08 460.29 324.50
  Q 460.18 309.19 460.33 293.89
  C 460.36 291.17 459.86 287.29 462.15 285.27
  Q 462.53 284.94 462.40 284.45
  Q 461.53 281.31 460.77 278.15
  Q 460.78 278.14 460.77 278.13
  Q 460.68 278.09 460.70 278.14
  Q 461.18 279.72 460.03 280.61
  Q 459.68 280.88 459.52 281.29
  L 457.90 285.38
  Q 457.69 285.92 457.24 286.30
  Q 455.79 287.52 455.85 289.39
  Q 455.87 289.96 455.53 290.42
  Q 454.39 291.94 453.84 293.77
  Q 453.71 294.18 453.51 294.56
  Q 453.15 295.23 453.12 296.00
  Q 453.10 296.45 452.83 296.81
  Q 452.02 297.90 451.42 299.51
  Q 449.44 304.72 446.16 311.52
  Q 445.61 312.66 445.03 315.25
  C 444.78 316.38 444.07 316.97 443.79 318.11
  C 443.07 321.06 441.29 323.16 440.69 326.14
  C 440.16 328.75 438.03 330.08 437.37 332.59
  Q 436.73 335.06 436.62 335.37
  Q 436.14 336.75 435.80 338.16
  Q 435.30 340.22 434.24 342.05
  C 433.25 343.76 432.91 345.53 431.92 347.23
  C 430.91 348.96 430.94 350.67 429.40 352.23
  Q 429.04 352.59 429.12 353.20
  Q 429.20 353.70 428.88 354.11
  Q 426.96 356.57 426.75 359.74
  Q 426.73 360.05 426.43 360.15
  Q 426.20 360.22 426.14 360.50
  Q 425.40 363.82 423.76 366.76
  C 423.21 367.75 423.26 368.87 422.67 369.89
  C 421.43 372.00 419.91 374.51 419.29 376.89
  Q 418.44 380.17 416.88 383.19
  C 415.97 384.96 415.61 386.82 414.65 388.63
  Q 413.54 390.71 413.01 392.64
  C 412.16 395.71 410.28 398.64 409.29 401.09
  Q 406.90 407.01 404.36 412.87
  C 403.39 415.11 402.99 418.12 401.41 420.57
  Q 399.62 423.33 399.09 424.76
  Q 397.30 429.57 395.29 434.67
  A 1.65 1.64 -84.8 0 0 397.14 436.89
  L 398.43 436.63
  Q 398.92 436.54 399.42 436.58
  L 416.17 438.00
  Q 416.61 438.04 417.00 437.82
  C 418.41 437.01 422.60 437.32 424.42 437.24
  Q 426.13 437.16 428.44 437.91
  Q 430.51 438.58 432.80 438.70"
/>
</g>
<path fill="#ffffff" d="
  M 0.00 0.00
  L 923.00 0.00
  L 923.00 830.00
  L 0.00 830.00
  L 0.00 0.00
  Z
  M 123.23 126.12
  L 78.72 141.84
  A 1.31 1.30 -13.2 0 0 77.86 143.22
  L 106.06 389.19
  L 135.75 646.73
  A 3.38 3.37 -78.9 0 0 137.47 649.30
  L 459.51 827.72
  A 1.72 1.54 -43.4 0 0 461.08 827.68
  L 783.74 648.91
  A 1.71 1.69 79.1 0 0 784.61 647.61
  L 842.67 143.03
  Q 842.76 142.25 842.02 141.99
  L 461.43 6.30
  A 3.13 3.09 44.6 0 0 459.32 6.30
  L 123.23 126.12
  Z"
/>
<path fill="#c70030" d="
  M 106.06 389.19
  Q 106.68 390.49 107.30 391.71
  Q 107.85 392.79 108.07 394.37
  C 108.32 396.08 109.13 397.59 109.15 399.25
  Q 109.20 403.64 109.72 407.99
  Q 109.75 408.26 110.01 408.32
  Q 110.22 408.38 110.25 408.59
  Q 110.61 411.12 111.00 413.63
  C 111.43 416.43 111.02 419.37 111.34 422.34
  Q 111.35 422.37 111.37 422.38
  L 111.67 422.51
  Q 111.94 422.62 111.98 422.90
  L 112.59 427.23
  Q 112.64 427.60 112.90 427.88
  Q 113.06 428.06 113.18 428.26
  Q 113.37 428.56 113.38 429.04
  Q 113.44 433.25 113.15 437.44
  A 1.93 1.91 33.4 0 0 113.37 438.48
  Q 114.46 440.47 114.45 442.70
  Q 114.45 443.17 114.79 443.50
  C 116.06 444.74 115.90 447.53 115.91 449.17
  C 115.93 452.42 116.90 455.40 116.89 458.71
  Q 116.89 459.18 117.13 459.58
  C 118.62 462.00 117.88 469.33 117.88 472.40
  Q 117.88 474.07 118.65 476.99
  C 119.52 480.26 118.54 483.03 119.30 486.19
  C 120.32 490.37 120.01 494.84 120.60 498.58
  C 121.07 501.62 121.15 505.83 122.64 508.51
  C 124.02 510.99 123.84 513.68 124.13 516.39
  C 124.49 519.79 124.39 524.06 125.13 527.91
  C 125.79 531.31 125.60 534.10 125.63 537.39
  C 125.64 538.22 126.08 538.89 126.37 539.65
  C 126.96 541.17 126.55 543.36 126.77 545.03
  Q 126.83 545.51 127.14 545.87
  C 128.47 547.41 127.66 550.88 128.21 553.01
  Q 128.68 554.86 127.35 558.38
  Q 126.46 560.70 127.50 566.16
  Q 127.52 566.28 127.64 566.27
  Q 127.77 566.27 127.87 566.14
  Q 127.89 566.12 127.90 566.15
  Q 128.58 572.17 130.18 577.99
  C 130.47 579.08 131.34 579.96 131.40 581.41
  Q 131.40 581.53 131.53 581.53
  Q 131.70 581.53 131.78 581.45
  Q 131.83 581.40 131.84 581.47
  Q 132.10 583.75 132.01 586.04
  Q 131.94 587.95 132.42 590.39
  C 132.94 593.06 132.17 595.95 132.96 598.54
  C 134.21 602.65 132.61 607.13 133.88 611.34
  Q 134.43 613.17 135.06 614.97
  C 136.19 618.20 136.26 620.73 136.09 623.98
  A 1.20 1.17 30.2 0 0 136.29 624.70
  C 136.88 625.59 136.57 626.58 136.63 627.38
  Q 136.89 630.71 137.32 634.05
  Q 137.34 634.18 137.58 639.50
  Q 137.73 642.73 139.27 645.57
  Q 140.18 647.23 142.35 648.54
  C 145.50 650.45 148.49 652.46 151.83 654.11
  Q 156.65 656.49 161.29 659.20
  Q 163.13 660.27 169.01 663.12
  Q 173.81 665.45 177.89 668.97
  Q 178.26 669.29 178.75 669.33
  Q 180.00 669.45 180.80 670.40
  Q 181.12 670.78 181.55 671.00
  Q 185.10 672.79 188.51 674.85
  C 189.75 675.59 191.14 675.88 192.77 677.22
  Q 194.85 678.91 201.00 681.28
  Q 203.57 682.27 205.36 683.28
  Q 207.46 684.47 209.50 685.74
  Q 211.96 687.28 215.90 689.03
  Q 219.43 690.60 222.61 692.81
  Q 224.32 693.99 226.07 694.90
  C 229.09 696.47 232.10 698.58 234.85 699.99
  C 239.76 702.52 244.61 705.57 249.30 707.99
  Q 255.86 711.37 262.22 715.08
  Q 264.28 716.27 266.98 717.49
  C 270.97 719.28 272.54 721.42 276.25 723.00
  Q 279.07 724.20 284.50 727.89
  C 286.48 729.24 288.80 729.85 290.87 731.24
  Q 294.73 733.85 295.35 734.18
  C 300.33 736.85 305.62 740.06 310.83 742.17
  C 313.24 743.14 315.46 744.42 317.12 745.63
  Q 317.31 745.78 317.46 746.24
  Q 317.61 746.71 318.08 746.84
  Q 320.65 747.59 322.69 749.25
  C 323.55 749.96 324.49 750.00 325.51 750.20
  Q 325.99 750.29 326.39 750.54
  C 327.83 751.46 329.52 752.15 330.85 752.98
  Q 334.30 755.13 337.94 756.93
  Q 341.06 758.47 344.98 760.91
  Q 348.75 763.26 352.90 764.94
  C 355.97 766.20 358.16 768.37 361.12 769.94
  C 370.02 774.68 378.60 779.93 387.52 784.65
  Q 390.80 786.38 397.52 790.48
  C 398.55 791.11 399.85 791.18 401.05 792.06
  Q 405.25 795.12 411.11 797.41
  C 412.31 797.88 413.50 798.89 415.06 799.45
  C 417.72 800.40 420.11 802.23 422.35 803.42
  C 424.87 804.74 427.16 806.65 429.57 807.80
  Q 432.30 809.11 435.05 810.41
  C 436.41 811.05 437.44 812.17 438.64 812.84
  Q 443.98 815.80 449.56 818.27
  C 452.64 819.64 455.57 821.88 458.69 823.13
  Q 460.44 823.83 460.44 821.94
  Q 460.54 687.63 460.63 553.75
  Q 460.64 537.60 460.61 521.44
  C 460.61 519.73 460.21 518.32 459.67 516.78
  A 1.25 1.24 81.4 0 0 458.54 515.94
  C 452.28 515.71 445.53 516.20 439.84 515.94
  C 433.68 515.65 427.38 515.15 421.38 515.15
  Q 406.32 515.14 391.25 515.38
  Q 389.76 515.41 388.25 515.42
  Q 377.62 515.54 367.01 516.09
  Q 364.35 516.23 361.78 516.86
  C 358.70 517.61 357.99 523.75 356.47 526.37
  C 355.58 527.89 355.43 529.58 354.46 530.99
  Q 353.98 531.68 353.53 532.41
  Q 353.27 532.84 353.28 533.35
  C 353.31 535.29 351.83 536.62 351.54 538.63
  Q 351.47 539.11 351.19 539.51
  C 350.27 540.79 349.68 541.44 349.38 543.14
  Q 349.02 545.16 347.95 546.90
  C 347.17 548.18 347.11 549.39 346.50 550.69
  C 345.61 552.56 345.47 554.31 344.48 556.08
  C 343.24 558.32 342.82 560.85 341.65 563.14
  C 339.77 566.83 338.73 569.53 337.47 572.91
  C 336.81 574.67 335.40 576.64 335.08 578.98
  A 1.49 1.48 72.2 0 1 334.63 579.86
  Q 333.14 581.23 332.85 581.98
  Q 329.78 589.84 326.86 597.74
  Q 326.23 599.44 326.14 600.30
  Q 326.10 600.79 325.78 601.15
  Q 325.20 601.81 325.11 602.24
  Q 324.49 605.01 322.79 607.31
  A 2.18 2.15 68.6 0 0 322.43 608.15
  Q 321.36 613.53 318.08 617.88
  Q 317.73 618.34 317.88 618.90
  Q 318.15 619.87 317.40 620.21
  A 0.22 0.21 -86.3 0 0 317.27 620.33
  L 313.18 629.95
  A 0.52 0.27 25.2 0 1 312.59 629.97
  Q 312.03 629.70 312.14 628.99
  L 358.20 513.76
  A 0.87 0.85 -78.7 0 1 358.99 513.22
  L 560.51 513.29
  A 1.14 1.13 -11.2 0 1 561.56 513.99
  L 608.90 632.46
  Q 609.25 633.31 610.17 633.31
  L 698.51 633.30
  A 0.23 0.23 0.0 0 0 698.72 632.98
  L 460.16 96.50
  Q 459.81 96.45 459.57 96.28
  A 0.68 0.67 26.6 0 1 459.31 95.51
  Q 460.54 91.87 460.54 88.00
  C 460.54 80.66 460.11 73.03 460.23 66.00
  Q 460.66 39.12 460.22 11.20
  Q 460.20 9.82 458.87 10.16
  C 457.87 10.41 456.88 10.08 455.74 10.57
  C 448.37 13.75 440.61 16.11 433.11 19.00
  Q 430.94 19.83 428.70 20.09
  C 426.69 20.31 423.91 20.07 422.52 21.79
  A 1.49 1.47 -77.1 0 1 421.74 22.29
  C 419.22 22.92 416.79 22.87 414.40 23.87
  C 411.74 24.99 408.87 25.51 406.32 26.69
  C 403.62 27.95 401.03 28.39 398.47 29.64
  Q 398.02 29.86 397.52 29.85
  Q 396.54 29.83 395.83 30.49
  Q 395.47 30.83 395.00 30.95
  Q 393.06 31.44 390.13 32.80
  Q 386.65 34.43 380.64 35.41
  A 0.23 0.21 76.6 0 1 380.41 35.26
  Q 380.35 35.08 380.15 35.16
  Q 379.60 35.40 379.29 35.95
  Q 379.05 36.38 378.56 36.37
  Q 376.14 36.34 374.11 37.68
  Q 373.91 37.81 373.84 38.03
  Q 373.80 38.17 373.72 38.29
  Q 373.57 38.51 373.22 38.63
  Q 371.72 39.14 370.25 39.70
  Q 369.79 39.88 369.28 39.86
  Q 368.55 39.83 368.28 40.39
  Q 368.08 40.82 367.60 40.83
  C 364.97 40.84 363.21 42.41 361.09 43.02
  Q 358.84 43.67 356.68 44.59
  C 355.78 44.98 354.77 44.87 353.87 45.57
  Q 353.49 45.86 353.01 45.89
  Q 351.48 45.96 350.42 46.97
  Q 350.02 47.35 349.48 47.41
  Q 346.24 47.79 343.80 49.76
  Q 343.49 50.01 343.19 50.08
  Q 342.81 50.17 342.41 50.12
  A 1.02 1.00 35.5 0 0 341.84 50.21
  Q 338.83 51.57 335.83 52.98
  C 332.23 54.68 328.11 55.64 324.27 57.29
  Q 320.86 58.74 318.61 59.48
  Q 309.17 62.57 300.00 66.41
  C 297.69 67.37 294.95 68.10 292.47 69.19
  Q 289.60 70.44 286.85 71.17
  C 283.64 72.01 280.61 73.63 277.32 74.08
  Q 275.31 74.35 273.75 74.88
  Q 273.48 74.98 273.18 75.29
  Q 272.84 75.65 272.35 75.73
  Q 270.59 76.00 268.84 76.32
  C 266.78 76.70 264.90 78.02 262.59 78.37
  Q 262.13 78.44 261.76 78.71
  Q 260.98 79.26 260.01 79.12
  Q 259.49 79.04 259.17 79.45
  L 258.71 80.03
  Q 258.40 80.42 257.90 80.52
  C 255.95 80.89 254.59 81.13 252.80 82.38
  Q 251.79 83.08 250.54 83.31
  Q 250.06 83.39 249.66 83.69
  Q 248.20 84.79 246.31 84.65
  A 0.97 0.92 30.2 0 0 245.76 84.78
  Q 242.22 86.88 238.16 87.54
  Q 237.80 87.60 237.50 87.80
  Q 237.00 88.11 236.25 88.19
  Q 233.43 88.48 229.89 89.65
  C 229.13 89.90 228.12 89.87 227.26 90.58
  Q 226.89 90.89 226.43 91.04
  C 224.49 91.66 222.75 92.57 220.77 93.18
  C 218.48 93.89 216.62 95.10 214.33 95.65
  C 211.87 96.23 210.41 97.20 208.38 97.70
  Q 205.73 98.36 205.70 98.37
  C 202.43 99.56 199.22 100.64 196.02 102.01
  Q 194.46 102.67 192.74 102.82
  Q 192.63 102.83 192.63 102.94
  Q 192.63 103.08 192.54 103.22
  Q 192.51 103.27 192.45 103.29
  Q 189.76 103.99 187.14 104.98
  Q 186.74 105.12 186.40 105.38
  Q 185.73 105.88 184.95 105.90
  Q 184.45 105.92 183.99 106.10
  Q 180.66 107.42 177.44 108.97
  C 175.33 109.99 173.52 110.12 171.30 110.58
  Q 170.81 110.68 170.44 111.03
  Q 169.68 111.75 169.38 111.87
  C 165.51 113.43 161.74 115.66 158.08 116.98
  C 151.46 119.38 144.68 121.31 138.06 123.68
  Q 131.29 126.11 124.52 128.54
  C 122.78 129.16 120.94 129.40 119.11 129.80
  A 0.21 0.20 7.0 0 1 118.88 129.51
  Q 118.94 129.38 119.01 129.25
  Q 119.27 128.76 119.82 128.89
  Q 120.25 129.00 120.14 128.55
  Q 120.02 128.12 120.47 128.13
  Q 120.64 128.13 120.82 128.11
  Q 121.24 128.08 121.49 127.75
  Q 121.79 127.36 122.16 127.36
  Q 122.59 127.35 122.88 127.04
  Q 123.48 126.40 123.23 126.12
  L 459.32 6.30
  A 3.13 3.09 44.6 0 1 461.43 6.30
  L 842.02 141.99
  Q 842.76 142.25 842.67 143.03
  L 784.61 647.61
  A 1.71 1.69 79.1 0 1 783.74 648.91
  L 461.08 827.68
  A 1.72 1.54 -43.4 0 1 459.51 827.72
  L 137.47 649.30
  A 3.38 3.37 -78.9 0 1 135.75 646.73
  L 106.06 389.19
  Z"
/>
<path fill="#dd0032" d="
  M 460.16 96.50
  L 421.28 183.48
  Q 421.19 182.89 420.38 183.09
  A 1.14 1.13 -84.3 0 0 419.62 183.72
  Q 414.41 195.27 409.35 206.88
  C 407.83 210.36 405.62 214.35 403.99 218.18
  Q 402.83 220.90 401.40 223.50
  Q 401.14 223.98 401.11 224.51
  Q 401.08 224.97 400.85 225.37
  Q 399.62 227.52 399.09 229.92
  Q 398.99 230.33 398.73 230.65
  Q 397.60 232.00 397.59 233.82
  Q 397.59 234.32 397.16 234.58
  Q 396.26 235.14 396.46 236.17
  Q 396.54 236.59 396.31 236.96
  Q 395.76 237.86 396.41 239.13
  L 376.31 284.02
  Q 374.73 284.24 374.21 285.86
  Q 374.08 286.30 373.75 286.62
  C 373.40 286.97 373.16 287.18 372.95 287.66
  C 371.31 291.47 369.30 295.10 367.78 298.94
  C 364.39 307.54 360.82 316.18 356.96 324.58
  Q 355.02 328.81 353.19 333.08
  C 351.65 336.65 349.79 340.00 348.34 343.57
  C 347.38 345.96 345.96 348.14 344.93 350.54
  Q 343.16 354.67 342.56 355.85
  Q 336.40 367.92 334.36 373.74
  Q 332.90 377.91 331.41 380.35
  Q 331.15 380.78 331.14 381.28
  C 331.11 382.08 331.23 382.27 330.83 382.99
  Q 329.43 385.51 327.99 388.01
  C 326.98 389.78 327.43 391.59 326.43 393.46
  Q 324.71 396.64 323.03 400.75
  C 322.10 403.05 320.32 405.30 319.45 407.57
  C 317.06 413.76 313.48 420.99 311.43 425.67
  Q 308.07 433.32 304.64 440.92
  C 302.30 446.10 299.81 453.01 296.92 458.88
  C 295.55 461.66 294.54 464.68 293.17 467.57
  C 291.11 471.91 289.45 476.24 287.17 480.38
  C 285.45 483.49 284.47 487.00 282.77 490.20
  C 280.79 493.95 279.60 497.41 277.88 501.00
  Q 276.62 503.62 275.58 506.37
  Q 274.87 508.25 275.68 509.80
  L 260.08 544.79
  Q 259.40 544.46 258.86 545.04
  Q 258.49 545.44 258.46 545.98
  Q 258.44 546.41 258.11 546.40
  Q 257.69 546.39 257.52 546.78
  Q 250.48 563.37 245.88 572.63
  Q 243.93 576.58 244.59 579.71
  L 221.13 632.86
  Q 220.96 633.25 221.39 633.25
  L 309.43 633.29
  A 1.47 1.47 0.0 0 0 310.79 632.37
  L 312.14 628.99
  Q 312.03 629.70 312.59 629.97
  A 0.52 0.27 25.2 0 0 313.18 629.95
  L 317.27 620.33
  A 0.22 0.21 -86.3 0 1 317.40 620.21
  Q 318.15 619.87 317.88 618.90
  Q 317.73 618.34 318.08 617.88
  Q 321.36 613.53 322.43 608.15
  A 2.18 2.15 68.6 0 1 322.79 607.31
  Q 324.49 605.01 325.11 602.24
  Q 325.20 601.81 325.78 601.15
  Q 326.10 600.79 326.14 600.30
  Q 326.23 599.44 326.86 597.74
  Q 329.78 589.84 332.85 581.98
  Q 333.14 581.23 334.63 579.86
  A 1.49 1.48 72.2 0 0 335.08 578.98
  C 335.40 576.64 336.81 574.67 337.47 572.91
  C 338.73 569.53 339.77 566.83 341.65 563.14
  C 342.82 560.85 343.24 558.32 344.48 556.08
  C 345.47 554.31 345.61 552.56 346.50 550.69
  C 347.11 549.39 347.17 548.18 347.95 546.90
  Q 349.02 545.16 349.38 543.14
  C 349.68 541.44 350.27 540.79 351.19 539.51
  Q 351.47 539.11 351.54 538.63
  C 351.83 536.62 353.31 535.29 353.28 533.35
  Q 353.27 532.84 353.53 532.41
  Q 353.98 531.68 354.46 530.99
  C 355.43 529.58 355.58 527.89 356.47 526.37
  C 357.99 523.75 358.70 517.61 361.78 516.86
  Q 364.35 516.23 367.01 516.09
  Q 377.62 515.54 388.25 515.42
  Q 389.76 515.41 391.25 515.38
  Q 406.32 515.14 421.38 515.15
  C 427.38 515.15 433.68 515.65 439.84 515.94
  C 445.53 516.20 452.28 515.71 458.54 515.94
  A 1.25 1.24 81.4 0 1 459.67 516.78
  C 460.21 518.32 460.61 519.73 460.61 521.44
  Q 460.64 537.60 460.63 553.75
  Q 460.54 687.63 460.44 821.94
  Q 460.44 823.83 458.69 823.13
  C 455.57 821.88 452.64 819.64 449.56 818.27
  Q 443.98 815.80 438.64 812.84
  C 437.44 812.17 436.41 811.05 435.05 810.41
  Q 432.30 809.11 429.57 807.80
  C 427.16 806.65 424.87 804.74 422.35 803.42
  C 420.11 802.23 417.72 800.40 415.06 799.45
  C 413.50 798.89 412.31 797.88 411.11 797.41
  Q 405.25 795.12 401.05 792.06
  C 399.85 791.18 398.55 791.11 397.52 790.48
  Q 390.80 786.38 387.52 784.65
  C 378.60 779.93 370.02 774.68 361.12 769.94
  C 358.16 768.37 355.97 766.20 352.90 764.94
  Q 348.75 763.26 344.98 760.91
  Q 341.06 758.47 337.94 756.93
  Q 334.30 755.13 330.85 752.98
  C 329.52 752.15 327.83 751.46 326.39 750.54
  Q 325.99 750.29 325.51 750.20
  C 324.49 750.00 323.55 749.96 322.69 749.25
  Q 320.65 747.59 318.08 746.84
  Q 317.61 746.71 317.46 746.24
  Q 317.31 745.78 317.12 745.63
  C 315.46 744.42 313.24 743.14 310.83 742.17
  C 305.62 740.06 300.33 736.85 295.35 734.18
  Q 294.73 733.85 290.87 731.24
  C 288.80 729.85 286.48 729.24 284.50 727.89
  Q 279.07 724.20 276.25 723.00
  C 272.54 721.42 270.97 719.28 266.98 717.49
  Q 264.28 716.27 262.22 715.08
  Q 255.86 711.37 249.30 707.99
  C 244.61 705.57 239.76 702.52 234.85 699.99
  C 232.10 698.58 229.09 696.47 226.07 694.90
  Q 224.32 693.99 222.61 692.81
  Q 219.43 690.60 215.90 689.03
  Q 211.96 687.28 209.50 685.74
  Q 207.46 684.47 205.36 683.28
  Q 203.57 682.27 201.00 681.28
  Q 194.85 678.91 192.77 677.22
  C 191.14 675.88 189.75 675.59 188.51 674.85
  Q 185.10 672.79 181.55 671.00
  Q 181.12 670.78 180.80 670.40
  Q 180.00 669.45 178.75 669.33
  Q 178.26 669.29 177.89 668.97
  Q 173.81 665.45 169.01 663.12
  Q 163.13 660.27 161.29 659.20
  Q 156.65 656.49 151.83 654.11
  C 148.49 652.46 145.50 650.45 142.35 648.54
  Q 140.18 647.23 139.27 645.57
  Q 137.73 642.73 137.58 639.50
  Q 137.34 634.18 137.32 634.05
  Q 136.89 630.71 136.63 627.38
  C 136.57 626.58 136.88 625.59 136.29 624.70
  A 1.20 1.17 30.2 0 1 136.09 623.98
  C 136.26 620.73 136.19 618.20 135.06 614.97
  Q 134.43 613.17 133.88 611.34
  C 132.61 607.13 134.21 602.65 132.96 598.54
  C 132.17 595.95 132.94 593.06 132.42 590.39
  Q 131.94 587.95 132.01 586.04
  Q 132.10 583.75 131.84 581.47
  Q 131.83 581.40 131.78 581.45
  Q 131.70 581.53 131.53 581.53
  Q 131.40 581.53 131.40 581.41
  C 131.34 579.96 130.47 579.08 130.18 577.99
  Q 128.58 572.17 127.90 566.15
  Q 127.89 566.12 127.87 566.14
  Q 127.77 566.27 127.64 566.27
  Q 127.52 566.28 127.50 566.16
  Q 126.46 560.70 127.35 558.38
  Q 128.68 554.86 128.21 553.01
  C 127.66 550.88 128.47 547.41 127.14 545.87
  Q 126.83 545.51 126.77 545.03
  C 126.55 543.36 126.96 541.17 126.37 539.65
  C 126.08 538.89 125.64 538.22 125.63 537.39
  C 125.60 534.10 125.79 531.31 125.13 527.91
  C 124.39 524.06 124.49 519.79 124.13 516.39
  C 123.84 513.68 124.02 510.99 122.64 508.51
  C 121.15 505.83 121.07 501.62 120.60 498.58
  C 120.01 494.84 120.32 490.37 119.30 486.19
  C 118.54 483.03 119.52 480.26 118.65 476.99
  Q 117.88 474.07 117.88 472.40
  C 117.88 469.33 118.62 462.00 117.13 459.58
  Q 116.89 459.18 116.89 458.71
  C 116.90 455.40 115.93 452.42 115.91 449.17
  C 115.90 447.53 116.06 444.74 114.79 443.50
  Q 114.45 443.17 114.45 442.70
  Q 114.46 440.47 113.37 438.48
  A 1.93 1.91 33.4 0 1 113.15 437.44
  Q 113.44 433.25 113.38 429.04
  Q 113.37 428.56 113.18 428.26
  Q 113.06 428.06 112.90 427.88
  Q 112.64 427.60 112.59 427.23
  L 111.98 422.90
  Q 111.94 422.62 111.67 422.51
  L 111.37 422.38
  Q 111.35 422.37 111.34 422.34
  C 111.02 419.37 111.43 416.43 111.00 413.63
  Q 110.61 411.12 110.25 408.59
  Q 110.22 408.38 110.01 408.32
  Q 109.75 408.26 109.72 407.99
  Q 109.20 403.64 109.15 399.25
  C 109.13 397.59 108.32 396.08 108.07 394.37
  Q 107.85 392.79 107.30 391.71
  Q 106.68 390.49 106.06 389.19
  L 77.86 143.22
  A 1.31 1.30 -13.2 0 1 78.72 141.84
  L 123.23 126.12
  Q 123.48 126.40 122.88 127.04
  Q 122.59 127.35 122.16 127.36
  Q 121.79 127.36 121.49 127.75
  Q 121.24 128.08 120.82 128.11
  Q 120.64 128.13 120.47 128.13
  Q 120.02 128.12 120.14 128.55
  Q 120.25 129.00 119.82 128.89
  Q 119.27 128.76 119.01 129.25
  Q 118.94 129.38 118.88 129.51
  A 0.21 0.20 7.0 0 0 119.11 129.80
  C 120.94 129.40 122.78 129.16 124.52 128.54
  Q 131.29 126.11 138.06 123.68
  C 144.68 121.31 151.46 119.38 158.08 116.98
  C 161.74 115.66 165.51 113.43 169.38 111.87
  Q 169.68 111.75 170.44 111.03
  Q 170.81 110.68 171.30 110.58
  C 173.52 110.12 175.33 109.99 177.44 108.97
  Q 180.66 107.42 183.99 106.10
  Q 184.45 105.92 184.95 105.90
  Q 185.73 105.88 186.40 105.38
  Q 186.74 105.12 187.14 104.98
  Q 189.76 103.99 192.45 103.29
  Q 192.51 103.27 192.54 103.22
  Q 192.63 103.08 192.63 102.94
  Q 192.63 102.83 192.74 102.82
  Q 194.46 102.67 196.02 102.01
  C 199.22 100.64 202.43 99.56 205.70 98.37
  Q 205.73 98.36 208.38 97.70
  C 210.41 97.20 211.87 96.23 214.33 95.65
  C 216.62 95.10 218.48 93.89 220.77 93.18
  C 222.75 92.57 224.49 91.66 226.43 91.04
  Q 226.89 90.89 227.26 90.58
  C 228.12 89.87 229.13 89.90 229.89 89.65
  Q 233.43 88.48 236.25 88.19
  Q 237.00 88.11 237.50 87.80
  Q 237.80 87.60 238.16 87.54
  Q 242.22 86.88 245.76 84.78
  A 0.97 0.92 30.2 0 1 246.31 84.65
  Q 248.20 84.79 249.66 83.69
  Q 250.06 83.39 250.54 83.31
  Q 251.79 83.08 252.80 82.38
  C 254.59 81.13 255.95 80.89 257.90 80.52
  Q 258.40 80.42 258.71 80.03
  L 259.17 79.45
  Q 259.49 79.04 260.01 79.12
  Q 260.98 79.26 261.76 78.71
  Q 262.13 78.44 262.59 78.37
  C 264.90 78.02 266.78 76.70 268.84 76.32
  Q 270.59 76.00 272.35 75.73
  Q 272.84 75.65 273.18 75.29
  Q 273.48 74.98 273.75 74.88
  Q 275.31 74.35 277.32 74.08
  C 280.61 73.63 283.64 72.01 286.85 71.17
  Q 289.60 70.44 292.47 69.19
  C 294.95 68.10 297.69 67.37 300.00 66.41
  Q 309.17 62.57 318.61 59.48
  Q 320.86 58.74 324.27 57.29
  C 328.11 55.64 332.23 54.68 335.83 52.98
  Q 338.83 51.57 341.84 50.21
  A 1.02 1.00 35.5 0 1 342.41 50.12
  Q 342.81 50.17 343.19 50.08
  Q 343.49 50.01 343.80 49.76
  Q 346.24 47.79 349.48 47.41
  Q 350.02 47.35 350.42 46.97
  Q 351.48 45.96 353.01 45.89
  Q 353.49 45.86 353.87 45.57
  C 354.77 44.87 355.78 44.98 356.68 44.59
  Q 358.84 43.67 361.09 43.02
  C 363.21 42.41 364.97 40.84 367.60 40.83
  Q 368.08 40.82 368.28 40.39
  Q 368.55 39.83 369.28 39.86
  Q 369.79 39.88 370.25 39.70
  Q 371.72 39.14 373.22 38.63
  Q 373.57 38.51 373.72 38.29
  Q 373.80 38.17 373.84 38.03
  Q 373.91 37.81 374.11 37.68
  Q 376.14 36.34 378.56 36.37
  Q 379.05 36.38 379.29 35.95
  Q 379.60 35.40 380.15 35.16
  Q 380.35 35.08 380.41 35.26
  A 0.23 0.21 76.6 0 0 380.64 35.41
  Q 386.65 34.43 390.13 32.80
  Q 393.06 31.44 395.00 30.95
  Q 395.47 30.83 395.83 30.49
  Q 396.54 29.83 397.52 29.85
  Q 398.02 29.86 398.47 29.64
  C 401.03 28.39 403.62 27.95 406.32 26.69
  C 408.87 25.51 411.74 24.99 414.40 23.87
  C 416.79 22.87 419.22 22.92 421.74 22.29
  A 1.49 1.47 -77.1 0 0 422.52 21.79
  C 423.91 20.07 426.69 20.31 428.70 20.09
  Q 430.94 19.83 433.11 19.00
  C 440.61 16.11 448.37 13.75 455.74 10.57
  C 456.88 10.08 457.87 10.41 458.87 10.16
  Q 460.20 9.82 460.22 11.20
  Q 460.66 39.12 460.23 66.00
  C 460.11 73.03 460.54 80.66 460.54 88.00
  Q 460.54 91.87 459.31 95.51
  A 0.68 0.67 26.6 0 0 459.57 96.28
  Q 459.81 96.45 460.16 96.50
  Z"
/>
<path fill="#ffffff" d="
  M 460.16 96.50
  L 698.72 632.98
  A 0.23 0.23 0.0 0 1 698.51 633.30
  L 610.17 633.31
  Q 609.25 633.31 608.90 632.46
  L 561.56 513.99
  A 1.14 1.13 -11.2 0 0 560.51 513.29
  L 358.99 513.22
  A 0.87 0.85 -78.7 0 0 358.20 513.76
  L 312.14 628.99
  L 310.79 632.37
  A 1.47 1.47 0.0 0 1 309.43 633.29
  L 221.39 633.25
  Q 220.96 633.25 221.13 632.86
  L 244.59 579.71
  L 260.08 544.79
  L 275.68 509.80
  L 376.31 284.02
  L 396.41 239.13
  L 421.28 183.48
  L 460.16 96.50
  Z
  M 432.80 438.70
  L 459.96 438.75
  L 529.24 439.05
  A 0.46 0.45 79.2 0 0 529.66 438.42
  L 460.65 272.38
  A 0.69 0.69 0.0 0 0 459.38 272.39
  C 459.03 273.24 458.96 274.33 458.59 275.20
  C 437.43 325.46 416.65 375.90 395.86 426.31
  Q 393.34 432.42 390.83 438.43
  Q 390.57 439.05 391.24 439.05
  L 432.80 438.70
  Z"
/>
<path fill="#c70030" d="
  M 421.28 183.48
  L 396.41 239.13
  Q 395.76 237.86 396.31 236.96
  Q 396.54 236.59 396.46 236.17
  Q 396.26 235.14 397.16 234.58
  Q 397.59 234.32 397.59 233.82
  Q 397.60 232.00 398.73 230.65
  Q 398.99 230.33 399.09 229.92
  Q 399.62 227.52 400.85 225.37
  Q 401.08 224.97 401.11 224.51
  Q 401.14 223.98 401.40 223.50
  Q 402.83 220.90 403.99 218.18
  C 405.62 214.35 407.83 210.36 409.35 206.88
  Q 414.41 195.27 419.62 183.72
  A 1.14 1.13 -84.3 0 1 420.38 183.09
  Q 421.19 182.89 421.28 183.48
  Z"
/>
<path fill="#c70030" d="
  M 459.96 438.75
  Q 460.08 438.13 460.72 438.12
  Q 460.84 438.12 460.88 438.00
  Q 460.94 437.81 460.75 437.87
  A 0.22 0.21 11.2 0 1 460.52 437.53
  Q 461.82 435.98 460.62 434.33
  Q 460.33 433.92 460.34 433.42
  C 460.60 419.69 460.29 404.75 460.39 392.26
  C 460.56 369.68 460.45 347.08 460.29 324.50
  Q 460.18 309.19 460.33 293.89
  C 460.36 291.17 459.86 287.29 462.15 285.27
  Q 462.53 284.94 462.40 284.45
  Q 461.53 281.31 460.77 278.15
  Q 460.78 278.14 460.77 278.13
  Q 460.68 278.09 460.70 278.14
  Q 461.18 279.72 460.03 280.61
  Q 459.68 280.88 459.52 281.29
  L 457.90 285.38
  Q 457.69 285.92 457.24 286.30
  Q 455.79 287.52 455.85 289.39
  Q 455.87 289.96 455.53 290.42
  Q 454.39 291.94 453.84 293.77
  Q 453.71 294.18 453.51 294.56
  Q 453.15 295.23 453.12 296.00
  Q 453.10 296.45 452.83 296.81
  Q 452.02 297.90 451.42 299.51
  Q 449.44 304.72 446.16 311.52
  Q 445.61 312.66 445.03 315.25
  C 444.78 316.38 444.07 316.97 443.79 318.11
  C 443.07 321.06 441.29 323.16 440.69 326.14
  C 440.16 328.75 438.03 330.08 437.37 332.59
  Q 436.73 335.06 436.62 335.37
  Q 436.14 336.75 435.80 338.16
  Q 435.30 340.22 434.24 342.05
  C 433.25 343.76 432.91 345.53 431.92 347.23
  C 430.91 348.96 430.94 350.67 429.40 352.23
  Q 429.04 352.59 429.12 353.20
  Q 429.20 353.70 428.88 354.11
  Q 426.96 356.57 426.75 359.74
  Q 426.73 360.05 426.43 360.15
  Q 426.20 360.22 426.14 360.50
  Q 425.40 363.82 423.76 366.76
  C 423.21 367.75 423.26 368.87 422.67 369.89
  C 421.43 372.00 419.91 374.51 419.29 376.89
  Q 418.44 380.17 416.88 383.19
  C 415.97 384.96 415.61 386.82 414.65 388.63
  Q 413.54 390.71 413.01 392.64
  C 412.16 395.71 410.28 398.64 409.29 401.09
  Q 406.90 407.01 404.36 412.87
  C 403.39 415.11 402.99 418.12 401.41 420.57
  Q 399.62 423.33 399.09 424.76
  Q 397.30 429.57 395.29 434.67
  A 1.65 1.64 -84.8 0 0 397.14 436.89
  L 398.43 436.63
  Q 398.92 436.54 399.42 436.58
  L 416.17 438.00
  Q 416.61 438.04 417.00 437.82
  C 418.41 437.01 422.60 437.32 424.42 437.24
  Q 426.13 437.16 428.44 437.91
  Q 430.51 438.58 432.80 438.70
  L 391.24 439.05
  Q 390.57 439.05 390.83 438.43
  Q 393.34 432.42 395.86 426.31
  C 416.65 375.90 437.43 325.46 458.59 275.20
  C 458.96 274.33 459.03 273.24 459.38 272.39
  A 0.69 0.69 0.0 0 1 460.65 272.38
  L 529.66 438.42
  A 0.46 0.45 79.2 0 1 529.24 439.05
  L 459.96 438.75
  Z"
/>
<path fill="#dd0032" d="
  M 459.96 438.75
  L 432.80 438.70
  Q 430.51 438.58 428.44 437.91
  Q 426.13 437.16 424.42 437.24
  C 422.60 437.32 418.41 437.01 417.00 437.82
  Q 416.61 438.04 416.17 438.00
  L 399.42 436.58
  Q 398.92 436.54 398.43 436.63
  L 397.14 436.89
  A 1.65 1.64 -84.8 0 1 395.29 434.67
  Q 397.30 429.57 399.09 424.76
  Q 399.62 423.33 401.41 420.57
  C 402.99 418.12 403.39 415.11 404.36 412.87
  Q 406.90 407.01 409.29 401.09
  C 410.28 398.64 412.16 395.71 413.01 392.64
  Q 413.54 390.71 414.65 388.63
  C 415.61 386.82 415.97 384.96 416.88 383.19
  Q 418.44 380.17 419.29 376.89
  C 419.91 374.51 421.43 372.00 422.67 369.89
  C 423.26 368.87 423.21 367.75 423.76 366.76
  Q 425.40 363.82 426.14 360.50
  Q 426.20 360.22 426.43 360.15
  Q 426.73 360.05 426.75 359.74
  Q 426.96 356.57 428.88 354.11
  Q 429.20 353.70 429.12 353.20
  Q 429.04 352.59 429.40 352.23
  C 430.94 350.67 430.91 348.96 431.92 347.23
  C 432.91 345.53 433.25 343.76 434.24 342.05
  Q 435.30 340.22 435.80 338.16
  Q 436.14 336.75 436.62 335.37
  Q 436.73 335.06 437.37 332.59
  C 438.03 330.08 440.16 328.75 440.69 326.14
  C 441.29 323.16 443.07 321.06 443.79 318.11
  C 444.07 316.97 444.78 316.38 445.03 315.25
  Q 445.61 312.66 446.16 311.52
  Q 449.44 304.72 451.42 299.51
  Q 452.02 297.90 452.83 296.81
  Q 453.10 296.45 453.12 296.00
  Q 453.15 295.23 453.51 294.56
  Q 453.71 294.18 453.84 293.77
  Q 454.39 291.94 455.53 290.42
  Q 455.87 289.96 455.85 289.39
  Q 455.79 287.52 457.24 286.30
  Q 457.69 285.92 457.90 285.38
  L 459.52 281.29
  Q 459.68 280.88 460.03 280.61
  Q 461.18 279.72 460.70 278.14
  Q 460.68 278.09 460.77 278.13
  Q 460.78 278.14 460.77 278.15
  Q 461.53 281.31 462.40 284.45
  Q 462.53 284.94 462.15 285.27
  C 459.86 287.29 460.36 291.17 460.33 293.89
  Q 460.18 309.19 460.29 324.50
  C 460.45 347.08 460.56 369.68 460.39 392.26
  C 460.29 404.75 460.60 419.69 460.34 433.42
  Q 460.33 433.92 460.62 434.33
  Q 461.82 435.98 460.52 437.53
  A 0.22 0.21 11.2 0 0 460.75 437.87
  Q 460.94 437.81 460.88 438.00
  Q 460.84 438.12 460.72 438.12
  Q 460.08 438.13 459.96 438.75
  Z"
/>
<path fill="#c70030" d="
  M 376.31 284.02
  L 275.68 509.80
  Q 274.87 508.25 275.58 506.37
  Q 276.62 503.62 277.88 501.00
  C 279.60 497.41 280.79 493.95 282.77 490.20
  C 284.47 487.00 285.45 483.49 287.17 480.38
  C 289.45 476.24 291.11 471.91 293.17 467.57
  C 294.54 464.68 295.55 461.66 296.92 458.88
  C 299.81 453.01 302.30 446.10 304.64 440.92
  Q 308.07 433.32 311.43 425.67
  C 313.48 420.99 317.06 413.76 319.45 407.57
  C 320.32 405.30 322.10 403.05 323.03 400.75
  Q 324.71 396.64 326.43 393.46
  C 327.43 391.59 326.98 389.78 327.99 388.01
  Q 329.43 385.51 330.83 382.99
  C 331.23 382.27 331.11 382.08 331.14 381.28
  Q 331.15 380.78 331.41 380.35
  Q 332.90 377.91 334.36 373.74
  Q 336.40 367.92 342.56 355.85
  Q 343.16 354.67 344.93 350.54
  C 345.96 348.14 347.38 345.96 348.34 343.57
  C 349.79 340.00 351.65 336.65 353.19 333.08
  Q 355.02 328.81 356.96 324.58
  C 360.82 316.18 364.39 307.54 367.78 298.94
  C 369.30 295.10 371.31 291.47 372.95 287.66
  C 373.16 287.18 373.40 286.97 373.75 286.62
  Q 374.08 286.30 374.21 285.86
  Q 374.73 284.24 376.31 284.02
  Z"
/>
<path fill="#c70030" d="
  M 260.08 544.79
  L 244.59 579.71
  Q 243.93 576.58 245.88 572.63
  Q 250.48 563.37 257.52 546.78
  Q 257.69 546.39 258.11 546.40
  Q 258.44 546.41 258.46 545.98
  Q 258.49 545.44 258.86 545.04
  Q 259.40 544.46 260.08 544.79
  Z"
/>
</svg>
