<?xml version="1.0" encoding="UTF-8" standalone="no"?>
<!DOCTYPE svg PUBLIC "-//W3C//DTD SVG 1.1//EN" "http://www.w3.org/Graphics/SVG/1.1/DTD/svg11.dtd">
<svg xmlns="http://www.w3.org/2000/svg" version="1.1" viewBox="0.00 0.00 1300.00 1300.00">
<g stroke-width="2.00" fill="none" stroke-linecap="butt">
<path stroke="#e5959c" vector-effect="non-scaling-stroke" d="
  M 651.98 156.58
  L 184.60 323.08
  A 1.15 1.03 78.0 0 0 183.92 324.26
  L 255.28 943.23
  A 1.64 1.61 11.5 0 0 256.12 944.48
  Q 453.54 1053.83 652.49 1163.97
  Q 653.16 1164.34 654.21 1163.82"
/>
<path stroke="#d9929a" vector-effect="non-scaling-stroke" d="
  M 654.21 1163.82
  L 1049.34 945.01
  Q 1050.96 944.11 1051.18 942.27
  L 1122.37 324.56
  Q 1122.51 323.34 1121.36 322.93
  Q 887.93 239.70 653.75 156.27
  Q 653.07 156.02 651.98 156.58"
/>
<path stroke="#bf2837" vector-effect="non-scaling-stroke" d="
  M 654.21 1163.82
  Q 653.21 1162.91 653.21 1160.50
  Q 653.05 977.12 653.17 782.21
  A 3.46 2.34 20.4 0 0 651.40 779.74
  Q 650.89 779.44 650.90 778.96
  Q 650.90 778.24 651.61 778.17
  L 652.96 778.05"
/>
<path stroke="#d9929a" vector-effect="non-scaling-stroke" d="
  M 652.96 778.05
  L 776.20 778.17
  A 1.34 1.33 78.8 0 1 777.43 779.00
  L 835.81 924.67
  A 1.13 1.13 0.0 0 0 836.86 925.39
  L 944.93 925.39
  A 0.37 0.36 -11.9 0 0 945.27 924.88
  L 653.37 267.73"
/>
<path stroke="#bf2837" vector-effect="non-scaling-stroke" d="
  M 653.37 267.73
  L 653.36 159.11
  Q 653.36 158.58 652.97 158.21
  Q 652.17 157.44 651.98 156.58"
/>
<path stroke="#e5959c" vector-effect="non-scaling-stroke" d="
  M 653.37 267.73
  Q 652.89 267.63 652.50 268.51
  Q 506.73 595.36 360.15 924.08
  Q 359.59 925.34 360.97 925.34
  L 468.31 925.34
  A 1.21 1.19 10.7 0 0 469.43 924.59
  L 527.96 778.55
  Q 528.17 778.04 528.72 778.04
  L 652.96 778.05"
/>
<path stroke="#e5959c" vector-effect="non-scaling-stroke" d="
  M 651.12 486.24
  L 567.81 686.54
  Q 567.47 687.36 568.35 687.36
  L 653.00 687.36
  Q 653.24 687.36 653.45 687.25
  Q 653.77 687.09 653.71 687.32"
/>
<path stroke="#d9929a" vector-effect="non-scaling-stroke" d="
  M 653.71 687.32
  L 738.19 687.28
  A 0.37 0.37 0.0 0 0 738.53 686.76
  Q 695.94 584.33 653.62 482.63
  Q 653.47 482.26 653.08 482.15
  A 0.58 0.57 -72.4 0 0 652.38 482.52
  L 651.12 486.24"
/>
<path stroke="#bf2837" vector-effect="non-scaling-stroke" d="
  M 653.71 687.32
  Q 653.67 687.11 653.59 687.04
  Q 653.48 686.95 653.47 686.81
  Q 653.15 681.91 653.15 668.25
  Q 653.19 576.02 653.15 494.81
  Q 653.15 492.81 653.34 490.76
  Q 653.51 488.81 653.38 486.69
  Q 653.34 486.03 652.75 486.33
  Q 651.12 487.16 651.12 486.24"
/>
</g>
<path fill="#ffffff" d="
  M 0.00 0.00
  L 1300.00 0.00
  L 1300.00 1300.00
  L 0.00 1300.00
  L 0.00 0.00
  Z
  M 651.98 156.58
  L 184.60 323.08
  A 1.15 1.03 78.0 0 0 183.92 324.26
  L 255.28 943.23
  A 1.64 1.61 11.5 0 0 256.12 944.48
  Q 453.54 1053.83 652.49 1163.97
  Q 653.16 1164.34 654.21 1163.82
  L 1049.34 945.01
  Q 1050.96 944.11 1051.18 942.27
  L 1122.37 324.56
  Q 1122.51 323.34 1121.36 322.93
  Q 887.93 239.70 653.75 156.27
  Q 653.07 156.02 651.98 156.58
  Z"
/>
<path fill="#b32535" d="
  M 654.21 1163.82
  Q 653.21 1162.91 653.21 1160.50
  Q 653.05 977.12 653.17 782.21
  A 3.46 2.34 20.4 0 0 651.40 779.74
  Q 650.89 779.44 650.90 778.96
  Q 650.90 778.24 651.61 778.17
  L 652.96 778.05
  L 776.20 778.17
  A 1.34 1.33 78.8 0 1 777.43 779.00
  L 835.81 924.67
  A 1.13 1.13 0.0 0 0 836.86 925.39
  L 944.93 925.39
  A 0.37 0.36 -11.9 0 0 945.27 924.88
  L 653.37 267.73
  L 653.36 159.11
  Q 653.36 158.58 652.97 158.21
  Q 652.17 157.44 651.98 156.58
  Q 653.07 156.02 653.75 156.27
  Q 887.93 239.70 1121.36 322.93
  Q 1122.51 323.34 1122.37 324.56
  L 1051.18 942.27
  Q 1050.96 944.11 1049.34 945.01
  L 654.21 1163.82
  Z"
/>
<path fill="#cb2a39" d="
  M 651.98 156.58
  Q 652.17 157.44 652.97 158.21
  Q 653.36 158.58 653.36 159.11
  L 653.37 267.73
  Q 652.89 267.63 652.50 268.51
  Q 506.73 595.36 360.15 924.08
  Q 359.59 925.34 360.97 925.34
  L 468.31 925.34
  A 1.21 1.19 10.7 0 0 469.43 924.59
  L 527.96 778.55
  Q 528.17 778.04 528.72 778.04
  L 652.96 778.05
  L 651.61 778.17
  Q 650.90 778.24 650.90 778.96
  Q 650.89 779.44 651.40 779.74
  A 3.46 2.34 20.4 0 1 653.17 782.21
  Q 653.05 977.12 653.21 1160.50
  Q 653.21 1162.91 654.21 1163.82
  Q 653.16 1164.34 652.49 1163.97
  Q 453.54 1053.83 256.12 944.48
  A 1.64 1.61 11.5 0 1 255.28 943.23
  L 183.92 324.26
  A 1.15 1.03 78.0 0 1 184.60 323.08
  L 651.98 156.58
  Z"
/>
<path fill="#ffffff" d="
  M 653.37 267.73
  L 945.27 924.88
  A 0.37 0.36 -11.9 0 1 944.93 925.39
  L 836.86 925.39
  A 1.13 1.13 0.0 0 1 835.81 924.67
  L 777.43 779.00
  A 1.34 1.33 78.8 0 0 776.20 778.17
  L 652.96 778.05
  L 528.72 778.04
  Q 528.17 778.04 527.96 778.55
  L 469.43 924.59
  A 1.21 1.19 10.7 0 1 468.31 925.34
  L 360.97 925.34
  Q 359.59 925.34 360.15 924.08
  Q 506.73 595.36 652.50 268.51
  Q 652.89 267.63 653.37 267.73
  Z
  M 651.12 486.24
  L 567.81 686.54
  Q 567.47 687.36 568.35 687.36
  L 653.00 687.36
  Q 653.24 687.36 653.45 687.25
  Q 653.77 687.09 653.71 687.32
  L 738.19 687.28
  A 0.37 0.37 0.0 0 0 738.53 686.76
  Q 695.94 584.33 653.62 482.63
  Q 653.47 482.26 653.08 482.15
  A 0.58 0.57 -72.4 0 0 652.38 482.52
  L 651.12 486.24
  Z"
/>
<path fill="#b32535" d="
  M 653.71 687.32
  Q 653.67 687.11 653.59 687.04
  Q 653.48 686.95 653.47 686.81
  Q 653.15 681.91 653.15 668.25
  Q 653.19 576.02 653.15 494.81
  Q 653.15 492.81 653.34 490.76
  Q 653.51 488.81 653.38 486.69
  Q 653.34 486.03 652.75 486.33
  Q 651.12 487.16 651.12 486.24
  L 652.38 482.52
  A 0.58 0.57 -72.4 0 1 653.08 482.15
  Q 653.47 482.26 653.62 482.63
  Q 695.94 584.33 738.53 686.76
  A 0.37 0.37 0.0 0 1 738.19 687.28
  L 653.71 687.32
  Z"
/>
<path fill="#cb2a39" d="
  M 653.71 687.32
  Q 653.77 687.09 653.45 687.25
  Q 653.24 687.36 653.00 687.36
  L 568.35 687.36
  Q 567.47 687.36 567.81 686.54
  L 651.12 486.24
  Q 651.12 487.16 652.75 486.33
  Q 653.34 486.03 653.38 486.69
  Q 653.51 488.81 653.34 490.76
  Q 653.15 492.81 653.15 494.81
  Q 653.19 576.02 653.15 668.25
  Q 653.15 681.91 653.47 686.81
  Q 653.48 686.95 653.59 687.04
  Q 653.67 687.11 653.71 687.32
  Z"
/>
</svg>
