<svg xmlns="http://www.w3.org/2000/svg" xmlns:v="https://vecta.io/nano" viewBox="0 0 1300 1300"><g fill="none" stroke-width="2"><path stroke="#e5959c" vector-effect="non-scaling-stroke" d="M651.98 156.58L184.6 323.08a1.15 1.03 78 0 0-.68 1.18l71.36 618.97a1.64 1.61 11.5 0 0 .84 1.25q197.42 109.35 396.37 219.49.67.37 1.72-.15" fill="#000000"/><path stroke="#d9929a" vector-effect="non-scaling-stroke" d="M654.21 1163.82l395.13-218.81q1.62-.9 1.84-2.74l71.19-617.71q.14-1.22-1.01-1.63-233.43-83.23-467.61-166.66-.68-.25-1.77.31" fill="#000000"/><path stroke="#bf2837" vector-effect="non-scaling-stroke" d="M654.21 1163.82q-1-.91-1-3.32-.16-183.38-.04-378.29a3.46 2.34 20.4 0 0-1.77-2.47q-.51-.3-.5-.78 0-.72.71-.79l1.35-.12" fill="#000000"/><path stroke="#d9929a" vector-effect="non-scaling-stroke" d="M652.96 778.05l123.24.12a1.34 1.33 78.8 0 1 1.23.83l58.38 145.67a1.13 1.13 0 0 0 1.05.72h108.07a.37.36-11.9 0 0 .34-.51l-291.9-657.15" fill="#000000"/><path stroke="#bf2837" vector-effect="non-scaling-stroke" d="M653.37 267.73l-.01-108.62q0-.53-.39-.9-.8-.77-.99-1.63" fill="#000000"/><path vector-effect="non-scaling-stroke" d="M653.37 267.73q-.48-.1-.87.78-145.77 326.85-292.35 655.57-.56 1.26.82 1.26h107.34a1.21 1.19 10.7 0 0 1.12-.75l58.53-146.04q.21-.51.76-.51l124.24.01m-1.84-291.81l-83.31 200.3q-.34.82.54.82H653q.24 0 .45-.11.32-.16.26.07" stroke="#e5959c" fill="#000000"/><path stroke="#d9929a" vector-effect="non-scaling-stroke" d="M653.71 687.32l84.48-.04a.37.37 0 0 0 .34-.52q-42.59-102.43-84.91-204.13-.15-.37-.54-.48a.58.57-72.4 0 0-.7.37l-1.26 3.72" fill="#000000"/><path stroke="#bf2837" vector-effect="non-scaling-stroke" d="M653.71 687.32q-.04-.21-.12-.28-.11-.09-.12-.23-.32-4.9-.32-18.56.04-92.23 0-173.44 0-2 .19-4.05.17-1.95.04-4.07-.04-.66-.63-.36-1.63.83-1.63-.09" fill="#000000"/></g><path fill="#fff" d="M0 0h1300v1300H0V0zm651.98 156.58L184.6 323.08a1.15 1.03 78 0 0-.68 1.18l71.36 618.97a1.64 1.61 11.5 0 0 .84 1.25q197.42 109.35 396.37 219.49.67.37 1.72-.15l395.13-218.81q1.62-.9 1.84-2.74l71.19-617.71q.14-1.22-1.01-1.63-233.43-83.23-467.61-166.66-.68-.25-1.77.31z"/><path fill="#c51436" d="M654.21 1163.82q-1-.91-1-3.32-.16-183.38-.04-378.29a3.46 2.34 20.4 0 0-1.77-2.47q-.51-.3-.5-.78 0-.72.71-.79l1.35-.12 123.24.12a1.34 1.33 78.8 0 1 1.23.83l58.38 145.67a1.13 1.13 0 0 0 1.05.72h108.07a.37.36-11.9 0 0 .34-.51l-291.9-657.15-.01-108.62q0-.53-.39-.9-.8-.77-.99-1.63 1.09-.56 1.77-.31 234.18 83.43 467.61 166.66 1.15.41 1.01 1.63l-71.19 617.71q-.22 1.84-1.84 2.74l-395.13 218.81z"/><path fill="#de1639" d="M651.98 156.58q.19.86.99 1.63.39.37.39.9l.01 108.62q-.48-.1-.87.78-145.77 326.85-292.35 655.57-.56 1.26.82 1.26h107.34a1.21 1.19 10.7 0 0 1.12-.75l58.53-146.04q.21-.51.76-.51l124.24.01-1.35.12q-.71.07-.71.79-.01.48.5.78a3.46 2.34 20.4 0 1 1.77 2.47q-.12 194.91.04 378.29 0 2.41 1 3.32-1.05.52-1.72.15-198.95-110.14-396.37-219.49a1.64 1.61 11.5 0 1-.84-1.25l-71.36-618.97a1.15 1.03 78 0 1 .68-1.18l467.38-166.5z"/><path fill="#fff" d="M653.37 267.73l291.9 657.15a.37.36-11.9 0 1-.34.51H836.86a1.13 1.13 0 0 1-1.05-.72L777.43 779a1.34 1.33 78.8 0 0-1.23-.83l-123.24-.12-124.24-.01q-.55 0-.76.51l-58.53 146.04a1.21 1.19 10.7 0 1-1.12.75H360.97q-1.38 0-.82-1.26Q506.73 595.36 652.5 268.51q.39-.88.87-.78zm-2.25 218.51l-83.31 200.3q-.34.82.54.82H653q.24 0 .45-.11.32-.16.26.07l84.48-.04a.37.37 0 0 0 .34-.52q-42.59-102.43-84.91-204.13-.15-.37-.54-.48a.58.57-72.4 0 0-.7.37l-1.26 3.72z"/><path fill="#c51436" d="M653.71 687.32q-.04-.21-.12-.28-.11-.09-.12-.23-.32-4.9-.32-18.56.04-92.23 0-173.44 0-2 .19-4.05.17-1.95.04-4.07-.04-.66-.63-.36-1.63.83-1.63-.09l1.26-3.72a.58.57-72.4 0 1 .7-.37q.39.11.54.48 42.32 101.7 84.91 204.13a.37.37 0 0 1-.34.52l-84.48.04z"/><path fill="#de1639" d="M653.71 687.32q.06-.23-.26-.07-.21.11-.45.11h-84.65q-.88 0-.54-.82l83.31-200.3q0 .92 1.63.09.59-.3.63.36.13 2.12-.04 4.07-.19 2.05-.19 4.05.04 81.21 0 173.44 0 13.66.32 18.56.01.14.12.23.08.07.12.28z"/></svg>