<svg xmlns="http://www.w3.org/2000/svg" xmlns:v="https://vecta.io/nano" viewBox="0 0 1300 1300"><style><![CDATA[.B{fill:#ffffff}.C{stroke:#e9dfcd}.D{stroke:#a46747}.E{stroke:#929292}.F{stroke:#ecae96}.G{stroke:#f1c6af}.H{stroke:#e8ddc2}.I{fill:#e49275}.J{fill:#fdfae9}.K{fill:#633c19}.L{fill:#a17240}.M{stroke:#b19e8c}.N{stroke:#f2c9ba}.O{stroke:#855c4d}.P{stroke:#919087}.Q{stroke:#9b7e5a}.R{stroke:#82572d}.S{stroke:#c3825b}.T{fill:#d3bf9a}.U{fill:#f4c9b6}.V{stroke:#fefdf4}.W{stroke:#634c33}.X{stroke:#ba996d}.Y{stroke:#e5959c}.Z{stroke:#d9929a}.a{stroke:#bf2837}.b{fill:#2e64a4}.c{fill:#252525}]]></style><g fill="none" stroke-width="2"><path stroke="#97b2d2" vector-effect="non-scaling-stroke" d="M1138.95 224.49c-26.77-25.39-42.41-66.56-23.79-101.14q.05-.1-.05-.16h0q-.14-.09-.24.04-5.03 6.75-9.42 13.01c-17.13 24.4-18.58 55.31-4.82 82.16q17.8 34.74 55.82 50.73c14.52 6.1 30.66 7.66 46.48 6.36 21.93-1.81 41.33-11.8 54.91-29.32q5.52-7.13 10.41-15.95.08-.14-.06-.23l-.01-.01q-.15-.1-.27.05c-14.22 18.33-34.87 25.26-57.52 23.96-27.29-1.56-51.58-10.67-71.44-29.5" fill="#000000"/><path vector-effect="non-scaling-stroke" d="M765.19 126.65q-6.24.64-12.2 4.36-10.17 6.37-17.79 12.45-9.87 7.87-25.06 13.06" class="C" fill="#000000"/><path vector-effect="non-scaling-stroke" d="M710.14 156.52q-15.7-9.63-35.65-13.77-21.59-4.47-39.37-3.73-28.1 1.17-51.77 12.47c-6.44 3.07-16.45 1.3-22.95-.91-17.55-5.95-38.35-12.11-56.18-3.99" class="M" fill="#000000"/><path vector-effect="non-scaling-stroke" d="M504.22 146.59q-5.89 2.18-10.42 6.76-4.2 4.23-5.27 8.35c-1.62 6.17-.01 13.17 2.71 18.55q6.48 12.84 17.77 22.4" class="N" fill="#000000"/><path vector-effect="non-scaling-stroke" d="M509.01 202.65q.61 1.17 1.36 2.7c1.6 3.26 5.11 4.13 7.51 6.55q1.34 1.36 1.48 2.06 2.96 15.07 8.85 29.04" class="E" fill="#000000"/><path vector-effect="non-scaling-stroke" d="M528.21 243q-2 .9-2.95 3.19-1.35 3.28-1.4 3.38-6.96 12.8-17.73 30.08c-12.75 20.45-22.07 45.04-12.2 67.98q4.39 10.19 11.98 19.21c8.82 10.5 21.27 17.51 33.36 23.56q.64.31 1.06 1.08" class="C" fill="#000000"/><path vector-effect="non-scaling-stroke" d="M540.33 391.48q-1.11 1.49-1.97 3.09-6.95 13.01-12.03 27.56a.42.42 0 0 0 .57.52q6.02-2.56 12.52-2.33" class="M" fill="#000000"/><path stroke="#d0b9a0" vector-effect="non-scaling-stroke" d="M539.42 420.32q6.8.19 12 4.37" fill="#000000"/><path vector-effect="non-scaling-stroke" d="M551.42 424.69l2.42 2.39a1.15 1.14-53 0 0 1.8-.26l3.46-6.12" class="C" fill="#000000"/><path vector-effect="non-scaling-stroke" d="M559.1 420.7q3.69 1.05 7.4.26 2.01-.43 8.38.64 2.15.36 9.4 3.4 2.6 1.09 4.83-.03c7.4-3.69 13.78-5.75 21.62-1.62q2.94 1.55 5.67 3.12a1.02 1.01 16.9 0 0 1.52-.81q.43-6.62 1.8-13.45c.43-2.12 1.79-4.06 1.79-6.1q-.01-2.12.47-3.99.78-3.06 1.47-6.3 1.68-7.84 6.29-17.46.66-1.37.66-2.88 0-.5.21-.96c3.27-6.75 6.72-12.69 12.27-17.61q.93-.83 1.1-2.1.08-.55.52-.89l1.19-.91" class="V" fill="#000000"/><path vector-effect="non-scaling-stroke" d="M645.69 353.01q2.57-.52 5.49-2.83" class="N" fill="#000000"/><path stroke="#fae4db" vector-effect="non-scaling-stroke" d="M651.18 350.18q10.31-5.11 21.93-3" fill="#000000"/><path vector-effect="non-scaling-stroke" d="M673.11 347.18q6.79 3.29 10.15 7.31 1.61 1.92 3.95 5.85 1.2 2 1.32 3.81.19 2.79 1.47 5.62c1.74 3.84 1.97 8.32 1.57 12.45-.17 1.75-.13 3.36.14 5.1q.22 1.46-.59 3.75-1.18 3.33-1.3 6.85" class="V" fill="#000000"/><path vector-effect="non-scaling-stroke" d="M689.82 397.92q-.04.37-.2.57" class="C" fill="#000000"/><path vector-effect="non-scaling-stroke" d="M689.62 398.49q-3.22 11.47-8.53 22.09-.29.57.31.79 2.81 1.07 5.9.74 5.04-.56 9.73-1.63 16.27-3.71 32.46-9.32" class="V" fill="#000000"/><path vector-effect="non-scaling-stroke" d="M729.49 411.16q1.71 1.47 5.84 5.76 2.07 2.15 5.28.84" class="C" fill="#000000"/><path stroke="#d0b9a0" vector-effect="non-scaling-stroke" d="M740.61 417.76c3.74 1.7 7.71 2.86 11.27 4.8 3.55 1.94 6.16 5.66 8.67 8.79a.99.99 0 0 0 1.67-.2q4.83-10.51 16.96-10.58a1.51 1.5 13.8 0 0 1.31-.79q4.51-8.37 7.35-17.82" fill="#000000"/><path vector-effect="non-scaling-stroke" d="M787.84 401.96q.24-.62.96-.65c8.57-.38 15.16-1.09 22.54-5.39q4.72-2.74 4.4-7.18c-.12-1.7-1-3.73-2.93-3.89q-4.13-.36-9.15.4-.9.14-1.73-.18a.47.46-62.3 0 1-.21-.69q3.29-4.89 6.78-9.6c2.35-3.17 3.03-7.3-.32-10-2.06-1.66-4.92-.45-6.64 1.09-2.73 2.44-5.82 5.69-9.55 6.4q-1.17.22-1.37-.95-.73-4.31-.63-8.57c.1-4.18-1.26-8.51-6.56-7.42-2.26.46-3.75 2.45-4.46 4.51q-2.2 6.36-3.78 13.88a1.06 1.05-79.9 0 1-1.17.82q-6.8-.93-13.45-.76a1.27 1.26 88.9 0 0-1.23 1.29q.15 8.04 5.87 13.46.23.22.3.92" class="N" fill="#000000"/><path vector-effect="non-scaling-stroke" d="M765.51 389.45q-4.6 5.38-11.02 7.94a.92.9 63.7 0 1-1.12-.39l-9.95-17.05" class="M" fill="#000000"/><path vector-effect="non-scaling-stroke" d="M743.42 379.95q-.02-.85.34-1.22 3.93-4.08 7.84-8.1 4.24-4.35 5.59-9.94" class="C" fill="#000000"/><path vector-effect="non-scaling-stroke" d="M757.19 360.69q2.99-3.61 5.35-8.68 7.42-15.93 8.64-31.5c1.59-20.26-2.53-38.73-11.1-57.18q-3.15-6.78-6.12-13.16-1.15-2.45-2.07-5.96" class="M" fill="#000000"/><path vector-effect="non-scaling-stroke" d="M751.89 244.21q2.13-5.79 5.8-11.43c2.17-3.32 5.73-4.42 9.15-5.96 2.67-1.2 4.58-3.03 4.56-6.24-.02-4.09.13-8.58-2.44-12.08q-1.1-1.51-2.45-1.26-4.59.83-9.01 1.77" class="E" fill="#000000"/><path vector-effect="non-scaling-stroke" d="M757.5 209.01q-.53.27-.76.12a.9.89-49.1 0 1-.09-1.37q6.32-6.04 11.74-11.97 10.48-11.46 17.3-25.64c5.62-11.67 8.45-28.76-2.45-38.12-5.44-4.67-10.85-7.46-18.05-5.38" class="N" fill="#000000"/><path vector-effect="non-scaling-stroke" d="M757.5 209.01q-6.49 1.53-12.2-.76" class="O" fill="#000000"/><path vector-effect="non-scaling-stroke" d="M745.3 208.25l-.75-4.49" class="D" fill="#000000"/><path vector-effect="non-scaling-stroke" d="M744.55 203.76q1.39.4 2.31 1.52.05.05.42.77.51.96 1.61.67 6.53-1.76 10.95-5.26 3.92-3.11 7.2-6.76 9.54-10.58 15.6-22.5c5.35-10.54 10.16-25.92 1.68-36.26-3.12-3.8-11.98-10.38-17.23-6.79q-6.27 4.29-9.49 10.17-1.52 2.77-3.3 5.5c-5.39 8.26-10.82 16.19-14.27 25.43-2.01 5.41-1.05 10.73-2.36 16.06" class="F" fill="#000000"/><path vector-effect="non-scaling-stroke" d="M737.67 186.31l-9.68-14.29" class="D" fill="#000000"/><path vector-effect="non-scaling-stroke" d="M727.99 172.02L759.51 132" class="G" fill="#000000"/><path stroke="#dca988" vector-effect="non-scaling-stroke" d="M759.51 132q3.1-1.18 5.68-5.35" fill="#000000"/><path stroke="#44311f" vector-effect="non-scaling-stroke" d="M751.89 244.21q.68 2-.38 2.48-.69.32-.91-.41-.08-.26-.3-.37-.69-.32-.66.44.11 2.53-.96 3.75" fill="#000000"/><path vector-effect="non-scaling-stroke" d="M748.68 250.1q-4.79 8.99-9.35 16.91-3.23 5.62-6.15 7.66-4.02 2.82-6.75 3.07-4.74.45-9.17.95-1.83.21-3.74.5c-3.37.52-6.43 5.32-7.8 7.99q-.86 1.67-2.05 3.36-1.03 1.44-2.02 3.34" class="W" fill="#000000"/><path vector-effect="non-scaling-stroke" d="M701.65 293.88q-9.7 15.67-17.43 33.34" class="P" fill="#000000"/><path vector-effect="non-scaling-stroke" d="M684.22 327.22q-9.36-8.6-21.85-12.05a1.67 1.65 5.2 0 1-1.21-1.43l-.56-5.79" class="O" fill="#000000"/><path vector-effect="non-scaling-stroke" d="M660.6 307.95l-.27-6.17" class="P" fill="#000000"/><path stroke="#7c7260" vector-effect="non-scaling-stroke" d="M660.33 301.78l-.45-8.4q-.03-.54-.56-.42-10.78 2.39-18.4 3.27-14.42 1.65-28.89 1.68-.79 0-.54.76l2.85 8.52" fill="#000000"/><path vector-effect="non-scaling-stroke" d="M614.34 307.19l3.4 11.43" class="P" fill="#000000"/><path vector-effect="non-scaling-stroke" d="M617.74 318.62q-4.41 4.05-8.57 8.06-3.96 3.82-6.14 7.64-2.63 4.62-4.6 9.78" class="O" fill="#000000"/><path vector-effect="non-scaling-stroke" d="M598.43 344.1q-1.83-3.54-2.71-6.85-2.77-10.44-6.44-20.5c-3.64-9.95-12.07-22.65-23.08-24.3a.91.9-84.4 0 1-.77-.94l.01-.3a.52.52 0 0 1 .62-.48q11.76 2.46 24.03 3.61 3.14.29 8.33.36 3.8.06 8.34.25" class="P" fill="#000000"/><path vector-effect="non-scaling-stroke" d="M606.76 294.95q16.16.34 28.62-1.29 17.72-2.31 26.18-3.85 18.9-3.43 41.88-9.96.54-.15.97-.58a.47.47 0 0 0-.31-.81q-14.44-.59-28.79-4.93c-9.04-2.74-13.5-6.79-16.35-15.51q-2.85-8.76-4.64-17.3-1.59-7.55-5.03-15.78-4.11-9.81-14.88-7.07c-3.68.93-5.71 6.78-6.58 10.03q-1.13 4.2-2.54 7.81-2.62 6.67-6.71 14.57c-3.52 6.8-8.56 14.51-15.57 16.45q-17.4 4.84-37.95 4.37" class="W" fill="#000000"/><path stroke="#7c7260" vector-effect="non-scaling-stroke" d="M565.06 271.1q-8.71-.88-16.71-4.02c-10.13-3.98-15.38-14.98-20.14-24.08" fill="#000000"/><path vector-effect="non-scaling-stroke" d="M759.51 132q-8.52 3.37-16.97 10.28-11.88 9.72-29.02 16.7" class="H" fill="#000000"/><path vector-effect="non-scaling-stroke" d="M713.52 158.98l-3.38-2.46" class="Q" fill="#000000"/><path stroke="#ac8368" vector-effect="non-scaling-stroke" d="M744.55 203.76l-6.88-17.45" fill="#000000"/><path stroke="#b09b81" vector-effect="non-scaling-stroke" d="M727.99 172.02q-6.09-7.28-14.47-13.04" fill="#000000"/><path stroke="#44311f" vector-effect="non-scaling-stroke" d="M745.3 208.25l-3.73-1.66" fill="#000000"/><path vector-effect="non-scaling-stroke" d="M741.57 206.59q.1-.92-.57-2-.72-1.15-1.07-2.4-2.33-8.33-7.11-16.8-5.56-9.85-13.78-16.93-6.98-6.01-13.16-9.54-3.4-1.94-7.27-3.9-3.58-1.81-7.71-3.18-6.24-2.07-11.66-3.4-27.89-6.82-56.37-3.48-14.42 1.7-19.79 3.59-3.28 1.16-6.54 1.97c-2.53.62-4.48 1.85-6.89 2.54-3.43.98-6.8 3.03-10.14 4.66q-5.29 2.58-12.08 8.23-7.38 6.14-12.37 15.19-.51.93-.98 2.99-.4 1.77-1.42 2.9" class="R" fill="#000000"/><path stroke="#ac8368" vector-effect="non-scaling-stroke" d="M552.66 187.03l-.63-2.28" fill="#000000"/><path vector-effect="non-scaling-stroke" d="M552.03 184.75c-.95-5.29 3.32-12.08 7.18-16.06" class="D" fill="#000000"/><path vector-effect="non-scaling-stroke" d="M559.21 168.69q6.55-6 13.82-11.13 1.44-1.01 3.41-1.2.42-.04.43-.46.01-.36-.33-.38-8.78-.7-17.33-3.52-11.31-3.72-21.4-5.83-10.14-2.11-17.8-1.54-2.91.21-8.01 2.1" class="R" fill="#000000"/><path vector-effect="non-scaling-stroke" d="M512 146.73q-3.81.58-7.78-.14" class="D" fill="#000000"/><path vector-effect="non-scaling-stroke" d="M660.6 307.95q-.28 5.14-1.65 10.04-1.18 4.2-5.53 7.49" class="G" fill="#000000"/><path stroke="#f9e2d0" vector-effect="non-scaling-stroke" d="M653.42 325.48q-3.18.14-8.13 2.37" fill="#000000"/><path vector-effect="non-scaling-stroke" d="M645.29 327.85c-2.03-2.78-3.14-6.74-4-9.42q-3.02-9.43-5.25-14.35-.03-.06-.09-.04l-.25.09q-.37.13-.26.51 3.52 11.85 4.68 23.75a1.24 1.24 0 0 1-1.07 1.35q-8.61 1.13-16.35-3.48-2.21-1.31-4.96-7.64" class="G" fill="#000000"/><path stroke="#cfb695" vector-effect="non-scaling-stroke" d="M754.07 358.41q1.6-7.41 4.36-16.67 3.12-10.47 2.45-20.33-.61-9.03-5.9-14.75-15.07-16.33-37.97-15.09-6.2.33-15.36 2.31" fill="#000000"/><path stroke="#8d776e" vector-effect="non-scaling-stroke" d="M553.01 191.24c-4.99.77-9.97 1.08-14.97 1.85-6.04.93-13.35 1.08-19.49-.43q-2.4-.59-5.23-.62a1.57 1.56-80.5 0 0-1.5 1.08l-2.39 7.42" fill="#000000"/><path vector-effect="non-scaling-stroke" d="M757.19 360.69q-.69.29-1.42-.17" class="Q" fill="#000000"/><path stroke="#b09b81" vector-effect="non-scaling-stroke" d="M755.77 360.52q-.93-.67-1.7-2.11" fill="#000000"/><path vector-effect="non-scaling-stroke" d="M754.07 358.41q1.12-1.05 2.24-1.11.49-.02.72-.46c.99-1.8 1.49-3.8 2.51-5.55q5.07-8.72 7.38-18.93 4.5-19.9.6-38.76c-2.78-13.42-7.54-26.6-14.65-38.39q-1.2-1.99-4.19-5.11" class="R" fill="#000000"/><path vector-effect="non-scaling-stroke" d="M645.29 327.85l.07.34q.07.39-.29.56-3.35 1.53-6.37 1.88-2.74.33-5.25 1.35-15.07 6.15-29.1 13.82-.72.4-.27 1.09.4.61 1.37.91 11.43 3.48 23.8 2.96 16.82-.72 21.93-.58" class="F" fill="#000000"/><path vector-effect="non-scaling-stroke" d="M741.57 206.59q-16.11-5.99-32.94-7.77-18.3-1.94-33.13-1.02-10.17.63-25.58 2.83c-7.13 1.01-13.3 1.1-19.77-1.09q-7.27-2.45-13.6-4.26-11-3.14-26.3-4.28-13.76-1.03-37.24.24" class="W" fill="#000000"/><path stroke="#cb9e7b" vector-effect="non-scaling-stroke" d="M553.01 191.24q-.62-2.68-.35-4.21" fill="#000000"/><path vector-effect="non-scaling-stroke" d="M673.72 346.74q-.75.01-1-.27-.26-.3.04-.56c3.96-3.36 6.21-9.79 7.77-14.52a1.35 1.34-67.6 0 0-.67-1.62q-11.7-5.95-26.44-4.29" class="F" fill="#000000"/><path vector-effect="non-scaling-stroke" d="M755.77 360.52c.08.73.09 1.28-.4 1.9q-5.15 6.45-8.88 9.49-15.12 12.34-35.01 18.41-9.07 2.77-19.24 5.42-2.06.54-2.42 2.18" class="H" fill="#000000"/><path stroke="#f9e2d0" vector-effect="non-scaling-stroke" d="M673.11 347.18q.84.47.61-.44" fill="#000000"/><path vector-effect="non-scaling-stroke" d="M673.72 346.74q2.95.47 4.14-2.39 4.34-10.49 6.36-17.13" class="G" fill="#000000"/><path vector-effect="non-scaling-stroke" d="M660.33 301.78l-.5-3.23a.99.99 0 0 0-1.51-.69c-.52.32-1.03.52-1.66.54q-15.62.59-24.16 2.14-8.56 1.55-18.16 6.65" class="H" fill="#000000"/><path vector-effect="non-scaling-stroke" d="M598.43 344.1q2.82 6.67 9.59 7.84c11.23 1.94 24.79 1.34 37.67 1.07" class="G" fill="#000000"/><path stroke="#cfb695" vector-effect="non-scaling-stroke" d="M606.76 294.95q-3.95-3.72-8.43-6.49-7.45-4.61-8.35-5.29-5.94-4.44-11.19-9.42" fill="#000000"/><path vector-effect="non-scaling-stroke" d="M578.79 273.75q-1.69-1.75-2.41-1.88-5.59-.96-11.32-.77" class="X" fill="#000000"/><path vector-effect="non-scaling-stroke" d="M578.79 273.75q-19.84 2.18-38.6-3.53-1.95-.59-3.39-2.12-3.86-4.07-6.07-8.59c-1.14-2.32-1.69-4.86-2.64-7.28q-.68-1.74-1.65-.14-6.75 11.05-14.06 22.77c-9.82 15.73-20.68 36.15-18.84 55.32q1.19 12.36 7.89 23.65 8.15 13.73 20.87 22.57 7.72 5.35 15.74 9.4c24.88 12.55 52.39 19.98 80.61 20.05a.99.97-17.3 0 1 .8.41q.36.49.3.99-.17 1.43-1.61 1.45-22.41.31-43.49-6.07a1.52 1.51 29.9 0 0-1.54.41q-7.75 8.17-14.01 17.66" class="H" fill="#000000"/><path vector-effect="non-scaling-stroke" d="M551.42 424.69l16.22-22.74a.77.77 0 0 0-.44-1.2q-9.05-2.22-17.58-5.84" class="X" fill="#000000"/><path vector-effect="non-scaling-stroke" d="M549.62 394.91q-4.34-1.83-8.41-3.54-.24-.1-.44-.06-.25.05-.44.17" class="Q" fill="#000000"/><path vector-effect="non-scaling-stroke" d="M552.03 184.75q-2.18-.1-3.16 3.39a.82.82 0 0 1-1.06.55q-1.45-.52-.73-1.87a2.21 2.19-32.5 0 0 .26-1.15c-.26-5.88.76-13.43-4.4-17.9q-15.57-13.48-36.34-12.38-4.14.22-13.24 3.36c-1.88.65-2.62 1.88-2.92 3.77q-1.24 8.07 1.47 14.42c3.73 8.71 10.34 16.45 16.68 23.47q.23.26.58.22.14-.02.26-.09" class="F" fill="#000000"/><path vector-effect="non-scaling-stroke" d="M509.43 200.54l-.42 2.11" class="O" fill="#000000"/><path vector-effect="non-scaling-stroke" d="M559.21 168.69q-4.49-2.6-21.71-11.72-13.04-6.91-25.5-10.24" class="S" fill="#000000"/><path vector-effect="non-scaling-stroke" d="M743.42 379.95l-.41-.11q-.33-.08-.63.1l-7.46 4.4" class="Q" fill="#000000"/><path vector-effect="non-scaling-stroke" d="M734.92 384.34q-9.12 5.12-18.33 8.58a.91.9-36.4 0 0-.24 1.56q13.29 10.37 24.26 23.28" class="X" fill="#000000"/><path vector-effect="non-scaling-stroke" d="M729.49 411.16q-7.64-7.7-15.68-14.01-2.78-2.18-4.95-1.59-9.24 2.54-18.66 4.45-.63.13-.58-1.52" class="H" fill="#000000"/><path vector-effect="non-scaling-stroke" d="M549.62 394.91q-.07.95-1.01 2.03-.32.36-.49.81l-8.7 22.57m228.56-28.92q.44 1.16-.17 1.9-5.93 7.31-15.91 9.23-4.88.94-10.14.94a.9.9 0 0 1-.74-1.41q.56-.8.97-1.7 1.58-3.48.02-6.5-2.85-5.53-7.09-9.52m51.24 16.6q-2.41.07-3.32 2.06-3.75 8.14-6.5 15.79a.242.242 0 0 0 .43.22q.57-.81 1.56-.71.62.06.87-.51 1.33-3.04 3.04-6.19.97-1.79 1.41-3.74.42-1.9 1.48-3.61.28-.46.2-.99-.26-1.73 1.46-1.97" class="R" fill="#000000"/><path vector-effect="non-scaling-stroke" d="M787.84 401.96q.09-.27.01-.5-.07-.22-.31-.31-.41-.15-.75.14" class="S" fill="#000000"/><path vector-effect="non-scaling-stroke" d="M786.79 401.29q-.17-.35-.63-.35" class="D" fill="#000000"/><path vector-effect="non-scaling-stroke" d="M786.16 400.94l-18.18-9.54" class="S" fill="#000000"/><path vector-effect="non-scaling-stroke" d="M767.98 391.4q-1.36-2.68-2.47-1.95" class="D" fill="#000000"/><path vector-effect="non-scaling-stroke" d="M168.69 146.23L29.34 195.9a1.33 1.32-12.9 0 0-.88 1.4l26.07 225.67q.06.48.43.79 1.54 1.28 5.34 3.39 70.06 38.83 140.28 77.65" class="Y" fill="#000000"/><path vector-effect="non-scaling-stroke" d="M200.58 504.8l144.95-80.21a2.18 2.18 0 0 0 1.12-1.66l26.02-225.7q.06-.51-.37-.8-1.35-.87-2.94-1.43-83.09-29.44-167.14-59.53a4.47 4.46 45.1 0 0-3-.01l-30.53 10.77" class="Z" fill="#000000"/><path vector-effect="non-scaling-stroke" d="M200.58 504.8q.48-3.33.35-6.14-.08-2.03-.09-3.85-.21-65.12-.04-128.63 0-.74-.72-.89-2.14-.44-4.27-.46-19.34-.14-39.52-.21-.57 0-1.06.17-.87.29-1.03-.27" class="a" fill="#000000"/><path vector-effect="non-scaling-stroke" d="M154.2 364.52q.13-.66.58-1.07.34-.31.8-.31 44.97.04 90.08-.06a.51.5 78.4 0 1 .46.31l21.34 53.15q.28.68 1.02.68h38.75a.47.47 0 0 0 .43-.66L200.77 175.93" class="Z" fill="#000000"/><path vector-effect="non-scaling-stroke" d="M200.77 175.93l-.12-37.11a1.47 1.46-10.3 0 0-1.97-1.36q-4.7 1.72-9.06 2.94-4.1 1.15-8.16 2.62-3.98 1.44-8.07 2.9-3.04 1.09-4.7.31" class="a" fill="#000000"/><path vector-effect="non-scaling-stroke" d="M200.77 175.93L93.11 416.51a.44.43 11.9 0 0 .4.61l39.22.12a.68.68 0 0 0 .63-.43l20.84-52.29" class="Y" fill="#000000"/><path vector-effect="non-scaling-stroke" d="M1278.82 305.08q-10.75 14.61-25.09 24.54c-56.25 38.93-131.66 24.46-181.35-17.54-39.42-33.33-63.41-82.86-54.89-134.3q3.14-18.93 12.82-35.65.03-.05-.03-.09l-.21-.13q-.08-.05-.13.03-7.79 10.95-15.16 21.18-6.85 9.5-10.83 16.77c-16.14 29.44-17.47 64.67-6.94 96.97q8.26 25.31 26.59 48.93c5.3 6.83 12.28 13.56 18.69 19.38q25.62 23.27 60.19 35.36 9.47 3.31 18.66 4.52c30.3 3.99 60.65 2.58 88.23-8.66 32.34-13.16 57.87-38.95 70.71-71.65q.72-1.85-.67-.44-.06.06-.59.78m-274.8 189.48q22.79 10.54 39.83 14.3 19.11 4.22 44.03 5.05 26.38.87 50.79-4.05 60.07-12.1 100.3-56.37 18.73-20.6 30.6-45.99 1.69-3.61-.84-.54c-11.85 14.38-25.56 26.06-42.19 35.33-42.33 23.61-94.04 27.09-141.56 17.01q-21.22-4.5-44.74-15.42c-51.66-23.99-95.34-66.94-117.1-119.33-14.82-35.67-19.46-75.22-10.26-112.76q4.08-16.67 11.4-30.97 1.39-2.72-.5-.33-10.49 13.27-21.06 26.5c-53.95 67.56-32.13 162.97 18.65 223.93q34.42 41.34 82.65 63.64" stroke="#97b2d2" fill="#000000"/><path stroke="#e3a095" vector-effect="non-scaling-stroke" d="M784.95 454.07q1.04-10.62-.21-21.24-.12-1.01-1.13-1.11c-4.45-.44-9.97-.86-11.65 4.48q-6.05 19.33-8.92 38.77c-.17 1.17-.63 1.85-1.52 2.6-8.61 7.29-30.88 21.39-40.82 8.44a.48.47-29.3 0 1 .21-.73c17.38-6.7 34.23-17.97 32.77-38.84-.62-8.88-5.05-16.24-14.9-16.97-13.3-.99-25.07 7.89-31.56 18.71q-6.96 11.63-8.46 25.75a2.19 2.16 76.1 0 1-.92 1.55q-8.27 5.72-17.89 10.08-1.32.6-.7-.7c7.66-16.01 12.79-38.43-5.93-49.09-4.49-2.56-8.72-1.76-13.34.26q-1.58.69-.55-.69c9.5-12.68 17.23-27.14 20.38-42.41q3.04-14.74-2.8-27.97c-5.69-12.88-19.45-7-27.08-.45q-3.47 2.98-6.63 9.22-11.21 22.11-13.64 43.56-3.67 32.34-7.95 65.02c-.71 5.43-9.24 8.76-13.67 9.17q-.85.08-1.17-.71c-2.35-5.68-1.89-12.38-.96-18.47q1.97-12.84 3.47-23.07c.5-3.41 1.55-12.77-1.61-15.26-7.23-5.67-14.34.49-18.48 6.74q-8.22 12.43-14.38 22.93-.32.54-.82.97-1.01.84-.65-.42c1.4-4.79 9.55-31.44.22-31.92-8.74-.44-16.03 6.44-20.07 13.54q-4.97 8.73-10.15 17.68-2.45 4.24-1.49-.56c1.72-8.59 3.39-16.88 3.44-25.7q.04-5.48-4.88-5.7c-4.37-.18-9.4-.62-11.14 4.5q-2.35 6.9-4.25 16.24-2.57 12.59-4.97 25.11-.32 1.69-1.52 2.6c-7.78 5.86-31.55 19.89-38.52 6.66a1.33 1.32-25.2 0 1 .67-1.84c12.05-4.95 28.38-13.68 31.9-27.4q3.4-13.24-4.85-20.25-7.06-6-17.45-5.19-11.5.89-19.64 11.21c-6.13 7.77-9.17 17.9-10.29 28.38q-.1.96-1.07 1.04-6.47.52-12.08-2.78c-1.15-.67-3.14-1.28-4.25-.2-3.11 3.03-7.26 11.39-.94 13.94q6.85 2.75 15.66 4.72a2.73 2.73 0 0 1 1.99 1.77c3.6 10.24 12.27 20.19 23.57 20.65 12.23.5 24.47-3.84 34.84-10.37a.71.71 0 0 1 1.06.42c1.22 4.53 3.89 8.63 8.9 9.2q5.64.64 9.01-4.25 3.61-5.27 6.17-11.13 4.6-10.58 8.98-20.19 2.12-4.67 5.25-9.57a.39.39 0 0 1 .71.14q.11.56.01 1.11c-1.71 10.23-3.46 21.22-3.49 31.83-.02 8.48 6.39 12.23 14.14 10.97 3.92-.64 6.43-7.03 7.38-10.32q4.56-15.79 12.58-31.58.25-.48.73-.7a.4.4 0 0 1 .56.41c-1.09 10.3-1.8 21.27-.2 31.55q.73 4.66 2.5 7.76c3.56 6.2 12.36 5.49 18.37 2.6q5.33-2.57 11.1-5.84a2.37 2.35 45.2 0 1 2.36.02c8.86 5.22 18.93 8.59 28.92 6.43 16.48-3.57 32.1-7.96 46.87-15.86a.47.47 0 0 1 .63.18q10.81 18.13 32.99 16.55 14.4-1.02 26.35-10.63a.75.74-27.9 0 1 1.18.36c1.16 3.72 3.05 7.92 6.75 9.72 8.09 3.92 12.19-7.97 14.38-13.65q6.4-16.68 12.26-32.97.84-2.35 1.22.12c1.73 11.32 5.01 25.86 19.89 24.86q7.19-.48 13.92-3.88c3.8-1.92 8.32-4.1 10.99-7.34q2.75-3.32 1.95-8.89c-.64-4.49-4.62-4.78-7.94-2.78-5.27 3.18-11.71 6.71-17.39 5.87-5.55-.83-6.4-10.09-6.07-14.62.52-7.22 1.93-14.88-.71-21.93q-1.02-2.72-3.82-2.6c-9.88.44-16.6 13.09-20.3 21.82q-.25.6-.81.94-.68.42-.6-.38" fill="#000000"/><path stroke="#c1ebfb" vector-effect="non-scaling-stroke" d="M368.96 1116.76a.84.83 44.8 0 1 1.19 0q19.44 19.62 40.82 33.35c15.45 9.92 34.67 18.58 52.55 17.8 32.24-1.41 45.86-29.26 47.81-57.82 1.66-24.37-2.27-49.07-8.8-72.54a.84.83 73.9 0 1 .56-1.03c20.41-6.05 40.07-14.22 57.21-26.06 18.85-13.03 35.35-33.02 30.02-57.52-4.03-18.5-19.37-32.81-35.44-42.77-17.24-10.68-36.75-18.11-56.68-23.99a.79.79 0 0 1-.55-.93q4.75-21.31 5.22-42.7c.46-21.12-4.13-47.99-22.28-61.59-20.43-15.29-46.42-8.74-66.97 2.08-15.22 8.01-30.11 19.17-43.64 31.63q-.42.39-.85 0c-25.89-23.83-74.22-59.02-109.69-34.43-12.17 8.43-18.78 24.21-21.24 38.3-3.82 21.83-1.47 44.99 3.25 66.74a.93.92-13.6 0 1-.67 1.08q-19.08 5.16-37.33 13.5c-22.63 10.34-50.55 28.48-55.01 54.93-4.87 28.78 19.45 50.6 42.68 63.33q20.74 11.36 44.83 18.28a1.02 1.01-74 0 1 .69 1.26q-6.35 22.17-8.54 45.74c-1.48 15.96-.97 33.49 3.92 48.97 7.5 23.72 26.78 38.56 52.51 35.14 17.07-2.26 33.38-10.26 47.86-20.13q19.58-13.33 36.57-30.62" fill="#000000"/><path vector-effect="non-scaling-stroke" d="M1070.77 775.77l-84.99.02a1.6 1.6 0 0 0-1.39.81l-18.78 32.55" class="E" fill="#000000"/><path stroke="#9ca3ae" vector-effect="non-scaling-stroke" d="M965.61 809.15q-17.21 29.46-34.08 59.1-.4.72-.77.76-.54.07-1.12-.85" fill="#000000"/><path vector-effect="non-scaling-stroke" d="M929.64 868.16l-52.72-91.62a1.52 1.52 0 0 0-1.31-.75l-85.18-.15" class="E" fill="#000000"/><path stroke="#b2dbc3" vector-effect="non-scaling-stroke" d="M790.43 775.64l-93.5-.14a.5.5 0 0 0-.44.75l233.59 404.8a.65.65 0 0 0 1.12 0l233.56-404.74a.54.54 0 0 0-.46-.81l-93.53.27" fill="#000000"/><path stroke="#456e56" vector-effect="non-scaling-stroke" d="M790.43 775.64q-.68.85 1.44 2.57" fill="#000000"/><path stroke="#4e7f71" vector-effect="non-scaling-stroke" d="M791.87 778.21l138.23 240.25a.62.62 0 0 0 1.07 0l138.65-240.35" fill="#000000"/><path stroke="#456e56" vector-effect="non-scaling-stroke" d="M1069.82 778.11q1.78-1.9.95-2.34" fill="#000000"/><path vector-effect="non-scaling-stroke" d="M1069.82 778.11q-6.82-.93-19.32-.91-29.57.04-64.3.15a2.39 2.39 0 0 0-2.06 1.21l-17.68 31.29q-.4.7-.64-.06l-.21-.64m-35.97 59.01q-.33.98-1.21.43-.45-.28-.67-.84-.78-1.99-1.36-2.97-9.42-16.07-17.18-30.27-.16-.29-.46-.45-.44-.23-.67-.66-6.26-12.01-13.14-23.23-1.84-3.02-3.58-6.11-1.75-3.1-3.58-6.08c-3.98-6.48-7.4-12.91-11.21-19.55a2.24 2.24 0 0 0-1.93-1.13q-39.86-.3-80.4.14-.76.01-2.38.77" stroke="#2f3641" fill="#000000"/><path vector-effect="non-scaling-stroke" d="M198.36 259.55l-28.88 69.65a.38.38 0 0 0 .35.53l30.28.02" class="Y" fill="#000000"/><path vector-effect="non-scaling-stroke" d="M200.11 329.75l31.11-.02a.51.5 78.4 0 0 .46-.71L201 255.56a.57.56-45.4 0 0-1.05.01l-1.59 3.98" class="Z" fill="#000000"/><path vector-effect="non-scaling-stroke" d="M200.11 329.75q.85-7.97.75-15.75-.28-20.64-.3-41.75 0-3.05.19-4.29.07-.49.49-.76 1.4-.91.85-2.7-.62-2.03-1.3-3.88-.17-.47-.66-.53-1.2-.17-1.77-.54" class="a" fill="#000000"/><g class="E"><path vector-effect="non-scaling-stroke" d="M531.44 202.43l.34-1.83a.46.46 0 0 0-.37-.54l-.51-.09a9.92 1.32 10.4 0 0-10-.49l-.02.14a9.92 1.32 10.4 0 0 9.52 3.08l.51.1a.46.46 0 0 0 .53-.37m23.1 3.3c-5.46.84-14.88 3.97-16.58 9.59q-1.28 4.24-.82 8.64.47 4.56.88 9.06c.4 4.46 1.92 9.1 3.58 13.18 2.53 6.16 7.08 9.04 13.8 10.13 10.72 1.74 20.73 1.35 31.43.33 3.06-.29 11.59-1.29 13.63-3.55q8.9-9.82 13.39-21.94c1.64-4.42 3.57-8.66 3.28-13.45-.17-2.79-3.1-4.52-5.32-5.56-7.77-3.62-16.69-5.31-25.39-6.45-10.82-1.42-21.36-1.61-31.88.02m150.19 60.12q9.91 1.31 18.55.37c9.42-1.02 15.09-14.94 16.75-23.04 1-4.88 2.37-9.3 1.88-14.47-.46-4.83-8.84-9.55-12.75-10.91q-6.8-2.35-11.06-3.14-10.67-1.98-20.93-2.22-5.91-.13-18.32 1.02c-2.35.22-4.95.87-7.31 1.4-2.11.48-8.89 2.93-9.15 5.88q-.47 5.13 1.55 12.49 2.19 8.02 5.67 16.1c3.26 7.6 7.98 11.22 15.55 12.97q9.78 2.25 19.57 3.55m50.39-51.24l-9.29.26a.48.48 0 0 0-.47.49l.01.45a1.99 1.67-1.6 0 0 2.04 1.62l6.28-.18a1.99 1.67-1.6 0 0 1.94-1.72l-.01-.45a.48.48 0 0 0-.5-.47" fill="#000000"/><path vector-effect="non-scaling-stroke" d="M574.69 225.71q-1.02.06-.53-.84.62-1.14 2.01-1.42a1.14 1.14 0 0 0 .41-2.06l-2.34-1.57a1.61 1.6-46.8 0 0-1.88.06c-2.7 2.07-4.74 4.41-5.42 7.85q-1.51 7.59.19 12.61c1.28 3.76 5.73 3.6 7.77.52q4.25-6.42 3.15-15.72a.71.71 0 0 0-1.21-.42q-.9.92-2.15.99m130.997 26.433a11.83 5.73 83.9 0 0 4.441-12.372 11.83 5.73 83.9 0 0-6.955-11.154 11.83 5.73 83.9 0 0-4.441 12.372 11.83 5.73 83.9 0 0 6.955 11.154" fill="#000000"/></g><path vector-effect="non-scaling-stroke" d="M634.11 262.5q.98 1.67 1.46 4.01a.9.9 0 0 0 1.65.27q1.04-1.77 2.26-3.16c1.46-1.66 5.18-.64 7.13-.35a.6.59-88.1 0 0 .68-.64q-.3-3.18-1.47-6.24c-1.65-4.34-11.52-3.53-15.33-2.76-4.42.88-4.78 5.63-5.01 9.21a.55.54 85 0 0 .67.57l6.36-1.58a1.45 1.45 0 0 1 1.6.67" class="S" fill="#000000"/><path vector-effect="non-scaling-stroke" d="M778.51 395.38q3.44 1.52 7.83 2.88c7.96 2.46 18.32 0 24.75-4.2q3.36-2.18 2.84-5.89a2.07 2.07 0 0 0-2.43-1.75q-5.82 1.11-11.25.39a.77.76 8.3 0 1-.66-.88q.54-3.19 2.7-5.71c2.01-2.34 10.37-11.88 4.43-14.12q-.89-.34-1.8.03c-3.01 1.25-5.86 4.49-8.3 6.69-2.54 2.28-7.66 2.98-8.21-1.65q-.59-5.08-.38-10.61c.1-2.68-2.25-4.61-4.79-3.14q-2.33 1.34-3.14 4.57c-1.19 4.73-2.38 9.37-3.29 13.98a.99.98-82.3 0 1-1.03.79l-14.04-.94a.57.56 88.3 0 0-.6.64c1.1 8.49 6.74 12.11 13.19 16.57q1.98 1.37 4.18 2.35" class="F" fill="#000000"/><path vector-effect="non-scaling-stroke" d="M641.56 435.85c7.67-13.15 15.12-27.05 20.38-40.67 2.48-6.4 4.57-14.15 1.91-20.71a1.15 1.15 0 0 0-1.77-.48q-2.94 2.3-4.87 5.45-4.91 7.99-7.85 18.08-5.55 19.04-8.72 38-.44 2.66.92.33m85.28 11.85c-5.21 6.01-9.02 15.69-8.85 23.07q.02 1.33 1.35 1.15 7.85-1.05 13.25-6.49c5.04-5.07 8.18-13.68 2.42-19.17-2.57-2.45-6.19-.84-8.17 1.44M478.9 472.14c6.45-1.62 11.69-4.27 16.31-9.34 3.09-3.38 4.85-8.58 3.06-12.99-2.16-5.35-7.86-3.94-11.13-.79q-9.15 8.79-8.9 22.61.01.68.66.51m165.36-13.29q-4.77 10.62-6.4 24.04-.62 5.08-.09 9.76a1.38 1.36 4.8 0 0 1 1.17q17.42 4.78 25-11.09c3.5-7.31 5.34-17.49 2.14-25.29q-2.47-5.99-8.08-6.42-9.72-.74-13.57 7.83" stroke="#e3a095" fill="#000000"/><g stroke="#c1ebfb"><path vector-effect="non-scaling-stroke" d="M262.86 808.56q-4.38 9.49-5.29 22.07c-1.2 16.72.59 32.58 4 49.72q.12.6.72.47 27.66-6.02 55.16-8.63 1.57-.15 2.54-1.47 15.33-20.86 34.18-40.6a.67.67 0 0 0-.03-.96c-14.02-12.84-30.17-24.85-47.54-31.95-16.61-6.8-34.9-7.78-43.74 11.35m169.2-11.1c-17.33 7.1-32.65 18.89-47.1 31.64a.68.68 0 0 0-.04.98q18.08 18.85 33.96 40.29c.73.99 1.66 1.77 2.93 1.89q27.6 2.59 54.43 8.42 1.08.23 1.31-.85 4.54-20.9 4.46-41.24-.08-17.26-5.74-30.01c-8.69-19.54-27.53-17.95-44.21-11.12m-84.85 71.73a.37.37 0 0 0 .28.61h44.2a.37.37 0 0 0 .28-.61l-22.1-25.17a.37.37 0 0 0-.56 0l-22.1 25.17m-52.3 79.74q-2.79 5.23-5.68 10.65a2.22 2.22 0 0 0-.06 1.99q16.71 36.04 37.94 68.78 1.21 1.86 3.39 2.02 39.94 2.79 79.09-.1a2.48 2.46-75.4 0 0 1.88-1.11q21.87-33.52 38.65-69.95a1.22 1.22 0 0 0-.02-1.07q-18.16-35.75-40.56-67.39a2.21 2.18-15.4 0 0-1.65-.92q-40.58-2.7-76.17.07-1.69.13-2.81 1.74-19.2 27.59-34 55.29m-17.13-13.88a.33.33 0 0 0 .59.06l23.87-40.03a.33.33 0 0 0-.34-.5l-35.15 6.18a.33.33 0 0 0-.25.43l11.28 33.86m159.28-40.48a.3.3 0 0 0-.31.45l24.11 40.02a.3.3 0 0 0 .55-.06l11.32-33.77a.3.3 0 0 0-.23-.39l-35.44-6.25m-194.04 121.47c6.29-18.65 13.75-37.18 22.41-55.07a2.22 2.21 46.3 0 0 .04-1.86q-11.28-25.85-18.71-52.09a.9.9 0 0 0-1.12-.61q-14.44 4.37-27.96 9.94c-17.79 7.33-56.22 27.86-47.93 52.57 5.32 15.85 23.99 27.74 38.62 34.73q16.26 7.76 33.53 12.97a.9.9 0 0 0 1.12-.58m232.31-60.87q-.88 2.09-1.64 4.13a2.54 2.53 42.2 0 0 .1 2q12.8 26.35 22.4 54.87.25.76 1.01.52c19-5.95 38.74-13.8 53.98-25.33 12.2-9.24 25.2-23.82 16.51-40.27-7.64-14.45-24.49-24.81-39.15-31.6q-15.99-7.42-35.47-13.17-.52-.15-.66.37-6.49 23.56-17.08 48.48m-174.47 74.36a.31.31 0 0 0 .32-.45l-23.97-43.42a.31.31 0 0 0-.56.04l-14.09 36.46a.31.31 0 0 0 .24.42l38.06 6.95m156.27-35.24q-9.57 18.22-19.41 34.31a.46.45-78.3 0 0 .45.69q18.49-2.68 37.38-6.79a.7.7 0 0 0 .51-.91q-5.91-17.26-13.41-34.95-.25-.58-.71-1.01a.46.46 0 0 0-.74.15q-1.69 3.97-4.07 8.51m-203.14 137.13c13.8 30.28 51.22 9.72 68.79-2.72q16.25-11.49 31.69-26.66a1.1 1.1 0 0 0 .05-1.52q-19.65-21.95-37-47.26-.96-1.39-2.67-1.56-29.73-2.87-57.56-9.49-.45-.11-.58.34c-5.43 20.11-9.01 40.76-8.46 61.08q.43 16.14 5.74 27.79m226.23 7.67c7.32-8.5 9.98-21.58 10.51-32.58 1.01-21-2.84-42.55-8.11-63.42a1.17 1.17 0 0 0-1.49-.83q-1.7.55-3.53.97-25.03 5.75-53.47 8.5c-1.09.11-2.11.87-2.7 1.75q-17.04 24.99-37.28 47.55a.34.33-47 0 0 .01.46q13.55 13.45 29.14 25c15.82 11.72 50.1 32.11 66.92 12.6m-110.12-53.62c8.71-9.71 16.85-20.18 25.1-30.91a.45.45 0 0 0-.38-.72q-25.96 1.38-50.54-.02a.44.43-16.4 0 0-.38.69q12.29 16.45 25.1 30.95a.74.73 45.3 0 0 1.1.01" fill="#000000"/><path vector-effect="non-scaling-stroke" d="M411.12 962.18a41.56 41.56 0 1 0-83.12 0 41.56 41.56 0 1 0 83.12 0" fill="#000000"/></g></g><path d="M0 0h1300v1300H0V0zm1138.95 224.49c-26.77-25.39-42.41-66.56-23.79-101.14q.05-.1-.05-.16h0q-.14-.09-.24.04-5.03 6.75-9.42 13.01c-17.13 24.4-18.58 55.31-4.82 82.16q17.8 34.74 55.82 50.73c14.52 6.1 30.66 7.66 46.48 6.36 21.93-1.81 41.33-11.8 54.91-29.32q5.52-7.13 10.41-15.95.08-.14-.06-.23l-.01-.01q-.15-.1-.27.05c-14.22 18.33-34.87 25.26-57.52 23.96-27.29-1.56-51.58-10.67-71.44-29.5zm-373.76-97.84q-6.24.64-12.2 4.36-10.17 6.37-17.79 12.45-9.87 7.87-25.06 13.06-15.7-9.63-35.65-13.77-21.59-4.47-39.37-3.73-28.1 1.17-51.77 12.47c-6.44 3.07-16.45 1.3-22.95-.91-17.55-5.95-38.35-12.11-56.18-3.99q-5.89 2.18-10.42 6.76-4.2 4.23-5.27 8.35c-1.62 6.17-.01 13.17 2.71 18.55q6.48 12.84 17.77 22.4.61 1.17 1.36 2.7c1.6 3.26 5.11 4.13 7.51 6.55q1.34 1.36 1.48 2.06 2.96 15.07 8.85 29.04-2 .9-2.95 3.19-1.35 3.28-1.4 3.38-6.96 12.8-17.73 30.08c-12.75 20.45-22.07 45.04-12.2 67.98q4.39 10.19 11.98 19.21c8.82 10.5 21.27 17.51 33.36 23.56q.64.31 1.06 1.08-1.11 1.49-1.97 3.09-6.95 13.01-12.03 27.56a.42.42 0 0 0 .57.52q6.02-2.56 12.52-2.33 6.8.19 12 4.37l2.42 2.39a1.15 1.14-53 0 0 1.8-.26l3.46-6.12q3.69 1.05 7.4.26 2.01-.43 8.38.64 2.15.36 9.4 3.4 2.6 1.09 4.83-.03c7.4-3.69 13.78-5.75 21.62-1.62q2.94 1.55 5.67 3.12a1.02 1.01 16.9 0 0 1.52-.81q.43-6.62 1.8-13.45c.43-2.12 1.79-4.06 1.79-6.1q-.01-2.12.47-3.99.78-3.06 1.47-6.3 1.68-7.84 6.29-17.46.66-1.37.66-2.88 0-.5.21-.96c3.27-6.75 6.72-12.69 12.27-17.61q.93-.83 1.1-2.1.08-.55.52-.89l1.19-.91q2.57-.52 5.49-2.83 10.31-5.11 21.93-3 6.79 3.29 10.15 7.31 1.61 1.92 3.95 5.85 1.2 2 1.32 3.81.19 2.79 1.47 5.62c1.74 3.84 1.97 8.32 1.57 12.45-.17 1.75-.13 3.36.14 5.1q.22 1.46-.59 3.75-1.18 3.33-1.3 6.85-.04.37-.2.57-3.22 11.47-8.53 22.09-.29.57.31.79 2.81 1.07 5.9.74 5.04-.56 9.73-1.63 16.27-3.71 32.46-9.32 1.71 1.47 5.84 5.76 2.07 2.15 5.28.84c3.74 1.7 7.71 2.86 11.27 4.8 3.55 1.94 6.16 5.66 8.67 8.79a.99.99 0 0 0 1.67-.2q4.83-10.51 16.96-10.58a1.51 1.5 13.8 0 0 1.31-.79q4.51-8.37 7.35-17.82.24-.62.96-.65c8.57-.38 15.16-1.09 22.54-5.39q4.72-2.74 4.4-7.18c-.12-1.7-1-3.73-2.93-3.89q-4.13-.36-9.15.4-.9.14-1.73-.18a.47.46-62.3 0 1-.21-.69q3.29-4.89 6.78-9.6c2.35-3.17 3.03-7.3-.32-10-2.06-1.66-4.92-.45-6.64 1.09-2.73 2.44-5.82 5.69-9.55 6.4q-1.17.22-1.37-.95-.73-4.31-.63-8.57c.1-4.18-1.26-8.51-6.56-7.42-2.26.46-3.75 2.45-4.46 4.51q-2.2 6.36-3.78 13.88a1.06 1.05-79.9 0 1-1.17.82q-6.8-.93-13.45-.76a1.27 1.26 88.9 0 0-1.23 1.29q.15 8.04 5.87 13.46.23.22.3.92-4.6 5.38-11.02 7.94a.92.9 63.7 0 1-1.12-.39l-9.95-17.05q-.02-.85.34-1.22 3.93-4.08 7.84-8.1 4.24-4.35 5.59-9.94 2.99-3.61 5.35-8.68 7.42-15.93 8.64-31.5c1.59-20.26-2.53-38.73-11.1-57.18q-3.15-6.78-6.12-13.16-1.15-2.45-2.07-5.96 2.13-5.79 5.8-11.43c2.17-3.32 5.73-4.42 9.15-5.96 2.67-1.2 4.58-3.03 4.56-6.24-.02-4.09.13-8.58-2.44-12.08q-1.1-1.51-2.45-1.26-4.59.83-9.01 1.77-.53.27-.76.12a.9.89-49.1 0 1-.09-1.37q6.32-6.04 11.74-11.97 10.48-11.46 17.3-25.64c5.62-11.67 8.45-28.76-2.45-38.12-5.44-4.67-10.85-7.46-18.05-5.38zm-596.5 19.58L29.34 195.9a1.33 1.32-12.9 0 0-.88 1.4l26.07 225.67q.06.48.43.79 1.54 1.28 5.34 3.39 70.06 38.83 140.28 77.65l144.95-80.21a2.18 2.18 0 0 0 1.12-1.66l26.02-225.7q.06-.51-.37-.8-1.35-.87-2.94-1.43-83.09-29.44-167.14-59.53a4.47 4.46 45.1 0 0-3-.01l-30.53 10.77zm1110.13 158.85q-10.75 14.61-25.09 24.54c-56.25 38.93-131.66 24.46-181.35-17.54-39.42-33.33-63.41-82.86-54.89-134.3q3.14-18.93 12.82-35.65.03-.05-.03-.09l-.21-.13q-.08-.05-.13.03-7.79 10.95-15.16 21.18-6.85 9.5-10.83 16.77c-16.14 29.44-17.47 64.67-6.94 96.97q8.26 25.31 26.59 48.93c5.3 6.83 12.28 13.56 18.69 19.38q25.62 23.27 60.19 35.36 9.47 3.31 18.66 4.52c30.3 3.99 60.65 2.58 88.23-8.66 32.34-13.16 57.87-38.95 70.71-71.65q.72-1.85-.67-.44-.06.06-.59.78zm-274.8 189.48q22.79 10.54 39.83 14.3 19.11 4.22 44.03 5.05 26.38.87 50.79-4.05 60.07-12.1 100.3-56.37 18.73-20.6 30.6-45.99 1.69-3.61-.84-.54c-11.85 14.38-25.56 26.06-42.19 35.33-42.33 23.61-94.04 27.09-141.56 17.01q-21.22-4.5-44.74-15.42c-51.66-23.99-95.34-66.94-117.1-119.33-14.82-35.67-19.46-75.22-10.26-112.76q4.08-16.67 11.4-30.97 1.39-2.72-.5-.33-10.49 13.27-21.06 26.5c-53.95 67.56-32.13 162.97 18.65 223.93q34.42 41.34 82.65 63.64zm-219.07-40.49q1.04-10.62-.21-21.24-.12-1.01-1.13-1.11c-4.45-.44-9.97-.86-11.65 4.48q-6.05 19.33-8.92 38.77c-.17 1.17-.63 1.85-1.52 2.6-8.61 7.29-30.88 21.39-40.82 8.44a.48.47-29.3 0 1 .21-.73c17.38-6.7 34.23-17.97 32.77-38.84-.62-8.88-5.05-16.24-14.9-16.97-13.3-.99-25.07 7.89-31.56 18.71q-6.96 11.63-8.46 25.75a2.19 2.16 76.1 0 1-.92 1.55q-8.27 5.72-17.89 10.08-1.32.6-.7-.7c7.66-16.01 12.79-38.43-5.93-49.09-4.49-2.56-8.72-1.76-13.34.26q-1.58.69-.55-.69c9.5-12.68 17.23-27.14 20.38-42.41q3.04-14.74-2.8-27.97c-5.69-12.88-19.45-7-27.08-.45q-3.47 2.98-6.63 9.22-11.21 22.11-13.64 43.56-3.67 32.34-7.95 65.02c-.71 5.43-9.24 8.76-13.67 9.17q-.85.08-1.17-.71c-2.35-5.68-1.89-12.38-.96-18.47q1.97-12.84 3.47-23.07c.5-3.41 1.55-12.77-1.61-15.26-7.23-5.67-14.34.49-18.48 6.74q-8.22 12.43-14.38 22.93-.32.54-.82.97-1.01.84-.65-.42c1.4-4.79 9.55-31.44.22-31.92-8.74-.44-16.03 6.44-20.07 13.54q-4.97 8.73-10.15 17.68-2.45 4.24-1.49-.56c1.72-8.59 3.39-16.88 3.44-25.7q.04-5.48-4.88-5.7c-4.37-.18-9.4-.62-11.14 4.5q-2.35 6.9-4.25 16.24-2.57 12.59-4.97 25.11-.32 1.69-1.52 2.6c-7.78 5.86-31.55 19.89-38.52 6.66a1.33 1.32-25.2 0 1 .67-1.84c12.05-4.95 28.38-13.68 31.9-27.4q3.4-13.24-4.85-20.25-7.06-6-17.45-5.19-11.5.89-19.64 11.21c-6.13 7.77-9.17 17.9-10.29 28.38q-.1.96-1.07 1.04-6.47.52-12.08-2.78c-1.15-.67-3.14-1.28-4.25-.2-3.11 3.03-7.26 11.39-.94 13.94q6.85 2.75 15.66 4.72a2.73 2.73 0 0 1 1.99 1.77c3.6 10.24 12.27 20.19 23.57 20.65 12.23.5 24.47-3.84 34.84-10.37a.71.71 0 0 1 1.06.42c1.22 4.53 3.89 8.63 8.9 9.2q5.64.64 9.01-4.25 3.61-5.27 6.17-11.13 4.6-10.58 8.98-20.19 2.12-4.67 5.25-9.57a.39.39 0 0 1 .71.14q.11.56.01 1.11c-1.71 10.23-3.46 21.22-3.49 31.83-.02 8.48 6.39 12.23 14.14 10.97 3.92-.64 6.43-7.03 7.38-10.32q4.56-15.79 12.58-31.58.25-.48.73-.7a.4.4 0 0 1 .56.41c-1.09 10.3-1.8 21.27-.2 31.55q.73 4.66 2.5 7.76c3.56 6.2 12.36 5.49 18.37 2.6q5.33-2.57 11.1-5.84a2.37 2.35 45.2 0 1 2.36.02c8.86 5.22 18.93 8.59 28.92 6.43 16.48-3.57 32.1-7.96 46.87-15.86a.47.47 0 0 1 .63.18q10.81 18.13 32.99 16.55 14.4-1.02 26.35-10.63a.75.74-27.9 0 1 1.18.36c1.16 3.72 3.05 7.92 6.75 9.72 8.09 3.92 12.19-7.97 14.38-13.65q6.4-16.68 12.26-32.97.84-2.35 1.22.12c1.73 11.32 5.01 25.86 19.89 24.86q7.19-.48 13.92-3.88c3.8-1.92 8.32-4.1 10.99-7.34q2.75-3.32 1.95-8.89c-.64-4.49-4.62-4.78-7.94-2.78-5.27 3.18-11.71 6.71-17.39 5.87-5.55-.83-6.4-10.09-6.07-14.62.52-7.22 1.93-14.88-.71-21.93q-1.02-2.72-3.82-2.6c-9.88.44-16.6 13.09-20.3 21.82q-.25.6-.81.94-.68.42-.6-.38zm-415.99 662.69a.84.83 44.8 0 1 1.19 0q19.44 19.62 40.82 33.35c15.45 9.92 34.67 18.58 52.55 17.8 32.24-1.41 45.86-29.26 47.81-57.82 1.66-24.37-2.27-49.07-8.8-72.54a.84.83 73.9 0 1 .56-1.03c20.41-6.05 40.07-14.22 57.21-26.06 18.85-13.03 35.35-33.02 30.02-57.52-4.03-18.5-19.37-32.81-35.44-42.77-17.24-10.68-36.75-18.11-56.68-23.99a.79.79 0 0 1-.55-.93q4.75-21.31 5.22-42.7c.46-21.12-4.13-47.99-22.28-61.59-20.43-15.29-46.42-8.74-66.97 2.08-15.22 8.01-30.11 19.17-43.64 31.63q-.42.39-.85 0c-25.89-23.83-74.22-59.02-109.69-34.43-12.17 8.43-18.78 24.21-21.24 38.3-3.82 21.83-1.47 44.99 3.25 66.74a.93.92-13.6 0 1-.67 1.08q-19.08 5.16-37.33 13.5c-22.63 10.34-50.55 28.48-55.01 54.93-4.87 28.78 19.45 50.6 42.68 63.33q20.74 11.36 44.83 18.28a1.02 1.01-74 0 1 .69 1.26q-6.35 22.17-8.54 45.74c-1.48 15.96-.97 33.49 3.92 48.97 7.5 23.72 26.78 38.56 52.51 35.14 17.07-2.26 33.38-10.26 47.86-20.13q19.58-13.33 36.57-30.62zm701.81-340.99l-84.99.02a1.6 1.6 0 0 0-1.39.81l-18.78 32.55q-17.21 29.46-34.08 59.1-.4.72-.77.76-.54.07-1.12-.85l-52.72-91.62a1.52 1.52 0 0 0-1.31-.75l-85.18-.15-93.5-.14a.5.5 0 0 0-.44.75l233.59 404.8a.65.65 0 0 0 1.12 0l233.56-404.74a.54.54 0 0 0-.46-.81l-93.53.27z" class="B" fill="#000000"/><path d="M1115.16 123.35c-18.62 34.58-2.98 75.75 23.79 101.14 19.86 18.83 44.15 27.94 71.44 29.5 22.65 1.3 43.3-5.63 57.52-23.96q.12-.15.27-.05l.01.01q.14.09.06.23-4.89 8.82-10.41 15.95c-13.58 17.52-32.98 27.51-54.91 29.32-15.82 1.3-31.96-.26-46.48-6.36q-38.02-15.99-55.82-50.73c-13.76-26.85-12.31-57.76 4.82-82.16q4.39-6.26 9.42-13.01.1-.13.24-.04h0q.1.06.05.16z" class="b" fill="#000000"/><path d="M757.5 209.01q-6.49 1.53-12.2-.76l-.75-4.49q1.39.4 2.31 1.52.05.05.42.77.51.96 1.61.67 6.53-1.76 10.95-5.26 3.92-3.11 7.2-6.76 9.54-10.58 15.6-22.5c5.35-10.54 10.16-25.92 1.68-36.26-3.12-3.8-11.98-10.38-17.23-6.79q-6.27 4.29-9.49 10.17-1.52 2.77-3.3 5.5c-5.39 8.26-10.82 16.19-14.27 25.43-2.01 5.41-1.05 10.73-2.36 16.06l-9.68-14.29L759.51 132q3.1-1.18 5.68-5.35c7.2-2.08 12.61.71 18.05 5.38 10.9 9.36 8.07 26.45 2.45 38.12q-6.82 14.18-17.3 25.64-5.42 5.93-11.74 11.97a.9.89-49.1 0 0 .09 1.37q.23.15.76-.12z" class="I" fill="#000000"/><path d="M765.19 126.65q-2.58 4.17-5.68 5.35-8.52 3.37-16.97 10.28-11.88 9.72-29.02 16.7l-3.38-2.46q15.19-5.19 25.06-13.06 7.62-6.08 17.79-12.45 5.96-3.72 12.2-4.36z" class="T" fill="#000000"/><path d="M744.55 203.76l-6.88-17.45c1.31-5.33.35-10.65 2.36-16.06 3.45-9.24 8.88-17.17 14.27-25.43q1.78-2.73 3.3-5.5 3.22-5.88 9.49-10.17c5.25-3.59 14.11 2.99 17.23 6.79 8.48 10.34 3.67 25.72-1.68 36.26q-6.06 11.92-15.6 22.5-3.28 3.65-7.2 6.76-4.42 3.5-10.95 5.26-1.1.29-1.61-.67-.37-.72-.42-.77-.92-1.12-2.31-1.52z" class="U" fill="#000000"/><path d="M759.51 132l-31.52 40.02q-6.09-7.28-14.47-13.04 17.14-6.98 29.02-16.7 8.45-6.91 16.97-10.28z" class="J" fill="#000000"/><path fill="#c51436" d="M200.58 504.8q.48-3.33.35-6.14-.08-2.03-.09-3.85-.21-65.12-.04-128.63 0-.74-.72-.89-2.14-.44-4.27-.46-19.34-.14-39.52-.21-.57 0-1.06.17-.87.29-1.03-.27.13-.66.58-1.07.34-.31.8-.31 44.97.04 90.08-.06a.51.5 78.4 0 1 .46.31l21.34 53.15q.28.68 1.02.68h38.75a.47.47 0 0 0 .43-.66L200.77 175.93l-.12-37.11a1.47 1.46-10.3 0 0-1.97-1.36q-4.7 1.72-9.06 2.94-4.1 1.15-8.16 2.62-3.98 1.44-8.07 2.9-3.04 1.09-4.7.31l30.53-10.77a4.47 4.46 45.1 0 1 3 .01q84.05 30.09 167.14 59.53 1.59.56 2.94 1.43.43.29.37.8l-26.02 225.7a2.18 2.18 0 0 1-1.12 1.66L200.58 504.8z"/><path fill="#de1639" d="M200.77 175.93L93.11 416.51a.44.43 11.9 0 0 .4.61l39.22.12a.68.68 0 0 0 .63-.43l20.84-52.29q.16.56 1.03.27.49-.17 1.06-.17 20.18.07 39.52.21 2.13.02 4.27.46.72.15.72.89-.17 63.51.04 128.63.01 1.82.09 3.85.13 2.81-.35 6.14-70.22-38.82-140.28-77.65-3.8-2.11-5.34-3.39-.37-.31-.43-.79L28.46 197.3a1.33 1.32-12.9 0 1 .88-1.4l139.35-49.67q1.66.78 4.7-.31 4.09-1.46 8.07-2.9 4.06-1.47 8.16-2.62 4.36-1.22 9.06-2.94a1.47 1.46-10.3 0 1 1.97 1.36l.12 37.11z"/><path d="M710.14 156.52l3.38 2.46q8.38 5.76 14.47 13.04l9.68 14.29 6.88 17.45.75 4.49-3.73-1.66q.1-.92-.57-2-.72-1.15-1.07-2.4-2.33-8.33-7.11-16.8-5.56-9.85-13.78-16.93-6.98-6.01-13.16-9.54-3.4-1.94-7.27-3.9-3.58-1.81-7.71-3.18-6.24-2.07-11.66-3.4-27.89-6.82-56.37-3.48-14.42 1.7-19.79 3.59-3.28 1.16-6.54 1.97c-2.53.62-4.48 1.85-6.89 2.54-3.43.98-6.8 3.03-10.14 4.66q-5.29 2.58-12.08 8.23-7.38 6.14-12.37 15.19-.51.93-.98 2.99-.4 1.77-1.42 2.9l-.63-2.28c-.95-5.29 3.32-12.08 7.18-16.06q6.55-6 13.82-11.13 1.44-1.01 3.41-1.2.42-.04.43-.46.01-.36-.33-.38-8.78-.7-17.33-3.52-11.31-3.72-21.4-5.83-10.14-2.11-17.8-1.54-2.91.21-8.01 2.1-3.81.58-7.78-.14c17.83-8.12 38.63-1.96 56.18 3.99 6.5 2.21 16.51 3.98 22.95.91q23.67-11.3 51.77-12.47 17.78-.74 39.37 3.73 19.95 4.14 35.65 13.77z" class="K" fill="#000000"/><path d="M1278.82 305.08q.53-.72.59-.78 1.39-1.41.67.44c-12.84 32.7-38.37 58.49-70.71 71.65-27.58 11.24-57.93 12.65-88.23 8.66q-9.19-1.21-18.66-4.52-34.57-12.09-60.19-35.36c-6.41-5.82-13.39-12.55-18.69-19.38q-18.33-23.62-26.59-48.93c-10.53-32.3-9.2-67.53 6.94-96.97q3.98-7.27 10.83-16.77 7.37-10.23 15.16-21.18.05-.08.13-.03l.21.13q.06.04.03.09-9.68 16.72-12.82 35.65c-8.52 51.44 15.47 100.97 54.89 134.3 49.69 42 125.1 56.47 181.35 17.54q14.34-9.93 25.09-24.54z" class="b" fill="#000000"/><path d="M741.57 206.59q-16.11-5.99-32.94-7.77-18.3-1.94-33.13-1.02-10.17.63-25.58 2.83c-7.13 1.01-13.3 1.1-19.77-1.09q-7.27-2.45-13.6-4.26-11-3.14-26.3-4.28-13.76-1.03-37.24.24-.62-2.68-.35-4.21 1.02-1.13 1.42-2.9.47-2.06.98-2.99 4.99-9.05 12.37-15.19 6.79-5.65 12.08-8.23c3.34-1.63 6.71-3.68 10.14-4.66 2.41-.69 4.36-1.92 6.89-2.54q3.26-.81 6.54-1.97 5.37-1.89 19.79-3.59 28.48-3.34 56.37 3.48 5.42 1.33 11.66 3.4 4.13 1.37 7.71 3.18 3.87 1.96 7.27 3.9 6.18 3.53 13.16 9.54 8.22 7.08 13.78 16.93 4.78 8.47 7.11 16.8.35 1.25 1.07 2.4.67 1.08.57 2zm-182.36-37.9q-4.49-2.6-21.71-11.72-13.04-6.91-25.5-10.24 5.1-1.89 8.01-2.1 7.66-.57 17.8 1.54 10.09 2.11 21.4 5.83 8.55 2.82 17.33 3.52.34.02.33.38-.01.42-.43.46-1.97.19-3.41 1.2-7.27 5.13-13.82 11.13z" class="L" fill="#000000"/><path d="M504.22 146.59q3.97.72 7.78.14 12.46 3.33 25.5 10.24 17.22 9.12 21.71 11.72c-3.86 3.98-8.13 10.77-7.18 16.06q-2.18-.1-3.16 3.39a.82.82 0 0 1-1.06.55q-1.45-.52-.73-1.87a2.21 2.19-32.5 0 0 .26-1.15c-.26-5.88.76-13.43-4.4-17.9q-15.57-13.48-36.34-12.38-4.14.22-13.24 3.36c-1.88.65-2.62 1.88-2.92 3.77q-1.24 8.07 1.47 14.42c3.73 8.71 10.34 16.45 16.68 23.47q.23.26.58.22.14-.02.26-.09l-.42 2.11q-11.29-9.56-17.77-22.4c-2.72-5.38-4.33-12.38-2.71-18.55q1.07-4.12 5.27-8.35 4.53-4.58 10.42-6.76z" class="I" fill="#000000"/><path d="M552.03 184.75l.63 2.28q-.27 1.53.35 4.21c-4.99.77-9.97 1.08-14.97 1.85-6.04.93-13.35 1.08-19.49-.43q-2.4-.59-5.23-.62a1.57 1.56-80.5 0 0-1.5 1.08l-2.39 7.42q-.12.07-.26.09-.35.04-.58-.22c-6.34-7.02-12.95-14.76-16.68-23.47q-2.71-6.35-1.47-14.42c.3-1.89 1.04-3.12 2.92-3.77q9.1-3.14 13.24-3.36 20.77-1.1 36.34 12.38c5.16 4.47 4.14 12.02 4.4 17.9a2.21 2.19-32.5 0 1-.26 1.15q-.72 1.35.73 1.87a.82.82 0 0 0 1.06-.55q.98-3.49 3.16-3.39z" class="U" fill="#000000"/><path d="M200.77 175.93l106.89 240.63a.47.47 0 0 1-.43.66h-38.75q-.74 0-1.02-.68l-21.34-53.15a.51.5 78.4 0 0-.46-.31q-45.11.1-90.08.06-.46 0-.8.31-.45.41-.58 1.07l-20.84 52.29a.68.68 0 0 1-.63.43l-39.22-.12a.44.43 11.9 0 1-.4-.61l107.66-240.58zm-2.41 83.62l-28.88 69.65a.38.38 0 0 0 .35.53l30.28.02 31.11-.02a.51.5 78.4 0 0 .46-.71L201 255.56a.57.56-45.4 0 0-1.05.01l-1.59 3.98z" class="B" fill="#000000"/><path d="M1004.02 494.56q-48.23-22.3-82.65-63.64c-50.78-60.96-72.6-156.37-18.65-223.93q10.57-13.23 21.06-26.5 1.89-2.39.5.33-7.32 14.3-11.4 30.97c-9.2 37.54-4.56 77.09 10.26 112.76 21.76 52.39 65.44 95.34 117.1 119.33q23.52 10.92 44.74 15.42c47.52 10.08 99.23 6.6 141.56-17.01 16.63-9.27 30.34-20.95 42.19-35.33q2.53-3.07.84.54-11.87 25.39-30.6 45.99-40.23 44.27-100.3 56.37-24.41 4.92-50.79 4.05-24.92-.83-44.03-5.05-17.04-3.76-39.83-14.3z" class="b" fill="#000000"/><path d="M741.57 206.59l3.73 1.66q5.71 2.29 12.2.76 4.42-.94 9.01-1.77 1.35-.25 2.45 1.26c2.57 3.5 2.42 7.99 2.44 12.08.02 3.21-1.89 5.04-4.56 6.24-3.42 1.54-6.98 2.64-9.15 5.96q-3.67 5.64-5.8 11.43.68 2-.38 2.48-.69.32-.91-.41-.08-.26-.3-.37-.69-.32-.66.44.11 2.53-.96 3.75-4.79 8.99-9.35 16.91-3.23 5.62-6.15 7.66-4.02 2.82-6.75 3.07-4.74.45-9.17.95-1.83.21-3.74.5c-3.37.52-6.43 5.32-7.8 7.99q-.86 1.67-2.05 3.36-1.03 1.44-2.02 3.34-9.7 15.67-17.43 33.34-9.36-8.6-21.85-12.05a1.67 1.65 5.2 0 1-1.21-1.43l-.56-5.79-.27-6.17-.45-8.4q-.03-.54-.56-.42-10.78 2.39-18.4 3.27-14.42 1.65-28.89 1.68-.79 0-.54.76l2.85 8.52 3.4 11.43q-4.41 4.05-8.57 8.06-3.96 3.82-6.14 7.64-2.63 4.62-4.6 9.78-1.83-3.54-2.71-6.85-2.77-10.44-6.44-20.5c-3.64-9.95-12.07-22.65-23.08-24.3a.91.9-84.4 0 1-.77-.94l.01-.3a.52.52 0 0 1 .62-.48q11.76 2.46 24.03 3.61 3.14.29 8.33.36 3.8.06 8.34.25 16.16.34 28.62-1.29 17.72-2.31 26.18-3.85 18.9-3.43 41.88-9.96.54-.15.97-.58a.47.47 0 0 0-.31-.81q-14.44-.59-28.79-4.93c-9.04-2.74-13.5-6.79-16.35-15.51q-2.85-8.76-4.64-17.3-1.59-7.55-5.03-15.78-4.11-9.81-14.88-7.07c-3.68.93-5.71 6.78-6.58 10.03q-1.13 4.2-2.54 7.81-2.62 6.67-6.71 14.57c-3.52 6.8-8.56 14.51-15.57 16.45q-17.4 4.84-37.95 4.37-8.71-.88-16.71-4.02c-10.13-3.98-15.38-14.98-20.14-24.08q-5.89-13.97-8.85-29.04-.14-.7-1.48-2.06c-2.4-2.42-5.91-3.29-7.51-6.55q-.75-1.53-1.36-2.7l.42-2.11 2.39-7.42a1.57 1.56-80.5 0 1 1.5-1.08q2.83.03 5.23.62c6.14 1.51 13.45 1.36 19.49.43 5-.77 9.98-1.08 14.97-1.85q23.48-1.27 37.24-.24 15.3 1.14 26.3 4.28 6.33 1.81 13.6 4.26c6.47 2.19 12.64 2.1 19.77 1.09q15.41-2.2 25.58-2.83 14.83-.92 33.13 1.02 16.83 1.78 32.94 7.77zm-210.13-4.16l.34-1.83a.46.46 0 0 0-.37-.54l-.51-.09a9.92 1.32 10.4 0 0-10-.49l-.02.14a9.92 1.32 10.4 0 0 9.52 3.08l.51.1a.46.46 0 0 0 .53-.37zm23.1 3.3c-5.46.84-14.88 3.97-16.58 9.59q-1.28 4.24-.82 8.64.47 4.56.88 9.06c.4 4.46 1.92 9.1 3.58 13.18 2.53 6.16 7.08 9.04 13.8 10.13 10.72 1.74 20.73 1.35 31.43.33 3.06-.29 11.59-1.29 13.63-3.55q8.9-9.82 13.39-21.94c1.64-4.42 3.57-8.66 3.28-13.45-.17-2.79-3.1-4.52-5.32-5.56-7.77-3.62-16.69-5.31-25.39-6.45-10.82-1.42-21.36-1.61-31.88.02zm150.19 60.12q9.91 1.31 18.55.37c9.42-1.02 15.09-14.94 16.75-23.04 1-4.88 2.37-9.3 1.88-14.47-.46-4.83-8.84-9.55-12.75-10.91q-6.8-2.35-11.06-3.14-10.67-1.98-20.93-2.22-5.91-.13-18.32 1.02c-2.35.22-4.95.87-7.31 1.4-2.11.48-8.89 2.93-9.15 5.88q-.47 5.13 1.55 12.49 2.19 8.02 5.67 16.1c3.26 7.6 7.98 11.22 15.55 12.97q9.78 2.25 19.57 3.55zm50.39-51.24l-9.29.26a.48.48 0 0 0-.47.49l.01.45a1.99 1.67-1.6 0 0 2.04 1.62l6.28-.18a1.99 1.67-1.6 0 0 1.94-1.72l-.01-.45a.48.48 0 0 0-.5-.47z" class="c" fill="#000000"/><path d="M531.44 202.43a.46.46 0 0 1-.53.37l-.51-.1a9.92 1.32 10.4 0 1-9.52-3.08l.02-.14a9.92 1.32 10.4 0 1 10 .49l.51.09a.46.46 0 0 1 .37.54l-.34 1.83zm23.1 3.3c10.52-1.63 21.06-1.44 31.88-.02 8.7 1.14 17.62 2.83 25.39 6.45 2.22 1.04 5.15 2.77 5.32 5.56.29 4.79-1.64 9.03-3.28 13.45q-4.49 12.12-13.39 21.94c-2.04 2.26-10.57 3.26-13.63 3.55-10.7 1.02-20.71 1.41-31.43-.33-6.72-1.09-11.27-3.97-13.8-10.13-1.66-4.08-3.18-8.72-3.58-13.18q-.41-4.5-.88-9.06-.46-4.4.82-8.64c1.7-5.62 11.12-8.75 16.58-9.59zm20.15 19.98q-1.02.06-.53-.84.62-1.14 2.01-1.42a1.14 1.14 0 0 0 .41-2.06l-2.34-1.57a1.61 1.6-46.8 0 0-1.88.06c-2.7 2.07-4.74 4.41-5.42 7.85q-1.51 7.59.19 12.61c1.28 3.76 5.73 3.6 7.77.52q4.25-6.42 3.15-15.72a.71.71 0 0 0-1.21-.42q-.9.92-2.15.99zm130.04 40.14q-9.79-1.3-19.57-3.55c-7.57-1.75-12.29-5.37-15.55-12.97q-3.48-8.08-5.67-16.1-2.02-7.36-1.55-12.49c.26-2.95 7.04-5.4 9.15-5.88 2.36-.53 4.96-1.18 7.31-1.4q12.41-1.15 18.32-1.02 10.26.24 20.93 2.22 4.26.79 11.06 3.14c3.91 1.36 12.29 6.08 12.75 10.91.49 5.17-.88 9.59-1.88 14.47-1.66 8.1-7.33 22.02-16.75 23.04q-8.64.94-18.55-.37zm.957-13.707a11.83 5.73 83.9 0 0 4.441-12.372 11.83 5.73 83.9 0 0-6.955-11.154 11.83 5.73 83.9 0 0-4.441 12.372 11.83 5.73 83.9 0 0 6.955 11.154zm49.433-37.533a.48.48 0 0 1 .5.47l.01.45a1.99 1.67-1.6 0 1-1.94 1.72l-6.28.18a1.99 1.67-1.6 0 1-2.04-1.62l-.01-.45a.48.48 0 0 1 .47-.49l9.29-.26z" class="B" fill="#000000"/><path d="M606.76 294.95q-3.95-3.72-8.43-6.49-7.45-4.61-8.35-5.29-5.94-4.44-11.19-9.42-1.69-1.75-2.41-1.88-5.59-.96-11.32-.77 20.55.47 37.95-4.37c7.01-1.94 12.05-9.65 15.57-16.45q4.09-7.9 6.71-14.57 1.41-3.61 2.54-7.81c.87-3.25 2.9-9.1 6.58-10.03q10.77-2.74 14.88 7.07 3.44 8.23 5.03 15.78 1.79 8.54 4.64 17.3c2.85 8.72 7.31 12.77 16.35 15.51q14.35 4.34 28.79 4.93a.47.47 0 0 1 .31.81q-.43.43-.97.58-22.98 6.53-41.88 9.96-8.46 1.54-26.18 3.85-12.46 1.63-28.62 1.29zm27.35-32.45q.98 1.67 1.46 4.01a.9.9 0 0 0 1.65.27q1.04-1.77 2.26-3.16c1.46-1.66 5.18-.64 7.13-.35a.6.59-88.1 0 0 .68-.64q-.3-3.18-1.47-6.24c-1.65-4.34-11.52-3.53-15.33-2.76-4.42.88-4.78 5.63-5.01 9.21a.55.54 85 0 0 .67.57l6.36-1.58a1.45 1.45 0 0 1 1.6.67z" class="L" fill="#000000"/><g class="c"><path d="M574.69 225.71q1.25-.07 2.15-.99a.71.71 0 0 1 1.21.42q1.1 9.3-3.15 15.72c-2.04 3.08-6.49 3.24-7.77-.52q-1.7-5.02-.19-12.61c.68-3.44 2.72-5.78 5.42-7.85a1.61 1.6-46.8 0 1 1.88-.06l2.34 1.57a1.14 1.14 0 0 1-.41 2.06q-1.39.28-2.01 1.42-.49.9.53.84z" fill="#000000"/><ellipse cx="0" cy="0" transform="matrix(.106264 .994338 -.994338 .106264 704.43 240.38)" rx="11.83" ry="5.73" fill="#000000"/></g><path d="M528.21 243c4.76 9.1 10.01 20.1 20.14 24.08q8 3.14 16.71 4.02 5.73-.19 11.32.77.72.13 2.41 1.88-19.84 2.18-38.6-3.53-1.95-.59-3.39-2.12-3.86-4.07-6.07-8.59c-1.14-2.32-1.69-4.86-2.64-7.28q-.68-1.74-1.65-.14-6.75 11.05-14.06 22.77c-9.82 15.73-20.68 36.15-18.84 55.32q1.19 12.36 7.89 23.65 8.15 13.73 20.87 22.57 7.72 5.35 15.74 9.4c24.88 12.55 52.39 19.98 80.61 20.05a.99.97-17.3 0 1 .8.41q.36.49.3.99-.17 1.43-1.61 1.45-22.41.31-43.49-6.07a1.52 1.51 29.9 0 0-1.54.41q-7.75 8.17-14.01 17.66l-3.46 6.12a1.15 1.14-53 0 1-1.8.26l-2.42-2.39 16.22-22.74a.77.77 0 0 0-.44-1.2q-9.05-2.22-17.58-5.84-4.34-1.83-8.41-3.54-.24-.1-.44-.06-.25.05-.44.17-.42-.77-1.06-1.08c-12.09-6.05-24.54-13.06-33.36-23.56q-7.59-9.02-11.98-19.21c-9.87-22.94-.55-47.53 12.2-67.98q10.77-17.28 17.73-30.08.05-.1 1.4-3.38.95-2.29 2.95-3.19z" class="T" fill="#000000"/><path d="M751.89 244.21q.92 3.51 2.07 5.96 2.97 6.38 6.12 13.16c8.57 18.45 12.69 36.92 11.1 57.18q-1.22 15.57-8.64 31.5-2.36 5.07-5.35 8.68-.69.29-1.42-.17-.93-.67-1.7-2.11 1.12-1.05 2.24-1.11.49-.02.72-.46c.99-1.8 1.49-3.8 2.51-5.55q5.07-8.72 7.38-18.93 4.5-19.9.6-38.76c-2.78-13.42-7.54-26.6-14.65-38.39q-1.2-1.99-4.19-5.11 1.07-1.22.96-3.75-.03-.76.66-.44.22.11.3.37.22.73.91.41 1.06-.48.38-2.48z" class="K" fill="#000000"/><path d="M748.68 250.1q2.99 3.12 4.19 5.11c7.11 11.79 11.87 24.97 14.65 38.39q3.9 18.86-.6 38.76-2.31 10.21-7.38 18.93c-1.02 1.75-1.52 3.75-2.51 5.55q-.23.44-.72.46-1.12.06-2.24 1.11 1.6-7.41 4.36-16.67 3.12-10.47 2.45-20.33-.61-9.03-5.9-14.75-15.07-16.33-37.97-15.09-6.2.33-15.36 2.31.99-1.9 2.02-3.34 1.19-1.69 2.05-3.36c1.37-2.67 4.43-7.47 7.8-7.99q1.91-.29 3.74-.5 4.43-.5 9.17-.95 2.73-.25 6.75-3.07 2.92-2.04 6.15-7.66 4.56-7.92 9.35-16.91z" class="L" fill="#000000"/><path d="M578.79 273.75q5.25 4.98 11.19 9.42.9.68 8.35 5.29 4.48 2.77 8.43 6.49-4.54-.19-8.34-.25-5.19-.07-8.33-.36-12.27-1.15-24.03-3.61a.52.52 0 0 0-.62.48l-.01.3a.91.9-84.4 0 0 .77.94c11.01 1.65 19.44 14.35 23.08 24.3q3.67 10.06 6.44 20.5.88 3.31 2.71 6.85 2.82 6.67 9.59 7.84c11.23 1.94 24.79 1.34 37.67 1.07l-1.19.91q-.44.34-.52.89-.17 1.27-1.1 2.1c-5.55 4.92-9 10.86-12.27 17.61q-.21.46-.21.96 0 1.51-.66 2.88-4.61 9.62-6.29 17.46-.69 3.24-1.47 6.3-.48 1.87-.47 3.99c0 2.04-1.36 3.98-1.79 6.1q-1.37 6.83-1.8 13.45a1.02 1.01 16.9 0 1-1.52.81q-2.73-1.57-5.67-3.12c-7.84-4.13-14.22-2.07-21.62 1.62q-2.23 1.12-4.83.03-7.25-3.04-9.4-3.4-6.37-1.07-8.38-.64-3.71.79-7.4-.26 6.26-9.49 14.01-17.66a1.52 1.51 29.9 0 1 1.54-.41q21.08 6.38 43.49 6.07 1.44-.02 1.61-1.45.06-.5-.3-.99a.99.97-17.3 0 0-.8-.41c-28.22-.07-55.73-7.5-80.61-20.05q-8.02-4.05-15.74-9.4-12.72-8.84-20.87-22.57-6.7-11.29-7.89-23.65c-1.84-19.17 9.02-39.59 18.84-55.32q7.31-11.72 14.06-22.77.97-1.6 1.65.14c.95 2.42 1.5 4.96 2.64 7.28q2.21 4.52 6.07 8.59 1.44 1.53 3.39 2.12 18.76 5.71 38.6 3.53z" class="J" fill="#000000"/><path d="M634.11 262.5a1.45 1.45 0 0 0-1.6-.67l-6.36 1.58a.55.54 85 0 1-.67-.57c.23-3.58.59-8.33 5.01-9.21 3.81-.77 13.68-1.58 15.33 2.76q1.17 3.06 1.47 6.24a.6.59-88.1 0 1-.68.64c-1.95-.29-5.67-1.31-7.13.35q-1.22 1.39-2.26 3.16a.9.9 0 0 1-1.65-.27q-.48-2.34-1.46-4.01z" class="I" fill="#000000"/><path fill="#c51436" d="M200.11 329.75q.85-7.97.75-15.75-.28-20.64-.3-41.75 0-3.05.19-4.29.07-.49.49-.76 1.4-.91.85-2.7-.62-2.03-1.3-3.88-.17-.47-.66-.53-1.2-.17-1.77-.54l1.59-3.98a.57.56-45.4 0 1 1.05-.01l30.68 73.46a.51.5 78.4 0 1-.46.71l-31.11.02z"/><path fill="#de1639" d="M198.36 259.55q.57.37 1.77.54.49.06.66.53.68 1.85 1.3 3.88.55 1.79-.85 2.7-.42.27-.49.76-.19 1.24-.19 4.29.02 21.11.3 41.75.1 7.78-.75 15.75l-30.28-.02a.38.38 0 0 1-.35-.53l28.88-69.65z"/><path d="M754.07 358.41q.77 1.44 1.7 2.11c.08.73.09 1.28-.4 1.9q-5.15 6.45-8.88 9.49-15.12 12.34-35.01 18.41-9.07 2.77-19.24 5.42-2.06.54-2.42 2.18.12-3.52 1.3-6.85.81-2.29.59-3.75c-.27-1.74-.31-3.35-.14-5.1.4-4.13.17-8.61-1.57-12.45q-1.28-2.83-1.47-5.62-.12-1.81-1.32-3.81-2.34-3.93-3.95-5.85-3.36-4.02-10.15-7.31.84.47.61-.44 2.95.47 4.14-2.39 4.34-10.49 6.36-17.13 7.73-17.67 17.43-33.34 9.16-1.98 15.36-2.31 22.9-1.24 37.97 15.09 5.29 5.72 5.9 14.75.67 9.86-2.45 20.33-2.76 9.26-4.36 16.67z" class="J" fill="#000000"/><path d="M660.33 301.78l-.5-3.23a.99.99 0 0 0-1.51-.69c-.52.32-1.03.52-1.66.54q-15.62.59-24.16 2.14-8.56 1.55-18.16 6.65l-2.85-8.52q-.25-.76.54-.76 14.47-.03 28.89-1.68 7.62-.88 18.4-3.27.53-.12.56.42l.45 8.4z" class="T" fill="#000000"/><path d="M660.33 301.78l.27 6.17q-.28 5.14-1.65 10.04-1.18 4.2-5.53 7.49-3.18.14-8.13 2.37c-2.03-2.78-3.14-6.74-4-9.42q-3.02-9.43-5.25-14.35-.03-.06-.09-.04l-.25.09q-.37.13-.26.51 3.52 11.85 4.68 23.75a1.24 1.24 0 0 1-1.07 1.35q-8.61 1.13-16.35-3.48-2.21-1.31-4.96-7.64l-3.4-11.43q9.6-5.1 18.16-6.65 8.54-1.55 24.16-2.14c.63-.02 1.14-.22 1.66-.54a.99.99 0 0 1 1.51.69l.5 3.23z" class="J" fill="#000000"/><path d="M645.29 327.85l.07.34q.07.39-.29.56-3.35 1.53-6.37 1.88-2.74.33-5.25 1.35-15.07 6.15-29.1 13.82-.72.4-.27 1.09.4.61 1.37.91 11.43 3.48 23.8 2.96 16.82-.72 21.93-.58-2.92 2.31-5.49 2.83c-12.88.27-26.44.87-37.67-1.07q-6.77-1.17-9.59-7.84 1.97-5.16 4.6-9.78 2.18-3.82 6.14-7.64 4.16-4.01 8.57-8.06 2.75 6.33 4.96 7.64 7.74 4.61 16.35 3.48a1.24 1.24 0 0 0 1.07-1.35q-1.16-11.9-4.68-23.75-.11-.38.26-.51l.25-.09q.06-.02.09.04 2.23 4.92 5.25 14.35c.86 2.68 1.97 6.64 4 9.42zm15.31-19.9l.56 5.79a1.67 1.65 5.2 0 0 1.21 1.43q12.49 3.45 21.85 12.05-2.02 6.64-6.36 17.13-1.19 2.86-4.14 2.39-.75.01-1-.27-.26-.3.04-.56c3.96-3.36 6.21-9.79 7.77-14.52a1.35 1.34-67.6 0 0-.67-1.62q-11.7-5.95-26.44-4.29 4.35-3.29 5.53-7.49 1.37-4.9 1.65-10.04z" class="I" fill="#000000"/><path d="M653.42 325.48q14.74-1.66 26.44 4.29a1.35 1.34-67.6 0 1 .67 1.62c-1.56 4.73-3.81 11.16-7.77 14.52q-.3.26-.04.56.25.28 1 .27.23.91-.61.44-11.62-2.11-21.93 3-5.11-.14-21.93.58-12.37.52-23.8-2.96-.97-.3-1.37-.91-.45-.69.27-1.09 14.03-7.67 29.1-13.82 2.51-1.02 5.25-1.35 3.02-.35 6.37-1.88.36-.17.29-.56l-.07-.34q4.95-2.23 8.13-2.37z" class="U" fill="#000000"/><path d="M787.84 401.96q.09-.27.01-.5-.07-.22-.31-.31-.41-.15-.75.14-.17-.35-.63-.35l-18.18-9.54q-1.36-2.68-2.47-1.95-.07-.7-.3-.92-5.72-5.42-5.87-13.46a1.27 1.26 88.9 0 1 1.23-1.29q6.65-.17 13.45.76a1.06 1.05-79.9 0 0 1.17-.82q1.58-7.52 3.78-13.88c.71-2.06 2.2-4.05 4.46-4.51 5.3-1.09 6.66 3.24 6.56 7.42q-.1 4.26.63 8.57.2 1.17 1.37.95c3.73-.71 6.82-3.96 9.55-6.4 1.72-1.54 4.58-2.75 6.64-1.09 3.35 2.7 2.67 6.83.32 10q-3.49 4.71-6.78 9.6a.47.46-62.3 0 0 .21.69q.83.32 1.73.18 5.02-.76 9.15-.4c1.93.16 2.81 2.19 2.93 3.89q.32 4.44-4.4 7.18c-7.38 4.3-13.97 5.01-22.54 5.39q-.72.03-.96.65zm-9.33-6.58q3.44 1.52 7.83 2.88c7.96 2.46 18.32 0 24.75-4.2q3.36-2.18 2.84-5.89a2.07 2.07 0 0 0-2.43-1.75q-5.82 1.11-11.25.39a.77.76 8.3 0 1-.66-.88q.54-3.19 2.7-5.71c2.01-2.34 10.37-11.88 4.43-14.12q-.89-.34-1.8.03c-3.01 1.25-5.86 4.49-8.3 6.69-2.54 2.28-7.66 2.98-8.21-1.65q-.59-5.08-.38-10.61c.1-2.68-2.25-4.61-4.79-3.14q-2.33 1.34-3.14 4.57c-1.19 4.73-2.38 9.37-3.29 13.98a.99.98-82.3 0 1-1.03.79l-14.04-.94a.57.56 88.3 0 0-.6.64c1.1 8.49 6.74 12.11 13.19 16.57q1.98 1.37 4.18 2.35z" class="I" fill="#000000"/><path d="M778.51 395.38q-2.2-.98-4.18-2.35c-6.45-4.46-12.09-8.08-13.19-16.57a.57.56 88.3 0 1 .6-.64l14.04.94a.99.98-82.3 0 0 1.03-.79c.91-4.61 2.1-9.25 3.29-13.98q.81-3.23 3.14-4.57c2.54-1.47 4.89.46 4.79 3.14q-.21 5.53.38 10.61c.55 4.63 5.67 3.93 8.21 1.65 2.44-2.2 5.29-5.44 8.3-6.69q.91-.37 1.8-.03c5.94 2.24-2.42 11.78-4.43 14.12q-2.16 2.52-2.7 5.71a.77.76 8.3 0 0 .66.88q5.43.72 11.25-.39a2.07 2.07 0 0 1 2.43 1.75q.52 3.71-2.84 5.89c-6.43 4.2-16.79 6.66-24.75 4.2q-4.39-1.36-7.83-2.88z" class="U" fill="#000000"/><path fill="#e45339" d="M785.55 454.45q.56-.34.81-.94c3.7-8.73 10.42-21.38 20.3-21.82q2.8-.12 3.82 2.6c2.64 7.05 1.23 14.71.71 21.93-.33 4.53.52 13.79 6.07 14.62 5.68.84 12.12-2.69 17.39-5.87 3.32-2 7.3-1.71 7.94 2.78q.8 5.57-1.95 8.89c-2.67 3.24-7.19 5.42-10.99 7.34q-6.73 3.4-13.92 3.88c-14.88 1-18.16-13.54-19.89-24.86q-.38-2.47-1.22-.12-5.86 16.29-12.26 32.97c-2.19 5.68-6.29 17.57-14.38 13.65-3.7-1.8-5.59-6-6.75-9.72a.75.74-27.9 0 0-1.18-.36q-11.95 9.61-26.35 10.63-22.18 1.58-32.99-16.55a.47.47 0 0 0-.63-.18c-14.77 7.9-30.39 12.29-46.87 15.86-9.99 2.16-20.06-1.21-28.92-6.43a2.37 2.35 45.2 0 0-2.36-.02q-5.77 3.27-11.1 5.84c-6.01 2.89-14.81 3.6-18.37-2.6q-1.77-3.1-2.5-7.76c-1.6-10.28-.89-21.25.2-31.55a.4.4 0 0 0-.56-.41q-.48.22-.73.7-8.02 15.79-12.58 31.58c-.95 3.29-3.46 9.68-7.38 10.32-7.75 1.26-14.16-2.49-14.14-10.97.03-10.61 1.78-21.6 3.49-31.83q.1-.55-.01-1.11a.39.39 0 0 0-.71-.14q-3.13 4.9-5.25 9.57-4.38 9.61-8.98 20.19-2.56 5.86-6.17 11.13-3.37 4.89-9.01 4.25c-5.01-.57-7.68-4.67-8.9-9.2a.71.71 0 0 0-1.06-.42c-10.37 6.53-22.61 10.87-34.84 10.37-11.3-.46-19.97-10.41-23.57-20.65a2.73 2.73 0 0 0-1.99-1.77q-8.81-1.97-15.66-4.72c-6.32-2.55-2.17-10.91.94-13.94 1.11-1.08 3.1-.47 4.25.2q5.61 3.3 12.08 2.78.97-.08 1.07-1.04c1.12-10.48 4.16-20.61 10.29-28.38q8.14-10.32 19.64-11.21 10.39-.81 17.45 5.19 8.25 7.01 4.85 20.25c-3.52 13.72-19.85 22.45-31.9 27.4a1.33 1.32-25.2 0 0-.67 1.84c6.97 13.23 30.74-.8 38.52-6.66q1.2-.91 1.52-2.6 2.4-12.52 4.97-25.11 1.9-9.34 4.25-16.24c1.74-5.12 6.77-4.68 11.14-4.5q4.92.22 4.88 5.7c-.05 8.82-1.72 17.11-3.44 25.7q-.96 4.8 1.49.56 5.18-8.95 10.15-17.68c4.04-7.1 11.33-13.98 20.07-13.54 9.33.48 1.18 27.13-.22 31.92q-.36 1.26.65.42.5-.43.82-.97 6.16-10.5 14.38-22.93c4.14-6.25 11.25-12.41 18.48-6.74 3.16 2.49 2.11 11.85 1.61 15.26q-1.5 10.23-3.47 23.07c-.93 6.09-1.39 12.79.96 18.47q.32.79 1.17.71c4.43-.41 12.96-3.74 13.67-9.17q4.28-32.68 7.95-65.02 2.43-21.45 13.64-43.56 3.16-6.24 6.63-9.22c7.63-6.55 21.39-12.43 27.08.45q5.84 13.23 2.8 27.97c-3.15 15.27-10.88 29.73-20.38 42.41q-1.03 1.38.55.69c4.62-2.02 8.85-2.82 13.34-.26 18.72 10.66 13.59 33.08 5.93 49.09q-.62 1.3.7.7 9.62-4.36 17.89-10.08a2.19 2.16 76.1 0 0 .92-1.55q1.5-14.12 8.46-25.75c6.49-10.82 18.26-19.7 31.56-18.71 9.85.73 14.28 8.09 14.9 16.97 1.46 20.87-15.39 32.14-32.77 38.84a.48.47-29.3 0 0-.21.73c9.94 12.95 32.21-1.15 40.82-8.44.89-.75 1.35-1.43 1.52-2.6q2.87-19.44 8.92-38.77c1.68-5.34 7.2-4.92 11.65-4.48q1.01.1 1.13 1.11 1.25 10.62.21 21.24-.08.8.6.38zm-143.99-18.6c7.67-13.15 15.12-27.05 20.38-40.67 2.48-6.4 4.57-14.15 1.91-20.71a1.15 1.15 0 0 0-1.77-.48q-2.94 2.3-4.87 5.45-4.91 7.99-7.85 18.08-5.55 19.04-8.72 38-.44 2.66.92.33zm85.28 11.85c-5.21 6.01-9.02 15.69-8.85 23.07q.02 1.33 1.35 1.15 7.85-1.05 13.25-6.49c5.04-5.07 8.18-13.68 2.42-19.17-2.57-2.45-6.19-.84-8.17 1.44zM478.9 472.14c6.45-1.62 11.69-4.27 16.31-9.34 3.09-3.38 4.85-8.58 3.06-12.99-2.16-5.35-7.86-3.94-11.13-.79q-9.15 8.79-8.9 22.61.01.68.66.51zm165.36-13.29q-4.77 10.62-6.4 24.04-.62 5.08-.09 9.76a1.38 1.36 4.8 0 0 1 1.17q17.42 4.78 25-11.09c3.5-7.31 5.34-17.49 2.14-25.29q-2.47-5.99-8.08-6.42-9.72-.74-13.57 7.83z"/><path d="M755.77 360.52q.73.46 1.42.17-1.35 5.59-5.59 9.94-3.91 4.02-7.84 8.1-.36.37-.34 1.22l-.41-.11q-.33-.08-.63.1l-7.46 4.4q-9.12 5.12-18.33 8.58a.91.9-36.4 0 0-.24 1.56q13.29 10.37 24.26 23.28-3.21 1.31-5.28-.84-4.13-4.29-5.84-5.76-7.64-7.7-15.68-14.01-2.78-2.18-4.95-1.59-9.24 2.54-18.66 4.45-.63.13-.58-1.52.16-.2.2-.57.36-1.64 2.42-2.18 10.17-2.65 19.24-5.42 19.89-6.07 35.01-18.41 3.73-3.04 8.88-9.49c.49-.62.48-1.17.4-1.9z" class="T" fill="#000000"/><path d="M661.94 395.18c-5.26 13.62-12.71 27.52-20.38 40.67q-1.36 2.33-.92-.33 3.17-18.96 8.72-38 2.94-10.09 7.85-18.08 1.93-3.15 4.87-5.45a1.15 1.15 0 0 1 1.77.48c2.66 6.56.57 14.31-1.91 20.71z" class="B" fill="#000000"/><path d="M743.42 379.95l9.95 17.05a.92.9 63.7 0 0 1.12.39q6.42-2.56 11.02-7.94 1.11-.73 2.47 1.95.44 1.16-.17 1.9-5.93 7.31-15.91 9.23-4.88.94-10.14.94a.9.9 0 0 1-.74-1.41q.56-.8.97-1.7 1.58-3.48.02-6.5-2.85-5.53-7.09-9.52l7.46-4.4q.3-.18.63-.1l.41.11z" class="K" fill="#000000"/><path d="M734.92 384.34q4.24 3.99 7.09 9.52 1.56 3.02-.02 6.5-.41.9-.97 1.7a.9.9 0 0 0 .74 1.41q5.26 0 10.14-.94 9.98-1.92 15.91-9.23.61-.74.17-1.9l18.18 9.54q-2.41.07-3.32 2.06-3.75 8.14-6.5 15.79a.24.24 0 0 0 .43.22q.57-.81 1.56-.71.62.06.87-.51 1.33-3.04 3.04-6.19.97-1.79 1.41-3.74.42-1.9 1.48-3.61.28-.46.2-.99-.26-1.73 1.46-1.97.34-.29.75-.14.24.09.31.31.08.23-.01.5-2.84 9.45-7.35 17.82a1.51 1.5 13.8 0 1-1.31.79q-12.13.07-16.96 10.58a.99.99 0 0 1-1.67.2c-2.51-3.13-5.12-6.85-8.67-8.79-3.56-1.94-7.53-3.1-11.27-4.8q-10.97-12.91-24.26-23.28a.91.9-36.4 0 1 .24-1.56q9.21-3.46 18.33-8.58z" class="L" fill="#000000"/><path d="M549.62 394.91q-.07.95-1.01 2.03-.32.36-.49.81l-8.7 22.57q-6.5-.23-12.52 2.33a.42.42 0 0 1-.57-.52q5.08-14.55 12.03-27.56.86-1.6 1.97-3.09.19-.12.44-.17.2-.04.44.06 4.07 1.71 8.41 3.54z" class="K" fill="#000000"/><path d="M549.62 394.91q8.53 3.62 17.58 5.84a.77.77 0 0 1 .44 1.2l-16.22 22.74q-5.2-4.18-12-4.37l8.7-22.57q.17-.45.49-.81.94-1.08 1.01-2.03z" class="L" fill="#000000"/><path d="M729.49 411.16q-16.19 5.61-32.46 9.32-4.69 1.07-9.73 1.63-3.09.33-5.9-.74-.6-.22-.31-.79 5.31-10.62 8.53-22.09-.05 1.65.58 1.52 9.42-1.91 18.66-4.45 2.17-.59 4.95 1.59 8.04 6.31 15.68 14.01z" class="J" fill="#000000"/><path d="M786.16 400.94q.46 0 .63.35-1.72.24-1.46 1.97.08.53-.2.99-1.06 1.71-1.48 3.61-.44 1.95-1.41 3.74-1.71 3.15-3.04 6.19-.25.57-.87.51-.99-.1-1.56.71a.24.24 0 0 1-.43-.22q2.75-7.65 6.5-15.79.91-1.99 3.32-2.06z" class="K" fill="#000000"/><path d="M717.99 470.77c-.17-7.38 3.64-17.06 8.85-23.07 1.98-2.28 5.6-3.89 8.17-1.44 5.76 5.49 2.62 14.1-2.42 19.17q-5.4 5.44-13.25 6.49-1.33.18-1.35-1.15zm-222.78-7.97c-4.62 5.07-9.86 7.72-16.31 9.34q-.65.17-.66-.51-.25-13.82 8.9-22.61c3.27-3.15 8.97-4.56 11.13.79 1.79 4.41.03 9.61-3.06 12.99zm149.05-3.95q3.85-8.57 13.57-7.83 5.61.43 8.08 6.42c3.2 7.8 1.36 17.98-2.14 25.29q-7.58 15.87-25 11.09a1.38 1.36 4.8 0 1-1-1.17q-.53-4.68.09-9.76 1.63-13.42 6.4-24.04z" class="B" fill="#000000"/><path fill="#83d7f6" d="M368.96 1116.76q-16.99 17.29-36.57 30.62c-14.48 9.87-30.79 17.87-47.86 20.13-25.73 3.42-45.01-11.42-52.51-35.14-4.89-15.48-5.4-33.01-3.92-48.97q2.19-23.57 8.54-45.74a1.02 1.01-74 0 0-.69-1.26q-24.09-6.92-44.83-18.28c-23.23-12.73-47.55-34.55-42.68-63.33 4.46-26.45 32.38-44.59 55.01-54.93q18.25-8.34 37.33-13.5a.93.92-13.6 0 0 .67-1.08c-4.72-21.75-7.07-44.91-3.25-66.74 2.46-14.09 9.07-29.87 21.24-38.3 35.47-24.59 83.8 10.6 109.69 34.43q.43.39.85 0c13.53-12.46 28.42-23.62 43.64-31.63 20.55-10.82 46.54-17.37 66.97-2.08 18.15 13.6 22.74 40.47 22.28 61.59q-.47 21.39-5.22 42.7a.79.79 0 0 0 .55.93c19.93 5.88 39.44 13.31 56.68 23.99 16.07 9.96 31.41 24.27 35.44 42.77 5.33 24.5-11.17 44.49-30.02 57.52-17.14 11.84-36.8 20.01-57.21 26.06a.84.83 73.9 0 0-.56 1.03c6.53 23.47 10.46 48.17 8.8 72.54-1.95 28.56-15.57 56.41-47.81 57.82-17.88.78-37.1-7.88-52.55-17.8q-21.38-13.73-40.82-33.35a.84.83 44.8 0 0-1.19 0zm-106.1-308.2q-4.38 9.49-5.29 22.07c-1.2 16.72.59 32.58 4 49.72q.12.6.72.47 27.66-6.02 55.16-8.63 1.57-.15 2.54-1.47 15.33-20.86 34.18-40.6a.67.67 0 0 0-.03-.96c-14.02-12.84-30.17-24.85-47.54-31.95-16.61-6.8-34.9-7.78-43.74 11.35zm169.2-11.1c-17.33 7.1-32.65 18.89-47.1 31.64a.68.68 0 0 0-.04.98q18.08 18.85 33.96 40.29c.73.99 1.66 1.77 2.93 1.89q27.6 2.59 54.43 8.42 1.08.23 1.31-.85 4.54-20.9 4.46-41.24-.08-17.26-5.74-30.01c-8.69-19.54-27.53-17.95-44.21-11.12zm-84.85 71.73a.37.37 0 0 0 .28.61h44.2a.37.37 0 0 0 .28-.61l-22.1-25.17a.37.37 0 0 0-.56 0l-22.1 25.17zm-52.3 79.74q-2.79 5.23-5.68 10.65a2.22 2.22 0 0 0-.06 1.99q16.71 36.04 37.94 68.78 1.21 1.86 3.39 2.02 39.94 2.79 79.09-.1a2.48 2.46-75.4 0 0 1.88-1.11q21.87-33.52 38.65-69.95a1.22 1.22 0 0 0-.02-1.07q-18.16-35.75-40.56-67.39a2.21 2.18-15.4 0 0-1.65-.92q-40.58-2.7-76.17.07-1.69.13-2.81 1.74-19.2 27.59-34 55.29zm-17.13-13.88a.33.33 0 0 0 .59.06l23.87-40.03a.33.33 0 0 0-.34-.5l-35.15 6.18a.33.33 0 0 0-.25.43l11.28 33.86zm159.28-40.48a.3.3 0 0 0-.31.45l24.11 40.02a.3.3 0 0 0 .55-.06l11.32-33.77a.3.3 0 0 0-.23-.39l-35.44-6.25zm-194.04 121.47c6.29-18.65 13.75-37.18 22.41-55.07a2.22 2.21 46.3 0 0 .04-1.86q-11.28-25.85-18.71-52.09a.9.9 0 0 0-1.12-.61q-14.44 4.37-27.96 9.94c-17.79 7.33-56.22 27.86-47.93 52.57 5.32 15.85 23.99 27.74 38.62 34.73q16.26 7.76 33.53 12.97a.9.9 0 0 0 1.12-.58zm232.31-60.87q-.88 2.09-1.64 4.13a2.54 2.53 42.2 0 0 .1 2q12.8 26.35 22.4 54.87.25.76 1.01.52c19-5.95 38.74-13.8 53.98-25.33 12.2-9.24 25.2-23.82 16.51-40.27-7.64-14.45-24.49-24.81-39.15-31.6q-15.99-7.42-35.47-13.17-.52-.15-.66.37-6.49 23.56-17.08 48.48zm-174.47 74.36a.31.31 0 0 0 .32-.45l-23.97-43.42a.31.31 0 0 0-.56.04l-14.09 36.46a.31.31 0 0 0 .24.42l38.06 6.95zm156.27-35.24q-9.57 18.22-19.41 34.31a.46.45-78.3 0 0 .45.69q18.49-2.68 37.38-6.79a.7.7 0 0 0 .51-.91q-5.91-17.26-13.41-34.95-.25-.58-.71-1.01a.46.46 0 0 0-.74.15q-1.69 3.97-4.07 8.51zm-203.14 137.13c13.8 30.28 51.22 9.72 68.79-2.72q16.25-11.49 31.69-26.66a1.1 1.1 0 0 0 .05-1.52q-19.65-21.95-37-47.26-.96-1.39-2.67-1.56-29.73-2.87-57.56-9.49-.45-.11-.58.34c-5.43 20.11-9.01 40.76-8.46 61.08q.43 16.14 5.74 27.79zm226.23 7.67c7.32-8.5 9.98-21.58 10.51-32.58 1.01-21-2.84-42.55-8.11-63.42a1.17 1.17 0 0 0-1.49-.83q-1.7.55-3.53.97-25.03 5.75-53.47 8.5c-1.09.11-2.11.87-2.7 1.75q-17.04 24.99-37.28 47.55a.34.33-47 0 0 .01.46q13.55 13.45 29.14 25c15.82 11.72 50.1 32.11 66.92 12.6zm-110.12-53.62c8.71-9.71 16.85-20.18 25.1-30.91a.45.45 0 0 0-.38-.72q-25.96 1.38-50.54-.02a.44.43-16.4 0 0-.38.69q12.29 16.45 25.1 30.95a.74.73 45.3 0 0 1.1.01z"/><path fill="#64b686" d="M790.43 775.64q-.68.85 1.44 2.57l138.23 240.25a.62.62 0 0 0 1.07 0l138.65-240.35q1.78-1.9.95-2.34l93.53-.27a.54.54 0 0 1 .46.81L931.2 1181.05a.65.65 0 0 1-1.12 0l-233.59-404.8a.5.5 0 0 1 .44-.75l93.5.14z"/><path d="M790.43 775.64l85.18.15a1.52 1.52 0 0 1 1.31.75l52.72 91.62q-.33.98-1.21.43-.45-.28-.67-.84-.78-1.99-1.36-2.97-9.42-16.07-17.18-30.27-.16-.29-.46-.45-.44-.23-.67-.66-6.26-12.01-13.14-23.23-1.84-3.02-3.58-6.11-1.75-3.1-3.58-6.08c-3.98-6.48-7.4-12.91-11.21-19.55a2.24 2.24 0 0 0-1.93-1.13q-39.86-.3-80.4.14-.76.01-2.38.77-2.12-1.72-1.44-2.57zm280.34.13q.83.44-.95 2.34-6.82-.93-19.32-.91-29.57.04-64.3.15a2.39 2.39 0 0 0-2.06 1.21l-17.68 31.29q-.4.7-.64-.06l-.21-.64 18.78-32.55a1.6 1.6 0 0 1 1.39-.81l84.99-.02z" class="c" fill="#000000"/><path fill="#38475c" d="M929.64 868.16q.58.92 1.12.85.37-.04.77-.76 16.87-29.64 34.08-59.1l.21.64q.24.76.64.06l17.68-31.29a2.39 2.39 0 0 1 2.06-1.21q34.73-.11 64.3-.15 12.5-.02 19.32.91l-138.65 240.35a.62.62 0 0 1-1.07 0L791.87 778.21q1.62-.76 2.38-.77 40.54-.44 80.4-.14a2.24 2.24 0 0 1 1.93 1.13c3.81 6.64 7.23 13.07 11.21 19.55q1.83 2.98 3.58 6.08 1.74 3.09 3.58 6.11 6.88 11.22 13.14 23.23.23.43.67.66.3.16.46.45 7.76 14.2 17.18 30.27.58.98 1.36 2.97.22.56.67.84.88.55 1.21-.43z"/><path d="M262.86 808.56c8.84-19.13 27.13-18.15 43.74-11.35 17.37 7.1 33.52 19.11 47.54 31.95a.67.67 0 0 1 .03.96q-18.85 19.74-34.18 40.6-.97 1.32-2.54 1.47-27.5 2.61-55.16 8.63-.6.13-.72-.47c-3.41-17.14-5.2-33-4-49.72q.91-12.58 5.29-22.07zm169.2-11.1c16.68-6.83 35.52-8.42 44.21 11.12q5.66 12.75 5.74 30.01.08 20.34-4.46 41.24-.23 1.08-1.31.85-26.83-5.83-54.43-8.42c-1.27-.12-2.2-.9-2.93-1.89q-15.88-21.44-33.96-40.29a.68.68 0 0 1 .04-.98c14.45-12.75 29.77-24.54 47.1-31.64zm-84.85 71.73l22.1-25.17a.37.37 0 0 1 .56 0l22.1 25.17a.37.37 0 0 1-.28.61h-44.2a.37.37 0 0 1-.28-.61zm-52.3 79.74q14.8-27.7 34-55.29 1.12-1.61 2.81-1.74 35.59-2.77 76.17-.07a2.21 2.18-15.4 0 1 1.65.92q22.4 31.64 40.56 67.39a1.22 1.22 0 0 1 .02 1.07q-16.78 36.43-38.65 69.95a2.48 2.46-75.4 0 1-1.88 1.11q-39.15 2.89-79.09.1-2.18-.16-3.39-2.02-21.23-32.74-37.94-68.78a2.22 2.22 0 0 1 .06-1.99q2.89-5.42 5.68-10.65zm116.21 13.25a41.56 41.56 0 1 0-83.12 0 41.56 41.56 0 1 0 83.12 0zm-133.34-27.13l-11.28-33.86a.33.33 0 0 1 .25-.43l35.15-6.18a.33.33 0 0 1 .34.5l-23.87 40.03a.33.33 0 0 1-.59-.06zm159.28-40.48l35.44 6.25a.3.3 0 0 1 .23.39l-11.32 33.77a.3.3 0 0 1-.55.06l-24.11-40.02a.3.3 0 0 1 .31-.45zm-171.63 66.4c-8.66 17.89-16.12 36.42-22.41 55.07a.9.9 0 0 1-1.12.58q-17.27-5.21-33.53-12.97c-14.63-6.99-33.3-18.88-38.62-34.73-8.29-24.71 30.14-45.24 47.93-52.57q13.52-5.57 27.96-9.94a.9.9 0 0 1 1.12.61q7.43 26.24 18.71 52.09a2.22 2.21 46.3 0 1-.04 1.86zm209.9-5.8q10.59-24.92 17.08-48.48.14-.52.66-.37 19.48 5.75 35.47 13.17c14.66 6.79 31.51 17.15 39.15 31.6 8.69 16.45-4.31 31.03-16.51 40.27-15.24 11.53-34.98 19.38-53.98 25.33q-.76.24-1.01-.52-9.6-28.52-22.4-54.87a2.54 2.53 42.2 0 1-.1-2q.76-2.04 1.64-4.13z" class="B" fill="#000000"/><circle fill="#83d7f6" cx="369.56" cy="962.18" r="41.56"/><path d="M300.86 1029.53l-38.06-6.95a.31.31 0 0 1-.24-.42l14.09-36.46a.31.31 0 0 1 .56-.04l23.97 43.42a.31.31 0 0 1-.32.45zm156.27-35.24q2.38-4.54 4.07-8.51a.46.46 0 0 1 .74-.15q.46.43.71 1.01 7.5 17.69 13.41 34.95a.7.7 0 0 1-.51.91q-18.89 4.11-37.38 6.79a.46.45-78.3 0 1-.45-.69q9.84-16.09 19.41-34.31zm-203.14 137.13q-5.31-11.65-5.74-27.79c-.55-20.32 3.03-40.97 8.46-61.08q.13-.45.58-.34 27.83 6.62 57.56 9.49 1.71.17 2.67 1.56 17.35 25.31 37 47.26a1.1 1.1 0 0 1-.05 1.52q-15.44 15.17-31.69 26.66c-17.57 12.44-54.99 33-68.79 2.72zm226.23 7.67c-16.82 19.51-51.1-.88-66.92-12.6q-15.59-11.55-29.14-25a.34.33-47 0 1-.01-.46q20.24-22.56 37.28-47.55c.59-.88 1.61-1.64 2.7-1.75q28.44-2.75 53.47-8.5 1.83-.42 3.53-.97a1.17 1.17 0 0 1 1.49.83c5.27 20.87 9.12 42.42 8.11 63.42-.53 11-3.19 24.08-10.51 32.58zm-85.02-84.53c-8.25 10.73-16.39 21.2-25.1 30.91a.74.73 45.3 0 1-1.1-.01q-12.81-14.5-25.1-30.95a.44.43-16.4 0 1 .38-.69q24.58 1.4 50.54.02a.45.45 0 0 1 .38.72z" class="B" fill="#000000"/></svg>