<?xml version="1.0" encoding="UTF-8" standalone="no"?>
<!DOCTYPE svg PUBLIC "-//W3C//DTD SVG 1.1//EN" "http://www.w3.org/Graphics/SVG/1.1/DTD/svg11.dtd">
<svg xmlns="http://www.w3.org/2000/svg" version="1.1" viewBox="0.00 0.00 923.00 923.00">
<g stroke-width="2.00" fill="none" stroke-linecap="butt">
<path stroke="#88b3d4" vector-effect="non-scaling-stroke" d="
  M 892.29 128.84
  C 880.62 138.93 867.16 141.05 852.51 139.48
  Q 822.88 136.30 803.51 114.22
  C 788.75 97.39 781.05 71.93 792.22 50.99
  Q 792.31 50.81 792.15 50.71
  L 792.14 50.70
  Q 791.97 50.60 791.86 50.76
  Q 786.86 57.56 785.13 60.13
  C 763.08 92.85 784.11 132.71 815.67 148.00
  C 844.55 162.00 881.23 155.37 896.35 124.69
  Q 896.65 124.07 896.17 124.57
  C 894.84 125.92 893.64 127.67 892.29 128.84"
/>
<path stroke="#fff6ec" vector-effect="non-scaling-stroke" d="
  M 551.69 53.06
  C 546.40 53.08 536.51 60.75 532.40 64.16
  C 527.85 67.93 521.27 70.59 515.32 73.31"
/>
<path stroke="#b9a08b" vector-effect="non-scaling-stroke" d="
  M 515.32 73.31
  Q 504.32 66.51 490.50 63.71
  C 469.70 59.49 449.08 60.39 429.55 69.15
  Q 426.23 70.64 423.56 70.77
  Q 417.98 71.05 413.52 69.48
  C 400.46 64.91 386.71 60.82 373.93 66.35"
/>
<path stroke="#f7c7b7" vector-effect="non-scaling-stroke" d="
  M 373.93 66.35
  C 355.44 73.59 363.84 91.04 373.32 100.93"
/>
<path stroke="#fee1d7" vector-effect="non-scaling-stroke" d="
  M 373.32 100.93
  Q 375.11 103.63 377.67 105.21"
/>
<path stroke="#939292" vector-effect="non-scaling-stroke" d="
  M 377.67 105.21
  C 379.27 109.72 383.78 109.18 384.82 114.16
  Q 386.58 122.52 389.90 130.63"
/>
<path stroke="#fff6ec" vector-effect="non-scaling-stroke" d="
  M 389.90 130.63
  C 383.39 150.13 366.19 164.85 364.48 186.24
  C 363.38 200.08 369.91 212.63 379.89 221.86
  Q 384.20 225.85 394.17 231.69
  Q 394.21 231.71 396.45 232.63
  Q 397.78 233.17 398.32 234.47"
/>
<path stroke="#b9a08b" vector-effect="non-scaling-stroke" d="
  M 398.32 234.47
  Q 392.71 244.62 389.35 254.80
  A 0.39 0.38 -87.3 0 0 389.80 255.30
  L 396.64 253.75"
/>
<path stroke="#d5b79a" vector-effect="non-scaling-stroke" d="
  M 396.64 253.75
  Q 402.05 253.56 406.41 256.74"
/>
<path stroke="#fff6ec" vector-effect="non-scaling-stroke" d="
  M 406.41 256.74
  Q 406.81 257.54 407.73 258.18
  A 1.32 1.32 0.0 0 0 409.59 257.81
  L 411.43 254.97
  Q 411.74 254.49 412.30 254.46
  Q 415.19 254.33 418.08 254.29
  C 421.98 254.23 425.36 255.65 428.93 256.86
  A 4.50 4.46 44.2 0 0 431.91 256.83
  C 434.89 255.74 439.68 253.43 442.75 254.29
  Q 447.15 255.53 450.62 257.90
  A 0.81 0.80 21.5 0 0 451.87 257.36
  L 453.60 246.16"
/>
<path stroke="#fffdf3" vector-effect="non-scaling-stroke" d="
  M 453.60 246.16
  Q 455.40 234.59 460.45 223.25"
/>
<path stroke="#fff6ec" vector-effect="non-scaling-stroke" d="
  M 460.45 223.25
  Q 462.42 218.33 465.72 213.76
  C 467.39 211.45 470.11 210.48 471.01 207.66"
/>
<path stroke="#f7c7b7" vector-effect="non-scaling-stroke" d="
  M 471.01 207.66
  L 473.85 206.55"
/>
<path stroke="#fee1d7" vector-effect="non-scaling-stroke" d="
  M 473.85 206.55
  Q 479.71 202.69 486.69 203.32"
/>
<path stroke="#fff6ec" vector-effect="non-scaling-stroke" d="
  M 486.69 203.32
  Q 495.97 205.68 500.28 214.42"
/>
<path stroke="#fffdf3" vector-effect="non-scaling-stroke" d="
  M 500.28 214.42
  Q 500.52 217.52 502.02 221.21
  C 502.92 223.40 502.35 226.43 502.38 228.93
  Q 502.43 233.25 501.09 237.61"
/>
<path stroke="#fff6ec" vector-effect="non-scaling-stroke" d="
  M 501.09 237.61
  Q 499.37 246.49 495.06 254.11
  A 0.51 0.51 0.0 0 0 495.52 254.87
  C 497.25 254.83 498.76 255.23 500.48 254.93
  Q 511.56 252.99 522.22 249.41
  C 524.23 248.73 526.34 248.43 528.41 247.81
  A 0.84 0.84 0.0 0 1 529.28 248.04
  Q 530.84 249.75 532.41 251.29
  C 533.67 252.52 535.08 252.58 536.69 252.50"
/>
<path stroke="#d5b79a" vector-effect="non-scaling-stroke" d="
  M 536.69 252.50
  C 542.33 254.33 546.15 255.99 549.34 261.17
  A 0.81 0.81 0.0 0 0 550.75 261.11
  Q 554.37 253.85 562.99 253.85"
/>
<path stroke="#b9a08b" vector-effect="non-scaling-stroke" d="
  M 562.99 253.85
  Q 566.23 247.90 568.14 241.18"
/>
<path stroke="#d5b79a" vector-effect="non-scaling-stroke" d="
  M 568.14 241.18
  Q 572.21 240.38 576.72 239.75
  Q 580.61 239.20 584.01 237.28
  C 586.82 235.69 589.68 230.53 584.77 229.50
  Q 583.15 229.16 578.75 229.84
  Q 578.11 229.94 578.00 229.79
  A 1.07 1.06 -45.3 0 1 578.00 228.48
  C 580.29 225.48 586.49 219.09 581.95 215.75
  A 2.57 2.57 0.0 0 0 578.81 215.83
  C 576.78 217.49 574.24 220.15 571.73 221.05
  A 1.39 1.38 -11.8 0 1 569.88 219.84
  C 569.72 217.29 570.33 210.95 567.91 209.61
  C 562.12 206.43 560.47 218.63 559.69 221.80
  A 0.81 0.79 8.9 0 1 558.85 222.40
  L 549.85 221.71
  A 1.00 1.00 0.0 0 0 548.77 222.73
  Q 548.83 228.08 553.13 232.71"
/>
<path stroke="#b9a08b" vector-effect="non-scaling-stroke" d="
  M 553.13 232.71
  Q 549.45 236.89 545.36 237.93
  Q 544.85 238.07 544.59 237.61
  L 538.12 226.47"
/>
<path stroke="#fff6ec" vector-effect="non-scaling-stroke" d="
  M 538.12 226.47
  Q 538.28 225.91 538.57 225.21
  Q 538.82 224.63 539.34 224.17
  Q 545.06 219.02 548.02 212.41"
/>
<path stroke="#939292" vector-effect="non-scaling-stroke" d="
  M 548.02 212.41
  Q 551.44 206.80 553.63 200.60
  C 561.31 178.81 555.62 157.06 544.95 137.53
  Q 544.36 136.44 543.70 133.29
  Q 543.59 132.80 543.80 132.35
  C 545.20 129.22 547.08 124.87 550.14 123.05
  C 551.84 122.05 554.95 121.11 556.07 119.71
  C 557.97 117.31 557.09 109.57 554.17 107.94
  A 1.24 1.20 52.8 0 0 553.31 107.81
  L 547.72 109.08"
/>
<path stroke="#f7c7b7" vector-effect="non-scaling-stroke" d="
  M 547.72 109.08
  Q 547.35 109.21 547.06 108.82
  A 0.74 0.74 0.0 0 1 547.18 107.80
  C 557.70 99.04 569.92 83.44 570.19 69.10
  C 570.33 62.14 567.99 57.87 562.26 54.22
  Q 557.03 50.89 551.69 53.06"
/>
<path stroke="#8b5a4a" vector-effect="non-scaling-stroke" d="
  M 547.72 109.08
  Q 542.77 110.58 538.52 108.31"
/>
<path stroke="#b16843" vector-effect="non-scaling-stroke" d="
  M 538.52 108.31
  L 538.33 104.55"
/>
<path stroke="#f6a98f" vector-effect="non-scaling-stroke" d="
  M 538.33 104.55
  C 539.19 105.43 539.87 107.06 540.96 107.36
  C 543.43 108.03 548.28 104.51 549.45 103.46
  C 559.98 94.01 581.93 64.01 558.99 54.27
  C 553.95 52.13 549.00 58.39 546.87 62.10
  C 544.22 66.70 541.35 71.12 538.66 75.68
  Q 534.12 83.37 534.07 93.63"
/>
<path stroke="#b16843" vector-effect="non-scaling-stroke" d="
  M 534.07 93.63
  L 527.30 83.77"
/>
<path stroke="#f7c4ab" vector-effect="non-scaling-stroke" d="
  M 527.30 83.77
  L 549.04 56.47"
/>
<path stroke="#f7bea4" vector-effect="non-scaling-stroke" d="
  M 549.04 56.47
  Q 549.95 55.38 551.00 54.75
  Q 551.36 54.53 551.36 54.10
  Q 551.36 53.41 551.69 53.06"
/>
<path stroke="#b78262" vector-effect="non-scaling-stroke" d="
  M 538.33 104.55
  L 534.07 93.63"
/>
<path stroke="#b89e7f" vector-effect="non-scaling-stroke" d="
  M 527.30 83.77
  Q 522.60 78.31 516.93 74.56"
/>
<path stroke="#fff4e0" vector-effect="non-scaling-stroke" d="
  M 549.04 56.47
  Q 549.07 56.22 548.84 56.04
  A 0.73 0.71 -40.9 0 0 548.01 55.99
  Q 543.23 58.93 532.41 66.92
  Q 526.20 71.52 516.93 74.56"
/>
<path stroke="#b99778" vector-effect="non-scaling-stroke" d="
  M 516.93 74.56
  L 515.32 73.31"
/>
<path stroke="#4c331e" vector-effect="non-scaling-stroke" d="
  M 538.52 108.31
  L 536.59 107.37"
/>
<path stroke="#8e5826" vector-effect="non-scaling-stroke" d="
  M 536.59 107.37
  Q 535.41 103.62 534.15 100.32
  C 529.73 88.76 522.40 80.30 511.81 74.11
  Q 506.58 71.06 502.24 69.40
  Q 497.08 67.43 487.75 65.20
  C 485.03 64.55 481.65 64.06 478.81 64.20
  C 470.82 64.60 462.92 63.89 454.30 64.57
  C 452.70 64.70 450.97 65.27 449.19 65.37
  C 440.65 65.89 430.60 70.08 423.51 74.91
  C 416.41 79.74 410.86 84.48 407.81 92.95
  Q 407.59 93.58 407.31 92.97
  L 406.74 91.75"
/>
<path stroke="#b16843" vector-effect="non-scaling-stroke" d="
  M 406.74 91.75
  Q 406.89 86.39 411.74 81.66"
/>
<path stroke="#8e5826" vector-effect="non-scaling-stroke" d="
  M 411.74 81.66
  Q 415.82 77.78 421.48 74.06
  C 422.55 73.36 423.88 73.09 425.11 72.74
  Q 426.08 72.46 425.07 72.41
  C 422.44 72.26 419.67 72.17 417.03 71.51
  C 405.20 68.54 391.29 62.38 379.01 66.35"
/>
<path stroke="#b16843" vector-effect="non-scaling-stroke" d="
  M 379.01 66.35
  Q 376.32 66.80 373.93 66.35"
/>
<path stroke="#93897f" vector-effect="non-scaling-stroke" d="
  M 548.02 212.41
  L 545.96 212.56"
/>
<path stroke="#929086" vector-effect="non-scaling-stroke" d="
  M 545.96 212.56
  L 545.63 211.73"
/>
<path stroke="#684a2d" vector-effect="non-scaling-stroke" d="
  M 545.63 211.73
  Q 545.63 210.63 546.23 210.52
  Q 546.57 210.46 546.70 210.77
  Q 546.76 210.90 546.89 210.93
  Q 547.32 211.04 547.50 210.63
  C 548.59 208.17 549.27 205.87 550.54 203.31
  C 556.18 191.97 556.92 177.43 554.13 165.77
  Q 551.02 152.83 545.54 142.54
  Q 545.02 141.57 544.42 139.22
  Q 543.97 137.45 542.74 135.99
  Q 542.43 135.62 542.19 136.04
  C 538.53 142.68 534.86 151.88 528.30 155.79"
/>
<path stroke="#4c331e" vector-effect="non-scaling-stroke" d="
  M 528.30 155.79
  Q 525.64 156.24 521.51 156.37
  C 516.14 156.53 513.53 158.76 511.54 163.55"
/>
<path stroke="#684a2d" vector-effect="non-scaling-stroke" d="
  M 511.54 163.55
  L 509.44 166.97"
/>
<path stroke="#93897f" vector-effect="non-scaling-stroke" d="
  M 509.44 166.97
  Q 502.71 177.59 497.37 189.83"
/>
<path stroke="#8b5a4a" vector-effect="non-scaling-stroke" d="
  M 497.37 189.83
  Q 490.61 184.08 482.61 181.83
  A 1.69 1.68 -83.5 0 1 481.39 180.29
  L 480.80 168.28"
/>
<path stroke="#93897f" vector-effect="non-scaling-stroke" d="
  M 480.80 168.28
  L 480.67 167.06
  Q 480.61 166.51 480.08 166.63
  Q 464.31 170.04 448.18 169.74
  A 0.70 0.70 0.0 0 0 447.50 170.65
  L 449.52 177.14"
/>
<path stroke="#929086" vector-effect="non-scaling-stroke" d="
  M 449.52 177.14
  L 451.77 183.95"
/>
<path stroke="#8b5a4a" vector-effect="non-scaling-stroke" d="
  M 451.77 183.95
  Q 447.74 188.00 443.62 191.88
  Q 441.44 193.94 438.46 201.55"
/>
<path stroke="#93897f" vector-effect="non-scaling-stroke" d="
  M 438.46 201.55
  C 434.03 188.74 431.55 170.32 416.14 165.88
  Q 415.97 165.83 416.02 165.66
  L 416.09 165.40
  Q 416.20 164.98 416.62 165.08
  Q 429.73 168.00 443.19 167.82"
/>
<path stroke="#4c331e" vector-effect="non-scaling-stroke" d="
  M 443.19 167.82
  Q 445.15 168.40 446.50 168.25
  C 451.40 167.73 456.90 167.78 461.15 167.37
  Q 485.64 165.02 509.27 158.09
  Q 510.40 157.76 510.93 157.29
  Q 511.70 156.60 510.67 156.56
  Q 503.11 156.23 495.59 154.32
  C 487.94 152.37 482.80 150.78 480.37 143.35
  Q 478.17 136.64 477.75 134.75
  C 476.47 128.97 475.03 119.67 470.88 116.16
  C 468.73 114.34 462.43 113.69 460.82 116.84
  Q 458.56 121.25 456.96 127.26
  Q 456.10 130.46 452.00 138.22
  C 449.80 142.38 445.97 147.35 441.76 148.51
  Q 434.64 150.47 424.27 151.56"
/>
<path stroke="#684a2d" vector-effect="non-scaling-stroke" d="
  M 424.27 151.56
  L 422.16 151.61"
/>
<path stroke="#93897f" vector-effect="non-scaling-stroke" d="
  M 422.16 151.61
  C 415.29 151.17 407.28 151.50 401.18 147.01
  C 395.62 142.92 392.43 136.33 389.90 130.63"
/>
<path stroke="#f6a98f" vector-effect="non-scaling-stroke" d="
  M 406.64 92.97
  Q 406.20 92.27 405.66 92.34
  Q 405.20 92.39 405.08 92.84
  Q 404.85 93.71 404.56 94.48
  Q 404.45 94.79 404.20 94.82
  Q 403.71 94.90 403.69 94.41
  C 403.48 89.10 404.25 83.67 399.53 80.00
  Q 385.29 68.93 367.78 74.06
  C 363.38 75.35 364.52 82.16 365.26 85.76
  Q 365.86 88.70 369.98 94.23
  Q 372.94 98.19 376.14 101.95
  Q 376.32 102.16 376.10 102.33
  L 375.88 102.52
  Q 375.46 102.86 375.12 102.44
  Q 374.36 101.53 373.32 100.93"
/>
<path stroke="#684a2d" vector-effect="non-scaling-stroke" d="
  M 536.59 107.37
  Q 524.11 102.92 511.74 101.97
  Q 497.27 100.86 490.50 101.49
  Q 480.67 102.42 470.86 103.46
  Q 464.87 104.09 462.24 103.22
  C 451.56 99.71 444.96 97.87 434.50 96.82
  Q 424.81 95.85 407.02 96.99"
/>
<path stroke="#d39972" vector-effect="non-scaling-stroke" d="
  M 407.02 96.99
  Q 407.71 95.03 406.64 92.97"
/>
<path stroke="#cd7f52" vector-effect="non-scaling-stroke" d="
  M 406.64 92.97
  Q 406.96 92.52 406.74 91.75"
/>
<path stroke="#cd7f52" vector-effect="non-scaling-stroke" d="
  M 411.74 81.66
  Q 398.38 73.54 389.02 69.52
  Q 386.76 68.55 379.01 66.35"
/>
<path stroke="#f6a98f" vector-effect="non-scaling-stroke" d="
  M 492.16 203.10
  L 490.24 202.88
  Q 489.69 202.82 490.02 202.38
  Q 493.31 198.07 494.66 192.80
  A 0.88 0.87 20.8 0 0 494.21 191.81
  Q 486.17 187.66 476.34 188.72"
/>
<path stroke="#f7c4ab" vector-effect="non-scaling-stroke" d="
  M 476.34 188.72
  C 481.16 185.22 481.72 177.67 480.56 172.46"
/>
<path stroke="#fddfcb" vector-effect="non-scaling-stroke" d="
  M 476.34 188.72
  Q 474.48 188.66 471.85 189.96
  A 1.28 1.27 66.8 0 1 470.08 189.25
  L 464.71 174.22
  A 0.42 0.42 0.0 0 0 464.16 173.97
  L 463.90 174.08
  Q 463.51 174.24 463.63 174.64
  Q 466.11 182.53 466.93 190.77
  A 0.74 0.74 0.0 0 1 466.25 191.59
  L 463.21 191.85"
/>
<path stroke="#f7c4ab" vector-effect="non-scaling-stroke" d="
  M 463.21 191.85
  Q 457.88 191.43 455.08 189.17
  Q 453.23 187.67 451.77 183.95"
/>
<path stroke="#f7bea4" vector-effect="non-scaling-stroke" d="
  M 438.46 201.55
  Q 440.58 205.85 443.99 206.76
  C 450.92 208.62 462.50 207.99 471.01 207.66"
/>
<path stroke="#fff4e0" vector-effect="non-scaling-stroke" d="
  M 460.45 223.25
  Q 456.56 224.63 453.50 223.75
  C 441.22 220.22 430.11 213.63 421.79 203.94
  C 416.09 197.31 411.12 190.14 408.23 181.83
  C 406.32 176.34 406.48 170.76 407.00 165.00
  Q 407.32 161.42 404.15 159.84
  C 402.27 158.90 398.54 154.40 397.86 151.34
  Q 397.76 150.91 397.43 150.62
  Q 391.95 145.87 390.44 138.77
  Q 390.15 137.39 389.39 138.58
  Q 382.68 149.09 376.36 159.61
  C 366.56 175.94 361.86 194.05 373.62 210.88
  C 380.40 220.57 389.30 226.34 400.26 231.12
  C 400.64 231.28 400.84 231.66 401.31 231.88
  Q 424.98 242.97 452.49 243.92
  Q 454.04 243.98 453.60 246.16"
/>
<path stroke="#d5ae87" vector-effect="non-scaling-stroke" d="
  M 406.41 256.74
  L 417.49 241.27
  Q 417.77 240.88 417.48 240.50
  Q 417.20 240.13 416.48 239.98
  C 413.12 239.28 409.03 238.20 406.04 236.50
  Q 405.18 236.01 404.57 236.36"
/>
<path stroke="#b99778" vector-effect="non-scaling-stroke" d="
  M 404.57 236.36
  Q 400.48 233.46 398.32 234.47"
/>
<path stroke="#f7bea4" vector-effect="non-scaling-stroke" d="
  M 480.80 168.28
  L 480.56 172.46"
/>
<path stroke="#fff4e0" vector-effect="non-scaling-stroke" d="
  M 480.56 172.46
  L 480.27 169.79
  Q 480.21 169.29 479.85 169.65
  L 479.59 169.91
  Q 479.30 170.19 478.91 170.21
  C 474.81 170.36 470.78 170.43 466.78 171.12
  Q 462.88 171.80 459.00 172.64
  Q 452.95 173.94 449.52 177.14"
/>
<path stroke="#91746a" vector-effect="non-scaling-stroke" d="
  M 407.02 96.99
  Q 399.97 97.89 392.99 98.55
  C 388.63 98.96 384.80 98.22 380.55 97.47
  Q 380.00 97.38 379.70 97.84
  Q 377.49 101.26 377.67 105.21"
/>
<path stroke="#b99778" vector-effect="non-scaling-stroke" d="
  M 538.12 226.47
  Q 535.88 226.22 532.34 228.94"
/>
<path stroke="#fff4e0" vector-effect="non-scaling-stroke" d="
  M 545.96 212.56
  Q 545.93 213.92 545.37 214.64
  C 539.46 222.24 529.99 228.31 520.48 231.57
  Q 510.72 234.91 501.09 237.61"
/>
<path stroke="#b99778" vector-effect="non-scaling-stroke" d="
  M 443.19 167.82
  Q 443.51 167.87 443.70 167.70
  Q 443.88 167.54 443.83 167.25
  Q 443.77 166.89 443.48 166.38"
/>
<path stroke="#8e5826" vector-effect="non-scaling-stroke" d="
  M 443.48 166.38
  Q 446.59 165.86 449.59 166.36
  Q 450.01 166.42 450.37 166.19
  Q 450.76 165.93 451.50 165.86
  Q 454.16 165.61 456.82 165.41
  C 461.11 165.07 465.50 164.05 470.08 164.12
  C 471.69 164.14 473.01 163.33 474.62 163.17
  C 477.66 162.86 481.16 162.73 484.08 161.94
  Q 487.71 160.95 489.75 160.63
  C 491.39 160.37 493.18 161.06 494.86 160.59
  Q 495.93 160.29 497.05 159.94
  Q 497.54 159.79 497.68 159.29
  C 498.12 157.71 496.92 156.78 495.42 156.56
  Q 489.92 155.75 484.46 154.45
  Q 479.67 153.30 478.48 148.52
  Q 476.55 140.80 474.20 133.18
  C 473.09 129.60 472.27 125.56 470.14 121.82
  C 465.83 114.24 461.48 121.69 458.83 125.14
  Q 458.52 125.54 458.46 126.04
  Q 458.06 129.57 456.11 132.54
  A 1.72 1.70 60.7 0 0 455.84 133.53
  Q 455.99 137.29 454.85 139.23
  Q 453.79 141.01 453.39 142.43
  Q 452.60 145.15 452.32 145.68
  C 451.34 147.56 450.64 149.42 448.93 150.71
  C 445.80 153.06 441.62 153.07 438.00 153.87
  Q 436.48 154.21 431.88 153.72
  C 429.87 153.51 429.21 151.78 427.11 151.61
  Q 425.72 151.49 424.27 151.56"
/>
<path stroke="#d5ae87" vector-effect="non-scaling-stroke" d="
  M 443.48 166.38
  Q 433.42 161.45 425.43 153.55
  Q 425.22 153.33 425.23 152.85
  A 0.71 0.71 0.0 0 0 424.67 152.16
  L 422.16 151.61"
/>
<path stroke="#d4b58e" vector-effect="non-scaling-stroke" d="
  M 545.63 211.73
  Q 545.16 209.71 545.69 208.24
  Q 548.03 201.65 549.26 194.75
  C 551.44 182.54 547.99 175.23 537.30 169.28"
/>
<path stroke="#d5ae87" vector-effect="non-scaling-stroke" d="
  M 537.30 169.28
  Q 529.67 164.82 519.50 165.53
  Q 517.22 165.69 509.44 166.97"
/>
<path stroke="#8e5826" vector-effect="non-scaling-stroke" d="
  M 511.54 163.55
  Q 512.85 162.82 514.18 162.23
  C 516.29 161.30 517.83 159.33 520.27 159.04
  Q 525.70 158.41 528.30 155.79"
/>
<path stroke="#fff4e0" vector-effect="non-scaling-stroke" d="
  M 537.30 169.28
  Q 535.32 172.84 533.71 181.25
  C 532.49 187.59 525.94 197.40 519.98 202.16
  Q 514.68 206.38 509.45 210.70
  Q 505.26 214.16 500.28 214.42"
/>
<path stroke="#fed8c4" vector-effect="non-scaling-stroke" d="
  M 486.69 203.32
  L 492.16 203.10"
/>
<path stroke="#f7bea4" vector-effect="non-scaling-stroke" d="
  M 492.16 203.10
  Q 495.45 196.93 497.37 189.83"
/>
<path stroke="#f6a98f" vector-effect="non-scaling-stroke" d="
  M 473.85 206.55
  L 473.65 206.01
  Q 473.50 205.59 473.06 205.61
  C 462.96 206.02 453.45 206.76 443.39 204.15
  A 0.83 0.83 0.0 0 1 443.16 202.65
  C 449.58 198.62 456.90 195.68 464.06 192.87
  Q 464.64 192.64 464.22 192.19
  Q 463.97 191.92 463.21 191.85"
/>
<path stroke="#8e5826" vector-effect="non-scaling-stroke" d="
  M 404.57 236.36
  L 404.98 236.88
  Q 405.29 237.25 404.92 237.57
  Q 404.25 238.15 403.95 239.00
  Q 401.76 245.17 399.18 251.19
  Q 399.04 251.52 399.05 251.85
  Q 399.06 252.19 399.14 252.56
  A 0.57 0.57 0.0 0 1 398.72 253.24
  L 396.64 253.75"
/>
<path stroke="#8e5826" vector-effect="non-scaling-stroke" d="
  M 568.14 241.18
  Q 567.95 240.58 566.46 240.74
  A 1.73 1.72 8.7 0 0 565.04 241.78
  L 560.52 252.26
  Q 560.30 252.77 560.82 252.98
  L 562.99 253.85"
/>
<path stroke="#d5ae87" vector-effect="non-scaling-stroke" d="
  M 536.69 252.50
  L 519.36 236.11
  A 0.71 0.71 0.0 0 1 519.55 234.96
  L 532.34 228.94"
/>
<path stroke="#8e5826" vector-effect="non-scaling-stroke" d="
  M 532.34 228.94
  C 535.04 232.29 539.14 237.15 536.15 241.48
  A 0.58 0.58 0.0 0 0 536.63 242.38
  Q 543.69 242.29 549.47 239.19
  Q 552.92 237.34 554.42 235.17
  Q 554.74 234.71 554.53 234.19
  Q 554.01 232.91 553.13 232.71"
/>
<path stroke="#ee8099" vector-effect="non-scaling-stroke" d="
  M 144.49 66.14
  L 49.34 100.04
  Q 48.32 100.41 48.45 101.48
  L 66.19 255.01
  A 2.68 2.64 11.6 0 0 67.55 257.04
  L 164.30 310.59"
/>
<path stroke="#e28097" vector-effect="non-scaling-stroke" d="
  M 164.30 310.59
  C 165.40 311.26 166.02 311.67 167.27 310.98
  Q 216.42 283.74 265.50 256.58
  A 1.20 1.19 -11.6 0 0 266.10 255.68
  L 283.90 101.00
  A 0.82 0.82 0.0 0 0 283.36 100.14
  Q 225.58 79.53 167.79 58.98
  Q 166.14 58.40 163.19 59.45
  Q 153.86 62.79 144.49 66.14"
/>
<path stroke="#d10031" vector-effect="non-scaling-stroke" d="
  M 164.30 310.59
  L 166.08 309.39
  A 1.03 1.01 73.5 0 0 166.53 308.54
  C 166.27 284.93 166.49 261.36 166.52 237.75
  Q 166.53 227.96 165.93 217.96
  A 2.46 2.46 0.0 0 0 164.34 215.81
  Q 162.14 214.99 164.18 214.56"
/>
<path stroke="#e28097" vector-effect="non-scaling-stroke" d="
  M 164.18 214.56
  L 196.60 214.64
  A 0.93 0.93 0.0 0 1 197.46 215.21
  L 211.93 251.17
  Q 212.12 251.64 212.63 251.64
  L 239.14 251.65
  A 0.40 0.40 0.0 0 0 239.51 251.09
  L 165.86 86.28"
/>
<path stroke="#d10031" vector-effect="non-scaling-stroke" d="
  M 165.86 86.28
  L 166.11 62.14
  A 1.79 1.78 80.1 0 0 163.71 60.45
  Q 156.65 63.03 149.19 65.36
  Q 148.61 65.54 146.78 65.87
  A 0.97 0.94 -70.7 0 0 146.32 66.10
  Q 145.53 66.78 144.49 66.14"
/>
<path stroke="#ee8099" vector-effect="non-scaling-stroke" d="
  M 165.86 86.28
  L 92.53 251.27
  Q 92.35 251.67 92.79 251.67
  L 119.53 251.66
  Q 120.03 251.66 120.21 251.20
  L 134.60 215.12
  A 0.79 0.79 0.0 0 1 135.33 214.63
  L 164.18 214.56"
/>
<path stroke="#88b3d4" vector-effect="non-scaling-stroke" d="
  M 903.95 175.72
  C 881.32 205.87 839.92 213.16 805.49 202.67
  Q 771.91 192.44 748.96 165.54
  C 727.14 139.97 716.69 103.42 730.36 71.29
  Q 731.82 67.87 733.45 64.55
  Q 733.51 64.42 733.39 64.35
  L 733.39 64.34
  Q 733.27 64.27 733.18 64.39
  Q 727.07 72.81 721.08 81.34
  C 696.73 116.02 705.88 162.29 732.57 192.45
  Q 752.08 214.50 779.76 225.07
  C 794.12 230.56 809.98 231.65 825.26 230.73
  C 860.58 228.60 891.04 208.90 904.74 176.17
  Q 906.16 172.76 903.95 175.72"
/>
<path stroke="#88b3d4" vector-effect="non-scaling-stroke" d="
  M 626.66 186.87
  C 634.96 245.86 678.42 293.05 733.92 311.59
  C 749.45 316.78 766.09 318.03 782.50 317.77
  C 832.80 317.00 877.03 290.62 898.38 244.50
  Q 898.43 244.40 898.37 244.30
  Q 898.31 244.18 898.24 244.07
  A 0.17 0.17 0.0 0 0 897.95 244.05
  C 870.62 278.64 824.42 288.52 782.22 282.46
  C 743.58 276.91 707.28 254.47 682.84 224.66
  C 652.32 187.44 639.83 134.70 661.51 90.28
  Q 662.68 87.87 661.02 89.97
  Q 652.97 100.09 644.57 110.82
  C 628.39 131.46 623.03 161.11 626.66 186.87"
/>
<path stroke="#ec978d" vector-effect="non-scaling-stroke" d="
  M 572.67 283.53
  Q 573.88 280.05 574.02 283.73
  C 574.22 288.64 576.47 295.73 580.68 298.51
  C 586.75 302.51 596.90 298.09 602.19 294.30
  C 605.22 292.13 606.16 290.14 605.73 286.49
  C 605.35 283.30 603.24 282.94 600.65 284.22
  C 594.99 287.04 585.30 293.18 584.44 281.62
  C 584.02 275.99 585.33 270.60 584.35 265.00
  C 583.27 258.83 576.93 262.23 574.51 264.77
  Q 569.91 269.59 567.38 276.39
  Q 567.24 276.77 566.94 276.93
  Q 566.47 277.18 566.47 276.64
  L 566.41 262.61
  Q 566.41 261.90 565.71 261.71
  C 563.29 261.04 558.67 260.90 557.67 263.98
  Q 553.31 277.47 551.31 291.31
  A 2.31 2.26 74.2 0 1 550.53 292.74
  Q 543.31 298.93 534.09 301.73
  Q 527.86 303.62 522.54 299.37
  A 0.76 0.76 0.0 0 1 522.77 298.06
  C 535.02 294.01 544.94 285.87 544.80 272.03
  C 544.73 265.80 541.22 260.15 534.50 259.98
  C 517.79 259.55 508.67 276.45 507.26 290.78
  Q 507.20 291.39 506.66 291.70
  L 494.78 298.51
  A 0.60 0.60 0.0 0 1 493.96 297.70
  C 499.05 288.37 501.79 273.56 492.23 265.76
  Q 486.90 261.41 481.56 264.31
  Q 478.86 265.76 480.74 263.35
  C 490.27 251.09 498.99 232.59 492.73 216.75
  C 488.22 205.31 474.91 212.21 470.79 219.25
  C 464.23 230.43 461.31 241.66 459.57 255.77
  Q 457.45 272.88 455.24 289.98
  Q 454.92 292.47 454.64 295.05
  C 454.16 299.65 449.58 301.86 445.45 302.52
  A 1.14 1.13 -12.7 0 1 444.18 301.72
  Q 442.75 296.91 443.43 291.84
  Q 444.71 282.28 446.22 272.75
  C 446.60 270.35 446.91 265.04 444.85 262.92
  C 441.42 259.40 436.14 262.69 433.66 266.14
  Q 427.63 274.51 423.40 281.97
  Q 420.35 287.32 422.10 281.42
  C 423.28 277.46 428.49 259.60 419.21 261.98
  C 409.77 264.40 405.46 275.19 401.38 282.68
  Q 398.92 287.21 400.06 282.18
  C 401.22 277.07 402.62 270.03 402.25 264.30
  A 3.06 3.04 -85.1 0 0 399.94 261.54
  C 397.70 260.98 392.81 261.05 391.60 263.64
  Q 390.05 266.96 387.85 278.14
  Q 386.39 285.57 384.83 292.98
  Q 384.53 294.43 383.11 295.34
  C 377.32 299.08 363.19 307.64 357.72 299.58
  Q 356.84 298.28 358.31 297.74
  C 369.10 293.74 381.51 285.65 380.36 272.42
  C 379.68 264.57 370.95 260.85 364.23 261.68
  C 351.11 263.28 345.07 277.37 344.20 288.83
  Q 344.16 289.31 343.69 289.38
  C 339.45 290.00 337.56 288.72 334.22 287.40
  C 330.65 286.00 329.23 292.66 329.44 294.91
  Q 329.49 295.42 329.87 295.77
  C 332.74 298.40 338.62 299.45 342.33 300.34
  A 1.85 1.85 0.0 0 1 343.66 301.57
  C 346.54 310.28 353.69 316.40 363.51 315.53
  Q 374.56 314.55 383.60 308.45
  A 0.44 0.44 0.0 0 1 384.27 308.70
  C 386.02 314.96 392.13 318.13 396.86 312.05
  Q 399.37 308.83 403.37 298.93
  Q 406.37 291.50 410.33 284.55
  Q 410.56 284.15 410.86 284.02
  A 0.28 0.28 0.0 0 1 411.25 284.33
  Q 409.65 293.58 408.95 302.76
  Q 408.52 308.37 409.04 309.76
  C 410.70 314.23 417.88 316.83 421.07 312.35
  Q 422.53 310.30 423.18 308.18
  Q 426.86 296.19 431.59 286.37
  Q 431.95 285.62 432.48 285.22
  A 0.31 0.30 -15.6 0 1 432.97 285.49
  Q 432.05 294.22 432.42 303.00
  C 433.19 321.01 444.15 316.10 454.36 310.39
  A 2.27 2.26 -43.9 0 1 456.65 310.43
  C 461.96 313.67 468.32 315.84 474.64 314.77
  Q 492.27 311.80 507.94 303.98
  Q 508.46 303.72 508.77 304.20
  C 518.17 318.83 536.65 318.04 549.10 308.04
  A 0.69 0.68 -25.8 0 1 550.20 308.42
  C 552.24 317.19 559.71 317.63 563.11 309.09
  Q 568.43 295.72 572.67 283.53"
/>
<path stroke="#b2ecfd" vector-effect="non-scaling-stroke" d="
  M 373.42 675.66
  C 393.05 669.44 418.79 659.09 429.43 640.43
  C 440.02 621.86 429.63 603.78 414.00 592.69
  C 401.27 583.66 385.46 576.93 370.14 572.93
  A 0.76 0.75 -76.8 0 1 369.59 572.04
  C 373.22 555.51 374.93 537.75 370.59 521.13
  C 365.07 499.96 347.46 490.03 326.36 496.46
  C 309.44 501.62 295.24 511.87 282.38 523.68
  A 0.64 0.64 0.0 0 1 281.52 523.68
  C 267.51 510.97 248.49 496.68 229.01 494.75
  C 206.53 492.54 194.08 508.87 191.53 529.25
  C 189.74 543.55 191.05 557.97 194.21 571.99
  A 0.76 0.76 0.0 0 1 193.67 572.89
  Q 177.32 577.32 162.10 585.09
  C 143.86 594.40 122.93 612.81 132.33 636.18
  C 140.74 657.08 170.18 669.84 190.19 675.45
  A 0.91 0.91 0.0 0 1 190.82 676.56
  C 185.92 694.41 182.93 713.79 185.54 732.25
  C 188.18 750.89 199.63 766.03 220.00 765.53
  C 242.60 764.97 266.16 745.95 281.53 730.63
  Q 281.90 730.25 282.28 730.63
  C 296.35 744.68 313.96 758.59 332.99 763.95
  C 352.48 769.44 369.83 761.23 375.81 741.69
  C 382.23 720.74 378.78 697.32 372.91 676.60
  A 0.78 0.77 -16.9 0 1 373.42 675.66"
/>
<path stroke="#9aa4af" vector-effect="non-scaling-stroke" d="
  M 762.29 497.10
  L 737.70 497.15"
/>
<path stroke="#939292" vector-effect="non-scaling-stroke" d="
  M 737.70 497.15
  L 703.59 497.29
  A 0.70 0.69 -75.0 0 0 702.99 497.64
  L 666.61 560.66"
/>
<path stroke="#9aa4af" vector-effect="non-scaling-stroke" d="
  M 666.61 560.66
  Q 665.92 561.31 665.50 560.68"
/>
<path stroke="#939292" vector-effect="non-scaling-stroke" d="
  M 665.50 560.68
  L 639.46 515.46"
/>
<path stroke="#9aa4af" vector-effect="non-scaling-stroke" d="
  M 639.46 515.46
  L 629.32 497.71
  Q 629.01 497.16 628.37 497.16
  L 569.92 497.05"
/>
<path stroke="#a0dcc1" vector-effect="non-scaling-stroke" d="
  M 569.92 497.05
  L 506.40 497.01
  A 0.52 0.52 0.0 0 0 505.95 497.79
  L 665.61 774.46
  A 0.53 0.53 0.0 0 0 666.52 774.46
  L 826.20 497.73
  A 0.47 0.47 0.0 0 0 825.79 497.03
  L 762.29 497.10"
/>
<path stroke="#3b8070" vector-effect="non-scaling-stroke" d="
  M 569.92 497.05
  L 665.48 662.98
  A 0.66 0.66 0.0 0 0 666.62 662.98
  L 762.29 497.10"
/>
<path stroke="#2d3742" vector-effect="non-scaling-stroke" d="
  M 639.46 515.46
  Q 638.78 515.29 638.87 516.13
  Q 638.90 516.47 639.14 516.86
  C 644.89 526.25 650.77 537.21 655.58 545.47
  Q 660.05 553.13 664.44 560.84
  A 0.52 0.52 0.0 0 0 665.17 561.02
  Q 665.37 560.89 665.50 560.68"
/>
<path stroke="#2d3742" vector-effect="non-scaling-stroke" d="
  M 666.61 560.66
  Q 666.67 560.81 666.74 560.92
  Q 666.95 561.23 667.24 560.99
  Q 667.99 560.35 668.86 558.76
  C 677.89 542.30 691.77 519.23 703.05 499.32
  A 1.64 1.63 15.2 0 1 704.51 498.49
  Q 720.75 498.71 737.25 498.59
  Q 737.84 498.58 738.26 498.32
  Q 738.74 498.01 738.23 497.75
  Q 737.72 497.50 737.70 497.15"
/>
<path stroke="#e28097" vector-effect="non-scaling-stroke" d="
  M 144.96 191.26
  A 0.34 0.34 0.0 0 0 145.27 191.73
  L 187.09 191.73
  A 0.34 0.34 0.0 0 0 187.40 191.26
  L 166.49 140.98
  A 0.34 0.34 0.0 0 0 165.87 140.98
  L 144.96 191.26"
/>
<path stroke="#939292" vector-effect="non-scaling-stroke" d="
  M 392.68 104.61
  L 392.90 103.09
  A 0.30 0.30 0.0 0 0 392.65 102.75
  L 392.40 102.71
  A 6.71 0.93 8.2 0 0 385.63 102.67
  L 385.59 102.95
  A 6.71 0.93 8.2 0 0 392.10 104.83
  L 392.34 104.86
  A 0.30 0.30 0.0 0 0 392.68 104.61"
/>
<path stroke="#939292" vector-effect="non-scaling-stroke" d="
  M 396.72 115.00
  C 395.93 122.44 397.14 135.05 403.84 139.72
  Q 405.92 141.17 409.75 141.72
  Q 423.36 143.68 436.91 140.66
  C 443.47 139.20 449.41 124.75 451.18 118.98
  Q 452.95 113.18 447.76 111.08
  Q 438.99 107.54 428.48 106.67
  Q 415.14 105.56 410.62 106.40
  C 405.81 107.29 397.36 108.91 396.72 115.00"
/>
<path stroke="#939292" vector-effect="non-scaling-stroke" d="
  M 526.53 147.57
  C 533.73 143.80 537.55 129.15 536.82 122.23
  A 3.25 3.24 22.5 0 0 536.11 120.52
  C 531.18 114.50 521.62 112.56 514.25 111.80
  C 509.51 111.31 482.83 110.06 482.34 117.49
  C 481.94 123.52 484.79 131.06 487.22 136.51
  C 491.27 145.63 499.47 146.46 508.40 147.60
  Q 509.46 147.74 510.57 148.05
  C 514.22 149.10 523.12 149.36 526.53 147.57"
/>
<path stroke="#929086" vector-effect="non-scaling-stroke" d="
  M 546.3670 113.5263
  A 0.80 0.80 0.0 0 0 545.5573 112.7361
  L 539.9977 112.8040
  A 0.80 0.80 0.0 0 0 539.2076 113.6138
  L 539.2130 114.0537
  A 0.80 0.80 0.0 0 0 540.0227 114.8439
  L 545.5823 114.7760
  A 0.80 0.80 0.0 0 0 546.3724 113.9662
  L 546.3670 113.5263"
/>
<path stroke="#939292" vector-effect="non-scaling-stroke" d="
  M 421.69 120.26
  Q 422.24 119.14 423.47 118.79
  Q 424.06 118.63 423.79 118.08
  Q 422.92 116.37 421.03 116.49
  Q 420.54 116.52 420.18 116.86
  C 416.77 120.08 414.93 128.08 417.81 131.47
  Q 419.54 133.50 421.45 131.93
  C 424.40 129.48 424.84 124.15 424.50 120.60
  Q 424.34 119.03 423.13 120.04
  L 422.30 120.74
  A 0.40 0.40 0.0 0 1 421.69 120.26"
/>
<path stroke="#939292" vector-effect="non-scaling-stroke" d="
  M 512.0275 138.5474
  A 8.05 3.89 84.1 0 0 515.0694 130.1401
  A 8.05 3.89 84.1 0 0 510.3725 122.5326
  A 8.05 3.89 84.1 0 0 507.3306 130.9399
  A 8.05 3.89 84.1 0 0 512.0275 138.5474"
/>
<path stroke="#cd7f52" vector-effect="non-scaling-stroke" d="
  M 463.13 145.55
  L 463.83 147.77
  A 1.00 1.00 0.0 0 0 465.69 147.91
  Q 467.20 144.78 470.70 146.14
  Q 472.47 146.83 472.00 144.99
  L 471.20 141.91
  Q 470.68 139.91 468.65 139.57
  C 463.21 138.65 456.95 138.17 457.20 145.83
  Q 457.22 146.35 457.72 146.23
  L 462.41 145.14
  A 0.61 0.61 0.0 0 1 463.13 145.55"
/>
<path stroke="#346f54" vector-effect="non-scaling-stroke" d="
  M 510.35 124.45
  C 511.69 125.05 511.95 125.68 512.36 127.01
  Q 512.38 127.09 512.38 127.01
  Q 512.46 124.92 510.63 124.13
  Q 510.33 124.00 510.25 124.18
  L 510.25 124.19
  Q 510.17 124.37 510.35 124.45"
/>
<path stroke="#d39972" vector-effect="non-scaling-stroke" d="
  M 562.29 236.89
  Q 562.66 237.52 562.99 237.64
  Q 574.15 241.84 584.34 235.81
  Q 586.37 234.61 586.47 232.40
  A 1.81 1.81 0.0 0 0 584.54 230.51
  L 577.86 230.98
  Q 576.42 231.09 576.60 229.66
  C 576.99 226.54 586.76 218.88 581.07 216.61
  A 2.32 2.31 -54.7 0 0 578.68 217.02
  C 576.60 218.84 573.07 222.96 570.23 221.98
  A 2.16 2.14 9.0 0 1 568.77 219.99
  C 568.72 217.64 569.37 211.87 567.32 210.49
  Q 565.76 209.44 564.49 210.82
  C 562.13 213.39 561.53 219.25 560.81 222.47
  A 1.90 1.89 9.5 0 1 558.75 223.93
  L 551.54 223.08
  A 1.56 1.56 0.0 0 0 549.95 225.29
  Q 553.58 233.10 561.64 236.33
  A 1.34 1.34 0.0 0 1 562.29 236.89"
/>
<path stroke="#ec978d" vector-effect="non-scaling-stroke" d="
  M 468.68 263.50
  C 473.83 254.51 487.69 231.90 483.21 222.06
  A 0.55 0.55 0.0 0 0 482.35 221.86
  C 477.89 225.54 474.93 232.83 473.24 238.70
  Q 469.59 251.31 467.68 263.14
  Q 467.21 266.07 468.68 263.50"
/>
<path stroke="#ec978d" vector-effect="non-scaling-stroke" d="
  M 526.58 272.57
  C 523.08 276.68 520.46 282.63 520.44 288.01
  Q 520.44 289.15 521.56 288.99
  C 528.62 287.95 537.29 280.68 533.01 272.75
  C 531.39 269.76 528.55 270.25 526.58 272.57"
/>
<path stroke="#ec978d" vector-effect="non-scaling-stroke" d="
  M 364.31 272.09
  C 358.84 275.18 355.97 282.79 356.36 288.88
  A 0.25 0.24 -6.1 0 0 356.65 289.11
  C 362.58 287.99 372.09 282.40 370.31 275.04
  C 369.59 272.06 367.24 270.43 364.31 272.09"
/>
<path stroke="#ec978d" vector-effect="non-scaling-stroke" d="
  M 470.17 279.69
  Q 465.26 290.70 465.40 302.17
  A 2.22 2.22 0.0 0 0 467.14 304.31
  Q 477.27 306.52 482.33 298.31
  C 485.40 293.33 487.82 282.57 483.85 277.40
  C 480.20 272.63 472.43 274.62 470.17 279.69"
/>
<path stroke="#b2ecfd" vector-effect="non-scaling-stroke" d="
  M 224.01 508.71
  C 198.81 509.88 204.73 553.99 207.89 568.64
  Q 208.01 569.16 208.52 569.05
  Q 227.19 565.09 246.19 563.21
  A 2.42 2.40 15.3 0 0 247.87 562.26
  Q 258.75 547.72 271.20 534.51
  Q 271.63 534.06 271.18 533.63
  C 260.23 523.16 239.85 507.97 224.01 508.71"
/>
<path stroke="#b2ecfd" vector-effect="non-scaling-stroke" d="
  M 347.37 510.75
  C 331.67 501.88 303.48 523.13 292.58 533.73
  Q 292.21 534.09 292.56 534.46
  Q 304.80 547.48 315.55 561.77
  C 316.11 562.51 316.90 563.12 317.75 563.21
  Q 336.39 565.11 354.86 568.95
  A 0.90 0.89 12.1 0 0 355.92 568.27
  C 359.07 554.05 363.34 519.76 347.37 510.75"
/>
<path stroke="#b2ecfd" vector-effect="non-scaling-stroke" d="
  M 266.66 561.00
  A 0.36 0.36 0.0 0 0 266.93 561.60
  L 296.89 561.60
  A 0.36 0.36 0.0 0 0 297.16 561.00
  L 282.18 543.88
  A 0.36 0.36 0.0 0 0 281.64 543.88
  L 266.66 561.00"
/>
<path stroke="#b2ecfd" vector-effect="non-scaling-stroke" d="
  M 254.45 577.35
  C 244.12 591.84 235.06 607.16 226.89 623.03
  A 1.48 1.46 -43.9 0 0 226.86 624.32
  Q 237.94 648.43 251.99 670.66
  Q 253.34 672.80 256.25 672.97
  Q 284.07 674.53 308.26 673.10
  Q 309.96 673.00 310.85 671.63
  Q 324.88 650.06 335.81 626.77
  C 336.77 624.71 337.46 624.17 336.22 621.77
  Q 324.38 598.73 309.55 577.55
  A 2.41 2.40 74.4 0 0 307.75 576.53
  Q 281.76 574.72 255.77 576.60
  A 1.81 1.78 14.9 0 0 254.45 577.35"
/>
<path stroke="#b2ecfd" vector-effect="non-scaling-stroke" d="
  M 218.95 605.94
  A 0.32 0.32 0.0 0 0 219.53 606.01
  L 235.79 579.01
  A 0.32 0.32 0.0 0 0 235.46 578.53
  L 211.50 582.67
  A 0.32 0.32 0.0 0 0 211.25 583.08
  L 218.95 605.94"
/>
<path stroke="#b2ecfd" vector-effect="non-scaling-stroke" d="
  M 328.63 578.55
  A 0.44 0.44 0.0 0 0 328.18 579.21
  L 344.10 605.81
  A 0.44 0.44 0.0 0 0 344.90 605.73
  L 352.47 583.13
  A 0.44 0.44 0.0 0 0 352.13 582.55
  L 328.63 578.55"
/>
<path stroke="#b2ecfd" vector-effect="non-scaling-stroke" d="
  M 207.72 630.37
  C 208.46 628.77 210.49 625.18 210.57 623.60
  Q 210.62 622.62 210.48 622.30
  Q 202.92 604.96 197.79 586.84
  Q 197.67 586.41 197.24 586.53
  C 180.88 591.26 151.47 602.22 145.28 619.24
  C 137.17 641.56 179.93 657.92 194.61 662.04
  A 0.49 0.48 -72.6 0 0 195.19 661.73
  Q 200.71 645.63 207.72 630.37"
/>
<path stroke="#b2ecfd" vector-effect="non-scaling-stroke" d="
  M 366.00 586.81
  C 362.57 598.96 358.17 610.38 353.41 622.08
  A 3.27 3.25 43.4 0 0 353.49 624.73
  Q 362.18 642.75 368.52 661.73
  A 0.59 0.58 -17.6 0 0 369.24 662.10
  C 384.18 657.65 419.08 644.36 419.51 624.94
  C 419.85 609.76 396.66 597.59 384.70 592.83
  Q 375.74 589.26 366.53 586.52
  A 0.42 0.42 0.0 0 0 366.00 586.81"
/>
<path stroke="#b2ecfd" vector-effect="non-scaling-stroke" d="
  M 234.72 670.89
  A 0.33 0.33 0.0 0 0 235.07 670.40
  L 218.75 641.08
  A 0.33 0.33 0.0 0 0 218.15 641.13
  L 208.64 665.62
  A 0.33 0.33 0.0 0 0 208.89 666.06
  L 234.72 670.89"
/>
<path stroke="#b2ecfd" vector-effect="non-scaling-stroke" d="
  M 345.66 641.10
  A 0.31 0.31 0.0 0 0 345.10 641.06
  L 328.65 670.49
  A 0.31 0.31 0.0 0 0 328.98 670.95
  L 354.94 666.14
  A 0.31 0.31 0.0 0 0 355.17 665.73
  L 345.66 641.10"
/>
<path stroke="#b2ecfd" vector-effect="non-scaling-stroke" d="
  M 210.29 749.40
  C 222.07 756.11 240.61 745.40 250.13 738.60
  Q 261.62 730.39 271.55 720.61
  A 0.85 0.85 0.0 0 0 271.58 719.44
  Q 257.86 704.05 246.10 687.12
  Q 245.43 686.16 244.25 686.05
  Q 224.52 684.16 205.26 679.57
  A 0.59 0.58 13.4 0 0 204.57 679.99
  C 200.14 696.17 191.62 738.78 210.29 749.40"
/>
<path stroke="#b2ecfd" vector-effect="non-scaling-stroke" d="
  M 311.57 737.18
  C 322.62 745.47 350.29 761.65 360.21 742.42
  C 369.33 724.74 364.04 698.19 359.20 679.87
  A 0.45 0.45 0.0 0 0 358.65 679.54
  Q 339.35 684.18 319.51 686.13
  Q 318.12 686.27 317.57 687.07
  Q 305.79 704.16 292.13 719.56
  A 0.67 0.67 0.0 0 0 292.16 720.48
  Q 301.34 729.50 311.57 737.18"
/>
<path stroke="#b2ecfd" vector-effect="non-scaling-stroke" d="
  M 299.52 688.31
  A 0.32 0.32 0.0 0 0 299.27 687.79
  L 264.54 687.85
  A 0.32 0.32 0.0 0 0 264.30 688.38
  L 281.70 709.74
  A 0.32 0.32 0.0 0 0 282.19 709.74
  L 299.52 688.31"
/>
<path stroke="#b2ecfd" vector-effect="non-scaling-stroke" d="
  M 310.29 624.78
  A 28.41 28.41 0.0 0 0 281.88 596.37
  A 28.41 28.41 0.0 0 0 253.47 624.78
  A 28.41 28.41 0.0 0 0 281.88 653.19
  A 28.41 28.41 0.0 0 0 310.29 624.78"
/>
</g>
<path fill="#ffffff" d="
  M 0.00 0.00
  L 923.00 0.00
  L 923.00 923.00
  L 0.00 923.00
  L 0.00 0.00
  Z
  M 892.29 128.84
  C 880.62 138.93 867.16 141.05 852.51 139.48
  Q 822.88 136.30 803.51 114.22
  C 788.75 97.39 781.05 71.93 792.22 50.99
  Q 792.31 50.81 792.15 50.71
  L 792.14 50.70
  Q 791.97 50.60 791.86 50.76
  Q 786.86 57.56 785.13 60.13
  C 763.08 92.85 784.11 132.71 815.67 148.00
  C 844.55 162.00 881.23 155.37 896.35 124.69
  Q 896.65 124.07 896.17 124.57
  C 894.84 125.92 893.64 127.67 892.29 128.84
  Z
  M 551.69 53.06
  C 546.40 53.08 536.51 60.75 532.40 64.16
  C 527.85 67.93 521.27 70.59 515.32 73.31
  Q 504.32 66.51 490.50 63.71
  C 469.70 59.49 449.08 60.39 429.55 69.15
  Q 426.23 70.64 423.56 70.77
  Q 417.98 71.05 413.52 69.48
  C 400.46 64.91 386.71 60.82 373.93 66.35
  C 355.44 73.59 363.84 91.04 373.32 100.93
  Q 375.11 103.63 377.67 105.21
  C 379.27 109.72 383.78 109.18 384.82 114.16
  Q 386.58 122.52 389.90 130.63
  C 383.39 150.13 366.19 164.85 364.48 186.24
  C 363.38 200.08 369.91 212.63 379.89 221.86
  Q 384.20 225.85 394.17 231.69
  Q 394.21 231.71 396.45 232.63
  Q 397.78 233.17 398.32 234.47
  Q 392.71 244.62 389.35 254.80
  A 0.39 0.38 -87.3 0 0 389.80 255.30
  L 396.64 253.75
  Q 402.05 253.56 406.41 256.74
  Q 406.81 257.54 407.73 258.18
  A 1.32 1.32 0.0 0 0 409.59 257.81
  L 411.43 254.97
  Q 411.74 254.49 412.30 254.46
  Q 415.19 254.33 418.08 254.29
  C 421.98 254.23 425.36 255.65 428.93 256.86
  A 4.50 4.46 44.2 0 0 431.91 256.83
  C 434.89 255.74 439.68 253.43 442.75 254.29
  Q 447.15 255.53 450.62 257.90
  A 0.81 0.80 21.5 0 0 451.87 257.36
  L 453.60 246.16
  Q 455.40 234.59 460.45 223.25
  Q 462.42 218.33 465.72 213.76
  C 467.39 211.45 470.11 210.48 471.01 207.66
  L 473.85 206.55
  Q 479.71 202.69 486.69 203.32
  Q 495.97 205.68 500.28 214.42
  Q 500.52 217.52 502.02 221.21
  C 502.92 223.40 502.35 226.43 502.38 228.93
  Q 502.43 233.25 501.09 237.61
  Q 499.37 246.49 495.06 254.11
  A 0.51 0.51 0.0 0 0 495.52 254.87
  C 497.25 254.83 498.76 255.23 500.48 254.93
  Q 511.56 252.99 522.22 249.41
  C 524.23 248.73 526.34 248.43 528.41 247.81
  A 0.84 0.84 0.0 0 1 529.28 248.04
  Q 530.84 249.75 532.41 251.29
  C 533.67 252.52 535.08 252.58 536.69 252.50
  C 542.33 254.33 546.15 255.99 549.34 261.17
  A 0.81 0.81 0.0 0 0 550.75 261.11
  Q 554.37 253.85 562.99 253.85
  Q 566.23 247.90 568.14 241.18
  Q 572.21 240.38 576.72 239.75
  Q 580.61 239.20 584.01 237.28
  C 586.82 235.69 589.68 230.53 584.77 229.50
  Q 583.15 229.16 578.75 229.84
  Q 578.11 229.94 578.00 229.79
  A 1.07 1.06 -45.3 0 1 578.00 228.48
  C 580.29 225.48 586.49 219.09 581.95 215.75
  A 2.57 2.57 0.0 0 0 578.81 215.83
  C 576.78 217.49 574.24 220.15 571.73 221.05
  A 1.39 1.38 -11.8 0 1 569.88 219.84
  C 569.72 217.29 570.33 210.95 567.91 209.61
  C 562.12 206.43 560.47 218.63 559.69 221.80
  A 0.81 0.79 8.9 0 1 558.85 222.40
  L 549.85 221.71
  A 1.00 1.00 0.0 0 0 548.77 222.73
  Q 548.83 228.08 553.13 232.71
  Q 549.45 236.89 545.36 237.93
  Q 544.85 238.07 544.59 237.61
  L 538.12 226.47
  Q 538.28 225.91 538.57 225.21
  Q 538.82 224.63 539.34 224.17
  Q 545.06 219.02 548.02 212.41
  Q 551.44 206.80 553.63 200.60
  C 561.31 178.81 555.62 157.06 544.95 137.53
  Q 544.36 136.44 543.70 133.29
  Q 543.59 132.80 543.80 132.35
  C 545.20 129.22 547.08 124.87 550.14 123.05
  C 551.84 122.05 554.95 121.11 556.07 119.71
  C 557.97 117.31 557.09 109.57 554.17 107.94
  A 1.24 1.20 52.8 0 0 553.31 107.81
  L 547.72 109.08
  Q 547.35 109.21 547.06 108.82
  A 0.74 0.74 0.0 0 1 547.18 107.80
  C 557.70 99.04 569.92 83.44 570.19 69.10
  C 570.33 62.14 567.99 57.87 562.26 54.22
  Q 557.03 50.89 551.69 53.06
  Z
  M 144.49 66.14
  L 49.34 100.04
  Q 48.32 100.41 48.45 101.48
  L 66.19 255.01
  A 2.68 2.64 11.6 0 0 67.55 257.04
  L 164.30 310.59
  C 165.40 311.26 166.02 311.67 167.27 310.98
  Q 216.42 283.74 265.50 256.58
  A 1.20 1.19 -11.6 0 0 266.10 255.68
  L 283.90 101.00
  A 0.82 0.82 0.0 0 0 283.36 100.14
  Q 225.58 79.53 167.79 58.98
  Q 166.14 58.40 163.19 59.45
  Q 153.86 62.79 144.49 66.14
  Z
  M 903.95 175.72
  C 881.32 205.87 839.92 213.16 805.49 202.67
  Q 771.91 192.44 748.96 165.54
  C 727.14 139.97 716.69 103.42 730.36 71.29
  Q 731.82 67.87 733.45 64.55
  Q 733.51 64.42 733.39 64.35
  L 733.39 64.34
  Q 733.27 64.27 733.18 64.39
  Q 727.07 72.81 721.08 81.34
  C 696.73 116.02 705.88 162.29 732.57 192.45
  Q 752.08 214.50 779.76 225.07
  C 794.12 230.56 809.98 231.65 825.26 230.73
  C 860.58 228.60 891.04 208.90 904.74 176.17
  Q 906.16 172.76 903.95 175.72
  Z
  M 626.66 186.87
  C 634.96 245.86 678.42 293.05 733.92 311.59
  C 749.45 316.78 766.09 318.03 782.50 317.77
  C 832.80 317.00 877.03 290.62 898.38 244.50
  Q 898.43 244.40 898.37 244.30
  Q 898.31 244.18 898.24 244.07
  A 0.17 0.17 0.0 0 0 897.95 244.05
  C 870.62 278.64 824.42 288.52 782.22 282.46
  C 743.58 276.91 707.28 254.47 682.84 224.66
  C 652.32 187.44 639.83 134.70 661.51 90.28
  Q 662.68 87.87 661.02 89.97
  Q 652.97 100.09 644.57 110.82
  C 628.39 131.46 623.03 161.11 626.66 186.87
  Z
  M 572.67 283.53
  Q 573.88 280.05 574.02 283.73
  C 574.22 288.64 576.47 295.73 580.68 298.51
  C 586.75 302.51 596.90 298.09 602.19 294.30
  C 605.22 292.13 606.16 290.14 605.73 286.49
  C 605.35 283.30 603.24 282.94 600.65 284.22
  C 594.99 287.04 585.30 293.18 584.44 281.62
  C 584.02 275.99 585.33 270.60 584.35 265.00
  C 583.27 258.83 576.93 262.23 574.51 264.77
  Q 569.91 269.59 567.38 276.39
  Q 567.24 276.77 566.94 276.93
  Q 566.47 277.18 566.47 276.64
  L 566.41 262.61
  Q 566.41 261.90 565.71 261.71
  C 563.29 261.04 558.67 260.90 557.67 263.98
  Q 553.31 277.47 551.31 291.31
  A 2.31 2.26 74.2 0 1 550.53 292.74
  Q 543.31 298.93 534.09 301.73
  Q 527.86 303.62 522.54 299.37
  A 0.76 0.76 0.0 0 1 522.77 298.06
  C 535.02 294.01 544.94 285.87 544.80 272.03
  C 544.73 265.80 541.22 260.15 534.50 259.98
  C 517.79 259.55 508.67 276.45 507.26 290.78
  Q 507.20 291.39 506.66 291.70
  L 494.78 298.51
  A 0.60 0.60 0.0 0 1 493.96 297.70
  C 499.05 288.37 501.79 273.56 492.23 265.76
  Q 486.90 261.41 481.56 264.31
  Q 478.86 265.76 480.74 263.35
  C 490.27 251.09 498.99 232.59 492.73 216.75
  C 488.22 205.31 474.91 212.21 470.79 219.25
  C 464.23 230.43 461.31 241.66 459.57 255.77
  Q 457.45 272.88 455.24 289.98
  Q 454.92 292.47 454.64 295.05
  C 454.16 299.65 449.58 301.86 445.45 302.52
  A 1.14 1.13 -12.7 0 1 444.18 301.72
  Q 442.75 296.91 443.43 291.84
  Q 444.71 282.28 446.22 272.75
  C 446.60 270.35 446.91 265.04 444.85 262.92
  C 441.42 259.40 436.14 262.69 433.66 266.14
  Q 427.63 274.51 423.40 281.97
  Q 420.35 287.32 422.10 281.42
  C 423.28 277.46 428.49 259.60 419.21 261.98
  C 409.77 264.40 405.46 275.19 401.38 282.68
  Q 398.92 287.21 400.06 282.18
  C 401.22 277.07 402.62 270.03 402.25 264.30
  A 3.06 3.04 -85.1 0 0 399.94 261.54
  C 397.70 260.98 392.81 261.05 391.60 263.64
  Q 390.05 266.96 387.85 278.14
  Q 386.39 285.57 384.83 292.98
  Q 384.53 294.43 383.11 295.34
  C 377.32 299.08 363.19 307.64 357.72 299.58
  Q 356.84 298.28 358.31 297.74
  C 369.10 293.74 381.51 285.65 380.36 272.42
  C 379.68 264.57 370.95 260.85 364.23 261.68
  C 351.11 263.28 345.07 277.37 344.20 288.83
  Q 344.16 289.31 343.69 289.38
  C 339.45 290.00 337.56 288.72 334.22 287.40
  C 330.65 286.00 329.23 292.66 329.44 294.91
  Q 329.49 295.42 329.87 295.77
  C 332.74 298.40 338.62 299.45 342.33 300.34
  A 1.85 1.85 0.0 0 1 343.66 301.57
  C 346.54 310.28 353.69 316.40 363.51 315.53
  Q 374.56 314.55 383.60 308.45
  A 0.44 0.44 0.0 0 1 384.27 308.70
  C 386.02 314.96 392.13 318.13 396.86 312.05
  Q 399.37 308.83 403.37 298.93
  Q 406.37 291.50 410.33 284.55
  Q 410.56 284.15 410.86 284.02
  A 0.28 0.28 0.0 0 1 411.25 284.33
  Q 409.65 293.58 408.95 302.76
  Q 408.52 308.37 409.04 309.76
  C 410.70 314.23 417.88 316.83 421.07 312.35
  Q 422.53 310.30 423.18 308.18
  Q 426.86 296.19 431.59 286.37
  Q 431.95 285.62 432.48 285.22
  A 0.31 0.30 -15.6 0 1 432.97 285.49
  Q 432.05 294.22 432.42 303.00
  C 433.19 321.01 444.15 316.10 454.36 310.39
  A 2.27 2.26 -43.9 0 1 456.65 310.43
  C 461.96 313.67 468.32 315.84 474.64 314.77
  Q 492.27 311.80 507.94 303.98
  Q 508.46 303.72 508.77 304.20
  C 518.17 318.83 536.65 318.04 549.10 308.04
  A 0.69 0.68 -25.8 0 1 550.20 308.42
  C 552.24 317.19 559.71 317.63 563.11 309.09
  Q 568.43 295.72 572.67 283.53
  Z
  M 373.42 675.66
  C 393.05 669.44 418.79 659.09 429.43 640.43
  C 440.02 621.86 429.63 603.78 414.00 592.69
  C 401.27 583.66 385.46 576.93 370.14 572.93
  A 0.76 0.75 -76.8 0 1 369.59 572.04
  C 373.22 555.51 374.93 537.75 370.59 521.13
  C 365.07 499.96 347.46 490.03 326.36 496.46
  C 309.44 501.62 295.24 511.87 282.38 523.68
  A 0.64 0.64 0.0 0 1 281.52 523.68
  C 267.51 510.97 248.49 496.68 229.01 494.75
  C 206.53 492.54 194.08 508.87 191.53 529.25
  C 189.74 543.55 191.05 557.97 194.21 571.99
  A 0.76 0.76 0.0 0 1 193.67 572.89
  Q 177.32 577.32 162.10 585.09
  C 143.86 594.40 122.93 612.81 132.33 636.18
  C 140.74 657.08 170.18 669.84 190.19 675.45
  A 0.91 0.91 0.0 0 1 190.82 676.56
  C 185.92 694.41 182.93 713.79 185.54 732.25
  C 188.18 750.89 199.63 766.03 220.00 765.53
  C 242.60 764.97 266.16 745.95 281.53 730.63
  Q 281.90 730.25 282.28 730.63
  C 296.35 744.68 313.96 758.59 332.99 763.95
  C 352.48 769.44 369.83 761.23 375.81 741.69
  C 382.23 720.74 378.78 697.32 372.91 676.60
  A 0.78 0.77 -16.9 0 1 373.42 675.66
  Z
  M 762.29 497.10
  L 737.70 497.15
  L 703.59 497.29
  A 0.70 0.69 -75.0 0 0 702.99 497.64
  L 666.61 560.66
  Q 665.92 561.31 665.50 560.68
  L 639.46 515.46
  L 629.32 497.71
  Q 629.01 497.16 628.37 497.16
  L 569.92 497.05
  L 506.40 497.01
  A 0.52 0.52 0.0 0 0 505.95 497.79
  L 665.61 774.46
  A 0.53 0.53 0.0 0 0 666.52 774.46
  L 826.20 497.73
  A 0.47 0.47 0.0 0 0 825.79 497.03
  L 762.29 497.10
  Z"
/>
<path fill="#1066a9" d="
  M 892.29 128.84
  C 893.64 127.67 894.84 125.92 896.17 124.57
  Q 896.65 124.07 896.35 124.69
  C 881.23 155.37 844.55 162.00 815.67 148.00
  C 784.11 132.71 763.08 92.85 785.13 60.13
  Q 786.86 57.56 791.86 50.76
  Q 791.97 50.60 792.14 50.70
  L 792.15 50.71
  Q 792.31 50.81 792.22 50.99
  C 781.05 71.93 788.75 97.39 803.51 114.22
  Q 822.88 136.30 852.51 139.48
  C 867.16 141.05 880.62 138.93 892.29 128.84
  Z"
/>
<path fill="#ef8e6f" d="
  M 547.72 109.08
  Q 542.77 110.58 538.52 108.31
  L 538.33 104.55
  C 539.19 105.43 539.87 107.06 540.96 107.36
  C 543.43 108.03 548.28 104.51 549.45 103.46
  C 559.98 94.01 581.93 64.01 558.99 54.27
  C 553.95 52.13 549.00 58.39 546.87 62.10
  C 544.22 66.70 541.35 71.12 538.66 75.68
  Q 534.12 83.37 534.07 93.63
  L 527.30 83.77
  L 549.04 56.47
  Q 549.95 55.38 551.00 54.75
  Q 551.36 54.53 551.36 54.10
  Q 551.36 53.41 551.69 53.06
  Q 557.03 50.89 562.26 54.22
  C 567.99 57.87 570.33 62.14 570.19 69.10
  C 569.92 83.44 557.70 99.04 547.18 107.80
  A 0.74 0.74 0.0 0 0 547.06 108.82
  Q 547.35 109.21 547.72 109.08
  Z"
/>
<path fill="#ffedd9" d="
  M 551.69 53.06
  Q 551.36 53.41 551.36 54.10
  Q 551.36 54.53 551.00 54.75
  Q 549.95 55.38 549.04 56.47
  Q 549.07 56.22 548.84 56.04
  A 0.73 0.71 -40.9 0 0 548.01 55.99
  Q 543.23 58.93 532.41 66.92
  Q 526.20 71.52 516.93 74.56
  L 515.32 73.31
  C 521.27 70.59 527.85 67.93 532.40 64.16
  C 536.51 60.75 546.40 53.08 551.69 53.06
  Z"
/>
<path fill="#fcc3ae" d="
  M 538.33 104.55
  L 534.07 93.63
  Q 534.12 83.37 538.66 75.68
  C 541.35 71.12 544.22 66.70 546.87 62.10
  C 549.00 58.39 553.95 52.13 558.99 54.27
  C 581.93 64.01 559.98 94.01 549.45 103.46
  C 548.28 104.51 543.43 108.03 540.96 107.36
  C 539.87 107.06 539.19 105.43 538.33 104.55
  Z"
/>
<path fill="#fefae7" d="
  M 549.04 56.47
  L 527.30 83.77
  Q 522.60 78.31 516.93 74.56
  Q 526.20 71.52 532.41 66.92
  Q 543.23 58.93 548.01 55.99
  A 0.73 0.71 -40.9 0 1 548.84 56.04
  Q 549.07 56.22 549.04 56.47
  Z"
/>
<path fill="#c5002f" d="
  M 164.30 310.59
  L 166.08 309.39
  A 1.03 1.01 73.5 0 0 166.53 308.54
  C 166.27 284.93 166.49 261.36 166.52 237.75
  Q 166.53 227.96 165.93 217.96
  A 2.46 2.46 0.0 0 0 164.34 215.81
  Q 162.14 214.99 164.18 214.56
  L 196.60 214.64
  A 0.93 0.93 0.0 0 1 197.46 215.21
  L 211.93 251.17
  Q 212.12 251.64 212.63 251.64
  L 239.14 251.65
  A 0.40 0.40 0.0 0 0 239.51 251.09
  L 165.86 86.28
  L 166.11 62.14
  A 1.79 1.78 80.1 0 0 163.71 60.45
  Q 156.65 63.03 149.19 65.36
  Q 148.61 65.54 146.78 65.87
  A 0.97 0.94 -70.7 0 0 146.32 66.10
  Q 145.53 66.78 144.49 66.14
  Q 153.86 62.79 163.19 59.45
  Q 166.14 58.40 167.79 58.98
  Q 225.58 79.53 283.36 100.14
  A 0.82 0.82 0.0 0 1 283.90 101.00
  L 266.10 255.68
  A 1.20 1.19 -11.6 0 1 265.50 256.58
  Q 216.42 283.74 167.27 310.98
  C 166.02 311.67 165.40 311.26 164.30 310.59
  Z"
/>
<path fill="#dd0032" d="
  M 165.86 86.28
  L 92.53 251.27
  Q 92.35 251.67 92.79 251.67
  L 119.53 251.66
  Q 120.03 251.66 120.21 251.20
  L 134.60 215.12
  A 0.79 0.79 0.0 0 1 135.33 214.63
  L 164.18 214.56
  Q 162.14 214.99 164.34 215.81
  A 2.46 2.46 0.0 0 1 165.93 217.96
  Q 166.53 227.96 166.52 237.75
  C 166.49 261.36 166.27 284.93 166.53 308.54
  A 1.03 1.01 73.5 0 1 166.08 309.39
  L 164.30 310.59
  L 67.55 257.04
  A 2.68 2.64 11.6 0 1 66.19 255.01
  L 48.45 101.48
  Q 48.32 100.41 49.34 100.04
  L 144.49 66.14
  Q 145.53 66.78 146.32 66.10
  A 0.97 0.94 -70.7 0 1 146.78 65.87
  Q 148.61 65.54 149.19 65.36
  Q 156.65 63.03 163.71 60.45
  A 1.79 1.78 80.1 0 1 166.11 62.14
  L 165.86 86.28
  Z"
/>
<path fill="#724116" d="
  M 515.32 73.31
  L 516.93 74.56
  Q 522.60 78.31 527.30 83.77
  L 534.07 93.63
  L 538.33 104.55
  L 538.52 108.31
  L 536.59 107.37
  Q 535.41 103.62 534.15 100.32
  C 529.73 88.76 522.40 80.30 511.81 74.11
  Q 506.58 71.06 502.24 69.40
  Q 497.08 67.43 487.75 65.20
  C 485.03 64.55 481.65 64.06 478.81 64.20
  C 470.82 64.60 462.92 63.89 454.30 64.57
  C 452.70 64.70 450.97 65.27 449.19 65.37
  C 440.65 65.89 430.60 70.08 423.51 74.91
  C 416.41 79.74 410.86 84.48 407.81 92.95
  Q 407.59 93.58 407.31 92.97
  L 406.74 91.75
  Q 406.89 86.39 411.74 81.66
  Q 415.82 77.78 421.48 74.06
  C 422.55 73.36 423.88 73.09 425.11 72.74
  Q 426.08 72.46 425.07 72.41
  C 422.44 72.26 419.67 72.17 417.03 71.51
  C 405.20 68.54 391.29 62.38 379.01 66.35
  Q 376.32 66.80 373.93 66.35
  C 386.71 60.82 400.46 64.91 413.52 69.48
  Q 417.98 71.05 423.56 70.77
  Q 426.23 70.64 429.55 69.15
  C 449.08 60.39 469.70 59.49 490.50 63.71
  Q 504.32 66.51 515.32 73.31
  Z"
/>
<path fill="#aa6f35" d="
  M 536.59 107.37
  Q 524.11 102.92 511.74 101.97
  Q 497.27 100.86 490.50 101.49
  Q 480.67 102.42 470.86 103.46
  Q 464.87 104.09 462.24 103.22
  C 451.56 99.71 444.96 97.87 434.50 96.82
  Q 424.81 95.85 407.02 96.99
  Q 407.71 95.03 406.64 92.97
  Q 406.96 92.52 406.74 91.75
  L 407.31 92.97
  Q 407.59 93.58 407.81 92.95
  C 410.86 84.48 416.41 79.74 423.51 74.91
  C 430.60 70.08 440.65 65.89 449.19 65.37
  C 450.97 65.27 452.70 64.70 454.30 64.57
  C 462.92 63.89 470.82 64.60 478.81 64.20
  C 481.65 64.06 485.03 64.55 487.75 65.20
  Q 497.08 67.43 502.24 69.40
  Q 506.58 71.06 511.81 74.11
  C 522.40 80.30 529.73 88.76 534.15 100.32
  Q 535.41 103.62 536.59 107.37
  Z"
/>
<path fill="#1066a9" d="
  M 805.49 202.67
  C 839.92 213.16 881.32 205.87 903.95 175.72
  Q 906.16 172.76 904.74 176.17
  C 891.04 208.90 860.58 228.60 825.26 230.73
  C 809.98 231.65 794.12 230.56 779.76 225.07
  Q 752.08 214.50 732.57 192.45
  C 705.88 162.29 696.73 116.02 721.08 81.34
  Q 727.07 72.81 733.18 64.39
  Q 733.27 64.27 733.39 64.34
  L 733.39 64.35
  Q 733.51 64.42 733.45 64.55
  Q 731.82 67.87 730.36 71.29
  C 716.69 103.42 727.14 139.97 748.96 165.54
  Q 771.91 192.44 805.49 202.67
  Z"
/>
<path fill="#aa6f35" d="
  M 411.74 81.66
  Q 398.38 73.54 389.02 69.52
  Q 386.76 68.55 379.01 66.35
  C 391.29 62.38 405.20 68.54 417.03 71.51
  C 419.67 72.17 422.44 72.26 425.07 72.41
  Q 426.08 72.46 425.11 72.74
  C 423.88 73.09 422.55 73.36 421.48 74.06
  Q 415.82 77.78 411.74 81.66
  Z"
/>
<path fill="#ef8e6f" d="
  M 373.93 66.35
  Q 376.32 66.80 379.01 66.35
  Q 386.76 68.55 389.02 69.52
  Q 398.38 73.54 411.74 81.66
  Q 406.89 86.39 406.74 91.75
  Q 406.96 92.52 406.64 92.97
  Q 406.20 92.27 405.66 92.34
  Q 405.20 92.39 405.08 92.84
  Q 404.85 93.71 404.56 94.48
  Q 404.45 94.79 404.20 94.82
  Q 403.71 94.90 403.69 94.41
  C 403.48 89.10 404.25 83.67 399.53 80.00
  Q 385.29 68.93 367.78 74.06
  C 363.38 75.35 364.52 82.16 365.26 85.76
  Q 365.86 88.70 369.98 94.23
  Q 372.94 98.19 376.14 101.95
  Q 376.32 102.16 376.10 102.33
  L 375.88 102.52
  Q 375.46 102.86 375.12 102.44
  Q 374.36 101.53 373.32 100.93
  C 363.84 91.04 355.44 73.59 373.93 66.35
  Z"
/>
<path fill="#fcc3ae" d="
  M 406.64 92.97
  Q 407.71 95.03 407.02 96.99
  Q 399.97 97.89 392.99 98.55
  C 388.63 98.96 384.80 98.22 380.55 97.47
  Q 380.00 97.38 379.70 97.84
  Q 377.49 101.26 377.67 105.21
  Q 375.11 103.63 373.32 100.93
  Q 374.36 101.53 375.12 102.44
  Q 375.46 102.86 375.88 102.52
  L 376.10 102.33
  Q 376.32 102.16 376.14 101.95
  Q 372.94 98.19 369.98 94.23
  Q 365.86 88.70 365.26 85.76
  C 364.52 82.16 363.38 75.35 367.78 74.06
  Q 385.29 68.93 399.53 80.00
  C 404.25 83.67 403.48 89.10 403.69 94.41
  Q 403.71 94.90 404.20 94.82
  Q 404.45 94.79 404.56 94.48
  Q 404.85 93.71 405.08 92.84
  Q 405.20 92.39 405.66 92.34
  Q 406.20 92.27 406.64 92.97
  Z"
/>
<path fill="#ffffff" d="
  M 165.86 86.28
  L 239.51 251.09
  A 0.40 0.40 0.0 0 1 239.14 251.65
  L 212.63 251.64
  Q 212.12 251.64 211.93 251.17
  L 197.46 215.21
  A 0.93 0.93 0.0 0 0 196.60 214.64
  L 164.18 214.56
  L 135.33 214.63
  A 0.79 0.79 0.0 0 0 134.60 215.12
  L 120.21 251.20
  Q 120.03 251.66 119.53 251.66
  L 92.79 251.67
  Q 92.35 251.67 92.53 251.27
  L 165.86 86.28
  Z
  M 144.96 191.26
  A 0.34 0.34 0.0 0 0 145.27 191.73
  L 187.09 191.73
  A 0.34 0.34 0.0 0 0 187.40 191.26
  L 166.49 140.98
  A 0.34 0.34 0.0 0 0 165.87 140.98
  L 144.96 191.26
  Z"
/>
<path fill="#1066a9" d="
  M 626.66 186.87
  C 623.03 161.11 628.39 131.46 644.57 110.82
  Q 652.97 100.09 661.02 89.97
  Q 662.68 87.87 661.51 90.28
  C 639.83 134.70 652.32 187.44 682.84 224.66
  C 707.28 254.47 743.58 276.91 782.22 282.46
  C 824.42 288.52 870.62 278.64 897.95 244.05
  A 0.17 0.17 0.0 0 1 898.24 244.07
  Q 898.31 244.18 898.37 244.30
  Q 898.43 244.40 898.38 244.50
  C 877.03 290.62 832.80 317.00 782.50 317.77
  C 766.09 318.03 749.45 316.78 733.92 311.59
  C 678.42 293.05 634.96 245.86 626.66 186.87
  Z"
/>
<path fill="#262525" d="
  M 536.59 107.37
  L 538.52 108.31
  Q 542.77 110.58 547.72 109.08
  L 553.31 107.81
  A 1.24 1.20 52.8 0 1 554.17 107.94
  C 557.09 109.57 557.97 117.31 556.07 119.71
  C 554.95 121.11 551.84 122.05 550.14 123.05
  C 547.08 124.87 545.20 129.22 543.80 132.35
  Q 543.59 132.80 543.70 133.29
  Q 544.36 136.44 544.95 137.53
  C 555.62 157.06 561.31 178.81 553.63 200.60
  Q 551.44 206.80 548.02 212.41
  L 545.96 212.56
  L 545.63 211.73
  Q 545.63 210.63 546.23 210.52
  Q 546.57 210.46 546.70 210.77
  Q 546.76 210.90 546.89 210.93
  Q 547.32 211.04 547.50 210.63
  C 548.59 208.17 549.27 205.87 550.54 203.31
  C 556.18 191.97 556.92 177.43 554.13 165.77
  Q 551.02 152.83 545.54 142.54
  Q 545.02 141.57 544.42 139.22
  Q 543.97 137.45 542.74 135.99
  Q 542.43 135.62 542.19 136.04
  C 538.53 142.68 534.86 151.88 528.30 155.79
  Q 525.64 156.24 521.51 156.37
  C 516.14 156.53 513.53 158.76 511.54 163.55
  L 509.44 166.97
  Q 502.71 177.59 497.37 189.83
  Q 490.61 184.08 482.61 181.83
  A 1.69 1.68 -83.5 0 1 481.39 180.29
  L 480.80 168.28
  L 480.67 167.06
  Q 480.61 166.51 480.08 166.63
  Q 464.31 170.04 448.18 169.74
  A 0.70 0.70 0.0 0 0 447.50 170.65
  L 449.52 177.14
  L 451.77 183.95
  Q 447.74 188.00 443.62 191.88
  Q 441.44 193.94 438.46 201.55
  C 434.03 188.74 431.55 170.32 416.14 165.88
  Q 415.97 165.83 416.02 165.66
  L 416.09 165.40
  Q 416.20 164.98 416.62 165.08
  Q 429.73 168.00 443.19 167.82
  Q 445.15 168.40 446.50 168.25
  C 451.40 167.73 456.90 167.78 461.15 167.37
  Q 485.64 165.02 509.27 158.09
  Q 510.40 157.76 510.93 157.29
  Q 511.70 156.60 510.67 156.56
  Q 503.11 156.23 495.59 154.32
  C 487.94 152.37 482.80 150.78 480.37 143.35
  Q 478.17 136.64 477.75 134.75
  C 476.47 128.97 475.03 119.67 470.88 116.16
  C 468.73 114.34 462.43 113.69 460.82 116.84
  Q 458.56 121.25 456.96 127.26
  Q 456.10 130.46 452.00 138.22
  C 449.80 142.38 445.97 147.35 441.76 148.51
  Q 434.64 150.47 424.27 151.56
  L 422.16 151.61
  C 415.29 151.17 407.28 151.50 401.18 147.01
  C 395.62 142.92 392.43 136.33 389.90 130.63
  Q 386.58 122.52 384.82 114.16
  C 383.78 109.18 379.27 109.72 377.67 105.21
  Q 377.49 101.26 379.70 97.84
  Q 380.00 97.38 380.55 97.47
  C 384.80 98.22 388.63 98.96 392.99 98.55
  Q 399.97 97.89 407.02 96.99
  Q 424.81 95.85 434.50 96.82
  C 444.96 97.87 451.56 99.71 462.24 103.22
  Q 464.87 104.09 470.86 103.46
  Q 480.67 102.42 490.50 101.49
  Q 497.27 100.86 511.74 101.97
  Q 524.11 102.92 536.59 107.37
  Z
  M 392.68 104.61
  L 392.90 103.09
  A 0.30 0.30 0.0 0 0 392.65 102.75
  L 392.40 102.71
  A 6.71 0.93 8.2 0 0 385.63 102.67
  L 385.59 102.95
  A 6.71 0.93 8.2 0 0 392.10 104.83
  L 392.34 104.86
  A 0.30 0.30 0.0 0 0 392.68 104.61
  Z
  M 396.72 115.00
  C 395.93 122.44 397.14 135.05 403.84 139.72
  Q 405.92 141.17 409.75 141.72
  Q 423.36 143.68 436.91 140.66
  C 443.47 139.20 449.41 124.75 451.18 118.98
  Q 452.95 113.18 447.76 111.08
  Q 438.99 107.54 428.48 106.67
  Q 415.14 105.56 410.62 106.40
  C 405.81 107.29 397.36 108.91 396.72 115.00
  Z
  M 526.53 147.57
  C 533.73 143.80 537.55 129.15 536.82 122.23
  A 3.25 3.24 22.5 0 0 536.11 120.52
  C 531.18 114.50 521.62 112.56 514.25 111.80
  C 509.51 111.31 482.83 110.06 482.34 117.49
  C 481.94 123.52 484.79 131.06 487.22 136.51
  C 491.27 145.63 499.47 146.46 508.40 147.60
  Q 509.46 147.74 510.57 148.05
  C 514.22 149.10 523.12 149.36 526.53 147.57
  Z
  M 546.3670 113.5263
  A 0.80 0.80 0.0 0 0 545.5573 112.7361
  L 539.9977 112.8040
  A 0.80 0.80 0.0 0 0 539.2076 113.6138
  L 539.2130 114.0537
  A 0.80 0.80 0.0 0 0 540.0227 114.8439
  L 545.5823 114.7760
  A 0.80 0.80 0.0 0 0 546.3724 113.9662
  L 546.3670 113.5263
  Z"
/>
<path fill="#ffffff" d="
  M 392.68 104.61
  A 0.30 0.30 0.0 0 1 392.34 104.86
  L 392.10 104.83
  A 6.71 0.93 8.2 0 1 385.59 102.95
  L 385.63 102.67
  A 6.71 0.93 8.2 0 1 392.40 102.71
  L 392.65 102.75
  A 0.30 0.30 0.0 0 1 392.90 103.09
  L 392.68 104.61
  Z"
/>
<path fill="#ffffff" d="
  M 403.84 139.72
  C 397.14 135.05 395.93 122.44 396.72 115.00
  C 397.36 108.91 405.81 107.29 410.62 106.40
  Q 415.14 105.56 428.48 106.67
  Q 438.99 107.54 447.76 111.08
  Q 452.95 113.18 451.18 118.98
  C 449.41 124.75 443.47 139.20 436.91 140.66
  Q 423.36 143.68 409.75 141.72
  Q 405.92 141.17 403.84 139.72
  Z
  M 421.69 120.26
  Q 422.24 119.14 423.47 118.79
  Q 424.06 118.63 423.79 118.08
  Q 422.92 116.37 421.03 116.49
  Q 420.54 116.52 420.18 116.86
  C 416.77 120.08 414.93 128.08 417.81 131.47
  Q 419.54 133.50 421.45 131.93
  C 424.40 129.48 424.84 124.15 424.50 120.60
  Q 424.34 119.03 423.13 120.04
  L 422.30 120.74
  A 0.40 0.40 0.0 0 1 421.69 120.26
  Z"
/>
<path fill="#ffffff" d="
  M 536.82 122.23
  C 537.55 129.15 533.73 143.80 526.53 147.57
  C 523.12 149.36 514.22 149.10 510.57 148.05
  Q 509.46 147.74 508.40 147.60
  C 499.47 146.46 491.27 145.63 487.22 136.51
  C 484.79 131.06 481.94 123.52 482.34 117.49
  C 482.83 110.06 509.51 111.31 514.25 111.80
  C 521.62 112.56 531.18 114.50 536.11 120.52
  A 3.25 3.24 22.5 0 1 536.82 122.23
  Z
  M 512.0275 138.5474
  A 8.05 3.89 84.1 0 0 515.0694 130.1401
  A 8.05 3.89 84.1 0 0 510.3725 122.5326
  A 8.05 3.89 84.1 0 0 507.3306 130.9399
  A 8.05 3.89 84.1 0 0 512.0275 138.5474
  Z"
/>
<rect fill="#fefae7" x="-3.58" y="-1.02" transform="translate(542.79,113.79) rotate(-0.7)" width="7.16" height="2.04" rx="0.80"/>
<path fill="#724116" d="
  M 443.19 167.82
  Q 443.51 167.87 443.70 167.70
  Q 443.88 167.54 443.83 167.25
  Q 443.77 166.89 443.48 166.38
  Q 446.59 165.86 449.59 166.36
  Q 450.01 166.42 450.37 166.19
  Q 450.76 165.93 451.50 165.86
  Q 454.16 165.61 456.82 165.41
  C 461.11 165.07 465.50 164.05 470.08 164.12
  C 471.69 164.14 473.01 163.33 474.62 163.17
  C 477.66 162.86 481.16 162.73 484.08 161.94
  Q 487.71 160.95 489.75 160.63
  C 491.39 160.37 493.18 161.06 494.86 160.59
  Q 495.93 160.29 497.05 159.94
  Q 497.54 159.79 497.68 159.29
  C 498.12 157.71 496.92 156.78 495.42 156.56
  Q 489.92 155.75 484.46 154.45
  Q 479.67 153.30 478.48 148.52
  Q 476.55 140.80 474.20 133.18
  C 473.09 129.60 472.27 125.56 470.14 121.82
  C 465.83 114.24 461.48 121.69 458.83 125.14
  Q 458.52 125.54 458.46 126.04
  Q 458.06 129.57 456.11 132.54
  A 1.72 1.70 60.7 0 0 455.84 133.53
  Q 455.99 137.29 454.85 139.23
  Q 453.79 141.01 453.39 142.43
  Q 452.60 145.15 452.32 145.68
  C 451.34 147.56 450.64 149.42 448.93 150.71
  C 445.80 153.06 441.62 153.07 438.00 153.87
  Q 436.48 154.21 431.88 153.72
  C 429.87 153.51 429.21 151.78 427.11 151.61
  Q 425.72 151.49 424.27 151.56
  Q 434.64 150.47 441.76 148.51
  C 445.97 147.35 449.80 142.38 452.00 138.22
  Q 456.10 130.46 456.96 127.26
  Q 458.56 121.25 460.82 116.84
  C 462.43 113.69 468.73 114.34 470.88 116.16
  C 475.03 119.67 476.47 128.97 477.75 134.75
  Q 478.17 136.64 480.37 143.35
  C 482.80 150.78 487.94 152.37 495.59 154.32
  Q 503.11 156.23 510.67 156.56
  Q 511.70 156.60 510.93 157.29
  Q 510.40 157.76 509.27 158.09
  Q 485.64 165.02 461.15 167.37
  C 456.90 167.78 451.40 167.73 446.50 168.25
  Q 445.15 168.40 443.19 167.82
  Z"
/>
<path fill="#262525" d="
  M 422.30 120.74
  L 423.13 120.04
  Q 424.34 119.03 424.50 120.60
  C 424.84 124.15 424.40 129.48 421.45 131.93
  Q 419.54 133.50 417.81 131.47
  C 414.93 128.08 416.77 120.08 420.18 116.86
  Q 420.54 116.52 421.03 116.49
  Q 422.92 116.37 423.79 118.08
  Q 424.06 118.63 423.47 118.79
  Q 422.24 119.14 421.69 120.26
  A 0.40 0.40 0.0 0 0 422.30 120.74
  Z"
/>
<path fill="#aa6f35" d="
  M 443.48 166.38
  Q 433.42 161.45 425.43 153.55
  Q 425.22 153.33 425.23 152.85
  A 0.71 0.71 0.0 0 0 424.67 152.16
  L 422.16 151.61
  L 424.27 151.56
  Q 425.72 151.49 427.11 151.61
  C 429.21 151.78 429.87 153.51 431.88 153.72
  Q 436.48 154.21 438.00 153.87
  C 441.62 153.07 445.80 153.06 448.93 150.71
  C 450.64 149.42 451.34 147.56 452.32 145.68
  Q 452.60 145.15 453.39 142.43
  Q 453.79 141.01 454.85 139.23
  Q 455.99 137.29 455.84 133.53
  A 1.72 1.70 60.7 0 1 456.11 132.54
  Q 458.06 129.57 458.46 126.04
  Q 458.52 125.54 458.83 125.14
  C 461.48 121.69 465.83 114.24 470.14 121.82
  C 472.27 125.56 473.09 129.60 474.20 133.18
  Q 476.55 140.80 478.48 148.52
  Q 479.67 153.30 484.46 154.45
  Q 489.92 155.75 495.42 156.56
  C 496.92 156.78 498.12 157.71 497.68 159.29
  Q 497.54 159.79 497.05 159.94
  Q 495.93 160.29 494.86 160.59
  C 493.18 161.06 491.39 160.37 489.75 160.63
  Q 487.71 160.95 484.08 161.94
  C 481.16 162.73 477.66 162.86 474.62 163.17
  C 473.01 163.33 471.69 164.14 470.08 164.12
  C 465.50 164.05 461.11 165.07 456.82 165.41
  Q 454.16 165.61 451.50 165.86
  Q 450.76 165.93 450.37 166.19
  Q 450.01 166.42 449.59 166.36
  Q 446.59 165.86 443.48 166.38
  Z
  M 463.13 145.55
  L 463.83 147.77
  A 1.00 1.00 0.0 0 0 465.69 147.91
  Q 467.20 144.78 470.70 146.14
  Q 472.47 146.83 472.00 144.99
  L 471.20 141.91
  Q 470.68 139.91 468.65 139.57
  C 463.21 138.65 456.95 138.17 457.20 145.83
  Q 457.22 146.35 457.72 146.23
  L 462.41 145.14
  A 0.61 0.61 0.0 0 1 463.13 145.55
  Z"
/>
<path fill="#262525" d="
  M 512.0275 138.5474
  A 8.05 3.89 84.1 0 1 507.3306 130.9399
  A 8.05 3.89 84.1 0 1 510.3725 122.5326
  A 8.05 3.89 84.1 0 1 515.0694 130.1401
  A 8.05 3.89 84.1 0 1 512.0275 138.5474
  Z
  M 510.35 124.45
  C 511.69 125.05 511.95 125.68 512.36 127.01
  Q 512.38 127.09 512.38 127.01
  Q 512.46 124.92 510.63 124.13
  Q 510.33 124.00 510.25 124.18
  L 510.25 124.19
  Q 510.17 124.37 510.35 124.45
  Z"
/>
<path fill="#41b882" d="
  M 512.36 127.01
  C 511.95 125.68 511.69 125.05 510.35 124.45
  Q 510.17 124.37 510.25 124.19
  L 510.25 124.18
  Q 510.33 124.00 510.63 124.13
  Q 512.46 124.92 512.38 127.01
  Q 512.38 127.09 512.36 127.01
  Z"
/>
<path fill="#ffedd9" d="
  M 389.90 130.63
  C 392.43 136.33 395.62 142.92 401.18 147.01
  C 407.28 151.50 415.29 151.17 422.16 151.61
  L 424.67 152.16
  A 0.71 0.71 0.0 0 1 425.23 152.85
  Q 425.22 153.33 425.43 153.55
  Q 433.42 161.45 443.48 166.38
  Q 443.77 166.89 443.83 167.25
  Q 443.88 167.54 443.70 167.70
  Q 443.51 167.87 443.19 167.82
  Q 429.73 168.00 416.62 165.08
  Q 416.20 164.98 416.09 165.40
  L 416.02 165.66
  Q 415.97 165.83 416.14 165.88
  C 431.55 170.32 434.03 188.74 438.46 201.55
  Q 440.58 205.85 443.99 206.76
  C 450.92 208.62 462.50 207.99 471.01 207.66
  C 470.11 210.48 467.39 211.45 465.72 213.76
  Q 462.42 218.33 460.45 223.25
  Q 456.56 224.63 453.50 223.75
  C 441.22 220.22 430.11 213.63 421.79 203.94
  C 416.09 197.31 411.12 190.14 408.23 181.83
  C 406.32 176.34 406.48 170.76 407.00 165.00
  Q 407.32 161.42 404.15 159.84
  C 402.27 158.90 398.54 154.40 397.86 151.34
  Q 397.76 150.91 397.43 150.62
  Q 391.95 145.87 390.44 138.77
  Q 390.15 137.39 389.39 138.58
  Q 382.68 149.09 376.36 159.61
  C 366.56 175.94 361.86 194.05 373.62 210.88
  C 380.40 220.57 389.30 226.34 400.26 231.12
  C 400.64 231.28 400.84 231.66 401.31 231.88
  Q 424.98 242.97 452.49 243.92
  Q 454.04 243.98 453.60 246.16
  L 451.87 257.36
  A 0.81 0.80 21.5 0 1 450.62 257.90
  Q 447.15 255.53 442.75 254.29
  C 439.68 253.43 434.89 255.74 431.91 256.83
  A 4.50 4.46 44.2 0 1 428.93 256.86
  C 425.36 255.65 421.98 254.23 418.08 254.29
  Q 415.19 254.33 412.30 254.46
  Q 411.74 254.49 411.43 254.97
  L 409.59 257.81
  A 1.32 1.32 0.0 0 1 407.73 258.18
  Q 406.81 257.54 406.41 256.74
  L 417.49 241.27
  Q 417.77 240.88 417.48 240.50
  Q 417.20 240.13 416.48 239.98
  C 413.12 239.28 409.03 238.20 406.04 236.50
  Q 405.18 236.01 404.57 236.36
  Q 400.48 233.46 398.32 234.47
  Q 397.78 233.17 396.45 232.63
  Q 394.21 231.71 394.17 231.69
  Q 384.20 225.85 379.89 221.86
  C 369.91 212.63 363.38 200.08 364.48 186.24
  C 366.19 164.85 383.39 150.13 389.90 130.63
  Z"
/>
<path fill="#aa6f35" d="
  M 545.63 211.73
  Q 545.16 209.71 545.69 208.24
  Q 548.03 201.65 549.26 194.75
  C 551.44 182.54 547.99 175.23 537.30 169.28
  Q 529.67 164.82 519.50 165.53
  Q 517.22 165.69 509.44 166.97
  L 511.54 163.55
  Q 512.85 162.82 514.18 162.23
  C 516.29 161.30 517.83 159.33 520.27 159.04
  Q 525.70 158.41 528.30 155.79
  C 534.86 151.88 538.53 142.68 542.19 136.04
  Q 542.43 135.62 542.74 135.99
  Q 543.97 137.45 544.42 139.22
  Q 545.02 141.57 545.54 142.54
  Q 551.02 152.83 554.13 165.77
  C 556.92 177.43 556.18 191.97 550.54 203.31
  C 549.27 205.87 548.59 208.17 547.50 210.63
  Q 547.32 211.04 546.89 210.93
  Q 546.76 210.90 546.70 210.77
  Q 546.57 210.46 546.23 210.52
  Q 545.63 210.63 545.63 211.73
  Z"
/>
<path fill="#fefae7" d="
  M 460.45 223.25
  Q 455.40 234.59 453.60 246.16
  Q 454.04 243.98 452.49 243.92
  Q 424.98 242.97 401.31 231.88
  C 400.84 231.66 400.64 231.28 400.26 231.12
  C 389.30 226.34 380.40 220.57 373.62 210.88
  C 361.86 194.05 366.56 175.94 376.36 159.61
  Q 382.68 149.09 389.39 138.58
  Q 390.15 137.39 390.44 138.77
  Q 391.95 145.87 397.43 150.62
  Q 397.76 150.91 397.86 151.34
  C 398.54 154.40 402.27 158.90 404.15 159.84
  Q 407.32 161.42 407.00 165.00
  C 406.48 170.76 406.32 176.34 408.23 181.83
  C 411.12 190.14 416.09 197.31 421.79 203.94
  C 430.11 213.63 441.22 220.22 453.50 223.75
  Q 456.56 224.63 460.45 223.25
  Z"
/>
<path fill="#ef8e6f" d="
  M 462.41 145.14
  L 457.72 146.23
  Q 457.22 146.35 457.20 145.83
  C 456.95 138.17 463.21 138.65 468.65 139.57
  Q 470.68 139.91 471.20 141.91
  L 472.00 144.99
  Q 472.47 146.83 470.70 146.14
  Q 467.20 144.78 465.69 147.91
  A 1.00 1.00 0.0 0 1 463.83 147.77
  L 463.13 145.55
  A 0.61 0.61 0.0 0 0 462.41 145.14
  Z"
/>
<path fill="#c5002f" d="
  M 144.96 191.26
  L 165.87 140.98
  A 0.34 0.34 0.0 0 1 166.49 140.98
  L 187.40 191.26
  A 0.34 0.34 0.0 0 1 187.09 191.73
  L 145.27 191.73
  A 0.34 0.34 0.0 0 1 144.96 191.26
  Z"
/>
<path fill="#724116" d="
  M 528.30 155.79
  Q 525.70 158.41 520.27 159.04
  C 517.83 159.33 516.29 161.30 514.18 162.23
  Q 512.85 162.82 511.54 163.55
  C 513.53 158.76 516.14 156.53 521.51 156.37
  Q 525.64 156.24 528.30 155.79
  Z"
/>
<path fill="#ffedd9" d="
  M 537.30 169.28
  Q 535.32 172.84 533.71 181.25
  C 532.49 187.59 525.94 197.40 519.98 202.16
  Q 514.68 206.38 509.45 210.70
  Q 505.26 214.16 500.28 214.42
  Q 495.97 205.68 486.69 203.32
  L 492.16 203.10
  Q 495.45 196.93 497.37 189.83
  Q 502.71 177.59 509.44 166.97
  Q 517.22 165.69 519.50 165.53
  Q 529.67 164.82 537.30 169.28
  Z"
/>
<path fill="#ffedd9" d="
  M 480.80 168.28
  L 480.56 172.46
  L 480.27 169.79
  Q 480.21 169.29 479.85 169.65
  L 479.59 169.91
  Q 479.30 170.19 478.91 170.21
  C 474.81 170.36 470.78 170.43 466.78 171.12
  Q 462.88 171.80 459.00 172.64
  Q 452.95 173.94 449.52 177.14
  L 447.50 170.65
  A 0.70 0.70 0.0 0 1 448.18 169.74
  Q 464.31 170.04 480.08 166.63
  Q 480.61 166.51 480.67 167.06
  L 480.80 168.28
  Z"
/>
<path fill="#ef8e6f" d="
  M 480.80 168.28
  L 481.39 180.29
  A 1.69 1.68 -83.5 0 0 482.61 181.83
  Q 490.61 184.08 497.37 189.83
  Q 495.45 196.93 492.16 203.10
  L 490.24 202.88
  Q 489.69 202.82 490.02 202.38
  Q 493.31 198.07 494.66 192.80
  A 0.88 0.87 20.8 0 0 494.21 191.81
  Q 486.17 187.66 476.34 188.72
  C 481.16 185.22 481.72 177.67 480.56 172.46
  L 480.80 168.28
  Z"
/>
<path fill="#fefae7" d="
  M 480.56 172.46
  C 481.72 177.67 481.16 185.22 476.34 188.72
  Q 474.48 188.66 471.85 189.96
  A 1.28 1.27 66.8 0 1 470.08 189.25
  L 464.71 174.22
  A 0.42 0.42 0.0 0 0 464.16 173.97
  L 463.90 174.08
  Q 463.51 174.24 463.63 174.64
  Q 466.11 182.53 466.93 190.77
  A 0.74 0.74 0.0 0 1 466.25 191.59
  L 463.21 191.85
  Q 457.88 191.43 455.08 189.17
  Q 453.23 187.67 451.77 183.95
  L 449.52 177.14
  Q 452.95 173.94 459.00 172.64
  Q 462.88 171.80 466.78 171.12
  C 470.78 170.43 474.81 170.36 478.91 170.21
  Q 479.30 170.19 479.59 169.91
  L 479.85 169.65
  Q 480.21 169.29 480.27 169.79
  L 480.56 172.46
  Z"
/>
<path fill="#fefae7" d="
  M 537.30 169.28
  C 547.99 175.23 551.44 182.54 549.26 194.75
  Q 548.03 201.65 545.69 208.24
  Q 545.16 209.71 545.63 211.73
  L 545.96 212.56
  Q 545.93 213.92 545.37 214.64
  C 539.46 222.24 529.99 228.31 520.48 231.57
  Q 510.72 234.91 501.09 237.61
  Q 502.43 233.25 502.38 228.93
  C 502.35 226.43 502.92 223.40 502.02 221.21
  Q 500.52 217.52 500.28 214.42
  Q 505.26 214.16 509.45 210.70
  Q 514.68 206.38 519.98 202.16
  C 525.94 197.40 532.49 187.59 533.71 181.25
  Q 535.32 172.84 537.30 169.28
  Z"
/>
<path fill="#fcc3ae" d="
  M 476.34 188.72
  Q 486.17 187.66 494.21 191.81
  A 0.88 0.87 20.8 0 1 494.66 192.80
  Q 493.31 198.07 490.02 202.38
  Q 489.69 202.82 490.24 202.88
  L 492.16 203.10
  L 486.69 203.32
  Q 479.71 202.69 473.85 206.55
  L 473.65 206.01
  Q 473.50 205.59 473.06 205.61
  C 462.96 206.02 453.45 206.76 443.39 204.15
  A 0.83 0.83 0.0 0 1 443.16 202.65
  C 449.58 198.62 456.90 195.68 464.06 192.87
  Q 464.64 192.64 464.22 192.19
  Q 463.97 191.92 463.21 191.85
  L 466.25 191.59
  A 0.74 0.74 0.0 0 0 466.93 190.77
  Q 466.11 182.53 463.63 174.64
  Q 463.51 174.24 463.90 174.08
  L 464.16 173.97
  A 0.42 0.42 0.0 0 1 464.71 174.22
  L 470.08 189.25
  A 1.28 1.27 66.8 0 0 471.85 189.96
  Q 474.48 188.66 476.34 188.72
  Z"
/>
<path fill="#ef8e6f" d="
  M 451.77 183.95
  Q 453.23 187.67 455.08 189.17
  Q 457.88 191.43 463.21 191.85
  Q 463.97 191.92 464.22 192.19
  Q 464.64 192.64 464.06 192.87
  C 456.90 195.68 449.58 198.62 443.16 202.65
  A 0.83 0.83 0.0 0 0 443.39 204.15
  C 453.45 206.76 462.96 206.02 473.06 205.61
  Q 473.50 205.59 473.65 206.01
  L 473.85 206.55
  L 471.01 207.66
  C 462.50 207.99 450.92 208.62 443.99 206.76
  Q 440.58 205.85 438.46 201.55
  Q 441.44 193.94 443.62 191.88
  Q 447.74 188.00 451.77 183.95
  Z"
/>
<path fill="#aa6f35" d="
  M 568.14 241.18
  Q 567.95 240.58 566.46 240.74
  A 1.73 1.72 8.7 0 0 565.04 241.78
  L 560.52 252.26
  Q 560.30 252.77 560.82 252.98
  L 562.99 253.85
  Q 554.37 253.85 550.75 261.11
  A 0.81 0.81 0.0 0 1 549.34 261.17
  C 546.15 255.99 542.33 254.33 536.69 252.50
  L 519.36 236.11
  A 0.71 0.71 0.0 0 1 519.55 234.96
  L 532.34 228.94
  C 535.04 232.29 539.14 237.15 536.15 241.48
  A 0.58 0.58 0.0 0 0 536.63 242.38
  Q 543.69 242.29 549.47 239.19
  Q 552.92 237.34 554.42 235.17
  Q 554.74 234.71 554.53 234.19
  Q 554.01 232.91 553.13 232.71
  Q 548.83 228.08 548.77 222.73
  A 1.00 1.00 0.0 0 1 549.85 221.71
  L 558.85 222.40
  A 0.81 0.79 8.9 0 0 559.69 221.80
  C 560.47 218.63 562.12 206.43 567.91 209.61
  C 570.33 210.95 569.72 217.29 569.88 219.84
  A 1.39 1.38 -11.8 0 0 571.73 221.05
  C 574.24 220.15 576.78 217.49 578.81 215.83
  A 2.57 2.57 0.0 0 1 581.95 215.75
  C 586.49 219.09 580.29 225.48 578.00 228.48
  A 1.07 1.06 -45.3 0 0 578.00 229.79
  Q 578.11 229.94 578.75 229.84
  Q 583.15 229.16 584.77 229.50
  C 589.68 230.53 586.82 235.69 584.01 237.28
  Q 580.61 239.20 576.72 239.75
  Q 572.21 240.38 568.14 241.18
  Z
  M 562.29 236.89
  Q 562.66 237.52 562.99 237.64
  Q 574.15 241.84 584.34 235.81
  Q 586.37 234.61 586.47 232.40
  A 1.81 1.81 0.0 0 0 584.54 230.51
  L 577.86 230.98
  Q 576.42 231.09 576.60 229.66
  C 576.99 226.54 586.76 218.88 581.07 216.61
  A 2.32 2.31 -54.7 0 0 578.68 217.02
  C 576.60 218.84 573.07 222.96 570.23 221.98
  A 2.16 2.14 9.0 0 1 568.77 219.99
  C 568.72 217.64 569.37 211.87 567.32 210.49
  Q 565.76 209.44 564.49 210.82
  C 562.13 213.39 561.53 219.25 560.81 222.47
  A 1.90 1.89 9.5 0 1 558.75 223.93
  L 551.54 223.08
  A 1.56 1.56 0.0 0 0 549.95 225.29
  Q 553.58 233.10 561.64 236.33
  A 1.34 1.34 0.0 0 1 562.29 236.89
  Z"
/>
<path fill="#fcc3ae" d="
  M 561.64 236.33
  Q 553.58 233.10 549.95 225.29
  A 1.56 1.56 0.0 0 1 551.54 223.08
  L 558.75 223.93
  A 1.90 1.89 9.5 0 0 560.81 222.47
  C 561.53 219.25 562.13 213.39 564.49 210.82
  Q 565.76 209.44 567.32 210.49
  C 569.37 211.87 568.72 217.64 568.77 219.99
  A 2.16 2.14 9.0 0 0 570.23 221.98
  C 573.07 222.96 576.60 218.84 578.68 217.02
  A 2.32 2.31 -54.7 0 1 581.07 216.61
  C 586.76 218.88 576.99 226.54 576.60 229.66
  Q 576.42 231.09 577.86 230.98
  L 584.54 230.51
  A 1.81 1.81 0.0 0 1 586.47 232.40
  Q 586.37 234.61 584.34 235.81
  Q 574.15 241.84 562.99 237.64
  Q 562.66 237.52 562.29 236.89
  A 1.34 1.34 0.0 0 0 561.64 236.33
  Z"
/>
<path fill="#d92f1b" d="
  M 572.67 283.53
  Q 568.43 295.72 563.11 309.09
  C 559.71 317.63 552.24 317.19 550.20 308.42
  A 0.69 0.68 -25.8 0 0 549.10 308.04
  C 536.65 318.04 518.17 318.83 508.77 304.20
  Q 508.46 303.72 507.94 303.98
  Q 492.27 311.80 474.64 314.77
  C 468.32 315.84 461.96 313.67 456.65 310.43
  A 2.27 2.26 -43.9 0 0 454.36 310.39
  C 444.15 316.10 433.19 321.01 432.42 303.00
  Q 432.05 294.22 432.97 285.49
  A 0.31 0.30 -15.6 0 0 432.48 285.22
  Q 431.95 285.62 431.59 286.37
  Q 426.86 296.19 423.18 308.18
  Q 422.53 310.30 421.07 312.35
  C 417.88 316.83 410.70 314.23 409.04 309.76
  Q 408.52 308.37 408.95 302.76
  Q 409.65 293.58 411.25 284.33
  A 0.28 0.28 0.0 0 0 410.86 284.02
  Q 410.56 284.15 410.33 284.55
  Q 406.37 291.50 403.37 298.93
  Q 399.37 308.83 396.86 312.05
  C 392.13 318.13 386.02 314.96 384.27 308.70
  A 0.44 0.44 0.0 0 0 383.60 308.45
  Q 374.56 314.55 363.51 315.53
  C 353.69 316.40 346.54 310.28 343.66 301.57
  A 1.85 1.85 0.0 0 0 342.33 300.34
  C 338.62 299.45 332.74 298.40 329.87 295.77
  Q 329.49 295.42 329.44 294.91
  C 329.23 292.66 330.65 286.00 334.22 287.40
  C 337.56 288.72 339.45 290.00 343.69 289.38
  Q 344.16 289.31 344.20 288.83
  C 345.07 277.37 351.11 263.28 364.23 261.68
  C 370.95 260.85 379.68 264.57 380.36 272.42
  C 381.51 285.65 369.10 293.74 358.31 297.74
  Q 356.84 298.28 357.72 299.58
  C 363.19 307.64 377.32 299.08 383.11 295.34
  Q 384.53 294.43 384.83 292.98
  Q 386.39 285.57 387.85 278.14
  Q 390.05 266.96 391.60 263.64
  C 392.81 261.05 397.70 260.98 399.94 261.54
  A 3.06 3.04 -85.1 0 1 402.25 264.30
  C 402.62 270.03 401.22 277.07 400.06 282.18
  Q 398.92 287.21 401.38 282.68
  C 405.46 275.19 409.77 264.40 419.21 261.98
  C 428.49 259.60 423.28 277.46 422.10 281.42
  Q 420.35 287.32 423.40 281.97
  Q 427.63 274.51 433.66 266.14
  C 436.14 262.69 441.42 259.40 444.85 262.92
  C 446.91 265.04 446.60 270.35 446.22 272.75
  Q 444.71 282.28 443.43 291.84
  Q 442.75 296.91 444.18 301.72
  A 1.14 1.13 -12.7 0 0 445.45 302.52
  C 449.58 301.86 454.16 299.65 454.64 295.05
  Q 454.92 292.47 455.24 289.98
  Q 457.45 272.88 459.57 255.77
  C 461.31 241.66 464.23 230.43 470.79 219.25
  C 474.91 212.21 488.22 205.31 492.73 216.75
  C 498.99 232.59 490.27 251.09 480.74 263.35
  Q 478.86 265.76 481.56 264.31
  Q 486.90 261.41 492.23 265.76
  C 501.79 273.56 499.05 288.37 493.96 297.70
  A 0.60 0.60 0.0 0 0 494.78 298.51
  L 506.66 291.70
  Q 507.20 291.39 507.26 290.78
  C 508.67 276.45 517.79 259.55 534.50 259.98
  C 541.22 260.15 544.73 265.80 544.80 272.03
  C 544.94 285.87 535.02 294.01 522.77 298.06
  A 0.76 0.76 0.0 0 0 522.54 299.37
  Q 527.86 303.62 534.09 301.73
  Q 543.31 298.93 550.53 292.74
  A 2.31 2.26 74.2 0 0 551.31 291.31
  Q 553.31 277.47 557.67 263.98
  C 558.67 260.90 563.29 261.04 565.71 261.71
  Q 566.41 261.90 566.41 262.61
  L 566.47 276.64
  Q 566.47 277.18 566.94 276.93
  Q 567.24 276.77 567.38 276.39
  Q 569.91 269.59 574.51 264.77
  C 576.93 262.23 583.27 258.83 584.35 265.00
  C 585.33 270.60 584.02 275.99 584.44 281.62
  C 585.30 293.18 594.99 287.04 600.65 284.22
  C 603.24 282.94 605.35 283.30 605.73 286.49
  C 606.16 290.14 605.22 292.13 602.19 294.30
  C 596.90 298.09 586.75 302.51 580.68 298.51
  C 576.47 295.73 574.22 288.64 574.02 283.73
  Q 573.88 280.05 572.67 283.53
  Z
  M 468.68 263.50
  C 473.83 254.51 487.69 231.90 483.21 222.06
  A 0.55 0.55 0.0 0 0 482.35 221.86
  C 477.89 225.54 474.93 232.83 473.24 238.70
  Q 469.59 251.31 467.68 263.14
  Q 467.21 266.07 468.68 263.50
  Z
  M 526.58 272.57
  C 523.08 276.68 520.46 282.63 520.44 288.01
  Q 520.44 289.15 521.56 288.99
  C 528.62 287.95 537.29 280.68 533.01 272.75
  C 531.39 269.76 528.55 270.25 526.58 272.57
  Z
  M 364.31 272.09
  C 358.84 275.18 355.97 282.79 356.36 288.88
  A 0.25 0.24 -6.1 0 0 356.65 289.11
  C 362.58 287.99 372.09 282.40 370.31 275.04
  C 369.59 272.06 367.24 270.43 364.31 272.09
  Z
  M 470.17 279.69
  Q 465.26 290.70 465.40 302.17
  A 2.22 2.22 0.0 0 0 467.14 304.31
  Q 477.27 306.52 482.33 298.31
  C 485.40 293.33 487.82 282.57 483.85 277.40
  C 480.20 272.63 472.43 274.62 470.17 279.69
  Z"
/>
<path fill="#ffedd9" d="
  M 548.02 212.41
  Q 545.06 219.02 539.34 224.17
  Q 538.82 224.63 538.57 225.21
  Q 538.28 225.91 538.12 226.47
  Q 535.88 226.22 532.34 228.94
  L 519.55 234.96
  A 0.71 0.71 0.0 0 0 519.36 236.11
  L 536.69 252.50
  C 535.08 252.58 533.67 252.52 532.41 251.29
  Q 530.84 249.75 529.28 248.04
  A 0.84 0.84 0.0 0 0 528.41 247.81
  C 526.34 248.43 524.23 248.73 522.22 249.41
  Q 511.56 252.99 500.48 254.93
  C 498.76 255.23 497.25 254.83 495.52 254.87
  A 0.51 0.51 0.0 0 1 495.06 254.11
  Q 499.37 246.49 501.09 237.61
  Q 510.72 234.91 520.48 231.57
  C 529.99 228.31 539.46 222.24 545.37 214.64
  Q 545.93 213.92 545.96 212.56
  L 548.02 212.41
  Z"
/>
<path fill="#ffffff" d="
  M 483.21 222.06
  C 487.69 231.90 473.83 254.51 468.68 263.50
  Q 467.21 266.07 467.68 263.14
  Q 469.59 251.31 473.24 238.70
  C 474.93 232.83 477.89 225.54 482.35 221.86
  A 0.55 0.55 0.0 0 1 483.21 222.06
  Z"
/>
<path fill="#724116" d="
  M 538.12 226.47
  L 544.59 237.61
  Q 544.85 238.07 545.36 237.93
  Q 549.45 236.89 553.13 232.71
  Q 554.01 232.91 554.53 234.19
  Q 554.74 234.71 554.42 235.17
  Q 552.92 237.34 549.47 239.19
  Q 543.69 242.29 536.63 242.38
  A 0.58 0.58 0.0 0 1 536.15 241.48
  C 539.14 237.15 535.04 232.29 532.34 228.94
  Q 535.88 226.22 538.12 226.47
  Z"
/>
<path fill="#724116" d="
  M 404.57 236.36
  L 404.98 236.88
  Q 405.29 237.25 404.92 237.57
  Q 404.25 238.15 403.95 239.00
  Q 401.76 245.17 399.18 251.19
  Q 399.04 251.52 399.05 251.85
  Q 399.06 252.19 399.14 252.56
  A 0.57 0.57 0.0 0 1 398.72 253.24
  L 396.64 253.75
  L 389.80 255.30
  A 0.39 0.38 -87.3 0 1 389.35 254.80
  Q 392.71 244.62 398.32 234.47
  Q 400.48 233.46 404.57 236.36
  Z"
/>
<path fill="#aa6f35" d="
  M 404.57 236.36
  Q 405.18 236.01 406.04 236.50
  C 409.03 238.20 413.12 239.28 416.48 239.98
  Q 417.20 240.13 417.48 240.50
  Q 417.77 240.88 417.49 241.27
  L 406.41 256.74
  Q 402.05 253.56 396.64 253.75
  L 398.72 253.24
  A 0.57 0.57 0.0 0 0 399.14 252.56
  Q 399.06 252.19 399.05 251.85
  Q 399.04 251.52 399.18 251.19
  Q 401.76 245.17 403.95 239.00
  Q 404.25 238.15 404.92 237.57
  Q 405.29 237.25 404.98 236.88
  L 404.57 236.36
  Z"
/>
<path fill="#724116" d="
  M 568.14 241.18
  Q 566.23 247.90 562.99 253.85
  L 560.82 252.98
  Q 560.30 252.77 560.52 252.26
  L 565.04 241.78
  A 1.73 1.72 8.7 0 1 566.46 240.74
  Q 567.95 240.58 568.14 241.18
  Z"
/>
<path fill="#ffffff" d="
  M 520.44 288.01
  C 520.46 282.63 523.08 276.68 526.58 272.57
  C 528.55 270.25 531.39 269.76 533.01 272.75
  C 537.29 280.68 528.62 287.95 521.56 288.99
  Q 520.44 289.15 520.44 288.01
  Z"
/>
<path fill="#ffffff" d="
  M 356.36 288.88
  C 355.97 282.79 358.84 275.18 364.31 272.09
  C 367.24 270.43 369.59 272.06 370.31 275.04
  C 372.09 282.40 362.58 287.99 356.65 289.11
  A 0.25 0.24 -6.1 0 1 356.36 288.88
  Z"
/>
<path fill="#ffffff" d="
  M 470.17 279.69
  C 472.43 274.62 480.20 272.63 483.85 277.40
  C 487.82 282.57 485.40 293.33 482.33 298.31
  Q 477.27 306.52 467.14 304.31
  A 2.22 2.22 0.0 0 1 465.40 302.17
  Q 465.26 290.70 470.17 279.69
  Z"
/>
<path fill="#64d9fb" d="
  M 373.42 675.66
  A 0.78 0.77 -16.9 0 0 372.91 676.60
  C 378.78 697.32 382.23 720.74 375.81 741.69
  C 369.83 761.23 352.48 769.44 332.99 763.95
  C 313.96 758.59 296.35 744.68 282.28 730.63
  Q 281.90 730.25 281.53 730.63
  C 266.16 745.95 242.60 764.97 220.00 765.53
  C 199.63 766.03 188.18 750.89 185.54 732.25
  C 182.93 713.79 185.92 694.41 190.82 676.56
  A 0.91 0.91 0.0 0 0 190.19 675.45
  C 170.18 669.84 140.74 657.08 132.33 636.18
  C 122.93 612.81 143.86 594.40 162.10 585.09
  Q 177.32 577.32 193.67 572.89
  A 0.76 0.76 0.0 0 0 194.21 571.99
  C 191.05 557.97 189.74 543.55 191.53 529.25
  C 194.08 508.87 206.53 492.54 229.01 494.75
  C 248.49 496.68 267.51 510.97 281.52 523.68
  A 0.64 0.64 0.0 0 0 282.38 523.68
  C 295.24 511.87 309.44 501.62 326.36 496.46
  C 347.46 490.03 365.07 499.96 370.59 521.13
  C 374.93 537.75 373.22 555.51 369.59 572.04
  A 0.76 0.75 -76.8 0 0 370.14 572.93
  C 385.46 576.93 401.27 583.66 414.00 592.69
  C 429.63 603.78 440.02 621.86 429.43 640.43
  C 418.79 659.09 393.05 669.44 373.42 675.66
  Z
  M 224.01 508.71
  C 198.81 509.88 204.73 553.99 207.89 568.64
  Q 208.01 569.16 208.52 569.05
  Q 227.19 565.09 246.19 563.21
  A 2.42 2.40 15.3 0 0 247.87 562.26
  Q 258.75 547.72 271.20 534.51
  Q 271.63 534.06 271.18 533.63
  C 260.23 523.16 239.85 507.97 224.01 508.71
  Z
  M 347.37 510.75
  C 331.67 501.88 303.48 523.13 292.58 533.73
  Q 292.21 534.09 292.56 534.46
  Q 304.80 547.48 315.55 561.77
  C 316.11 562.51 316.90 563.12 317.75 563.21
  Q 336.39 565.11 354.86 568.95
  A 0.90 0.89 12.1 0 0 355.92 568.27
  C 359.07 554.05 363.34 519.76 347.37 510.75
  Z
  M 266.66 561.00
  A 0.36 0.36 0.0 0 0 266.93 561.60
  L 296.89 561.60
  A 0.36 0.36 0.0 0 0 297.16 561.00
  L 282.18 543.88
  A 0.36 0.36 0.0 0 0 281.64 543.88
  L 266.66 561.00
  Z
  M 254.45 577.35
  C 244.12 591.84 235.06 607.16 226.89 623.03
  A 1.48 1.46 -43.9 0 0 226.86 624.32
  Q 237.94 648.43 251.99 670.66
  Q 253.34 672.80 256.25 672.97
  Q 284.07 674.53 308.26 673.10
  Q 309.96 673.00 310.85 671.63
  Q 324.88 650.06 335.81 626.77
  C 336.77 624.71 337.46 624.17 336.22 621.77
  Q 324.38 598.73 309.55 577.55
  A 2.41 2.40 74.4 0 0 307.75 576.53
  Q 281.76 574.72 255.77 576.60
  A 1.81 1.78 14.9 0 0 254.45 577.35
  Z
  M 218.95 605.94
  A 0.32 0.32 0.0 0 0 219.53 606.01
  L 235.79 579.01
  A 0.32 0.32 0.0 0 0 235.46 578.53
  L 211.50 582.67
  A 0.32 0.32 0.0 0 0 211.25 583.08
  L 218.95 605.94
  Z
  M 328.63 578.55
  A 0.44 0.44 0.0 0 0 328.18 579.21
  L 344.10 605.81
  A 0.44 0.44 0.0 0 0 344.90 605.73
  L 352.47 583.13
  A 0.44 0.44 0.0 0 0 352.13 582.55
  L 328.63 578.55
  Z
  M 207.72 630.37
  C 208.46 628.77 210.49 625.18 210.57 623.60
  Q 210.62 622.62 210.48 622.30
  Q 202.92 604.96 197.79 586.84
  Q 197.67 586.41 197.24 586.53
  C 180.88 591.26 151.47 602.22 145.28 619.24
  C 137.17 641.56 179.93 657.92 194.61 662.04
  A 0.49 0.48 -72.6 0 0 195.19 661.73
  Q 200.71 645.63 207.72 630.37
  Z
  M 366.00 586.81
  C 362.57 598.96 358.17 610.38 353.41 622.08
  A 3.27 3.25 43.4 0 0 353.49 624.73
  Q 362.18 642.75 368.52 661.73
  A 0.59 0.58 -17.6 0 0 369.24 662.10
  C 384.18 657.65 419.08 644.36 419.51 624.94
  C 419.85 609.76 396.66 597.59 384.70 592.83
  Q 375.74 589.26 366.53 586.52
  A 0.42 0.42 0.0 0 0 366.00 586.81
  Z
  M 234.72 670.89
  A 0.33 0.33 0.0 0 0 235.07 670.40
  L 218.75 641.08
  A 0.33 0.33 0.0 0 0 218.15 641.13
  L 208.64 665.62
  A 0.33 0.33 0.0 0 0 208.89 666.06
  L 234.72 670.89
  Z
  M 345.66 641.10
  A 0.31 0.31 0.0 0 0 345.10 641.06
  L 328.65 670.49
  A 0.31 0.31 0.0 0 0 328.98 670.95
  L 354.94 666.14
  A 0.31 0.31 0.0 0 0 355.17 665.73
  L 345.66 641.10
  Z
  M 210.29 749.40
  C 222.07 756.11 240.61 745.40 250.13 738.60
  Q 261.62 730.39 271.55 720.61
  A 0.85 0.85 0.0 0 0 271.58 719.44
  Q 257.86 704.05 246.10 687.12
  Q 245.43 686.16 244.25 686.05
  Q 224.52 684.16 205.26 679.57
  A 0.59 0.58 13.4 0 0 204.57 679.99
  C 200.14 696.17 191.62 738.78 210.29 749.40
  Z
  M 311.57 737.18
  C 322.62 745.47 350.29 761.65 360.21 742.42
  C 369.33 724.74 364.04 698.19 359.20 679.87
  A 0.45 0.45 0.0 0 0 358.65 679.54
  Q 339.35 684.18 319.51 686.13
  Q 318.12 686.27 317.57 687.07
  Q 305.79 704.16 292.13 719.56
  A 0.67 0.67 0.0 0 0 292.16 720.48
  Q 301.34 729.50 311.57 737.18
  Z
  M 299.52 688.31
  A 0.32 0.32 0.0 0 0 299.27 687.79
  L 264.54 687.85
  A 0.32 0.32 0.0 0 0 264.30 688.38
  L 281.70 709.74
  A 0.32 0.32 0.0 0 0 282.19 709.74
  L 299.52 688.31
  Z"
/>
<path fill="#41b882" d="
  M 569.92 497.05
  L 665.48 662.98
  A 0.66 0.66 0.0 0 0 666.62 662.98
  L 762.29 497.10
  L 825.79 497.03
  A 0.47 0.47 0.0 0 1 826.20 497.73
  L 666.52 774.46
  A 0.53 0.53 0.0 0 1 665.61 774.46
  L 505.95 497.79
  A 0.52 0.52 0.0 0 1 506.40 497.01
  L 569.92 497.05
  Z"
/>
<path fill="#34485e" d="
  M 569.92 497.05
  L 628.37 497.16
  Q 629.01 497.16 629.32 497.71
  L 639.46 515.46
  Q 638.78 515.29 638.87 516.13
  Q 638.90 516.47 639.14 516.86
  C 644.89 526.25 650.77 537.21 655.58 545.47
  Q 660.05 553.13 664.44 560.84
  A 0.52 0.52 0.0 0 0 665.17 561.02
  Q 665.37 560.89 665.50 560.68
  Q 665.92 561.31 666.61 560.66
  Q 666.67 560.81 666.74 560.92
  Q 666.95 561.23 667.24 560.99
  Q 667.99 560.35 668.86 558.76
  C 677.89 542.30 691.77 519.23 703.05 499.32
  A 1.64 1.63 15.2 0 1 704.51 498.49
  Q 720.75 498.71 737.25 498.59
  Q 737.84 498.58 738.26 498.32
  Q 738.74 498.01 738.23 497.75
  Q 737.72 497.50 737.70 497.15
  L 762.29 497.10
  L 666.62 662.98
  A 0.66 0.66 0.0 0 1 665.48 662.98
  L 569.92 497.05
  Z"
/>
<path fill="#262525" d="
  M 737.70 497.15
  Q 737.72 497.50 738.23 497.75
  Q 738.74 498.01 738.26 498.32
  Q 737.84 498.58 737.25 498.59
  Q 720.75 498.71 704.51 498.49
  A 1.64 1.63 15.2 0 0 703.05 499.32
  C 691.77 519.23 677.89 542.30 668.86 558.76
  Q 667.99 560.35 667.24 560.99
  Q 666.95 561.23 666.74 560.92
  Q 666.67 560.81 666.61 560.66
  L 702.99 497.64
  A 0.70 0.69 -75.0 0 1 703.59 497.29
  L 737.70 497.15
  Z"
/>
<path fill="#ffffff" d="
  M 207.89 568.64
  C 204.73 553.99 198.81 509.88 224.01 508.71
  C 239.85 507.97 260.23 523.16 271.18 533.63
  Q 271.63 534.06 271.20 534.51
  Q 258.75 547.72 247.87 562.26
  A 2.42 2.40 15.3 0 1 246.19 563.21
  Q 227.19 565.09 208.52 569.05
  Q 208.01 569.16 207.89 568.64
  Z"
/>
<path fill="#ffffff" d="
  M 292.58 533.73
  C 303.48 523.13 331.67 501.88 347.37 510.75
  C 363.34 519.76 359.07 554.05 355.92 568.27
  A 0.90 0.89 12.1 0 1 354.86 568.95
  Q 336.39 565.11 317.75 563.21
  C 316.90 563.12 316.11 562.51 315.55 561.77
  Q 304.80 547.48 292.56 534.46
  Q 292.21 534.09 292.58 533.73
  Z"
/>
<path fill="#262525" d="
  M 639.46 515.46
  L 665.50 560.68
  Q 665.37 560.89 665.17 561.02
  A 0.52 0.52 0.0 0 1 664.44 560.84
  Q 660.05 553.13 655.58 545.47
  C 650.77 537.21 644.89 526.25 639.14 516.86
  Q 638.90 516.47 638.87 516.13
  Q 638.78 515.29 639.46 515.46
  Z"
/>
<path fill="#ffffff" d="
  M 266.66 561.00
  L 281.64 543.88
  A 0.36 0.36 0.0 0 1 282.18 543.88
  L 297.16 561.00
  A 0.36 0.36 0.0 0 1 296.89 561.60
  L 266.93 561.60
  A 0.36 0.36 0.0 0 1 266.66 561.00
  Z"
/>
<path fill="#ffffff" d="
  M 226.89 623.03
  C 235.06 607.16 244.12 591.84 254.45 577.35
  A 1.81 1.78 14.9 0 1 255.77 576.60
  Q 281.76 574.72 307.75 576.53
  A 2.41 2.40 74.4 0 1 309.55 577.55
  Q 324.38 598.73 336.22 621.77
  C 337.46 624.17 336.77 624.71 335.81 626.77
  Q 324.88 650.06 310.85 671.63
  Q 309.96 673.00 308.26 673.10
  Q 284.07 674.53 256.25 672.97
  Q 253.34 672.80 251.99 670.66
  Q 237.94 648.43 226.86 624.32
  A 1.48 1.46 -43.9 0 1 226.89 623.03
  Z
  M 310.29 624.78
  A 28.41 28.41 0.0 0 0 281.88 596.37
  A 28.41 28.41 0.0 0 0 253.47 624.78
  A 28.41 28.41 0.0 0 0 281.88 653.19
  A 28.41 28.41 0.0 0 0 310.29 624.78
  Z"
/>
<path fill="#ffffff" d="
  M 218.95 605.94
  L 211.25 583.08
  A 0.32 0.32 0.0 0 1 211.50 582.67
  L 235.46 578.53
  A 0.32 0.32 0.0 0 1 235.79 579.01
  L 219.53 606.01
  A 0.32 0.32 0.0 0 1 218.95 605.94
  Z"
/>
<path fill="#ffffff" d="
  M 328.63 578.55
  L 352.13 582.55
  A 0.44 0.44 0.0 0 1 352.47 583.13
  L 344.90 605.73
  A 0.44 0.44 0.0 0 1 344.10 605.81
  L 328.18 579.21
  A 0.44 0.44 0.0 0 1 328.63 578.55
  Z"
/>
<path fill="#ffffff" d="
  M 207.72 630.37
  Q 200.71 645.63 195.19 661.73
  A 0.49 0.48 -72.6 0 1 194.61 662.04
  C 179.93 657.92 137.17 641.56 145.28 619.24
  C 151.47 602.22 180.88 591.26 197.24 586.53
  Q 197.67 586.41 197.79 586.84
  Q 202.92 604.96 210.48 622.30
  Q 210.62 622.62 210.57 623.60
  C 210.49 625.18 208.46 628.77 207.72 630.37
  Z"
/>
<path fill="#ffffff" d="
  M 353.41 622.08
  C 358.17 610.38 362.57 598.96 366.00 586.81
  A 0.42 0.42 0.0 0 1 366.53 586.52
  Q 375.74 589.26 384.70 592.83
  C 396.66 597.59 419.85 609.76 419.51 624.94
  C 419.08 644.36 384.18 657.65 369.24 662.10
  A 0.59 0.58 -17.6 0 1 368.52 661.73
  Q 362.18 642.75 353.49 624.73
  A 3.27 3.25 43.4 0 1 353.41 622.08
  Z"
/>
<circle fill="#64d9fb" cx="281.88" cy="624.78" r="28.41"/>
<path fill="#ffffff" d="
  M 234.72 670.89
  L 208.89 666.06
  A 0.33 0.33 0.0 0 1 208.64 665.62
  L 218.15 641.13
  A 0.33 0.33 0.0 0 1 218.75 641.08
  L 235.07 670.40
  A 0.33 0.33 0.0 0 1 234.72 670.89
  Z"
/>
<path fill="#ffffff" d="
  M 345.66 641.10
  L 355.17 665.73
  A 0.31 0.31 0.0 0 1 354.94 666.14
  L 328.98 670.95
  A 0.31 0.31 0.0 0 1 328.65 670.49
  L 345.10 641.06
  A 0.31 0.31 0.0 0 1 345.66 641.10
  Z"
/>
<path fill="#ffffff" d="
  M 250.13 738.60
  C 240.61 745.40 222.07 756.11 210.29 749.40
  C 191.62 738.78 200.14 696.17 204.57 679.99
  A 0.59 0.58 13.4 0 1 205.26 679.57
  Q 224.52 684.16 244.25 686.05
  Q 245.43 686.16 246.10 687.12
  Q 257.86 704.05 271.58 719.44
  A 0.85 0.85 0.0 0 1 271.55 720.61
  Q 261.62 730.39 250.13 738.60
  Z"
/>
<path fill="#ffffff" d="
  M 360.21 742.42
  C 350.29 761.65 322.62 745.47 311.57 737.18
  Q 301.34 729.50 292.16 720.48
  A 0.67 0.67 0.0 0 1 292.13 719.56
  Q 305.79 704.16 317.57 687.07
  Q 318.12 686.27 319.51 686.13
  Q 339.35 684.18 358.65 679.54
  A 0.45 0.45 0.0 0 1 359.20 679.87
  C 364.04 698.19 369.33 724.74 360.21 742.42
  Z"
/>
<path fill="#ffffff" d="
  M 299.52 688.31
  L 282.19 709.74
  A 0.32 0.32 0.0 0 1 281.70 709.74
  L 264.30 688.38
  A 0.32 0.32 0.0 0 1 264.54 687.85
  L 299.27 687.79
  A 0.32 0.32 0.0 0 1 299.52 688.31
  Z"
/>
</svg>
