<?xml version="1.0" encoding="UTF-8" standalone="no"?>
<!DOCTYPE svg PUBLIC "-//W3C//DTD SVG 1.1//EN" "http://www.w3.org/Graphics/SVG/1.1/DTD/svg11.dtd">
<svg xmlns="http://www.w3.org/2000/svg" version="1.1" viewBox="0.00 0.00 923.00 830.00">
<g stroke-width="2.00" fill="none" stroke-linecap="butt">
<path stroke="#87b3d4" vector-effect="non-scaling-stroke" d="
  M 671.04 272.23
  Q 601.28 246.76 560.20 185.05
  C 526.66 134.65 514.58 68.32 544.62 13.01
  Q 544.71 12.86 544.56 12.77
  L 544.55 12.76
  Q 544.41 12.67 544.30 12.81
  Q 534.50 26.37 524.71 39.95
  C 499.82 74.47 490.18 115.59 496.38 157.70
  C 497.72 166.83 500.03 177.10 502.93 185.59
  C 525.55 252.10 580.30 302.11 646.67 323.23
  Q 656.22 326.27 666.09 327.91
  C 732.78 339.01 797.85 324.17 840.56 268.81
  Q 852.60 253.20 862.47 234.56
  Q 862.56 234.39 862.40 234.28
  L 862.39 234.28
  Q 862.23 234.18 862.11 234.33
  C 821.54 289.31 755.62 292.56 694.44 279.06
  Q 682.53 276.43 671.04 272.23"
/>
<path stroke="#87b3d4" vector-effect="non-scaling-stroke" d="
  M 473.48 530.08
  C 489.21 537.95 507.76 545.20 527.16 551.51
  C 536.88 554.68 545.19 556.06 555.25 557.48
  C 639.77 569.45 729.74 559.21 799.33 505.91
  C 838.29 476.06 870.16 434.86 887.16 388.35
  Q 887.98 386.09 886.59 388.05
  C 850.45 439.02 794.85 472.03 733.49 484.25
  C 656.36 499.59 574.36 482.10 506.57 442.68
  C 498.40 437.93 487.08 430.83 478.48 424.62
  C 416.58 379.94 369.27 318.13 347.92 244.42
  C 329.56 181.06 335.20 108.68 368.58 51.29
  A 0.12 0.11 25.5 0 0 368.52 51.13
  Q 368.38 51.07 368.25 51.26
  Q 354.88 70.32 330.83 104.14
  Q 322.97 115.19 319.54 120.64
  C 277.22 188.05 275.41 273.53 303.47 346.67
  Q 315.18 377.20 332.92 404.66
  C 342.07 418.84 352.98 435.35 365.70 448.31
  C 378.81 461.68 390.36 473.64 404.07 484.90
  C 425.46 502.46 448.18 517.43 473.48 530.08"
/>
<path stroke="#87b3d4" vector-effect="non-scaling-stroke" d="
  M 865.71 599.51
  C 772.43 718.49 611.11 741.18 472.70 709.94
  C 458.31 706.69 443.47 702.17 429.69 696.85
  Q 421.63 693.74 413.60 690.55
  Q 371.25 673.77 332.79 649.41
  Q 323.55 643.56 314.56 637.39
  Q 277.01 611.62 244.94 579.32
  C 196.91 530.96 159.64 474.15 136.87 409.78
  C 104.79 319.09 105.29 217.35 149.22 130.93
  Q 150.70 128.01 148.68 130.58
  Q 123.90 162.12 98.50 194.17
  Q 91.16 203.43 86.69 210.30
  C 58.52 253.58 41.57 305.70 38.86 356.86
  Q 37.11 389.90 39.56 414.76
  C 48.69 507.38 90.68 596.30 153.01 665.92
  C 156.07 669.34 160.94 675.42 165.70 680.05
  C 177.80 691.81 187.58 701.90 197.83 710.32
  Q 201.08 712.98 204.28 715.69
  C 240.78 746.49 281.56 772.06 325.51 790.83
  Q 355.28 803.54 386.36 812.58
  Q 395.75 815.31 405.84 817.04
  C 475.09 828.91 546.28 829.42 614.49 812.02
  Q 710.80 787.46 782.28 718.79
  Q 823.71 678.99 851.94 628.96
  Q 860.18 614.36 866.18 599.78
  Q 866.93 597.95 865.71 599.51"
/>
</g>
<path fill="#ffffff" d="
  M 0.00 0.00
  L 923.00 0.00
  L 923.00 830.00
  L 0.00 830.00
  L 0.00 0.00
  Z
  M 671.04 272.23
  Q 601.28 246.76 560.20 185.05
  C 526.66 134.65 514.58 68.32 544.62 13.01
  Q 544.71 12.86 544.56 12.77
  L 544.55 12.76
  Q 544.41 12.67 544.30 12.81
  Q 534.50 26.37 524.71 39.95
  C 499.82 74.47 490.18 115.59 496.38 157.70
  C 497.72 166.83 500.03 177.10 502.93 185.59
  C 525.55 252.10 580.30 302.11 646.67 323.23
  Q 656.22 326.27 666.09 327.91
  C 732.78 339.01 797.85 324.17 840.56 268.81
  Q 852.60 253.20 862.47 234.56
  Q 862.56 234.39 862.40 234.28
  L 862.39 234.28
  Q 862.23 234.18 862.11 234.33
  C 821.54 289.31 755.62 292.56 694.44 279.06
  Q 682.53 276.43 671.04 272.23
  Z
  M 473.48 530.08
  C 489.21 537.95 507.76 545.20 527.16 551.51
  C 536.88 554.68 545.19 556.06 555.25 557.48
  C 639.77 569.45 729.74 559.21 799.33 505.91
  C 838.29 476.06 870.16 434.86 887.16 388.35
  Q 887.98 386.09 886.59 388.05
  C 850.45 439.02 794.85 472.03 733.49 484.25
  C 656.36 499.59 574.36 482.10 506.57 442.68
  C 498.40 437.93 487.08 430.83 478.48 424.62
  C 416.58 379.94 369.27 318.13 347.92 244.42
  C 329.56 181.06 335.20 108.68 368.58 51.29
  A 0.12 0.11 25.5 0 0 368.52 51.13
  Q 368.38 51.07 368.25 51.26
  Q 354.88 70.32 330.83 104.14
  Q 322.97 115.19 319.54 120.64
  C 277.22 188.05 275.41 273.53 303.47 346.67
  Q 315.18 377.20 332.92 404.66
  C 342.07 418.84 352.98 435.35 365.70 448.31
  C 378.81 461.68 390.36 473.64 404.07 484.90
  C 425.46 502.46 448.18 517.43 473.48 530.08
  Z
  M 865.71 599.51
  C 772.43 718.49 611.11 741.18 472.70 709.94
  C 458.31 706.69 443.47 702.17 429.69 696.85
  Q 421.63 693.74 413.60 690.55
  Q 371.25 673.77 332.79 649.41
  Q 323.55 643.56 314.56 637.39
  Q 277.01 611.62 244.94 579.32
  C 196.91 530.96 159.64 474.15 136.87 409.78
  C 104.79 319.09 105.29 217.35 149.22 130.93
  Q 150.70 128.01 148.68 130.58
  Q 123.90 162.12 98.50 194.17
  Q 91.16 203.43 86.69 210.30
  C 58.52 253.58 41.57 305.70 38.86 356.86
  Q 37.11 389.90 39.56 414.76
  C 48.69 507.38 90.68 596.30 153.01 665.92
  C 156.07 669.34 160.94 675.42 165.70 680.05
  C 177.80 691.81 187.58 701.90 197.83 710.32
  Q 201.08 712.98 204.28 715.69
  C 240.78 746.49 281.56 772.06 325.51 790.83
  Q 355.28 803.54 386.36 812.58
  Q 395.75 815.31 405.84 817.04
  C 475.09 828.91 546.28 829.42 614.49 812.02
  Q 710.80 787.46 782.28 718.79
  Q 823.71 678.99 851.94 628.96
  Q 860.18 614.36 866.18 599.78
  Q 866.93 597.95 865.71 599.51
  Z"
/>
<path fill="#0f66a9" d="
  M 671.04 272.23
  Q 682.53 276.43 694.44 279.06
  C 755.62 292.56 821.54 289.31 862.11 234.33
  Q 862.23 234.18 862.39 234.28
  L 862.40 234.28
  Q 862.56 234.39 862.47 234.56
  Q 852.60 253.20 840.56 268.81
  C 797.85 324.17 732.78 339.01 666.09 327.91
  Q 656.22 326.27 646.67 323.23
  C 580.30 302.11 525.55 252.10 502.93 185.59
  C 500.03 177.10 497.72 166.83 496.38 157.70
  C 490.18 115.59 499.82 74.47 524.71 39.95
  Q 534.50 26.37 544.30 12.81
  Q 544.41 12.67 544.55 12.76
  L 544.56 12.77
  Q 544.71 12.86 544.62 13.01
  C 514.58 68.32 526.66 134.65 560.20 185.05
  Q 601.28 246.76 671.04 272.23
  Z"
/>
<path fill="#0f66a9" d="
  M 527.16 551.51
  C 507.76 545.20 489.21 537.95 473.48 530.08
  C 448.18 517.43 425.46 502.46 404.07 484.90
  C 390.36 473.64 378.81 461.68 365.70 448.31
  C 352.98 435.35 342.07 418.84 332.92 404.66
  Q 315.18 377.20 303.47 346.67
  C 275.41 273.53 277.22 188.05 319.54 120.64
  Q 322.97 115.19 330.83 104.14
  Q 354.88 70.32 368.25 51.26
  Q 368.38 51.07 368.52 51.13
  A 0.12 0.11 25.5 0 1 368.58 51.29
  C 335.20 108.68 329.56 181.06 347.92 244.42
  C 369.27 318.13 416.58 379.94 478.48 424.62
  C 487.08 430.83 498.40 437.93 506.57 442.68
  C 574.36 482.10 656.36 499.59 733.49 484.25
  C 794.85 472.03 850.45 439.02 886.59 388.05
  Q 887.98 386.09 887.16 388.35
  C 870.16 434.86 838.29 476.06 799.33 505.91
  C 729.74 559.21 639.77 569.45 555.25 557.48
  C 545.19 556.06 536.88 554.68 527.16 551.51
  Z"
/>
<path fill="#0f66a9" d="
  M 865.71 599.51
  Q 866.93 597.95 866.18 599.78
  Q 860.18 614.36 851.94 628.96
  Q 823.71 678.99 782.28 718.79
  Q 710.80 787.46 614.49 812.02
  C 546.28 829.42 475.09 828.91 405.84 817.04
  Q 395.75 815.31 386.36 812.58
  Q 355.28 803.54 325.51 790.83
  C 281.56 772.06 240.78 746.49 204.28 715.69
  Q 201.08 712.98 197.83 710.32
  C 187.58 701.90 177.80 691.81 165.70 680.05
  C 160.94 675.42 156.07 669.34 153.01 665.92
  C 90.68 596.30 48.69 507.38 39.56 414.76
  Q 37.11 389.90 38.86 356.86
  C 41.57 305.70 58.52 253.58 86.69 210.30
  Q 91.16 203.43 98.50 194.17
  Q 123.90 162.12 148.68 130.58
  Q 150.70 128.01 149.22 130.93
  C 105.29 217.35 104.79 319.09 136.87 409.78
  C 159.64 474.15 196.91 530.96 244.94 579.32
  Q 277.01 611.62 314.56 637.39
  Q 323.55 643.56 332.79 649.41
  Q 371.25 673.77 413.60 690.55
  Q 421.63 693.74 429.69 696.85
  C 443.47 702.17 458.31 706.69 472.70 709.94
  C 611.11 741.18 772.43 718.49 865.71 599.51
  Z"
/>
</svg>
