<?xml version="1.0" encoding="UTF-8" standalone="no"?>
<!DOCTYPE svg PUBLIC "-//W3C//DTD SVG 1.1//EN" "http://www.w3.org/Graphics/SVG/1.1/DTD/svg11.dtd">
<svg xmlns="http://www.w3.org/2000/svg" version="1.1" viewBox="0.00 0.00 1448.00 1448.00">
<path fill="#2f65a3" d="
  M 848.40 119.49
  C 842.86 129.83 838.01 140.35 834.16 151.27
  C 827.78 169.34 823.52 191.26 823.04 211.40
  C 822.28 242.94 827.46 273.64 837.89 302.83
  Q 849.39 335.02 866.69 362.22
  C 885.61 391.97 909.60 419.55 937.28 441.57
  Q 989.13 482.83 1054.46 500.90
  C 1061.12 502.74 1068.15 504.03 1075.05 505.60
  Q 1079.08 506.52 1083.47 507.11
  Q 1089.01 507.86 1094.17 508.72
  Q 1098.94 509.52 1104.90 510.21
  Q 1115.51 511.45 1124.48 512.12
  Q 1150.49 514.07 1178.02 510.81
  Q 1229.83 504.67 1269.57 474.62
  C 1277.95 468.29 1286.55 460.01 1293.19 452.11
  Q 1300.81 443.04 1308.08 433.87
  Q 1308.21 433.72 1308.37 433.83
  L 1308.72 434.08
  Q 1308.93 434.22 1308.81 434.44
  Q 1296.61 455.67 1285.98 471.76
  Q 1274.66 488.90 1258.85 506.04
  C 1229.78 537.55 1192.12 559.39 1150.40 570.12
  Q 1126.17 576.35 1099.98 577.83
  Q 1084.00 578.74 1065.23 578.06
  C 1055.36 577.71 1046.09 576.50 1036.55 575.50
  Q 1031.21 574.94 1024.97 573.85
  C 1015.85 572.26 1006.94 570.88 998.18 568.02
  Q 978.96 561.73 966.39 556.51
  Q 942.00 546.38 919.87 532.40
  C 908.77 525.38 897.50 518.08 887.50 509.85
  Q 867.04 493.00 850.68 475.31
  C 837.31 460.86 823.79 443.30 813.55 425.44
  Q 796.78 396.22 787.88 369.21
  Q 782.90 354.08 779.18 335.75
  Q 778.41 331.92 777.98 328.17
  C 777.58 324.71 776.91 321.39 776.54 317.98
  Q 774.66 300.86 775.30 282.55
  Q 775.57 274.70 776.61 267.99
  C 777.60 261.62 778.11 255.26 779.39 248.85
  C 786.33 214.05 801.10 182.59 822.38 153.74
  Q 831.33 141.60 839.63 129.47
  Q 843.12 124.38 847.43 119.15
  Q 847.67 118.85 848.06 118.82
  Q 848.33 118.80 848.42 118.99
  Q 848.53 119.24 848.40 119.49
  Z"
/>
<path fill="#2f65a3" d="
  M 767.67 874.79
  Q 737.54 861.41 710.98 845.76
  Q 700.66 839.67 686.72 830.33
  Q 639.46 798.63 600.80 757.81
  Q 593.54 750.14 587.25 743.91
  Q 580.33 737.05 573.76 728.45
  Q 550.64 698.23 531.12 665.09
  Q 526.21 656.76 521.72 648.01
  C 504.12 613.71 490.49 578.08 482.52 541.37
  Q 480.21 530.78 477.64 514.61
  Q 476.29 506.20 475.79 499.48
  C 475.27 492.51 474.23 485.75 473.90 478.87
  Q 473.01 460.36 473.57 443.49
  Q 473.99 430.73 475.90 411.49
  Q 476.43 406.09 477.38 401.21
  C 478.27 396.66 478.73 392.17 479.60 387.65
  Q 491.88 323.86 526.28 270.65
  Q 530.91 263.49 537.57 254.15
  Q 557.30 226.46 574.62 201.70
  C 580.58 193.18 586.38 183.39 593.25 175.19
  Q 597.23 170.44 594.40 175.95
  C 590.98 182.63 586.88 189.17 583.56 196.15
  Q 580.90 201.75 578.59 206.77
  C 563.46 239.54 554.81 276.17 551.50 312.48
  Q 548.82 341.82 550.81 372.46
  Q 552.76 402.50 560.15 435.68
  Q 562.26 445.18 565.17 455.14
  Q 581.65 511.62 611.95 561.54
  C 618.67 572.61 627.46 586.06 636.02 597.70
  Q 668.27 641.55 710.20 678.55
  C 731.13 697.03 753.01 713.96 776.81 728.64
  Q 785.53 734.02 793.96 738.95
  Q 832.75 761.64 874.81 776.79
  Q 906.67 788.26 935.14 794.72
  Q 956.54 799.57 982.32 802.95
  Q 987.42 803.62 992.70 804.14
  C 999.49 804.82 1005.98 804.94 1012.73 805.61
  Q 1017.79 806.11 1022.38 806.25
  Q 1042.99 806.86 1057.00 805.88
  Q 1071.91 804.84 1075.75 804.54
  Q 1126.02 800.62 1175.25 782.83
  Q 1226.37 764.37 1269.86 731.82
  Q 1288.78 717.67 1307.84 698.22
  Q 1325.48 680.23 1335.78 664.65
  C 1337.19 662.51 1339.01 660.75 1340.78 658.92
  Q 1341.91 657.76 1341.68 659.37
  Q 1341.49 660.66 1340.95 661.92
  C 1334.95 675.93 1329.40 689.40 1322.24 702.45
  Q 1306.69 730.79 1290.17 753.06
  Q 1279.70 767.18 1270.83 776.85
  C 1264.46 783.79 1258.27 791.14 1251.45 797.79
  Q 1241.32 807.68 1227.32 819.35
  Q 1201.35 841.00 1173.40 856.64
  Q 1160.06 864.10 1145.13 871.16
  Q 1135.48 875.73 1126.86 879.10
  Q 1082.57 896.43 1039.54 903.48
  C 1028.52 905.29 1012.94 907.59 999.79 908.61
  Q 977.96 910.29 955.75 910.70
  Q 946.72 910.86 935.77 910.25
  Q 917.61 909.23 899.00 908.27
  C 894.73 908.04 890.30 907.07 885.90 906.62
  C 869.88 905.01 855.28 903.10 840.48 900.19
  Q 834.66 899.04 828.58 897.10
  C 806.61 890.11 787.76 883.71 767.67 874.79
  Z"
/>
<path fill="#2f65a3" d="
  M 506.53 1228.00
  Q 502.43 1226.07 498.78 1224.23
  C 488.50 1219.06 477.62 1213.56 467.53 1207.85
  Q 409.53 1175.04 358.72 1132.78
  Q 349.55 1125.15 337.19 1113.93
  C 324.54 1102.43 312.73 1090.62 300.47 1078.83
  Q 296.52 1075.03 292.80 1070.58
  C 283.48 1059.39 273.53 1048.75 264.38 1037.41
  Q 246.65 1015.44 234.68 998.50
  Q 217.44 974.08 201.58 946.54
  Q 196.46 937.64 191.94 929.02
  Q 169.79 886.83 153.21 842.16
  Q 149.98 833.45 146.85 823.19
  Q 140.10 801.08 138.30 794.33
  Q 131.21 767.74 126.73 742.34
  Q 124.44 729.35 121.59 707.89
  Q 120.37 698.71 119.97 690.57
  C 119.58 682.68 118.56 674.69 118.39 666.75
  Q 117.86 643.23 118.66 629.26
  Q 119.42 616.09 120.14 603.73
  C 120.53 597.11 121.77 590.89 122.41 584.31
  Q 122.94 578.78 124.04 572.78
  C 124.97 567.67 125.63 562.53 126.74 557.38
  Q 130.08 541.81 132.08 533.69
  Q 149.60 462.52 190.34 400.77
  Q 195.27 393.29 201.90 384.93
  Q 231.53 347.56 262.16 308.70
  Q 264.04 306.31 265.61 304.13
  Q 272.13 295.07 277.90 288.38
  Q 280.31 285.58 279.09 289.06
  Q 278.68 290.23 277.51 292.46
  Q 269.40 307.96 263.20 323.20
  Q 245.28 367.30 236.37 413.65
  Q 234.40 423.88 233.07 434.05
  Q 221.46 522.78 238.77 610.33
  Q 250.64 670.37 275.98 730.35
  Q 279.38 738.42 284.27 748.52
  Q 296.30 773.43 305.00 789.05
  C 317.71 811.86 332.42 834.66 346.91 854.26
  Q 359.31 871.03 373.50 888.41
  Q 379.83 896.16 386.54 903.55
  Q 406.96 926.07 419.66 938.61
  Q 430.92 949.72 446.65 964.08
  Q 452.46 969.38 458.71 974.50
  C 464.18 978.97 469.37 983.65 475.07 988.16
  Q 495.96 1004.71 515.48 1018.37
  Q 540.08 1035.58 569.72 1052.55
  Q 615.57 1078.79 669.10 1099.65
  C 674.53 1101.77 680.83 1103.80 686.57 1106.08
  Q 690.02 1107.45 693.49 1108.56
  Q 724.09 1118.37 745.44 1123.54
  Q 764.38 1128.13 800.91 1133.77
  Q 809.03 1135.03 816.83 1135.86
  C 823.93 1136.61 831.33 1137.66 838.40 1138.23
  Q 851.12 1139.27 864.45 1140.25
  Q 874.54 1140.99 883.60 1141.06
  Q 890.63 1141.12 896.42 1141.33
  C 906.07 1141.69 915.63 1141.15 925.07 1141.03
  C 942.13 1140.81 960.13 1139.55 975.87 1137.77
  Q 983.99 1136.86 991.80 1135.91
  C 1000.59 1134.85 1009.02 1133.43 1017.50 1131.94
  Q 1076.14 1121.68 1131.59 1098.76
  Q 1148.25 1091.88 1166.10 1082.60
  Q 1202.19 1063.84 1232.15 1040.88
  C 1238.04 1036.37 1243.90 1032.04 1249.39 1027.22
  C 1261.95 1016.18 1275.67 1004.12 1285.86 992.21
  Q 1291.41 985.73 1296.31 980.38
  C 1300.43 975.87 1303.71 971.21 1307.31 966.53
  Q 1308.65 964.79 1310.27 963.53
  Q 1312.22 962.01 1311.23 964.28
  Q 1303.81 981.18 1294.83 998.35
  Q 1285.25 1016.65 1274.05 1033.56
  C 1261.58 1052.41 1248.08 1071.97 1234.84 1087.65
  C 1225.36 1098.89 1214.86 1110.98 1204.46 1121.85
  Q 1177.19 1150.34 1144.78 1175.26
  Q 1119.87 1194.41 1091.72 1211.16
  Q 1058.80 1230.74 1016.59 1248.10
  Q 1007.50 1251.84 997.27 1255.35
  Q 953.25 1270.46 910.82 1278.57
  Q 900.63 1280.51 890.89 1281.93
  Q 863.39 1285.95 850.86 1286.87
  Q 839.40 1287.71 826.20 1288.45
  C 805.25 1289.62 784.64 1289.47 762.99 1289.18
  C 748.46 1288.99 734.53 1287.50 719.83 1286.70
  C 712.10 1286.27 704.48 1284.89 696.86 1284.09
  C 688.68 1283.23 680.56 1281.96 672.46 1281.13
  C 666.66 1280.53 660.95 1279.11 655.23 1278.49
  Q 650.61 1277.99 645.32 1276.74
  C 640.85 1275.68 636.32 1275.54 631.88 1274.38
  C 623.75 1272.26 616.14 1269.67 608.05 1267.18
  Q 574.18 1256.76 554.19 1248.77
  Q 530.66 1239.36 506.53 1228.00
  Z"
/>
</svg>
