<svg xmlns="http://www.w3.org/2000/svg" viewBox="0 0 1300 1300" xmlns:v="https://vecta.io/nano"><path vector-effect="non-scaling-stroke" d="M709.18 181.25q-15.34 36.67-15.81 77.01c-.64 54.92 21.11 109.12 55.76 152.12q38.43 47.71 93.05 76.22 23.35 12.2 49.98 20.65 9.37 2.97 19.16 4.67c34.32 5.94 69.57 7.26 103.42 1.09q74.28-13.51 121.86-70.91 17.59-21.21 32.63-49.44c.49-.92 1.29-1.82 1.78-2.64q1.34-2.27-.24-.16-7.49 10.03-16.76 19.51c-39.68 40.64-95.86 52.99-151.69 47.92q-23.13-2.1-45.73-6.88-10.23-2.16-19.8-5.04-58.94-17.72-105.09-57.03c-52.92-45.06-91.47-112.48-95.42-182.83q-2.99-53.34 22.08-100.45.12-.22-.09-.35h-.01q-.18-.12-.31.07-11.66 16.14-23.34 32.19c-10.2 14.02-18.91 28.68-25.43 44.28m-178.1-27.95q-25.65 36.05-51.44 72.41-5.81 8.19-11.25 16.61c-56.2 86.99-58.74 198.54-22.9 293.32q15.56 41.18 40.38 79.07 12.66 19.34 26.1 37.11c7.94 10.51 17.23 18.93 26.29 28.42 53.97 56.5 122.21 98.28 196.79 121.49 5.59 1.74 11.38 3.91 16.96 4.91 49.45 8.82 101.05 11.51 151.49 6.39q49.59-5.04 95.84-21.84c89.19-32.38 160.86-101.47 197.86-188.78q2.53-5.95 4.65-12.16.71-2.05-.54-.28c-41.74 59.14-103.99 99.86-174.12 119.12-96.97 26.64-201.58 10.85-291.44-33.57q-22.96-11.35-49.37-28.4-7.9-5.1-15.77-10.87-33.97-24.91-62.01-53.6c-50.51-51.72-88.48-115.32-106.85-185.44-15.72-60.04-15.56-124.06 2.86-183.26q9.61-30.9 26.4-60.08.2-.34.11-.74 0-.01 0-.01.12 0 0 0 0 0 0 .07 0 .06-.04.11m146.31 1002.8c76.96 2.98 154.02-6.77 226.37-34.44q106.21-40.62 183.65-124.98 45.99-50.09 75.64-107.52 6.41-12.43 12.06-25.93.21-.52-.21-.15-.55.48-1 1.05-31.52 40.11-71.19 69.81c-46.74 35-99.98 59.23-156.32 73.31q-38.47 9.61-79.55 13.48-41.42 3.9-79.91 2.28-58.59-2.46-115.71-14.67-9.48-2.02-19.09-4.76-26.72-7.6-34.14-10.33-17.62-6.49-30.86-11.81-104.05-41.87-188.06-116.31-24.91-22.08-48.64-48.01c-65.49-71.6-112.96-157.59-135.39-251.55-11.97-50.11-16.34-101.26-12.2-152.33 4.42-54.58 19.16-107.25 43.85-155.86q1.76-3.46-.64-.41-33.08 42.05-68.13 86.19-6.61 8.33-11.72 16.19-48.55 74.75-59.96 163.91Q99.77 573.9 104.6 624q6.85 71.03 32.37 138.25 26.71 70.35 69.31 131.2 18.92 27.03 46.07 57.83c4.72 5.35 8.99 11.08 14.05 15.85l28.98 27.89q55.51 51.09 121.53 88.23c7.46 4.2 16.11 8.51 24.38 12.89q4.11 2.17 10.42 5.02 5.59 2.53 10.47 4.87 26 12.48 67.07 26.17 15.13 5.04 30.27 9.49 4.33 1.27 8.37 2 57.07 10.38 109.5 12.41" fill="none" stroke="#97b2d2" stroke-width="2"/><path fill="#fff" d="M0 0h1300v1300H0V0zm709.18 181.25q-15.34 36.67-15.81 77.01c-.64 54.92 21.11 109.12 55.76 152.12q38.43 47.71 93.05 76.22 23.35 12.2 49.98 20.65 9.37 2.97 19.16 4.67c34.32 5.94 69.57 7.26 103.42 1.09q74.28-13.51 121.86-70.91 17.59-21.21 32.63-49.44c.49-.92 1.29-1.82 1.78-2.64q1.34-2.27-.24-.16-7.49 10.03-16.76 19.51c-39.68 40.64-95.86 52.99-151.69 47.92q-23.13-2.1-45.73-6.88-10.23-2.16-19.8-5.04-58.94-17.72-105.09-57.03c-52.92-45.06-91.47-112.48-95.42-182.83q-2.99-53.34 22.08-100.45.12-.22-.09-.35h-.01q-.18-.12-.31.07-11.66 16.14-23.34 32.19c-10.2 14.02-18.91 28.68-25.43 44.28zm-178.1-27.95q-25.65 36.05-51.44 72.41-5.81 8.19-11.25 16.61c-56.2 86.99-58.74 198.54-22.9 293.32q15.56 41.18 40.38 79.07 12.66 19.34 26.1 37.11c7.94 10.51 17.23 18.93 26.29 28.42 53.97 56.5 122.21 98.28 196.79 121.49 5.59 1.74 11.38 3.91 16.96 4.91 49.45 8.82 101.05 11.51 151.49 6.39q49.59-5.04 95.84-21.84c89.19-32.38 160.86-101.47 197.86-188.78q2.53-5.95 4.65-12.16.71-2.05-.54-.28c-41.74 59.14-103.99 99.86-174.12 119.12-96.97 26.64-201.58 10.85-291.44-33.57q-22.96-11.35-49.37-28.4-7.9-5.1-15.77-10.87-33.97-24.91-62.01-53.6c-50.51-51.72-88.48-115.32-106.85-185.44-15.72-60.04-15.56-124.06 2.86-183.26q9.61-30.9 26.4-60.08.2-.34.11-.74 0-.01 0-.01.12 0 0 0 0 0 0 .07 0 .06-.04.11zm146.31 1002.8c76.96 2.98 154.02-6.77 226.37-34.44q106.21-40.62 183.65-124.98 45.99-50.09 75.64-107.52 6.41-12.43 12.06-25.93.21-.52-.21-.15-.55.48-1 1.05-31.52 40.11-71.19 69.81c-46.74 35-99.98 59.23-156.32 73.31q-38.47 9.61-79.55 13.48-41.42 3.9-79.91 2.28-58.59-2.46-115.71-14.67-9.48-2.02-19.09-4.76-26.72-7.6-34.14-10.33-17.62-6.49-30.86-11.81-104.05-41.87-188.06-116.31-24.91-22.08-48.64-48.01c-65.49-71.6-112.96-157.59-135.39-251.55-11.97-50.11-16.34-101.26-12.2-152.33 4.42-54.58 19.16-107.25 43.85-155.86q1.76-3.46-.64-.41-33.08 42.05-68.13 86.19-6.61 8.33-11.72 16.19-48.55 74.75-59.96 163.91Q99.77 573.9 104.6 624q6.85 71.03 32.37 138.25 26.71 70.35 69.31 131.2 18.92 27.03 46.07 57.83c4.72 5.35 8.99 11.08 14.05 15.85l28.98 27.89q55.51 51.09 121.53 88.23c7.46 4.2 16.11 8.51 24.38 12.89q4.11 2.17 10.42 5.02 5.59 2.53 10.47 4.87 26 12.48 67.07 26.17 15.13 5.04 30.27 9.49 4.33 1.27 8.37 2 57.07 10.38 109.5 12.41z"/><path d="M709.18 181.25c6.52-15.6 15.23-30.26 25.43-44.28q11.68-16.05 23.34-32.19.13-.19.31-.07h.01q.21.13.09.35-25.07 47.11-22.08 100.45c3.95 70.35 42.5 137.77 95.42 182.83q46.15 39.31 105.09 57.03 9.57 2.88 19.8 5.04 22.6 4.78 45.73 6.88c55.83 5.07 112.01-7.28 151.69-47.92q9.27-9.48 16.76-19.51 1.58-2.11.24.16c-.49.82-1.29 1.72-1.78 2.64q-15.04 28.23-32.63 49.44-47.58 57.4-121.86 70.91c-33.85 6.17-69.1 4.85-103.42-1.09q-9.79-1.7-19.16-4.67-26.63-8.45-49.98-20.65-54.62-28.51-93.05-76.22c-34.65-43-56.4-97.2-55.76-152.12q.47-40.34 15.81-77.01zm-178.06-28.06q0-.07 0-.07.12 0 0 0 0 0 0 .01.09.4-.11.74-16.79 29.18-26.4 60.08c-18.42 59.2-18.58 123.22-2.86 183.26 18.37 70.12 56.34 133.72 106.85 185.44q28.04 28.69 62.01 53.6 7.87 5.77 15.77 10.87 26.41 17.05 49.37 28.4c89.86 44.42 194.47 60.21 291.44 33.57 70.13-19.26 132.38-59.98 174.12-119.12q1.25-1.77.54.28-2.12 6.21-4.65 12.16c-37 87.31-108.67 156.4-197.86 188.78q-46.25 16.8-95.84 21.84c-50.44 5.12-102.04 2.43-151.49-6.39-5.58-1-11.37-3.17-16.96-4.91-74.58-23.21-142.82-64.99-196.79-121.49-9.06-9.49-18.35-17.91-26.29-28.42q-13.44-17.77-26.1-37.11-24.82-37.89-40.38-79.07c-35.84-94.78-33.3-206.33 22.9-293.32q5.44-8.42 11.25-16.61 25.79-36.36 51.44-72.41.04-.05.04-.11zM677.39 1156.1q-52.43-2.03-109.5-12.41-4.04-.73-8.37-2-15.14-4.45-30.27-9.49-41.07-13.69-67.07-26.17-4.88-2.34-10.47-4.87-6.31-2.85-10.42-5.02l-24.38-12.89q-66.02-37.14-121.53-88.23c-9.33-8.59-19.13-18.58-28.98-27.89-5.06-4.77-9.33-10.5-14.05-15.85q-27.15-30.8-46.07-57.83-42.6-60.85-69.31-131.2Q111.45 695.03 104.6 624q-4.83-50.1 1.64-100.74 11.41-89.16 59.96-163.91 5.11-7.86 11.72-16.19 35.05-44.14 68.13-86.19 2.4-3.05.64.41c-24.69 48.61-39.43 101.28-43.85 155.86-4.14 51.07.23 102.22 12.2 152.33 22.43 93.96 69.9 179.95 135.39 251.55q23.73 25.93 48.64 48.01 84.01 74.44 188.06 116.31 13.24 5.32 30.86 11.81 7.42 2.73 34.14 10.33 9.61 2.74 19.09 4.76 57.12 12.21 115.71 14.67 38.49 1.62 79.91-2.28 41.08-3.87 79.55-13.48c56.34-14.08 109.58-38.31 156.32-73.31q39.67-29.7 71.19-69.81.45-.57 1-1.05.42-.37.21.15-5.65 13.5-12.06 25.93-29.65 57.43-75.64 107.52-77.44 84.36-183.65 124.98c-72.35 27.67-149.41 37.42-226.37 34.44z" fill="#2e64a4"/></svg>