<?xml version="1.0" encoding="UTF-8" standalone="no"?>
<!DOCTYPE svg PUBLIC "-//W3C//DTD SVG 1.1//EN" "http://www.w3.org/Graphics/SVG/1.1/DTD/svg11.dtd">
<svg xmlns="http://www.w3.org/2000/svg" version="1.1" viewBox="0.00 0.00 1300.00 1300.00">
<g stroke-width="2.00" fill="none" stroke-linecap="butt">
<path stroke="#97b2d2" vector-effect="non-scaling-stroke" d="
  M 709.18 181.25
  Q 693.84 217.92 693.37 258.26
  C 692.73 313.18 714.48 367.38 749.13 410.38
  Q 787.56 458.09 842.18 486.60
  Q 865.53 498.80 892.16 507.25
  Q 901.53 510.22 911.32 511.92
  C 945.64 517.86 980.89 519.18 1014.74 513.01
  Q 1089.02 499.50 1136.60 442.10
  Q 1154.19 420.89 1169.23 392.66
  C 1169.72 391.74 1170.52 390.84 1171.01 390.02
  Q 1172.35 387.75 1170.77 389.86
  Q 1163.28 399.89 1154.01 409.37
  C 1114.33 450.01 1058.15 462.36 1002.32 457.29
  Q 979.19 455.19 956.59 450.41
  Q 946.36 448.25 936.79 445.37
  Q 877.85 427.65 831.70 388.34
  C 778.78 343.28 740.23 275.86 736.28 205.51
  Q 733.29 152.17 758.36 105.06
  Q 758.48 104.84 758.27 104.71
  L 758.26 104.71
  Q 758.08 104.59 757.95 104.78
  Q 746.29 120.92 734.61 136.97
  C 724.41 150.99 715.70 165.65 709.18 181.25"
/>
<path stroke="#97b2d2" vector-effect="non-scaling-stroke" d="
  M 531.08 153.30
  Q 505.43 189.35 479.64 225.71
  Q 473.83 233.90 468.39 242.32
  C 412.19 329.31 409.65 440.86 445.49 535.64
  Q 461.05 576.82 485.87 614.71
  Q 498.53 634.05 511.97 651.82
  C 519.91 662.33 529.20 670.75 538.26 680.24
  C 592.23 736.74 660.47 778.52 735.05 801.73
  C 740.64 803.47 746.43 805.64 752.01 806.64
  C 801.46 815.46 853.06 818.15 903.50 813.03
  Q 953.09 807.99 999.34 791.19
  C 1088.53 758.81 1160.20 689.72 1197.20 602.41
  Q 1199.73 596.46 1201.85 590.25
  Q 1202.56 588.20 1201.31 589.97
  C 1159.57 649.11 1097.32 689.83 1027.19 709.09
  C 930.22 735.73 825.61 719.94 735.75 675.52
  Q 712.79 664.17 686.38 647.12
  Q 678.48 642.02 670.61 636.25
  Q 636.64 611.34 608.60 582.65
  C 558.09 530.93 520.12 467.33 501.75 397.21
  C 486.03 337.17 486.19 273.15 504.61 213.95
  Q 514.22 183.05 531.01 153.87
  Q 531.21 153.53 531.12 153.13
  Q 531.12 153.12 531.12 153.12
  Q 531.24 153.12 531.12 153.12
  Q 531.12 153.12 531.12 153.19
  Q 531.12 153.25 531.08 153.30"
/>
<path stroke="#97b2d2" vector-effect="non-scaling-stroke" d="
  M 677.39 1156.10
  C 754.35 1159.08 831.41 1149.33 903.76 1121.66
  Q 1009.97 1081.04 1087.41 996.68
  Q 1133.40 946.59 1163.05 889.16
  Q 1169.46 876.73 1175.11 863.23
  Q 1175.32 862.71 1174.90 863.08
  Q 1174.35 863.56 1173.90 864.13
  Q 1142.38 904.24 1102.71 933.94
  C 1055.97 968.94 1002.73 993.17 946.39 1007.25
  Q 907.92 1016.86 866.84 1020.73
  Q 825.42 1024.63 786.93 1023.01
  Q 728.34 1020.55 671.22 1008.34
  Q 661.74 1006.32 652.13 1003.58
  Q 625.41 995.98 617.99 993.25
  Q 600.37 986.76 587.13 981.44
  Q 483.08 939.57 399.07 865.13
  Q 374.16 843.05 350.43 817.12
  C 284.94 745.52 237.47 659.53 215.04 565.57
  C 203.07 515.46 198.70 464.31 202.84 413.24
  C 207.26 358.66 222.00 305.99 246.69 257.38
  Q 248.45 253.92 246.05 256.97
  Q 212.97 299.02 177.92 343.16
  Q 171.31 351.49 166.20 359.35
  Q 117.65 434.10 106.24 523.26
  Q 99.77 573.90 104.60 624.00
  Q 111.45 695.03 136.97 762.25
  Q 163.68 832.60 206.28 893.45
  Q 225.20 920.48 252.35 951.28
  C 257.07 956.63 261.34 962.36 266.40 967.13
  C 276.25 976.44 286.05 986.43 295.38 995.02
  Q 350.89 1046.11 416.91 1083.25
  C 424.37 1087.45 433.02 1091.76 441.29 1096.14
  Q 445.40 1098.31 451.71 1101.16
  Q 457.30 1103.69 462.18 1106.03
  Q 488.18 1118.51 529.25 1132.20
  Q 544.38 1137.24 559.52 1141.69
  Q 563.85 1142.96 567.89 1143.69
  Q 624.96 1154.07 677.39 1156.10"
/>
</g>
<path fill="#ffffff" d="
  M 0.00 0.00
  L 1300.00 0.00
  L 1300.00 1300.00
  L 0.00 1300.00
  L 0.00 0.00
  Z
  M 709.18 181.25
  Q 693.84 217.92 693.37 258.26
  C 692.73 313.18 714.48 367.38 749.13 410.38
  Q 787.56 458.09 842.18 486.60
  Q 865.53 498.80 892.16 507.25
  Q 901.53 510.22 911.32 511.92
  C 945.64 517.86 980.89 519.18 1014.74 513.01
  Q 1089.02 499.50 1136.60 442.10
  Q 1154.19 420.89 1169.23 392.66
  C 1169.72 391.74 1170.52 390.84 1171.01 390.02
  Q 1172.35 387.75 1170.77 389.86
  Q 1163.28 399.89 1154.01 409.37
  C 1114.33 450.01 1058.15 462.36 1002.32 457.29
  Q 979.19 455.19 956.59 450.41
  Q 946.36 448.25 936.79 445.37
  Q 877.85 427.65 831.70 388.34
  C 778.78 343.28 740.23 275.86 736.28 205.51
  Q 733.29 152.17 758.36 105.06
  Q 758.48 104.84 758.27 104.71
  L 758.26 104.71
  Q 758.08 104.59 757.95 104.78
  Q 746.29 120.92 734.61 136.97
  C 724.41 150.99 715.70 165.65 709.18 181.25
  Z
  M 531.08 153.30
  Q 505.43 189.35 479.64 225.71
  Q 473.83 233.90 468.39 242.32
  C 412.19 329.31 409.65 440.86 445.49 535.64
  Q 461.05 576.82 485.87 614.71
  Q 498.53 634.05 511.97 651.82
  C 519.91 662.33 529.20 670.75 538.26 680.24
  C 592.23 736.74 660.47 778.52 735.05 801.73
  C 740.64 803.47 746.43 805.64 752.01 806.64
  C 801.46 815.46 853.06 818.15 903.50 813.03
  Q 953.09 807.99 999.34 791.19
  C 1088.53 758.81 1160.20 689.72 1197.20 602.41
  Q 1199.73 596.46 1201.85 590.25
  Q 1202.56 588.20 1201.31 589.97
  C 1159.57 649.11 1097.32 689.83 1027.19 709.09
  C 930.22 735.73 825.61 719.94 735.75 675.52
  Q 712.79 664.17 686.38 647.12
  Q 678.48 642.02 670.61 636.25
  Q 636.64 611.34 608.60 582.65
  C 558.09 530.93 520.12 467.33 501.75 397.21
  C 486.03 337.17 486.19 273.15 504.61 213.95
  Q 514.22 183.05 531.01 153.87
  Q 531.21 153.53 531.12 153.13
  Q 531.12 153.12 531.12 153.12
  Q 531.24 153.12 531.12 153.12
  Q 531.12 153.12 531.12 153.19
  Q 531.12 153.25 531.08 153.30
  Z
  M 677.39 1156.10
  C 754.35 1159.08 831.41 1149.33 903.76 1121.66
  Q 1009.97 1081.04 1087.41 996.68
  Q 1133.40 946.59 1163.05 889.16
  Q 1169.46 876.73 1175.11 863.23
  Q 1175.32 862.71 1174.90 863.08
  Q 1174.35 863.56 1173.90 864.13
  Q 1142.38 904.24 1102.71 933.94
  C 1055.97 968.94 1002.73 993.17 946.39 1007.25
  Q 907.92 1016.86 866.84 1020.73
  Q 825.42 1024.63 786.93 1023.01
  Q 728.34 1020.55 671.22 1008.34
  Q 661.74 1006.32 652.13 1003.58
  Q 625.41 995.98 617.99 993.25
  Q 600.37 986.76 587.13 981.44
  Q 483.08 939.57 399.07 865.13
  Q 374.16 843.05 350.43 817.12
  C 284.94 745.52 237.47 659.53 215.04 565.57
  C 203.07 515.46 198.70 464.31 202.84 413.24
  C 207.26 358.66 222.00 305.99 246.69 257.38
  Q 248.45 253.92 246.05 256.97
  Q 212.97 299.02 177.92 343.16
  Q 171.31 351.49 166.20 359.35
  Q 117.65 434.10 106.24 523.26
  Q 99.77 573.90 104.60 624.00
  Q 111.45 695.03 136.97 762.25
  Q 163.68 832.60 206.28 893.45
  Q 225.20 920.48 252.35 951.28
  C 257.07 956.63 261.34 962.36 266.40 967.13
  C 276.25 976.44 286.05 986.43 295.38 995.02
  Q 350.89 1046.11 416.91 1083.25
  C 424.37 1087.45 433.02 1091.76 441.29 1096.14
  Q 445.40 1098.31 451.71 1101.16
  Q 457.30 1103.69 462.18 1106.03
  Q 488.18 1118.51 529.25 1132.20
  Q 544.38 1137.24 559.52 1141.69
  Q 563.85 1142.96 567.89 1143.69
  Q 624.96 1154.07 677.39 1156.10
  Z"
/>
<path fill="#2e64a4" d="
  M 709.18 181.25
  C 715.70 165.65 724.41 150.99 734.61 136.97
  Q 746.29 120.92 757.95 104.78
  Q 758.08 104.59 758.26 104.71
  L 758.27 104.71
  Q 758.48 104.84 758.36 105.06
  Q 733.29 152.17 736.28 205.51
  C 740.23 275.86 778.78 343.28 831.70 388.34
  Q 877.85 427.65 936.79 445.37
  Q 946.36 448.25 956.59 450.41
  Q 979.19 455.19 1002.32 457.29
  C 1058.15 462.36 1114.33 450.01 1154.01 409.37
  Q 1163.28 399.89 1170.77 389.86
  Q 1172.35 387.75 1171.01 390.02
  C 1170.52 390.84 1169.72 391.74 1169.23 392.66
  Q 1154.19 420.89 1136.60 442.10
  Q 1089.02 499.50 1014.74 513.01
  C 980.89 519.18 945.64 517.86 911.32 511.92
  Q 901.53 510.22 892.16 507.25
  Q 865.53 498.80 842.18 486.60
  Q 787.56 458.09 749.13 410.38
  C 714.48 367.38 692.73 313.18 693.37 258.26
  Q 693.84 217.92 709.18 181.25
  Z"
/>
<path fill="#2e64a4" d="
  M 531.12 153.19
  Q 531.12 153.12 531.12 153.12
  Q 531.24 153.12 531.12 153.12
  Q 531.12 153.12 531.12 153.13
  Q 531.21 153.53 531.01 153.87
  Q 514.22 183.05 504.61 213.95
  C 486.19 273.15 486.03 337.17 501.75 397.21
  C 520.12 467.33 558.09 530.93 608.60 582.65
  Q 636.64 611.34 670.61 636.25
  Q 678.48 642.02 686.38 647.12
  Q 712.79 664.17 735.75 675.52
  C 825.61 719.94 930.22 735.73 1027.19 709.09
  C 1097.32 689.83 1159.57 649.11 1201.31 589.97
  Q 1202.56 588.20 1201.85 590.25
  Q 1199.73 596.46 1197.20 602.41
  C 1160.20 689.72 1088.53 758.81 999.34 791.19
  Q 953.09 807.99 903.50 813.03
  C 853.06 818.15 801.46 815.46 752.01 806.64
  C 746.43 805.64 740.64 803.47 735.05 801.73
  C 660.47 778.52 592.23 736.74 538.26 680.24
  C 529.20 670.75 519.91 662.33 511.97 651.82
  Q 498.53 634.05 485.87 614.71
  Q 461.05 576.82 445.49 535.64
  C 409.65 440.86 412.19 329.31 468.39 242.32
  Q 473.83 233.90 479.64 225.71
  Q 505.43 189.35 531.08 153.30
  Q 531.12 153.25 531.12 153.19
  Z"
/>
<path fill="#2e64a4" d="
  M 677.39 1156.10
  Q 624.96 1154.07 567.89 1143.69
  Q 563.85 1142.96 559.52 1141.69
  Q 544.38 1137.24 529.25 1132.20
  Q 488.18 1118.51 462.18 1106.03
  Q 457.30 1103.69 451.71 1101.16
  Q 445.40 1098.31 441.29 1096.14
  C 433.02 1091.76 424.37 1087.45 416.91 1083.25
  Q 350.89 1046.11 295.38 995.02
  C 286.05 986.43 276.25 976.44 266.40 967.13
  C 261.34 962.36 257.07 956.63 252.35 951.28
  Q 225.20 920.48 206.28 893.45
  Q 163.68 832.60 136.97 762.25
  Q 111.45 695.03 104.60 624.00
  Q 99.77 573.90 106.24 523.26
  Q 117.65 434.10 166.20 359.35
  Q 171.31 351.49 177.92 343.16
  Q 212.97 299.02 246.05 256.97
  Q 248.45 253.92 246.69 257.38
  C 222.00 305.99 207.26 358.66 202.84 413.24
  C 198.70 464.31 203.07 515.46 215.04 565.57
  C 237.47 659.53 284.94 745.52 350.43 817.12
  Q 374.16 843.05 399.07 865.13
  Q 483.08 939.57 587.13 981.44
  Q 600.37 986.76 617.99 993.25
  Q 625.41 995.98 652.13 1003.58
  Q 661.74 1006.32 671.22 1008.34
  Q 728.34 1020.55 786.93 1023.01
  Q 825.42 1024.63 866.84 1020.73
  Q 907.92 1016.86 946.39 1007.25
  C 1002.73 993.17 1055.97 968.94 1102.71 933.94
  Q 1142.38 904.24 1173.90 864.13
  Q 1174.35 863.56 1174.90 863.08
  Q 1175.32 862.71 1175.11 863.23
  Q 1169.46 876.73 1163.05 889.16
  Q 1133.40 946.59 1087.41 996.68
  Q 1009.97 1081.04 903.76 1121.66
  C 831.41 1149.33 754.35 1159.08 677.39 1156.10
  Z"
/>
</svg>
