<?xml version="1.0" encoding="UTF-8" standalone="no"?>
<!DOCTYPE svg PUBLIC "-//W3C//DTD SVG 1.1//EN" "http://www.w3.org/Graphics/SVG/1.1/DTD/svg11.dtd">
<svg xmlns="http://www.w3.org/2000/svg" version="1.1" viewBox="0.00 0.00 923.00 830.00">
<g stroke-width="2.00" fill="none" stroke-linecap="butt">
<path stroke="#b1edfd" vector-effect="non-scaling-stroke" d="
  M 460.35 92.48
  C 436.21 70.82 411.51 51.10 383.61 34.43
  C 358.94 19.68 331.31 7.88 302.63 4.24
  C 250.36 -2.40 210.23 26.43 194.38 75.52
  Q 186.78 99.06 185.08 123.76
  C 182.40 162.69 187.11 202.62 194.95 239.52
  A 0.57 0.57 0.0 0 1 194.55 240.19
  C 177.66 245.31 160.90 250.41 142.22 257.63
  C 83.16 280.47 -6.29 329.31 0.92 406.26
  C 4.57 445.16 33.75 476.30 64.40 497.59
  C 100.47 522.64 142.11 539.93 184.11 552.27
  A 1.18 1.17 16.0 0 1 184.91 553.70
  C 172.84 597.34 165.12 643.54 165.77 689.00
  C 166.52 741.18 183.31 802.92 240.07 820.52
  C 265.49 828.39 294.21 824.43 318.74 815.68
  C 351.68 803.93 382.26 784.66 409.79 762.77
  Q 436.30 741.69 460.33 717.94
  A 0.51 0.51 0.0 0 1 461.05 717.94
  C 499.46 756.16 544.26 792.47 594.95 812.85
  C 615.40 821.08 637.62 825.86 659.74 824.37
  C 691.79 822.21 718.57 804.89 734.38 777.15
  C 749.32 750.94 755.02 719.85 755.56 690.00
  C 756.39 644.23 748.50 597.48 736.26 553.47
  A 0.78 0.78 0.0 0 1 736.78 552.52
  C 770.72 542.22 804.09 529.15 835.03 511.61
  C 862.15 496.24 888.07 475.68 905.07 449.35
  C 920.71 425.12 925.18 395.53 915.69 368.17
  C 903.59 333.31 872.59 306.76 841.81 288.23
  C 806.17 266.77 767.15 251.78 727.12 240.31
  A 1.10 1.09 -76.0 0 1 726.35 239.02
  C 733.38 206.36 737.62 172.54 737.06 139.00
  C 736.55 108.01 730.37 73.08 713.56 46.97
  C 693.27 15.44 660.75 0.61 623.50 3.79
  C 585.85 7.00 549.72 25.21 518.85 46.38
  Q 488.46 67.22 461.10 92.47
  A 0.55 0.55 0.0 0 1 460.35 92.48"
/>
<path stroke="#b1edfd" vector-effect="non-scaling-stroke" d="
  M 266.01 50.60
  C 230.93 65.70 226.23 121.20 227.34 153.25
  Q 228.40 183.99 233.96 214.25
  Q 235.31 221.60 236.62 228.92
  A 0.59 0.58 -10.9 0 0 237.32 229.39
  Q 295.10 216.69 354.24 211.11
  Q 355.69 210.97 356.55 209.81
  Q 387.88 167.74 423.60 129.35
  Q 426.14 126.63 429.11 123.74
  A 0.95 0.95 0.0 0 0 429.09 122.36
  C 397.21 93.17 361.01 66.02 319.64 52.00
  C 302.83 46.30 282.79 43.38 266.01 50.60"
/>
<path stroke="#b1edfd" vector-effect="non-scaling-stroke" d="
  M 580.19 60.40
  C 547.73 76.00 518.59 98.10 492.05 122.40
  Q 491.49 122.92 492.02 123.48
  Q 530.72 163.99 564.13 209.35
  Q 565.40 211.07 567.25 211.25
  Q 625.92 216.77 683.49 229.23
  Q 684.46 229.44 684.66 228.47
  C 690.96 198.24 694.67 167.52 693.86 136.75
  C 693.23 112.84 688.38 83.97 673.69 65.06
  C 650.66 35.42 608.65 46.72 580.19 60.40"
/>
<path stroke="#b1edfd" vector-effect="non-scaling-stroke" d="
  M 414.05 207.24
  Q 460.88 205.38 507.72 207.23
  A 0.23 0.22 71.5 0 0 507.90 206.86
  Q 485.71 179.07 461.12 153.39
  A 0.68 0.67 44.7 0 0 460.15 153.39
  Q 435.75 178.92 413.67 206.49
  Q 413.04 207.28 414.05 207.24"
/>
<path stroke="#b1edfd" vector-effect="non-scaling-stroke" d="
  M 376.14 543.27
  C 432.24 547.41 489.28 547.90 545.33 543.24
  A 2.02 2.01 14.3 0 0 546.85 542.34
  Q 592.55 472.48 627.31 397.01
  C 627.96 395.59 628.39 394.94 627.60 393.38
  Q 591.39 321.76 545.15 256.17
  C 544.24 254.88 542.68 252.17 541.00 252.05
  Q 462.32 246.43 383.62 251.81
  C 381.25 251.98 379.22 251.71 377.67 253.91
  Q 330.29 320.82 293.40 393.92
  A 1.96 1.95 -44.1 0 0 293.37 395.59
  Q 328.27 472.00 374.36 542.22
  A 2.35 2.34 -14.3 0 0 376.14 543.27"
/>
<path stroke="#b1edfd" vector-effect="non-scaling-stroke" d="
  M 271.84 342.14
  C 287.97 313.95 304.16 286.14 322.01 259.03
  A 0.51 0.51 0.0 0 0 321.51 258.24
  Q 284.35 263.13 247.72 271.10
  A 0.56 0.55 -14.5 0 0 247.30 271.80
  Q 257.59 307.45 270.96 342.08
  A 0.49 0.49 0.0 0 0 271.84 342.14"
/>
<path stroke="#b1edfd" vector-effect="non-scaling-stroke" d="
  M 650.06 342.47
  C 659.22 319.63 667.12 295.90 673.82 272.23
  A 1.03 1.03 0.0 0 0 673.05 270.94
  Q 636.62 263.13 599.69 258.17
  A 0.50 0.50 0.0 0 0 599.20 258.94
  Q 626.04 299.71 649.50 342.51
  A 0.31 0.31 0.0 0 0 650.06 342.47"
/>
<path stroke="#b1edfd" vector-effect="non-scaling-stroke" d="
  M 243.71 397.34
  C 244.62 395.43 245.75 394.21 244.80 392.00
  C 229.44 356.10 215.71 319.60 205.74 282.76
  A 0.98 0.98 0.0 0 0 204.52 282.08
  C 175.25 290.54 146.81 301.15 119.61 314.91
  C 77.56 336.18 13.34 382.51 60.31 436.94
  C 73.68 452.43 91.62 465.49 109.06 475.19
  C 136.64 490.54 166.18 501.88 196.81 511.24
  Q 197.67 511.50 197.94 510.64
  Q 200.89 501.27 204.25 491.98
  Q 221.72 443.72 243.71 397.34"
/>
<path stroke="#b1edfd" vector-effect="non-scaling-stroke" d="
  M 876.40 387.76
  C 870.33 360.37 841.27 337.71 818.69 324.31
  C 786.94 305.47 751.94 292.15 716.32 281.97
  Q 715.66 281.78 715.49 282.44
  Q 715.20 283.62 714.75 285.18
  Q 698.83 340.38 676.19 392.75
  A 2.48 2.48 0.0 0 0 676.23 394.81
  Q 703.52 451.27 723.46 510.72
  A 0.91 0.91 0.0 0 0 724.58 511.30
  C 755.93 501.75 786.55 489.86 815.15 473.39
  C 843.28 457.19 884.79 425.67 876.40 387.76"
/>
<path stroke="#b1edfd" vector-effect="non-scaling-stroke" d="
  M 268.77 446.01
  C 258.14 470.90 248.13 496.10 239.55 521.75
  A 0.90 0.89 15.8 0 0 240.20 522.91
  Q 279.38 531.80 319.19 537.17
  A 0.52 0.52 0.0 0 0 319.70 536.39
  Q 292.67 492.31 269.70 445.98
  A 0.51 0.51 0.0 0 0 268.77 446.01"
/>
<path stroke="#b1edfd" vector-effect="non-scaling-stroke" d="
  M 651.57 446.09
  C 636.14 477.02 619.39 507.15 601.47 536.69
  Q 601.10 537.30 601.80 537.21
  C 628.45 533.92 655.20 528.79 681.21 522.93
  Q 682.04 522.74 681.77 521.93
  Q 668.81 483.37 652.45 446.11
  A 0.49 0.49 0.0 0 0 651.57 446.09"
/>
<path stroke="#b1edfd" vector-effect="non-scaling-stroke" d="
  M 235.31 769.70
  C 273.38 803.76 344.61 758.41 375.88 734.59
  Q 404.74 712.60 430.28 687.12
  A 0.87 0.87 0.0 0 0 430.32 685.92
  Q 387.70 638.21 351.49 585.25
  Q 350.68 584.07 349.25 583.93
  Q 287.44 578.08 227.05 563.96
  Q 226.73 563.88 226.64 564.20
  Q 216.80 600.08 211.87 637.01
  C 208.38 663.16 207.48 689.66 211.14 715.48
  C 213.83 734.47 220.77 756.69 235.31 769.70"
/>
<path stroke="#b1edfd" vector-effect="non-scaling-stroke" d="
  M 698.20 753.50
  C 710.07 730.98 713.05 704.21 712.46 679.25
  C 711.55 640.10 704.78 602.63 694.85 564.86
  A 1.07 1.06 -13.8 0 0 693.57 564.09
  Q 633.74 578.05 572.41 583.98
  Q 570.46 584.17 569.53 585.53
  Q 533.36 638.43 491.13 685.72
  Q 490.40 686.54 491.17 687.30
  Q 518.70 714.69 549.10 737.39
  C 584.29 763.68 666.57 813.46 698.20 753.50"
/>
<path stroke="#b1edfd" vector-effect="non-scaling-stroke" d="
  M 513.82 588.20
  C 478.33 589.65 443.01 589.76 407.41 588.21
  A 0.46 0.46 0.0 0 0 406.95 588.81
  Q 407.19 589.59 407.80 590.42
  Q 432.41 623.47 460.09 654.54
  A 0.84 0.83 44.8 0 0 461.34 654.54
  Q 489.26 622.96 514.26 589.03
  A 0.52 0.52 0.0 0 0 513.82 588.20"
/>
<path stroke="#b1edfd" vector-effect="non-scaling-stroke" d="
  M 546.77 397.96
  A 86.13 86.13 0.0 0 0 460.64 311.83
  A 86.13 86.13 0.0 0 0 374.51 397.96
  A 86.13 86.13 0.0 0 0 460.64 484.09
  A 86.13 86.13 0.0 0 0 546.77 397.96"
/>
</g>
<path fill="#ffffff" d="
  M 0.00 0.00
  L 923.00 0.00
  L 923.00 830.00
  L 0.00 830.00
  L 0.00 0.00
  Z
  M 460.35 92.48
  C 436.21 70.82 411.51 51.10 383.61 34.43
  C 358.94 19.68 331.31 7.88 302.63 4.24
  C 250.36 -2.40 210.23 26.43 194.38 75.52
  Q 186.78 99.06 185.08 123.76
  C 182.40 162.69 187.11 202.62 194.95 239.52
  A 0.57 0.57 0.0 0 1 194.55 240.19
  C 177.66 245.31 160.90 250.41 142.22 257.63
  C 83.16 280.47 -6.29 329.31 0.92 406.26
  C 4.57 445.16 33.75 476.30 64.40 497.59
  C 100.47 522.64 142.11 539.93 184.11 552.27
  A 1.18 1.17 16.0 0 1 184.91 553.70
  C 172.84 597.34 165.12 643.54 165.77 689.00
  C 166.52 741.18 183.31 802.92 240.07 820.52
  C 265.49 828.39 294.21 824.43 318.74 815.68
  C 351.68 803.93 382.26 784.66 409.79 762.77
  Q 436.30 741.69 460.33 717.94
  A 0.51 0.51 0.0 0 1 461.05 717.94
  C 499.46 756.16 544.26 792.47 594.95 812.85
  C 615.40 821.08 637.62 825.86 659.74 824.37
  C 691.79 822.21 718.57 804.89 734.38 777.15
  C 749.32 750.94 755.02 719.85 755.56 690.00
  C 756.39 644.23 748.50 597.48 736.26 553.47
  A 0.78 0.78 0.0 0 1 736.78 552.52
  C 770.72 542.22 804.09 529.15 835.03 511.61
  C 862.15 496.24 888.07 475.68 905.07 449.35
  C 920.71 425.12 925.18 395.53 915.69 368.17
  C 903.59 333.31 872.59 306.76 841.81 288.23
  C 806.17 266.77 767.15 251.78 727.12 240.31
  A 1.10 1.09 -76.0 0 1 726.35 239.02
  C 733.38 206.36 737.62 172.54 737.06 139.00
  C 736.55 108.01 730.37 73.08 713.56 46.97
  C 693.27 15.44 660.75 0.61 623.50 3.79
  C 585.85 7.00 549.72 25.21 518.85 46.38
  Q 488.46 67.22 461.10 92.47
  A 0.55 0.55 0.0 0 1 460.35 92.48
  Z"
/>
<path fill="#62dafb" d="
  M 460.35 92.48
  A 0.55 0.55 0.0 0 0 461.10 92.47
  Q 488.46 67.22 518.85 46.38
  C 549.72 25.21 585.85 7.00 623.50 3.79
  C 660.75 0.61 693.27 15.44 713.56 46.97
  C 730.37 73.08 736.55 108.01 737.06 139.00
  C 737.62 172.54 733.38 206.36 726.35 239.02
  A 1.10 1.09 -76.0 0 0 727.12 240.31
  C 767.15 251.78 806.17 266.77 841.81 288.23
  C 872.59 306.76 903.59 333.31 915.69 368.17
  C 925.18 395.53 920.71 425.12 905.07 449.35
  C 888.07 475.68 862.15 496.24 835.03 511.61
  C 804.09 529.15 770.72 542.22 736.78 552.52
  A 0.78 0.78 0.0 0 0 736.26 553.47
  C 748.50 597.48 756.39 644.23 755.56 690.00
  C 755.02 719.85 749.32 750.94 734.38 777.15
  C 718.57 804.89 691.79 822.21 659.74 824.37
  C 637.62 825.86 615.40 821.08 594.95 812.85
  C 544.26 792.47 499.46 756.16 461.05 717.94
  A 0.51 0.51 0.0 0 0 460.33 717.94
  Q 436.30 741.69 409.79 762.77
  C 382.26 784.66 351.68 803.93 318.74 815.68
  C 294.21 824.43 265.49 828.39 240.07 820.52
  C 183.31 802.92 166.52 741.18 165.77 689.00
  C 165.12 643.54 172.84 597.34 184.91 553.70
  A 1.18 1.17 16.0 0 0 184.11 552.27
  C 142.11 539.93 100.47 522.64 64.40 497.59
  C 33.75 476.30 4.57 445.16 0.92 406.26
  C -6.29 329.31 83.16 280.47 142.22 257.63
  C 160.90 250.41 177.66 245.31 194.55 240.19
  A 0.57 0.57 0.0 0 0 194.95 239.52
  C 187.11 202.62 182.40 162.69 185.08 123.76
  Q 186.78 99.06 194.38 75.52
  C 210.23 26.43 250.36 -2.40 302.63 4.24
  C 331.31 7.88 358.94 19.68 383.61 34.43
  C 411.51 51.10 436.21 70.82 460.35 92.48
  Z
  M 266.01 50.60
  C 230.93 65.70 226.23 121.20 227.34 153.25
  Q 228.40 183.99 233.96 214.25
  Q 235.31 221.60 236.62 228.92
  A 0.59 0.58 -10.9 0 0 237.32 229.39
  Q 295.10 216.69 354.24 211.11
  Q 355.69 210.97 356.55 209.81
  Q 387.88 167.74 423.60 129.35
  Q 426.14 126.63 429.11 123.74
  A 0.95 0.95 0.0 0 0 429.09 122.36
  C 397.21 93.17 361.01 66.02 319.64 52.00
  C 302.83 46.30 282.79 43.38 266.01 50.60
  Z
  M 580.19 60.40
  C 547.73 76.00 518.59 98.10 492.05 122.40
  Q 491.49 122.92 492.02 123.48
  Q 530.72 163.99 564.13 209.35
  Q 565.40 211.07 567.25 211.25
  Q 625.92 216.77 683.49 229.23
  Q 684.46 229.44 684.66 228.47
  C 690.96 198.24 694.67 167.52 693.86 136.75
  C 693.23 112.84 688.38 83.97 673.69 65.06
  C 650.66 35.42 608.65 46.72 580.19 60.40
  Z
  M 414.05 207.24
  Q 460.88 205.38 507.72 207.23
  A 0.23 0.22 71.5 0 0 507.90 206.86
  Q 485.71 179.07 461.12 153.39
  A 0.68 0.67 44.7 0 0 460.15 153.39
  Q 435.75 178.92 413.67 206.49
  Q 413.04 207.28 414.05 207.24
  Z
  M 376.14 543.27
  C 432.24 547.41 489.28 547.90 545.33 543.24
  A 2.02 2.01 14.3 0 0 546.85 542.34
  Q 592.55 472.48 627.31 397.01
  C 627.96 395.59 628.39 394.94 627.60 393.38
  Q 591.39 321.76 545.15 256.17
  C 544.24 254.88 542.68 252.17 541.00 252.05
  Q 462.32 246.43 383.62 251.81
  C 381.25 251.98 379.22 251.71 377.67 253.91
  Q 330.29 320.82 293.40 393.92
  A 1.96 1.95 -44.1 0 0 293.37 395.59
  Q 328.27 472.00 374.36 542.22
  A 2.35 2.34 -14.3 0 0 376.14 543.27
  Z
  M 271.84 342.14
  C 287.97 313.95 304.16 286.14 322.01 259.03
  A 0.51 0.51 0.0 0 0 321.51 258.24
  Q 284.35 263.13 247.72 271.10
  A 0.56 0.55 -14.5 0 0 247.30 271.80
  Q 257.59 307.45 270.96 342.08
  A 0.49 0.49 0.0 0 0 271.84 342.14
  Z
  M 650.06 342.47
  C 659.22 319.63 667.12 295.90 673.82 272.23
  A 1.03 1.03 0.0 0 0 673.05 270.94
  Q 636.62 263.13 599.69 258.17
  A 0.50 0.50 0.0 0 0 599.20 258.94
  Q 626.04 299.71 649.50 342.51
  A 0.31 0.31 0.0 0 0 650.06 342.47
  Z
  M 243.71 397.34
  C 244.62 395.43 245.75 394.21 244.80 392.00
  C 229.44 356.10 215.71 319.60 205.74 282.76
  A 0.98 0.98 0.0 0 0 204.52 282.08
  C 175.25 290.54 146.81 301.15 119.61 314.91
  C 77.56 336.18 13.34 382.51 60.31 436.94
  C 73.68 452.43 91.62 465.49 109.06 475.19
  C 136.64 490.54 166.18 501.88 196.81 511.24
  Q 197.67 511.50 197.94 510.64
  Q 200.89 501.27 204.25 491.98
  Q 221.72 443.72 243.71 397.34
  Z
  M 876.40 387.76
  C 870.33 360.37 841.27 337.71 818.69 324.31
  C 786.94 305.47 751.94 292.15 716.32 281.97
  Q 715.66 281.78 715.49 282.44
  Q 715.20 283.62 714.75 285.18
  Q 698.83 340.38 676.19 392.75
  A 2.48 2.48 0.0 0 0 676.23 394.81
  Q 703.52 451.27 723.46 510.72
  A 0.91 0.91 0.0 0 0 724.58 511.30
  C 755.93 501.75 786.55 489.86 815.15 473.39
  C 843.28 457.19 884.79 425.67 876.40 387.76
  Z
  M 268.77 446.01
  C 258.14 470.90 248.13 496.10 239.55 521.75
  A 0.90 0.89 15.8 0 0 240.20 522.91
  Q 279.38 531.80 319.19 537.17
  A 0.52 0.52 0.0 0 0 319.70 536.39
  Q 292.67 492.31 269.70 445.98
  A 0.51 0.51 0.0 0 0 268.77 446.01
  Z
  M 651.57 446.09
  C 636.14 477.02 619.39 507.15 601.47 536.69
  Q 601.10 537.30 601.80 537.21
  C 628.45 533.92 655.20 528.79 681.21 522.93
  Q 682.04 522.74 681.77 521.93
  Q 668.81 483.37 652.45 446.11
  A 0.49 0.49 0.0 0 0 651.57 446.09
  Z
  M 235.31 769.70
  C 273.38 803.76 344.61 758.41 375.88 734.59
  Q 404.74 712.60 430.28 687.12
  A 0.87 0.87 0.0 0 0 430.32 685.92
  Q 387.70 638.21 351.49 585.25
  Q 350.68 584.07 349.25 583.93
  Q 287.44 578.08 227.05 563.96
  Q 226.73 563.88 226.64 564.20
  Q 216.80 600.08 211.87 637.01
  C 208.38 663.16 207.48 689.66 211.14 715.48
  C 213.83 734.47 220.77 756.69 235.31 769.70
  Z
  M 698.20 753.50
  C 710.07 730.98 713.05 704.21 712.46 679.25
  C 711.55 640.10 704.78 602.63 694.85 564.86
  A 1.07 1.06 -13.8 0 0 693.57 564.09
  Q 633.74 578.05 572.41 583.98
  Q 570.46 584.17 569.53 585.53
  Q 533.36 638.43 491.13 685.72
  Q 490.40 686.54 491.17 687.30
  Q 518.70 714.69 549.10 737.39
  C 584.29 763.68 666.57 813.46 698.20 753.50
  Z
  M 513.82 588.20
  C 478.33 589.65 443.01 589.76 407.41 588.21
  A 0.46 0.46 0.0 0 0 406.95 588.81
  Q 407.19 589.59 407.80 590.42
  Q 432.41 623.47 460.09 654.54
  A 0.84 0.83 44.8 0 0 461.34 654.54
  Q 489.26 622.96 514.26 589.03
  A 0.52 0.52 0.0 0 0 513.82 588.20
  Z"
/>
<path fill="#ffffff" d="
  M 227.34 153.25
  C 226.23 121.20 230.93 65.70 266.01 50.60
  C 282.79 43.38 302.83 46.30 319.64 52.00
  C 361.01 66.02 397.21 93.17 429.09 122.36
  A 0.95 0.95 0.0 0 1 429.11 123.74
  Q 426.14 126.63 423.60 129.35
  Q 387.88 167.74 356.55 209.81
  Q 355.69 210.97 354.24 211.11
  Q 295.10 216.69 237.32 229.39
  A 0.59 0.58 -10.9 0 1 236.62 228.92
  Q 235.31 221.60 233.96 214.25
  Q 228.40 183.99 227.34 153.25
  Z"
/>
<path fill="#ffffff" d="
  M 580.19 60.40
  C 608.65 46.72 650.66 35.42 673.69 65.06
  C 688.38 83.97 693.23 112.84 693.86 136.75
  C 694.67 167.52 690.96 198.24 684.66 228.47
  Q 684.46 229.44 683.49 229.23
  Q 625.92 216.77 567.25 211.25
  Q 565.40 211.07 564.13 209.35
  Q 530.72 163.99 492.02 123.48
  Q 491.49 122.92 492.05 122.40
  C 518.59 98.10 547.73 76.00 580.19 60.40
  Z"
/>
<path fill="#ffffff" d="
  M 414.05 207.24
  Q 413.04 207.28 413.67 206.49
  Q 435.75 178.92 460.15 153.39
  A 0.68 0.67 44.7 0 1 461.12 153.39
  Q 485.71 179.07 507.90 206.86
  A 0.23 0.22 71.5 0 1 507.72 207.23
  Q 460.88 205.38 414.05 207.24
  Z"
/>
<path fill="#ffffff" d="
  M 545.33 543.24
  C 489.28 547.90 432.24 547.41 376.14 543.27
  A 2.35 2.34 -14.3 0 1 374.36 542.22
  Q 328.27 472.00 293.37 395.59
  A 1.96 1.95 -44.1 0 1 293.40 393.92
  Q 330.29 320.82 377.67 253.91
  C 379.22 251.71 381.25 251.98 383.62 251.81
  Q 462.32 246.43 541.00 252.05
  C 542.68 252.17 544.24 254.88 545.15 256.17
  Q 591.39 321.76 627.60 393.38
  C 628.39 394.94 627.96 395.59 627.31 397.01
  Q 592.55 472.48 546.85 542.34
  A 2.02 2.01 14.3 0 1 545.33 543.24
  Z
  M 546.77 397.96
  A 86.13 86.13 0.0 0 0 460.64 311.83
  A 86.13 86.13 0.0 0 0 374.51 397.96
  A 86.13 86.13 0.0 0 0 460.64 484.09
  A 86.13 86.13 0.0 0 0 546.77 397.96
  Z"
/>
<path fill="#ffffff" d="
  M 322.01 259.03
  C 304.16 286.14 287.97 313.95 271.84 342.14
  A 0.49 0.49 0.0 0 1 270.96 342.08
  Q 257.59 307.45 247.30 271.80
  A 0.56 0.55 -14.5 0 1 247.72 271.10
  Q 284.35 263.13 321.51 258.24
  A 0.51 0.51 0.0 0 1 322.01 259.03
  Z"
/>
<path fill="#ffffff" d="
  M 673.82 272.23
  C 667.12 295.90 659.22 319.63 650.06 342.47
  A 0.31 0.31 0.0 0 1 649.50 342.51
  Q 626.04 299.71 599.20 258.94
  A 0.50 0.50 0.0 0 1 599.69 258.17
  Q 636.62 263.13 673.05 270.94
  A 1.03 1.03 0.0 0 1 673.82 272.23
  Z"
/>
<path fill="#ffffff" d="
  M 243.71 397.34
  Q 221.72 443.72 204.25 491.98
  Q 200.89 501.27 197.94 510.64
  Q 197.67 511.50 196.81 511.24
  C 166.18 501.88 136.64 490.54 109.06 475.19
  C 91.62 465.49 73.68 452.43 60.31 436.94
  C 13.34 382.51 77.56 336.18 119.61 314.91
  C 146.81 301.15 175.25 290.54 204.52 282.08
  A 0.98 0.98 0.0 0 1 205.74 282.76
  C 215.71 319.60 229.44 356.10 244.80 392.00
  C 245.75 394.21 244.62 395.43 243.71 397.34
  Z"
/>
<path fill="#ffffff" d="
  M 818.69 324.31
  C 841.27 337.71 870.33 360.37 876.40 387.76
  C 884.79 425.67 843.28 457.19 815.15 473.39
  C 786.55 489.86 755.93 501.75 724.58 511.30
  A 0.91 0.91 0.0 0 1 723.46 510.72
  Q 703.52 451.27 676.23 394.81
  A 2.48 2.48 0.0 0 1 676.19 392.75
  Q 698.83 340.38 714.75 285.18
  Q 715.20 283.62 715.49 282.44
  Q 715.66 281.78 716.32 281.97
  C 751.94 292.15 786.94 305.47 818.69 324.31
  Z"
/>
<circle fill="#62dafb" cx="460.64" cy="397.96" r="86.13"/>
<path fill="#ffffff" d="
  M 239.55 521.75
  C 248.13 496.10 258.14 470.90 268.77 446.01
  A 0.51 0.51 0.0 0 1 269.70 445.98
  Q 292.67 492.31 319.70 536.39
  A 0.52 0.52 0.0 0 1 319.19 537.17
  Q 279.38 531.80 240.20 522.91
  A 0.90 0.89 15.8 0 1 239.55 521.75
  Z"
/>
<path fill="#ffffff" d="
  M 601.47 536.69
  C 619.39 507.15 636.14 477.02 651.57 446.09
  A 0.49 0.49 0.0 0 1 652.45 446.11
  Q 668.81 483.37 681.77 521.93
  Q 682.04 522.74 681.21 522.93
  C 655.20 528.79 628.45 533.92 601.80 537.21
  Q 601.10 537.30 601.47 536.69
  Z"
/>
<path fill="#ffffff" d="
  M 375.88 734.59
  C 344.61 758.41 273.38 803.76 235.31 769.70
  C 220.77 756.69 213.83 734.47 211.14 715.48
  C 207.48 689.66 208.38 663.16 211.87 637.01
  Q 216.80 600.08 226.64 564.20
  Q 226.73 563.88 227.05 563.96
  Q 287.44 578.08 349.25 583.93
  Q 350.68 584.07 351.49 585.25
  Q 387.70 638.21 430.32 685.92
  A 0.87 0.87 0.0 0 1 430.28 687.12
  Q 404.74 712.60 375.88 734.59
  Z"
/>
<path fill="#ffffff" d="
  M 698.20 753.50
  C 666.57 813.46 584.29 763.68 549.10 737.39
  Q 518.70 714.69 491.17 687.30
  Q 490.40 686.54 491.13 685.72
  Q 533.36 638.43 569.53 585.53
  Q 570.46 584.17 572.41 583.98
  Q 633.74 578.05 693.57 564.09
  A 1.07 1.06 -13.8 0 1 694.85 564.86
  C 704.78 602.63 711.55 640.10 712.46 679.25
  C 713.05 704.21 710.07 730.98 698.20 753.50
  Z"
/>
<path fill="#ffffff" d="
  M 407.41 588.21
  C 443.01 589.76 478.33 589.65 513.82 588.20
  A 0.52 0.52 0.0 0 1 514.26 589.03
  Q 489.26 622.96 461.34 654.54
  A 0.84 0.83 44.8 0 1 460.09 654.54
  Q 432.41 623.47 407.80 590.42
  Q 407.19 589.59 406.95 588.81
  A 0.46 0.46 0.0 0 1 407.41 588.21
  Z"
/>
</svg>
