<svg xmlns="http://www.w3.org/2000/svg" viewBox="0 0 1300 1300" xmlns:v="https://vecta.io/nano"><g fill="none" stroke="#c1ebfb" stroke-width="2"><path vector-effect="non-scaling-stroke" d="M307.66 428.7a.74.73 76.6 0 1-.52.86q-39.5 11.13-77.31 26.52c-39.24 15.97-76.95 35.92-108.8 62.58-18.31 15.32-34.81 33.37-46.33 54.43-13.63 24.9-18.55 53.36-12.82 80.87 6.94 33.35 27.93 61.46 53.2 83.9 29.3 26.01 64.07 45.78 100.24 61.56q38.98 17 78.91 28.83a.96.95-74.3 0 1 .65 1.17q-13.57 49.31-20.07 98.53c-5.74 43.54-7.34 88.82 1.86 131.8 6.26 29.22 17.81 57.17 37.67 78.6q24.42 26.37 59.91 34.45c30.24 6.89 62.55 1.61 91.64-8.68 40.19-14.22 77.16-37.07 111.14-63.51q36.57-28.46 69.5-61.27a.4.38 45 0 1 .55.01q30.97 30.93 65.37 58.08 24.02 18.96 48.86 34.35c28.82 17.85 60.16 32.58 92.63 39.88q20.87 4.69 40.54 4.12c38.83-1.13 72.11-18.26 94.52-49.46 19.72-27.46 28.99-62.08 32.46-95.84q2.44-23.74 1.71-48.13-.98-32.96-6.21-67.07-6.59-43.03-18.36-86.12a.62.61-16.6 0 1 .41-.75q35.96-10.88 69.2-24.71c37.44-15.57 73.52-34.98 104.12-60.49 21.82-18.19 41.31-40.65 52.18-66.45q14.07-33.4 7.2-68.71c-7.51-38.54-35.32-70.84-65.37-94.46-31.76-24.97-68.46-43.85-106.3-58.99q-35.7-14.28-73.94-25.16a.44.44 0 0 1-.32-.52q10.6-48.79 13.28-96.16c3.83-67.76-7.34-158.51-76.56-193-33.33-16.6-71.28-15.17-106.6-4.64-33.14 9.88-64.21 26.2-92.93 45.63q-39.1 26.45-75.58 60.12-.6.56-1.21.01-43-39.51-85.86-66.83-25.21-16.07-51.2-27.41c-36.12-15.77-77.19-25.5-115.96-15.22-53.84 14.28-82.41 61-93.09 112.96-5.91 28.73-7.22 58.6-5.62 87.68 1.77 32.18 6.41 64.59 13.21 96.64"/><path vector-effect="non-scaling-stroke" d="M402.98 186.02c-30.41 10.28-43.63 42.53-49.42 71.82-5.55 28.11-5.59 58.74-2.96 87.53q3.21 35.24 10.44 69.54.21 1.01 1.22.75 3.88-.99 7.5-1.75 70.78-14.88 141.21-21.36 1.7-.16 2.71-1.51c28.72-38.41 59.54-75.83 92.96-110.39a.92.91 43.1 0 0-.05-1.32c-32.17-28.91-67.14-56.31-105.24-75.55q-20.2-10.2-39.75-15.95c-19.28-5.68-40.03-8.1-58.62-1.81m446.91-2.28c-30.91 5.27-61.25 20.13-88.16 37.45q-31.5 20.27-62.07 46.94-6.43 5.6-13.01 11.36a.52.52 0 0 0-.03.75q49.39 51.78 92.7 110.31 1.34 1.82 3.57 2.03 75.77 7.04 148.66 23.02a.77.77 0 0 0 .92-.59q7.22-34.43 10.43-69.14c3.09-33.32 2.73-68.43-5.76-100.12-6.66-24.88-19.64-49.22-43.96-58.77-13.49-5.31-29.07-5.66-43.29-3.24M700.43 387.18q2.95.12 5.84.38a.51.51 0 0 0 .44-.83q-28.33-35.43-59.59-68-.39-.4-.77.01-30.98 32.59-59.2 67.46-1.03 1.28.61 1.21 59.72-2.28 112.67-.23m-267 240.92c29.51 64.64 63.97 126.8 103 186.51.86 1.32 1.74 1.65 3.28 1.76 71.36 5.32 143.2 5.36 215.36-.05q.94-.07 1.46-.87 59.37-90.62 103.68-187.56.46-1.02-.04-2.02-47.75-94.37-108.26-179.56-.94-1.32-2.56-1.44-104.26-7.33-205.42.15-1.51.11-2.38 1.33-60.68 85.66-108.07 179.33a2.79 2.78-43.9 0 0-.05 2.42m-33.27-80.55q2.32 6.23 4.7 12.65a.43.42-41.3 0 0 .77.05c20.07-36.72 41.32-72.34 64.23-106.66q.24-.36.08-.74a.22.22 0 0 0-.23-.14q-47.72 6.19-94.53 16.45a.76.76 0 0 0-.57.96q11.11 38.62 25.55 77.43m488.36 12.62c11.62-29.43 21.67-59.81 30.33-89.76a1.09 1.08 14.3 0 0-.81-1.36q-45.8-9.95-93.73-16.39-1.08-.15-.75.88c.33 1.01 1.61 2.22 2.15 3.05q33.15 50.39 62.12 103.62a.38.38 0 0 0 .69-.04m-568.03-77.23c-49.8 14.96-99.55 33.16-142.83 62.01q-22.43 14.95-38.68 32.71-13.06 14.25-19.19 28.93c-13.9 33.29 3.1 62.91 27.53 86 24.43 23.08 54.94 40.71 86.22 54.65q35.95 16.03 76.77 28.34a.69.69 0 0 0 .85-.44q25.74-76.54 60.71-149.07.26-.54.02-1.1-30.2-69.56-50.83-141.73a.45.45 0 0 0-.57-.3m651.96.39c-13.58 47.61-30.69 95.01-50.56 141.17a2.62 2.61-46.1 0 0 .04 2.18q35.21 72.99 60.51 148.74a.47.46-17.4 0 0 .58.29q33.46-10.14 65.29-23.4c33.23-13.85 66.07-31.45 92.61-54.8 24.03-21.15 45.37-50.51 35.4-83.72-6.49-21.58-23.01-39.59-40.92-54.36q-18.46-15.22-41.67-28.1c-37.69-20.91-79.12-36.36-120.7-48.33q-.45-.13-.58.33M382.66 739.41q-9.59 24.6-18.26 50.17a.44.44 0 0 0 .32.57q49.47 11.42 101.63 18.35 1.42.19.54-.94-.98-1.27-1.86-2.71-33.49-54.95-62.24-112.96a.32.31-46.7 0 0-.57.02q-10.2 23.47-19.56 47.5m505.5-42.23q-28.36 56.51-61.54 110.7a.48.48 0 0 0 .47.73q51.19-6.85 101.85-18.46a.34.33 74.8 0 0 .24-.43q-16.81-49.39-37.76-97.61a.53.53 0 0 0-.97.01q-1.06 2.61-2.29 5.06m-560.29 336.04c4.46 32.56 17.27 71.88 50.88 83.57q13.44 4.67 28.46 3.87 21.08-1.11 44.48-9.98c36.86-13.96 70.16-36.09 101.42-61.43q28.21-22.87 54.95-49.31.61-.6.04-1.24-53.78-60.18-100.6-128.51-1.02-1.49-2.77-1.67-80.37-7.89-155.93-25.5a.71.7 13.1 0 0-.85.52q-1.53 6.28-3.11 12.48c-10.83 42.47-18.31 86.88-19.45 130.11q-.65 24.26 2.48 47.09m639.48-15.52q1.83-24.55-.07-50.75c-3.01-41.75-10.86-83.33-21.85-123.32a.74.74 0 0 0-.88-.52q-76.67 17.74-156.14 25.45c-.81.08-1.62.64-2.08 1.3-30.99 45.01-64.77 88.73-101.15 129.02a.63.62-46.7 0 0 .02.87c26.1 25.56 53.69 49.71 83.1 70.6q26.32 18.68 52.77 31.45c20.36 9.83 43.03 17.67 64.92 18.87q11.66.64 23.31-2.22c43.06-10.58 55.27-63.29 58.05-100.75M715.33 874.52a.42.41-73.2 0 0-.35-.66q-68.52 3.33-136.28-.04a.52.52 0 0 0-.44.83q32.9 44.53 68.18 84.16a.47.47 0 0 0 .7 0q35.9-40.38 68.19-84.29"/><path vector-effect="non-scaling-stroke" d="M756.81 630.98a110.04 110.04 0 0 0-220.08 0 110.04 110.04 0 0 0 220.08 0"/></g><path fill="#fff" d="M0 0h1300v1300H0V0zm307.66 428.7a.74.73 76.6 0 1-.52.86q-39.5 11.13-77.31 26.52c-39.24 15.97-76.95 35.92-108.8 62.58-18.31 15.32-34.81 33.37-46.33 54.43-13.63 24.9-18.55 53.36-12.82 80.87 6.94 33.35 27.93 61.46 53.2 83.9 29.3 26.01 64.07 45.78 100.24 61.56q38.98 17 78.91 28.83a.96.95-74.3 0 1 .65 1.17q-13.57 49.31-20.07 98.53c-5.74 43.54-7.34 88.82 1.86 131.8 6.26 29.22 17.81 57.17 37.67 78.6q24.42 26.37 59.91 34.45c30.24 6.89 62.55 1.61 91.64-8.68 40.19-14.22 77.16-37.07 111.14-63.51q36.57-28.46 69.5-61.27a.4.38 45 0 1 .55.01q30.97 30.93 65.37 58.08 24.02 18.96 48.86 34.35c28.82 17.85 60.16 32.58 92.63 39.88q20.87 4.69 40.54 4.12c38.83-1.13 72.11-18.26 94.52-49.46 19.72-27.46 28.99-62.08 32.46-95.84q2.44-23.74 1.71-48.13-.98-32.96-6.21-67.07-6.59-43.03-18.36-86.12a.62.61-16.6 0 1 .41-.75q35.96-10.88 69.2-24.71c37.44-15.57 73.52-34.98 104.12-60.49 21.82-18.19 41.31-40.65 52.18-66.45q14.07-33.4 7.2-68.71c-7.51-38.54-35.32-70.84-65.37-94.46-31.76-24.97-68.46-43.85-106.3-58.99q-35.7-14.28-73.94-25.16a.44.44 0 0 1-.32-.52q10.6-48.79 13.28-96.16c3.83-67.76-7.34-158.51-76.56-193-33.33-16.6-71.28-15.17-106.6-4.64-33.14 9.88-64.21 26.2-92.93 45.63q-39.1 26.45-75.58 60.12-.6.56-1.21.01-43-39.51-85.86-66.83-25.21-16.07-51.2-27.41c-36.12-15.77-77.19-25.5-115.96-15.22-53.84 14.28-82.41 61-93.09 112.96-5.91 28.73-7.22 58.6-5.62 87.68 1.77 32.18 6.41 64.59 13.21 96.64z"/><path fill="#82d7f6" d="M307.66 428.7c-6.8-32.05-11.44-64.46-13.21-96.64-1.6-29.08-.29-58.95 5.62-87.68 10.68-51.96 39.25-98.68 93.09-112.96 38.77-10.28 79.84-.55 115.96 15.22q25.99 11.34 51.2 27.41 42.86 27.32 85.86 66.83.61.55 1.21-.01 36.48-33.67 75.58-60.12c28.72-19.43 59.79-35.75 92.93-45.63 35.32-10.53 73.27-11.96 106.6 4.64 69.22 34.49 80.39 125.24 76.56 193q-2.68 47.37-13.28 96.16a.44.44 0 0 0 .32.52q38.24 10.88 73.94 25.16c37.84 15.14 74.54 34.02 106.3 58.99 30.05 23.62 57.86 55.92 65.37 94.46q6.87 35.31-7.2 68.71c-10.87 25.8-30.36 48.26-52.18 66.45-30.6 25.51-66.68 44.92-104.12 60.49q-33.24 13.83-69.2 24.71a.62.61-16.6 0 0-.41.75q11.77 43.09 18.36 86.12 5.23 34.11 6.21 67.07.73 24.39-1.71 48.13c-3.47 33.76-12.74 68.38-32.46 95.84-22.41 31.2-55.69 48.33-94.52 49.46q-19.67.57-40.54-4.12c-32.47-7.3-63.81-22.03-92.63-39.88q-24.84-15.39-48.86-34.35-34.4-27.15-65.37-58.08a.4.38 45 0 0-.55-.01q-32.93 32.81-69.5 61.27c-33.98 26.44-70.95 49.29-111.14 63.51-29.09 10.29-61.4 15.57-91.64 8.68q-35.49-8.08-59.91-34.45c-19.86-21.43-31.41-49.38-37.67-78.6-9.2-42.98-7.6-88.26-1.86-131.8q6.5-49.22 20.07-98.53a.96.95-74.3 0 0-.65-1.17q-39.93-11.83-78.91-28.83c-36.17-15.78-70.94-35.55-100.24-61.56-25.27-22.44-46.26-50.55-53.2-83.9-5.73-27.51-.81-55.97 12.82-80.87 11.52-21.06 28.02-39.11 46.33-54.43 31.85-26.66 69.56-46.61 108.8-62.58q37.81-15.39 77.31-26.52a.74.73 76.6 0 0 .52-.86zm95.32-242.68c-30.41 10.28-43.63 42.53-49.42 71.82-5.55 28.11-5.59 58.74-2.96 87.53q3.21 35.24 10.44 69.54.21 1.01 1.22.75 3.88-.99 7.5-1.75 70.78-14.88 141.21-21.36 1.7-.16 2.71-1.51c28.72-38.41 59.54-75.83 92.96-110.39a.92.91 43.1 0 0-.05-1.32c-32.17-28.91-67.14-56.31-105.24-75.55q-20.2-10.2-39.75-15.95c-19.28-5.68-40.03-8.1-58.62-1.81zm446.91-2.28c-30.91 5.27-61.25 20.13-88.16 37.45q-31.5 20.27-62.07 46.94-6.43 5.6-13.01 11.36a.52.52 0 0 0-.03.75q49.39 51.78 92.7 110.31 1.34 1.82 3.57 2.03 75.77 7.04 148.66 23.02a.77.77 0 0 0 .92-.59q7.22-34.43 10.43-69.14c3.09-33.32 2.73-68.43-5.76-100.12-6.66-24.88-19.64-49.22-43.96-58.77-13.49-5.31-29.07-5.66-43.29-3.24zM700.43 387.18q2.95.12 5.84.38a.51.51 0 0 0 .44-.83q-28.33-35.43-59.59-68-.39-.4-.77.01-30.98 32.59-59.2 67.46-1.03 1.28.61 1.21 59.72-2.28 112.67-.23zm-267 240.92c29.51 64.64 63.97 126.8 103 186.51.86 1.32 1.74 1.65 3.28 1.76 71.36 5.32 143.2 5.36 215.36-.05q.94-.07 1.46-.87 59.37-90.62 103.68-187.56.46-1.02-.04-2.02-47.75-94.37-108.26-179.56-.94-1.32-2.56-1.44-104.26-7.33-205.42.15-1.51.11-2.38 1.33-60.68 85.66-108.07 179.33a2.79 2.78-43.9 0 0-.05 2.42zm-33.27-80.55q2.32 6.23 4.7 12.65a.43.42-41.3 0 0 .77.05c20.07-36.72 41.32-72.34 64.23-106.66q.24-.36.08-.74a.22.22 0 0 0-.23-.14q-47.72 6.19-94.53 16.45a.76.76 0 0 0-.57.96q11.11 38.62 25.55 77.43zm488.36 12.62c11.62-29.43 21.67-59.81 30.33-89.76a1.09 1.08 14.3 0 0-.81-1.36q-45.8-9.95-93.73-16.39-1.08-.15-.75.88c.33 1.01 1.61 2.22 2.15 3.05q33.15 50.39 62.12 103.62a.38.38 0 0 0 .69-.04zm-568.03-77.23c-49.8 14.96-99.55 33.16-142.83 62.01q-22.43 14.95-38.68 32.71-13.06 14.25-19.19 28.93c-13.9 33.29 3.1 62.91 27.53 86 24.43 23.08 54.94 40.71 86.22 54.65q35.95 16.03 76.77 28.34a.69.69 0 0 0 .85-.44q25.74-76.54 60.71-149.07.26-.54.02-1.1-30.2-69.56-50.83-141.73a.45.45 0 0 0-.57-.3zm651.96.39c-13.58 47.61-30.69 95.01-50.56 141.17a2.62 2.61-46.1 0 0 .04 2.18q35.21 72.99 60.51 148.74a.47.46-17.4 0 0 .58.29q33.46-10.14 65.29-23.4c33.23-13.85 66.07-31.45 92.61-54.8 24.03-21.15 45.37-50.51 35.4-83.72-6.49-21.58-23.01-39.59-40.92-54.36q-18.46-15.22-41.67-28.1c-37.69-20.91-79.12-36.36-120.7-48.33q-.45-.13-.58.33zM382.66 739.41q-9.59 24.6-18.26 50.17a.44.44 0 0 0 .32.57q49.47 11.42 101.63 18.35 1.42.19.54-.94-.98-1.27-1.86-2.71-33.49-54.95-62.24-112.96a.32.31-46.7 0 0-.57.02q-10.2 23.47-19.56 47.5zm505.5-42.23q-28.36 56.51-61.54 110.7a.48.48 0 0 0 .47.73q51.19-6.85 101.85-18.46a.34.33 74.8 0 0 .24-.43q-16.81-49.39-37.76-97.61a.53.53 0 0 0-.97.01q-1.06 2.61-2.29 5.06zm-560.29 336.04c4.46 32.56 17.27 71.88 50.88 83.57q13.44 4.67 28.46 3.87 21.08-1.11 44.48-9.98c36.86-13.96 70.16-36.09 101.42-61.43q28.21-22.87 54.95-49.31.61-.6.04-1.24-53.78-60.18-100.6-128.51-1.02-1.49-2.77-1.67-80.37-7.89-155.93-25.5a.71.7 13.1 0 0-.85.52q-1.53 6.28-3.11 12.48c-10.83 42.47-18.31 86.88-19.45 130.11q-.65 24.26 2.48 47.09zm639.48-15.52q1.83-24.55-.07-50.75c-3.01-41.75-10.86-83.33-21.85-123.32a.74.74 0 0 0-.88-.52q-76.67 17.74-156.14 25.45c-.81.08-1.62.64-2.08 1.3-30.99 45.01-64.77 88.73-101.15 129.02a.63.62-46.7 0 0 .02.87c26.1 25.56 53.69 49.71 83.1 70.6q26.32 18.68 52.77 31.45c20.36 9.83 43.03 17.67 64.92 18.87q11.66.64 23.31-2.22c43.06-10.58 55.27-63.29 58.05-100.75zM715.33 874.52a.42.41-73.2 0 0-.35-.66q-68.52 3.33-136.28-.04a.52.52 0 0 0-.44.83q32.9 44.53 68.18 84.16a.47.47 0 0 0 .7 0q35.9-40.38 68.19-84.29z"/><path d="M353.56 257.84c5.79-29.29 19.01-61.54 49.42-71.82 18.59-6.29 39.34-3.87 58.62 1.81q19.55 5.75 39.75 15.95c38.1 19.24 73.07 46.64 105.24 75.55a.92.91 43.1 0 1 .05 1.32c-33.42 34.56-64.24 71.98-92.96 110.39q-1.01 1.35-2.71 1.51-70.43 6.48-141.21 21.36-3.62.76-7.5 1.75-1.01.26-1.22-.75-7.23-34.3-10.44-69.54c-2.63-28.79-2.59-59.42 2.96-87.53zm408.17-36.65c26.91-17.32 57.25-32.18 88.16-37.45 14.22-2.42 29.8-2.07 43.29 3.24 24.32 9.55 37.3 33.89 43.96 58.77 8.49 31.69 8.85 66.8 5.76 100.12q-3.21 34.71-10.43 69.14a.77.77 0 0 1-.92.59q-72.89-15.98-148.66-23.02-2.23-.21-3.57-2.03-43.31-58.53-92.7-110.31a.52.52 0 0 1 .03-.75q6.58-5.76 13.01-11.36 30.57-26.67 62.07-46.94zm-61.3 165.99q-52.95-2.05-112.67.23-1.64.07-.61-1.21 28.22-34.87 59.2-67.46.38-.41.77-.01 31.26 32.57 59.59 68a.51.51 0 0 1-.44.83q-2.89-.26-5.84-.38zm-164 427.43c-39.03-59.71-73.49-121.87-103-186.51a2.79 2.78-43.9 0 1 .05-2.42q47.39-93.67 108.07-179.33.87-1.22 2.38-1.33 101.16-7.48 205.42-.15 1.62.12 2.56 1.44 60.51 85.19 108.26 179.56.5 1 .04 2.02-44.31 96.94-103.68 187.56-.52.8-1.46.87c-72.16 5.41-144 5.37-215.36.05-1.54-.11-2.42-.44-3.28-1.76zm220.38-183.63a110.04 110.04 0 0 0-220.08 0 110.04 110.04 0 0 0 220.08 0zm-356.65-83.43q-14.44-38.81-25.55-77.43a.76.76 0 0 1 .57-.96q46.81-10.26 94.53-16.45a.22.22 0 0 1 .23.14q.16.38-.08.74c-22.91 34.32-44.16 69.94-64.23 106.66a.43.42-41.3 0 1-.77-.05q-2.38-6.42-4.7-12.65zm518.69-77.14c-8.66 29.95-18.71 60.33-30.33 89.76a.38.38 0 0 1-.69.04q-28.97-53.23-62.12-103.62c-.54-.83-1.82-2.04-2.15-3.05q-.33-1.03.75-.88 47.93 6.44 93.73 16.39a1.09 1.08 14.3 0 1 .81 1.36zm-741.19 74.54c43.28-28.85 93.03-47.05 142.83-62.01a.45.45 0 0 1 .57.3q20.63 72.17 50.83 141.73.24.56-.02 1.1-34.97 72.53-60.71 149.07a.69.69 0 0 1-.85.44q-40.82-12.31-76.77-28.34c-31.28-13.94-61.79-31.57-86.22-54.65-24.43-23.09-41.43-52.71-27.53-86q6.13-14.68 19.19-28.93 16.25-17.76 38.68-32.71zm744.23 79.55c19.87-46.16 36.98-93.56 50.56-141.17q.13-.46.58-.33c41.58 11.97 83.01 27.42 120.7 48.33q23.21 12.88 41.67 28.1c17.91 14.77 34.43 32.78 40.92 54.36 9.97 33.21-11.37 62.57-35.4 83.72-26.54 23.35-59.38 40.95-92.61 54.8q-31.83 13.26-65.29 23.4a.47.46-17.4 0 1-.58-.29q-25.3-75.75-60.51-148.74a2.62 2.61-46.1 0 1-.04-2.18z" fill="#fff"/><circle fill="#82d7f6" cx="646.77" cy="630.98" r="110.04"/><path d="M382.66 739.41q9.36-24.03 19.56-47.5a.32.31-46.7 0 1 .57-.02q28.75 58.01 62.24 112.96.88 1.44 1.86 2.71.88 1.13-.54.94-52.16-6.93-101.63-18.35a.44.44 0 0 1-.32-.57q8.67-25.57 18.26-50.17zm505.5-42.23q1.23-2.45 2.29-5.06a.53.53 0 0 1 .97-.01q20.95 48.22 37.76 97.61a.34.33 74.8 0 1-.24.43q-50.66 11.61-101.85 18.46a.48.48 0 0 1-.47-.73q33.18-54.19 61.54-110.7zm-509.41 419.61c-33.61-11.69-46.42-51.01-50.88-83.57q-3.13-22.83-2.48-47.09c1.14-43.23 8.62-87.64 19.45-130.11q1.58-6.2 3.11-12.48a.71.7 13.1 0 1 .85-.52q75.56 17.61 155.93 25.5 1.75.18 2.77 1.67 46.82 68.33 100.6 128.51.57.64-.04 1.24-26.74 26.44-54.95 49.31c-31.26 25.34-64.56 47.47-101.42 61.43q-23.4 8.87-44.48 9.98-15.02.8-28.46-3.87zm588.6-99.09c-2.78 37.46-14.99 90.17-58.05 100.75q-11.65 2.86-23.31 2.22c-21.89-1.2-44.56-9.04-64.92-18.87q-26.45-12.77-52.77-31.45c-29.41-20.89-57-45.04-83.1-70.6a.63.62-46.7 0 1-.02-.87c36.38-40.29 70.16-84.01 101.15-129.02.46-.66 1.27-1.22 2.08-1.3q79.47-7.71 156.14-25.45a.74.74 0 0 1 .88.52c10.99 39.99 18.84 81.57 21.85 123.32q1.9 26.2.07 50.75zM715.33 874.52q-32.29 43.91-68.19 84.29a.47.47 0 0 1-.7 0q-35.28-39.63-68.18-84.16a.52.52 0 0 1 .44-.83q67.76 3.37 136.28.04a.42.41-73.2 0 1 .35.66z" fill="#fff"/></svg>