<?xml version="1.0" encoding="UTF-8" standalone="no"?>
<!DOCTYPE svg PUBLIC "-//W3C//DTD SVG 1.1//EN" "http://www.w3.org/Graphics/SVG/1.1/DTD/svg11.dtd">
<svg xmlns="http://www.w3.org/2000/svg" version="1.1" viewBox="0.00 0.00 1448.00 1448.00">
<path fill="#82d7f5" d="
  M 329.57 454.75
  A 1.48 1.48 0.0 0 0 330.58 452.96
  Q 328.65 445.49 327.31 438.24
  Q 324.16 421.19 321.89 406.74
  Q 319.47 391.34 316.95 366.20
  C 314.82 344.98 314.64 324.28 315.02 301.94
  Q 315.52 272.56 321.25 243.09
  Q 323.80 229.95 328.29 215.74
  C 339.52 180.18 359.26 147.25 390.88 126.90
  Q 412.85 112.77 438.52 107.64
  Q 444.42 106.46 449.75 105.97
  C 454.82 105.50 460.06 104.76 465.20 104.75
  Q 482.61 104.69 498.28 107.30
  C 526.23 111.95 552.85 121.68 578.87 134.39
  Q 616.29 152.68 654.27 180.35
  Q 688.00 204.92 717.58 231.98
  Q 719.81 234.02 722.54 235.72
  Q 722.98 235.99 723.46 235.81
  Q 725.08 235.20 726.32 234.06
  Q 748.96 213.39 770.48 196.52
  Q 780.78 188.44 791.72 180.45
  C 823.95 156.91 859.05 136.10 896.02 121.82
  Q 916.31 113.98 935.42 109.72
  Q 953.98 105.58 974.11 104.80
  Q 986.72 104.31 1000.34 106.41
  Q 1043.94 113.12 1074.60 142.18
  C 1097.69 164.07 1112.57 193.96 1120.65 224.56
  Q 1128.29 253.47 1130.61 283.08
  C 1132.54 307.86 1132.37 334.28 1129.95 360.08
  Q 1129.06 369.50 1128.05 379.24
  Q 1124.38 414.58 1116.28 452.63
  A 2.02 2.01 14.3 0 0 1117.68 454.98
  C 1151.92 465.23 1184.57 476.52 1217.24 490.47
  C 1249.07 504.06 1279.83 520.22 1308.25 539.99
  C 1352.87 571.03 1395.50 615.68 1402.07 672.20
  C 1404.83 695.92 1401.61 719.60 1392.11 741.18
  C 1375.19 779.63 1345.08 809.21 1311.68 833.51
  Q 1303.88 839.19 1294.96 844.86
  Q 1256.93 869.06 1213.42 887.22
  Q 1173.99 903.68 1132.46 916.57
  A 2.10 2.09 74.1 0 0 1131.05 919.12
  Q 1137.35 942.90 1142.64 967.22
  C 1145.60 980.82 1147.91 994.17 1150.22 1007.76
  Q 1154.01 1030.15 1156.49 1054.97
  Q 1157.08 1060.90 1158.35 1079.49
  Q 1160.39 1109.65 1157.61 1145.09
  Q 1155.69 1169.55 1149.62 1193.33
  C 1142.73 1220.33 1131.94 1246.09 1114.87 1267.45
  Q 1090.04 1298.51 1052.87 1311.35
  Q 1044.73 1314.16 1034.03 1316.27
  Q 1011.30 1320.74 987.03 1317.79
  C 979.46 1316.87 971.90 1316.05 964.45 1314.37
  C 926.03 1305.70 889.30 1288.83 855.47 1267.77
  C 841.59 1259.12 827.68 1249.87 814.55 1240.03
  Q 766.93 1204.32 724.44 1161.97
  Q 723.22 1160.75 721.98 1161.96
  C 693.99 1189.31 664.94 1214.81 633.68 1238.40
  Q 604.19 1260.65 573.07 1278.24
  C 541.56 1296.05 507.40 1310.29 471.81 1316.34
  Q 442.52 1321.33 416.53 1317.00
  Q 405.63 1315.19 397.19 1312.51
  Q 345.69 1296.18 318.33 1247.95
  C 306.13 1226.43 298.04 1202.54 293.53 1178.62
  Q 291.07 1165.54 288.99 1147.88
  Q 287.82 1137.96 287.60 1128.15
  C 287.10 1106.88 287.02 1086.21 288.88 1065.56
  Q 294.05 1008.44 306.81 953.28
  Q 310.00 939.48 315.18 919.30
  C 316.12 915.65 310.91 915.41 308.62 914.71
  C 264.06 901.02 220.12 883.56 178.94 861.32
  Q 140.32 840.46 108.84 813.12
  C 76.20 784.79 48.32 745.52 44.13 701.83
  Q 39.79 656.55 63.19 616.91
  C 84.75 580.39 117.10 553.07 153.21 529.79
  Q 175.37 515.50 203.42 502.03
  C 242.09 483.48 282.67 468.86 323.77 456.49
  Q 326.69 455.62 329.57 454.75
  Z
  M 445.36 428.20
  Q 450.26 427.34 455.79 426.26
  C 459.79 425.47 463.75 425.36 467.67 424.57
  C 473.82 423.32 479.97 422.47 486.13 421.45
  C 493.49 420.22 500.78 419.62 508.01 418.40
  Q 514.07 417.38 519.57 416.80
  C 527.56 415.95 535.49 414.71 543.55 414.05
  Q 555.88 413.04 567.51 411.03
  Q 568.34 410.89 568.91 410.15
  Q 595.13 375.71 615.77 350.76
  Q 634.75 327.80 648.26 312.90
  Q 662.89 296.77 676.35 282.48
  A 1.22 1.22 0.0 0 0 676.29 280.74
  C 674.16 278.77 671.77 277.08 669.64 275.16
  Q 631.48 240.76 590.54 214.36
  C 561.74 195.78 530.16 180.27 497.09 172.44
  C 479.05 168.18 459.02 167.50 441.11 173.39
  C 417.49 181.15 402.54 200.74 393.77 223.14
  Q 386.30 242.23 383.00 261.79
  C 377.28 295.72 377.71 332.12 381.65 367.19
  Q 384.54 392.97 388.99 418.84
  C 389.99 424.64 391.36 430.20 392.00 436.13
  A 2.05 2.04 -4.1 0 0 394.11 437.95
  Q 397.01 437.84 399.96 437.20
  Q 423.80 431.99 445.36 428.20
  Z
  M 983.67 425.34
  Q 1017.65 430.88 1050.55 438.18
  C 1054.24 439.00 1054.36 436.33 1054.82 433.66
  Q 1056.98 421.03 1059.48 407.47
  C 1060.46 402.18 1061.06 396.81 1061.98 391.45
  C 1063.41 383.14 1063.93 374.52 1065.12 365.99
  Q 1065.97 359.84 1066.40 352.83
  Q 1068.34 321.20 1066.90 290.62
  C 1066.37 279.50 1064.72 268.15 1062.78 257.13
  C 1059.58 239.02 1053.25 220.36 1043.84 205.08
  Q 1037.27 194.41 1027.06 185.66
  Q 1011.78 172.58 990.79 169.98
  Q 973.75 167.87 957.21 170.88
  C 925.17 176.71 893.50 191.07 865.47 208.20
  C 831.78 228.78 800.08 253.55 771.75 279.54
  Q 770.56 280.63 769.54 281.92
  A 0.21 0.20 -48.8 0 0 769.55 282.18
  Q 827.17 342.78 876.33 409.14
  Q 878.15 411.60 881.48 411.92
  Q 905.95 414.32 931.00 417.46
  Q 949.42 419.76 983.67 425.34
  Z
  M 680.87 405.03
  C 717.43 404.13 754.21 404.02 790.71 405.86
  A 0.97 0.97 0.0 0 0 791.59 404.38
  Q 790.90 403.24 790.05 402.22
  C 767.92 375.66 747.34 351.55 724.12 327.91
  A 1.34 1.33 -40.3 0 0 722.37 327.77
  Q 721.47 328.41 720.68 329.23
  C 697.34 353.39 676.27 378.32 654.73 404.23
  A 0.82 0.81 -71.8 0 0 655.40 405.57
  C 663.86 405.11 672.35 405.24 680.87 405.03
  Z
  M 644.70 905.37
  Q 696.66 907.20 735.20 906.89
  Q 762.19 906.68 802.43 905.37
  C 817.29 904.88 832.42 903.20 847.63 902.41
  Q 849.59 902.31 850.59 900.78
  Q 873.90 865.41 897.02 825.54
  C 922.38 781.79 945.78 737.04 966.42 692.30
  C 968.79 687.17 971.34 683.77 968.35 678.13
  Q 957.54 657.74 945.79 636.05
  Q 901.81 554.93 847.02 477.54
  C 845.67 475.64 844.25 473.18 841.63 472.99
  Q 813.75 471.00 785.89 469.87
  Q 729.85 467.59 660.76 469.87
  Q 652.23 470.15 640.81 470.95
  Q 623.37 472.16 605.42 472.85
  Q 603.34 472.93 602.12 474.35
  Q 599.34 477.57 595.52 483.02
  Q 538.38 564.50 489.94 655.97
  Q 483.83 667.51 477.54 679.55
  Q 475.63 683.22 477.06 686.33
  Q 501.07 738.44 529.44 790.22
  Q 557.19 840.88 593.98 898.04
  C 596.45 901.87 597.63 902.54 602.26 902.73
  C 617.11 903.32 631.22 904.89 644.70 905.37
  Z
  M 442.81 604.82
  Q 444.21 605.38 444.95 604.08
  C 446.91 600.58 448.54 596.88 450.65 593.43
  C 456.55 583.78 462.15 573.37 467.64 564.01
  Q 491.86 522.73 517.25 484.05
  A 0.92 0.92 0.0 0 0 517.02 482.80
  Q 516.50 482.43 515.86 482.50
  Q 505.92 483.65 497.48 485.03
  C 492.42 485.85 487.30 486.26 482.28 487.32
  Q 476.93 488.44 471.28 489.18
  C 466.21 489.84 461.17 491.21 456.03 491.77
  C 450.91 492.32 445.86 493.76 440.72 494.64
  Q 424.92 497.35 410.16 501.11
  Q 408.32 501.57 408.83 503.39
  C 418.24 537.07 430.38 571.34 442.52 604.51
  A 0.54 0.53 -89.0 0 0 442.81 604.82
  Z
  M 943.40 484.16
  Q 937.23 483.50 931.22 482.51
  Q 929.83 482.28 929.21 483.41
  A 0.77 0.75 -48.0 0 0 929.24 484.18
  Q 967.09 542.07 998.96 599.72
  Q 1000.26 602.06 1001.72 604.22
  A 0.86 0.86 0.0 0 0 1003.20 604.14
  Q 1004.34 601.95 1005.26 599.52
  Q 1021.39 557.34 1033.36 517.86
  C 1034.76 513.23 1035.82 508.43 1037.62 503.88
  A 2.43 2.43 0.0 0 0 1035.84 500.60
  Q 1016.89 496.80 998.00 493.11
  C 992.20 491.98 986.65 491.23 980.95 490.06
  Q 975.26 488.89 969.01 487.97
  C 960.62 486.74 952.01 485.07 943.40 484.16
  Z
  M 114.20 658.11
  C 107.56 672.35 105.86 690.03 109.69 704.92
  Q 113.33 719.03 122.20 732.21
  Q 131.71 746.32 144.14 758.23
  C 173.06 785.90 209.08 806.70 245.94 823.04
  Q 272.54 834.84 301.48 844.80
  Q 315.03 849.47 328.89 853.95
  Q 331.06 854.65 333.31 854.77
  A 1.61 1.60 -79.2 0 0 334.91 853.68
  Q 339.94 839.01 345.14 824.39
  C 350.21 810.16 355.98 795.83 361.55 781.28
  C 367.97 764.50 375.09 748.15 382.12 731.73
  C 388.66 716.42 395.96 701.25 403.03 686.10
  C 404.48 683.00 404.95 680.83 403.63 677.85
  Q 396.40 661.45 389.73 644.76
  Q 365.17 583.32 346.40 518.87
  Q 345.83 516.89 343.86 517.50
  Q 324.73 523.44 308.05 528.89
  Q 291.83 534.19 268.98 543.28
  Q 237.89 555.65 209.79 570.81
  C 178.28 587.80 147.93 609.46 125.99 638.06
  C 121.31 644.17 117.49 651.05 114.20 658.11
  Z
  M 1337.28 702.31
  Q 1342.06 677.80 1331.28 655.65
  C 1323.67 640.01 1311.58 626.26 1298.48 614.16
  C 1271.16 588.94 1238.34 570.05 1203.81 554.50
  Q 1155.36 532.68 1101.92 517.48
  Q 1100.42 517.05 1100.01 518.56
  C 1092.27 547.01 1082.79 574.87 1072.67 602.91
  Q 1065.86 621.77 1048.90 664.00
  Q 1047.45 667.60 1045.91 670.87
  C 1044.06 674.79 1040.62 680.41 1042.54 684.43
  C 1068.76 739.32 1091.96 795.75 1111.13 853.25
  A 1.69 1.66 -6.9 0 0 1112.61 854.39
  Q 1114.19 854.50 1115.74 854.13
  Q 1121.86 852.70 1127.64 850.79
  C 1168.87 837.14 1210.24 820.52 1247.38 798.96
  Q 1271.61 784.89 1292.77 767.00
  Q 1299.19 761.57 1305.78 754.72
  C 1319.75 740.20 1333.35 722.44 1337.28 702.31
  Z
  M 463.05 885.53
  C 472.52 886.88 482.05 888.77 491.29 890.19
  C 497.07 891.08 505.30 891.72 512.21 892.95
  Q 513.71 893.22 513.74 891.70
  Q 513.76 890.99 513.40 890.41
  Q 486.93 846.77 466.69 808.80
  Q 453.35 783.79 441.25 760.11
  Q 440.23 758.12 439.34 760.17
  C 438.47 762.17 437.97 764.21 437.10 766.22
  C 422.20 800.56 409.11 835.12 396.89 870.34
  Q 396.42 871.71 397.79 872.18
  Q 400.12 872.97 402.49 873.48
  C 413.61 875.82 424.75 878.51 436.18 880.52
  C 444.91 882.05 453.65 884.20 463.05 885.53
  Z
  M 980.89 885.90
  Q 1001.93 882.22 1026.26 877.29
  C 1033.55 875.81 1040.34 873.85 1047.66 872.93
  Q 1050.49 872.57 1049.54 869.88
  Q 1042.81 850.84 1035.33 830.40
  Q 1028.57 811.93 1015.20 779.75
  Q 1011.56 770.97 1006.91 760.74
  A 1.19 1.18 75.0 0 0 1005.72 760.05
  Q 1004.58 760.15 1004.20 761.16
  Q 1003.08 764.16 1001.70 766.87
  Q 968.64 832.15 932.51 891.36
  A 1.02 1.01 -66.8 0 0 933.11 892.87
  Q 934.11 893.13 935.03 892.98
  Q 940.98 891.98 946.20 891.44
  Q 952.16 890.83 957.29 889.89
  Q 962.29 888.98 967.01 888.33
  C 971.58 887.70 976.29 886.70 980.89 885.90
  Z
  M 1091.58 1156.68
  C 1092.41 1150.57 1093.53 1144.17 1093.92 1138.48
  Q 1096.86 1095.13 1091.76 1051.15
  C 1091.08 1045.36 1090.03 1039.39 1089.31 1033.55
  Q 1088.46 1026.72 1087.46 1020.42
  Q 1080.71 977.85 1069.31 936.69
  Q 1068.74 934.66 1067.21 933.99
  Q 1066.75 933.79 1066.27 933.91
  Q 1051.26 937.75 1039.00 940.27
  Q 1024.43 943.27 1008.99 946.17
  Q 991.09 949.52 951.64 955.51
  Q 941.95 956.98 931.90 958.16
  Q 909.67 960.77 887.65 963.30
  A 4.06 4.04 14.3 0 0 884.83 964.96
  Q 876.30 976.93 868.03 988.53
  Q 821.15 1054.31 768.64 1113.24
  A 1.78 1.77 43.3 0 0 768.72 1115.68
  Q 777.78 1124.58 787.47 1133.73
  Q 812.92 1157.76 844.04 1181.86
  C 871.16 1202.86 898.92 1220.86 929.36 1235.02
  Q 949.35 1244.32 972.24 1250.40
  C 982.24 1253.05 993.24 1253.95 1003.40 1254.72
  Q 1007.11 1255.00 1010.10 1254.65
  Q 1022.25 1253.21 1028.31 1251.67
  Q 1053.91 1245.17 1069.79 1220.29
  C 1081.71 1201.63 1088.61 1178.66 1091.58 1156.68
  Z
  M 354.39 1153.67
  C 359.54 1194.68 377.84 1246.49 425.61 1253.30
  Q 437.19 1254.95 445.77 1254.45
  C 460.56 1253.59 474.64 1250.86 489.04 1246.00
  C 515.83 1236.96 540.39 1224.15 563.64 1209.12
  Q 600.23 1185.46 633.85 1155.97
  C 648.60 1143.02 663.65 1129.42 677.15 1116.15
  Q 679.10 1114.24 677.14 1112.19
  Q 670.66 1105.41 664.37 1098.13
  Q 613.05 1038.73 565.91 971.01
  C 563.98 968.24 562.33 964.21 558.73 963.44
  Q 556.47 962.96 553.82 962.67
  Q 503.94 957.18 480.72 953.45
  Q 466.91 951.23 452.24 948.72
  Q 418.42 942.93 384.49 935.15
  Q 382.13 934.61 379.48 934.42
  Q 377.50 934.27 377.04 936.13
  Q 371.20 959.88 366.11 982.64
  Q 358.98 1014.45 354.38 1055.20
  Q 353.29 1064.92 352.74 1075.09
  C 351.34 1101.09 351.07 1127.32 354.39 1153.67
  Z
  M 801.35 970.54
  Q 801.03 969.53 800.00 969.58
  Q 751.76 971.94 704.85 971.11
  Q 679.94 970.67 649.90 969.77
  C 648.66 969.73 647.46 969.43 646.23 969.48
  A 1.39 1.39 0.0 0 0 645.10 971.58
  C 646.80 974.41 649.10 976.60 651.04 979.21
  Q 683.05 1022.25 719.93 1064.00
  Q 720.86 1065.05 722.04 1065.99
  Q 723.60 1067.23 724.92 1065.74
  C 736.99 1052.13 748.66 1038.27 760.65 1023.67
  Q 768.47 1014.14 776.86 1003.42
  Q 783.12 995.42 788.96 987.50
  Q 795.45 978.68 801.16 971.56
  A 1.13 1.12 55.6 0 0 801.35 970.54
  Z"
/>
<circle fill="#82d7f5" cx="723.16" cy="688.12" r="127.49"/>
</svg>
