<?xml version="1.0" encoding="UTF-8" standalone="no"?>
<!DOCTYPE svg PUBLIC "-//W3C//DTD SVG 1.1//EN" "http://www.w3.org/Graphics/SVG/1.1/DTD/svg11.dtd">
<svg xmlns="http://www.w3.org/2000/svg" version="1.1" viewBox="0.00 0.00 1300.00 1300.00">
<g stroke-width="2.00" fill="none" stroke-linecap="butt">
<path stroke="#c1ebfb" vector-effect="non-scaling-stroke" d="
  M 307.66 428.70
  A 0.74 0.73 76.6 0 1 307.14 429.56
  Q 267.64 440.69 229.83 456.08
  C 190.59 472.05 152.88 492.00 121.03 518.66
  C 102.72 533.98 86.22 552.03 74.70 573.09
  C 61.07 597.99 56.15 626.45 61.88 653.96
  C 68.82 687.31 89.81 715.42 115.08 737.86
  C 144.38 763.87 179.15 783.64 215.32 799.42
  Q 254.30 816.42 294.23 828.25
  A 0.96 0.95 -74.3 0 1 294.88 829.42
  Q 281.31 878.73 274.81 927.95
  C 269.07 971.49 267.47 1016.77 276.67 1059.75
  C 282.93 1088.97 294.48 1116.92 314.34 1138.35
  Q 338.76 1164.72 374.25 1172.80
  C 404.49 1179.69 436.80 1174.41 465.89 1164.12
  C 506.08 1149.90 543.05 1127.05 577.03 1100.61
  Q 613.60 1072.15 646.53 1039.34
  A 0.40 0.38 45.0 0 1 647.08 1039.35
  Q 678.05 1070.28 712.45 1097.43
  Q 736.47 1116.39 761.31 1131.78
  C 790.13 1149.63 821.47 1164.36 853.94 1171.66
  Q 874.81 1176.35 894.48 1175.78
  C 933.31 1174.65 966.59 1157.52 989.00 1126.32
  C 1008.72 1098.86 1017.99 1064.24 1021.46 1030.48
  Q 1023.90 1006.74 1023.17 982.35
  Q 1022.19 949.39 1016.96 915.28
  Q 1010.37 872.25 998.60 829.16
  A 0.62 0.61 -16.6 0 1 999.01 828.41
  Q 1034.97 817.53 1068.21 803.70
  C 1105.65 788.13 1141.73 768.72 1172.33 743.21
  C 1194.15 725.02 1213.64 702.56 1224.51 676.76
  Q 1238.58 643.36 1231.71 608.05
  C 1224.20 569.51 1196.39 537.21 1166.34 513.59
  C 1134.58 488.62 1097.88 469.74 1060.04 454.60
  Q 1024.34 440.32 986.10 429.44
  A 0.44 0.44 0.0 0 1 985.78 428.92
  Q 996.38 380.13 999.06 332.76
  C 1002.89 265.00 991.72 174.25 922.50 139.76
  C 889.17 123.16 851.22 124.59 815.90 135.12
  C 782.76 145.00 751.69 161.32 722.97 180.75
  Q 683.87 207.20 647.39 240.87
  Q 646.79 241.43 646.18 240.88
  Q 603.18 201.37 560.32 174.05
  Q 535.11 157.98 509.12 146.64
  C 473.00 130.87 431.93 121.14 393.16 131.42
  C 339.32 145.70 310.75 192.42 300.07 244.38
  C 294.16 273.11 292.85 302.98 294.45 332.06
  C 296.22 364.24 300.86 396.65 307.66 428.70"
/>
<path stroke="#c1ebfb" vector-effect="non-scaling-stroke" d="
  M 402.98 186.02
  C 372.57 196.30 359.35 228.55 353.56 257.84
  C 348.01 285.95 347.97 316.58 350.60 345.37
  Q 353.81 380.61 361.04 414.91
  Q 361.25 415.92 362.26 415.66
  Q 366.14 414.67 369.76 413.91
  Q 440.54 399.03 510.97 392.55
  Q 512.67 392.39 513.68 391.04
  C 542.40 352.63 573.22 315.21 606.64 280.65
  A 0.92 0.91 43.1 0 0 606.59 279.33
  C 574.42 250.42 539.45 223.02 501.35 203.78
  Q 481.15 193.58 461.60 187.83
  C 442.32 182.15 421.57 179.73 402.98 186.02"
/>
<path stroke="#c1ebfb" vector-effect="non-scaling-stroke" d="
  M 849.89 183.74
  C 818.98 189.01 788.64 203.87 761.73 221.19
  Q 730.23 241.46 699.66 268.13
  Q 693.23 273.73 686.65 279.49
  A 0.52 0.52 0.0 0 0 686.62 280.24
  Q 736.01 332.02 779.32 390.55
  Q 780.66 392.37 782.89 392.58
  Q 858.66 399.62 931.55 415.60
  A 0.77 0.77 0.0 0 0 932.47 415.01
  Q 939.69 380.58 942.90 345.87
  C 945.99 312.55 945.63 277.44 937.14 245.75
  C 930.48 220.87 917.50 196.53 893.18 186.98
  C 879.69 181.67 864.11 181.32 849.89 183.74"
/>
<path stroke="#c1ebfb" vector-effect="non-scaling-stroke" d="
  M 700.43 387.18
  Q 703.38 387.30 706.27 387.56
  A 0.51 0.51 0.0 0 0 706.71 386.73
  Q 678.38 351.30 647.12 318.73
  Q 646.73 318.33 646.35 318.74
  Q 615.37 351.33 587.15 386.20
  Q 586.12 387.48 587.76 387.41
  Q 647.48 385.13 700.43 387.18"
/>
<path stroke="#c1ebfb" vector-effect="non-scaling-stroke" d="
  M 433.43 628.10
  C 462.94 692.74 497.40 754.90 536.43 814.61
  C 537.29 815.93 538.17 816.26 539.71 816.37
  C 611.07 821.69 682.91 821.73 755.07 816.32
  Q 756.01 816.25 756.53 815.45
  Q 815.90 724.83 860.21 627.89
  Q 860.67 626.87 860.17 625.87
  Q 812.42 531.50 751.91 446.31
  Q 750.97 444.99 749.35 444.87
  Q 645.09 437.54 543.93 445.02
  Q 542.42 445.13 541.55 446.35
  Q 480.87 532.01 433.48 625.68
  A 2.79 2.78 -43.9 0 0 433.43 628.10"
/>
<path stroke="#c1ebfb" vector-effect="non-scaling-stroke" d="
  M 400.16 547.55
  Q 402.48 553.78 404.86 560.20
  A 0.43 0.42 -41.3 0 0 405.63 560.25
  C 425.70 523.53 446.95 487.91 469.86 453.59
  Q 470.10 453.23 469.94 452.85
  A 0.22 0.22 0.0 0 0 469.71 452.71
  Q 421.99 458.90 375.18 469.16
  A 0.76 0.76 0.0 0 0 374.61 470.12
  Q 385.72 508.74 400.16 547.55"
/>
<path stroke="#c1ebfb" vector-effect="non-scaling-stroke" d="
  M 888.52 560.17
  C 900.14 530.74 910.19 500.36 918.85 470.41
  A 1.09 1.08 14.3 0 0 918.04 469.05
  Q 872.24 459.10 824.31 452.66
  Q 823.23 452.51 823.56 453.54
  C 823.89 454.55 825.17 455.76 825.71 456.59
  Q 858.86 506.98 887.83 560.21
  A 0.38 0.38 0.0 0 0 888.52 560.17"
/>
<path stroke="#c1ebfb" vector-effect="non-scaling-stroke" d="
  M 320.49 482.94
  C 270.69 497.90 220.94 516.10 177.66 544.95
  Q 155.23 559.90 138.98 577.66
  Q 125.92 591.91 119.79 606.59
  C 105.89 639.88 122.89 669.50 147.32 692.59
  C 171.75 715.67 202.26 733.30 233.54 747.24
  Q 269.49 763.27 310.31 775.58
  A 0.69 0.69 0.0 0 0 311.16 775.14
  Q 336.90 698.60 371.87 626.07
  Q 372.13 625.53 371.89 624.97
  Q 341.69 555.41 321.06 483.24
  A 0.45 0.45 0.0 0 0 320.49 482.94"
/>
<path stroke="#c1ebfb" vector-effect="non-scaling-stroke" d="
  M 972.45 483.33
  C 958.87 530.94 941.76 578.34 921.89 624.50
  A 2.62 2.61 -46.1 0 0 921.93 626.68
  Q 957.14 699.67 982.44 775.42
  A 0.47 0.46 -17.4 0 0 983.02 775.71
  Q 1016.48 765.57 1048.31 752.31
  C 1081.54 738.46 1114.38 720.86 1140.92 697.51
  C 1164.95 676.36 1186.29 647.00 1176.32 613.79
  C 1169.83 592.21 1153.31 574.20 1135.40 559.43
  Q 1116.94 544.21 1093.73 531.33
  C 1056.04 510.42 1014.61 494.97 973.03 483.00
  Q 972.58 482.87 972.45 483.33"
/>
<path stroke="#c1ebfb" vector-effect="non-scaling-stroke" d="
  M 382.66 739.41
  Q 373.07 764.01 364.40 789.58
  A 0.44 0.44 0.0 0 0 364.72 790.15
  Q 414.19 801.57 466.35 808.50
  Q 467.77 808.69 466.89 807.56
  Q 465.91 806.29 465.03 804.85
  Q 431.54 749.90 402.79 691.89
  A 0.32 0.31 -46.7 0 0 402.22 691.91
  Q 392.02 715.38 382.66 739.41"
/>
<path stroke="#c1ebfb" vector-effect="non-scaling-stroke" d="
  M 888.16 697.18
  Q 859.80 753.69 826.62 807.88
  A 0.48 0.48 0.0 0 0 827.09 808.61
  Q 878.28 801.76 928.94 790.15
  A 0.34 0.33 74.8 0 0 929.18 789.72
  Q 912.37 740.33 891.42 692.11
  A 0.53 0.53 0.0 0 0 890.45 692.12
  Q 889.39 694.73 888.16 697.18"
/>
<path stroke="#c1ebfb" vector-effect="non-scaling-stroke" d="
  M 327.87 1033.22
  C 332.33 1065.78 345.14 1105.10 378.75 1116.79
  Q 392.19 1121.46 407.21 1120.66
  Q 428.29 1119.55 451.69 1110.68
  C 488.55 1096.72 521.85 1074.59 553.11 1049.25
  Q 581.32 1026.38 608.06 999.94
  Q 608.67 999.34 608.10 998.70
  Q 554.32 938.52 507.50 870.19
  Q 506.48 868.70 504.73 868.52
  Q 424.36 860.63 348.80 843.02
  A 0.71 0.70 13.1 0 0 347.95 843.54
  Q 346.42 849.82 344.84 856.02
  C 334.01 898.49 326.53 942.90 325.39 986.13
  Q 324.74 1010.39 327.87 1033.22"
/>
<path stroke="#c1ebfb" vector-effect="non-scaling-stroke" d="
  M 967.35 1017.70
  Q 969.18 993.15 967.28 966.95
  C 964.27 925.20 956.42 883.62 945.43 843.63
  A 0.74 0.74 0.0 0 0 944.55 843.11
  Q 867.88 860.85 788.41 868.56
  C 787.60 868.64 786.79 869.20 786.33 869.86
  C 755.34 914.87 721.56 958.59 685.18 998.88
  A 0.63 0.62 -46.7 0 0 685.20 999.75
  C 711.30 1025.31 738.89 1049.46 768.30 1070.35
  Q 794.62 1089.03 821.07 1101.80
  C 841.43 1111.63 864.10 1119.47 885.99 1120.67
  Q 897.65 1121.31 909.30 1118.45
  C 952.36 1107.87 964.57 1055.16 967.35 1017.70"
/>
<path stroke="#c1ebfb" vector-effect="non-scaling-stroke" d="
  M 715.33 874.52
  A 0.42 0.41 -73.2 0 0 714.98 873.86
  Q 646.46 877.19 578.70 873.82
  A 0.52 0.52 0.0 0 0 578.26 874.65
  Q 611.16 919.18 646.44 958.81
  A 0.47 0.47 0.0 0 0 647.14 958.81
  Q 683.04 918.43 715.33 874.52"
/>
<path stroke="#c1ebfb" vector-effect="non-scaling-stroke" d="
  M 756.81 630.98
  A 110.04 110.04 0.0 0 0 646.77 520.94
  A 110.04 110.04 0.0 0 0 536.73 630.98
  A 110.04 110.04 0.0 0 0 646.77 741.02
  A 110.04 110.04 0.0 0 0 756.81 630.98"
/>
</g>
<path fill="#ffffff" d="
  M 0.00 0.00
  L 1300.00 0.00
  L 1300.00 1300.00
  L 0.00 1300.00
  L 0.00 0.00
  Z
  M 307.66 428.70
  A 0.74 0.73 76.6 0 1 307.14 429.56
  Q 267.64 440.69 229.83 456.08
  C 190.59 472.05 152.88 492.00 121.03 518.66
  C 102.72 533.98 86.22 552.03 74.70 573.09
  C 61.07 597.99 56.15 626.45 61.88 653.96
  C 68.82 687.31 89.81 715.42 115.08 737.86
  C 144.38 763.87 179.15 783.64 215.32 799.42
  Q 254.30 816.42 294.23 828.25
  A 0.96 0.95 -74.3 0 1 294.88 829.42
  Q 281.31 878.73 274.81 927.95
  C 269.07 971.49 267.47 1016.77 276.67 1059.75
  C 282.93 1088.97 294.48 1116.92 314.34 1138.35
  Q 338.76 1164.72 374.25 1172.80
  C 404.49 1179.69 436.80 1174.41 465.89 1164.12
  C 506.08 1149.90 543.05 1127.05 577.03 1100.61
  Q 613.60 1072.15 646.53 1039.34
  A 0.40 0.38 45.0 0 1 647.08 1039.35
  Q 678.05 1070.28 712.45 1097.43
  Q 736.47 1116.39 761.31 1131.78
  C 790.13 1149.63 821.47 1164.36 853.94 1171.66
  Q 874.81 1176.35 894.48 1175.78
  C 933.31 1174.65 966.59 1157.52 989.00 1126.32
  C 1008.72 1098.86 1017.99 1064.24 1021.46 1030.48
  Q 1023.90 1006.74 1023.17 982.35
  Q 1022.19 949.39 1016.96 915.28
  Q 1010.37 872.25 998.60 829.16
  A 0.62 0.61 -16.6 0 1 999.01 828.41
  Q 1034.97 817.53 1068.21 803.70
  C 1105.65 788.13 1141.73 768.72 1172.33 743.21
  C 1194.15 725.02 1213.64 702.56 1224.51 676.76
  Q 1238.58 643.36 1231.71 608.05
  C 1224.20 569.51 1196.39 537.21 1166.34 513.59
  C 1134.58 488.62 1097.88 469.74 1060.04 454.60
  Q 1024.34 440.32 986.10 429.44
  A 0.44 0.44 0.0 0 1 985.78 428.92
  Q 996.38 380.13 999.06 332.76
  C 1002.89 265.00 991.72 174.25 922.50 139.76
  C 889.17 123.16 851.22 124.59 815.90 135.12
  C 782.76 145.00 751.69 161.32 722.97 180.75
  Q 683.87 207.20 647.39 240.87
  Q 646.79 241.43 646.18 240.88
  Q 603.18 201.37 560.32 174.05
  Q 535.11 157.98 509.12 146.64
  C 473.00 130.87 431.93 121.14 393.16 131.42
  C 339.32 145.70 310.75 192.42 300.07 244.38
  C 294.16 273.11 292.85 302.98 294.45 332.06
  C 296.22 364.24 300.86 396.65 307.66 428.70
  Z"
/>
<path fill="#82d7f6" d="
  M 307.66 428.70
  C 300.86 396.65 296.22 364.24 294.45 332.06
  C 292.85 302.98 294.16 273.11 300.07 244.38
  C 310.75 192.42 339.32 145.70 393.16 131.42
  C 431.93 121.14 473.00 130.87 509.12 146.64
  Q 535.11 157.98 560.32 174.05
  Q 603.18 201.37 646.18 240.88
  Q 646.79 241.43 647.39 240.87
  Q 683.87 207.20 722.97 180.75
  C 751.69 161.32 782.76 145.00 815.90 135.12
  C 851.22 124.59 889.17 123.16 922.50 139.76
  C 991.72 174.25 1002.89 265.00 999.06 332.76
  Q 996.38 380.13 985.78 428.92
  A 0.44 0.44 0.0 0 0 986.10 429.44
  Q 1024.34 440.32 1060.04 454.60
  C 1097.88 469.74 1134.58 488.62 1166.34 513.59
  C 1196.39 537.21 1224.20 569.51 1231.71 608.05
  Q 1238.58 643.36 1224.51 676.76
  C 1213.64 702.56 1194.15 725.02 1172.33 743.21
  C 1141.73 768.72 1105.65 788.13 1068.21 803.70
  Q 1034.97 817.53 999.01 828.41
  A 0.62 0.61 -16.6 0 0 998.60 829.16
  Q 1010.37 872.25 1016.96 915.28
  Q 1022.19 949.39 1023.17 982.35
  Q 1023.90 1006.74 1021.46 1030.48
  C 1017.99 1064.24 1008.72 1098.86 989.00 1126.32
  C 966.59 1157.52 933.31 1174.65 894.48 1175.78
  Q 874.81 1176.35 853.94 1171.66
  C 821.47 1164.36 790.13 1149.63 761.31 1131.78
  Q 736.47 1116.39 712.45 1097.43
  Q 678.05 1070.28 647.08 1039.35
  A 0.40 0.38 45.0 0 0 646.53 1039.34
  Q 613.60 1072.15 577.03 1100.61
  C 543.05 1127.05 506.08 1149.90 465.89 1164.12
  C 436.80 1174.41 404.49 1179.69 374.25 1172.80
  Q 338.76 1164.72 314.34 1138.35
  C 294.48 1116.92 282.93 1088.97 276.67 1059.75
  C 267.47 1016.77 269.07 971.49 274.81 927.95
  Q 281.31 878.73 294.88 829.42
  A 0.96 0.95 -74.3 0 0 294.23 828.25
  Q 254.30 816.42 215.32 799.42
  C 179.15 783.64 144.38 763.87 115.08 737.86
  C 89.81 715.42 68.82 687.31 61.88 653.96
  C 56.15 626.45 61.07 597.99 74.70 573.09
  C 86.22 552.03 102.72 533.98 121.03 518.66
  C 152.88 492.00 190.59 472.05 229.83 456.08
  Q 267.64 440.69 307.14 429.56
  A 0.74 0.73 76.6 0 0 307.66 428.70
  Z
  M 402.98 186.02
  C 372.57 196.30 359.35 228.55 353.56 257.84
  C 348.01 285.95 347.97 316.58 350.60 345.37
  Q 353.81 380.61 361.04 414.91
  Q 361.25 415.92 362.26 415.66
  Q 366.14 414.67 369.76 413.91
  Q 440.54 399.03 510.97 392.55
  Q 512.67 392.39 513.68 391.04
  C 542.40 352.63 573.22 315.21 606.64 280.65
  A 0.92 0.91 43.1 0 0 606.59 279.33
  C 574.42 250.42 539.45 223.02 501.35 203.78
  Q 481.15 193.58 461.60 187.83
  C 442.32 182.15 421.57 179.73 402.98 186.02
  Z
  M 849.89 183.74
  C 818.98 189.01 788.64 203.87 761.73 221.19
  Q 730.23 241.46 699.66 268.13
  Q 693.23 273.73 686.65 279.49
  A 0.52 0.52 0.0 0 0 686.62 280.24
  Q 736.01 332.02 779.32 390.55
  Q 780.66 392.37 782.89 392.58
  Q 858.66 399.62 931.55 415.60
  A 0.77 0.77 0.0 0 0 932.47 415.01
  Q 939.69 380.58 942.90 345.87
  C 945.99 312.55 945.63 277.44 937.14 245.75
  C 930.48 220.87 917.50 196.53 893.18 186.98
  C 879.69 181.67 864.11 181.32 849.89 183.74
  Z
  M 700.43 387.18
  Q 703.38 387.30 706.27 387.56
  A 0.51 0.51 0.0 0 0 706.71 386.73
  Q 678.38 351.30 647.12 318.73
  Q 646.73 318.33 646.35 318.74
  Q 615.37 351.33 587.15 386.20
  Q 586.12 387.48 587.76 387.41
  Q 647.48 385.13 700.43 387.18
  Z
  M 433.43 628.10
  C 462.94 692.74 497.40 754.90 536.43 814.61
  C 537.29 815.93 538.17 816.26 539.71 816.37
  C 611.07 821.69 682.91 821.73 755.07 816.32
  Q 756.01 816.25 756.53 815.45
  Q 815.90 724.83 860.21 627.89
  Q 860.67 626.87 860.17 625.87
  Q 812.42 531.50 751.91 446.31
  Q 750.97 444.99 749.35 444.87
  Q 645.09 437.54 543.93 445.02
  Q 542.42 445.13 541.55 446.35
  Q 480.87 532.01 433.48 625.68
  A 2.79 2.78 -43.9 0 0 433.43 628.10
  Z
  M 400.16 547.55
  Q 402.48 553.78 404.86 560.20
  A 0.43 0.42 -41.3 0 0 405.63 560.25
  C 425.70 523.53 446.95 487.91 469.86 453.59
  Q 470.10 453.23 469.94 452.85
  A 0.22 0.22 0.0 0 0 469.71 452.71
  Q 421.99 458.90 375.18 469.16
  A 0.76 0.76 0.0 0 0 374.61 470.12
  Q 385.72 508.74 400.16 547.55
  Z
  M 888.52 560.17
  C 900.14 530.74 910.19 500.36 918.85 470.41
  A 1.09 1.08 14.3 0 0 918.04 469.05
  Q 872.24 459.10 824.31 452.66
  Q 823.23 452.51 823.56 453.54
  C 823.89 454.55 825.17 455.76 825.71 456.59
  Q 858.86 506.98 887.83 560.21
  A 0.38 0.38 0.0 0 0 888.52 560.17
  Z
  M 320.49 482.94
  C 270.69 497.90 220.94 516.10 177.66 544.95
  Q 155.23 559.90 138.98 577.66
  Q 125.92 591.91 119.79 606.59
  C 105.89 639.88 122.89 669.50 147.32 692.59
  C 171.75 715.67 202.26 733.30 233.54 747.24
  Q 269.49 763.27 310.31 775.58
  A 0.69 0.69 0.0 0 0 311.16 775.14
  Q 336.90 698.60 371.87 626.07
  Q 372.13 625.53 371.89 624.97
  Q 341.69 555.41 321.06 483.24
  A 0.45 0.45 0.0 0 0 320.49 482.94
  Z
  M 972.45 483.33
  C 958.87 530.94 941.76 578.34 921.89 624.50
  A 2.62 2.61 -46.1 0 0 921.93 626.68
  Q 957.14 699.67 982.44 775.42
  A 0.47 0.46 -17.4 0 0 983.02 775.71
  Q 1016.48 765.57 1048.31 752.31
  C 1081.54 738.46 1114.38 720.86 1140.92 697.51
  C 1164.95 676.36 1186.29 647.00 1176.32 613.79
  C 1169.83 592.21 1153.31 574.20 1135.40 559.43
  Q 1116.94 544.21 1093.73 531.33
  C 1056.04 510.42 1014.61 494.97 973.03 483.00
  Q 972.58 482.87 972.45 483.33
  Z
  M 382.66 739.41
  Q 373.07 764.01 364.40 789.58
  A 0.44 0.44 0.0 0 0 364.72 790.15
  Q 414.19 801.57 466.35 808.50
  Q 467.77 808.69 466.89 807.56
  Q 465.91 806.29 465.03 804.85
  Q 431.54 749.90 402.79 691.89
  A 0.32 0.31 -46.7 0 0 402.22 691.91
  Q 392.02 715.38 382.66 739.41
  Z
  M 888.16 697.18
  Q 859.80 753.69 826.62 807.88
  A 0.48 0.48 0.0 0 0 827.09 808.61
  Q 878.28 801.76 928.94 790.15
  A 0.34 0.33 74.8 0 0 929.18 789.72
  Q 912.37 740.33 891.42 692.11
  A 0.53 0.53 0.0 0 0 890.45 692.12
  Q 889.39 694.73 888.16 697.18
  Z
  M 327.87 1033.22
  C 332.33 1065.78 345.14 1105.10 378.75 1116.79
  Q 392.19 1121.46 407.21 1120.66
  Q 428.29 1119.55 451.69 1110.68
  C 488.55 1096.72 521.85 1074.59 553.11 1049.25
  Q 581.32 1026.38 608.06 999.94
  Q 608.67 999.34 608.10 998.70
  Q 554.32 938.52 507.50 870.19
  Q 506.48 868.70 504.73 868.52
  Q 424.36 860.63 348.80 843.02
  A 0.71 0.70 13.1 0 0 347.95 843.54
  Q 346.42 849.82 344.84 856.02
  C 334.01 898.49 326.53 942.90 325.39 986.13
  Q 324.74 1010.39 327.87 1033.22
  Z
  M 967.35 1017.70
  Q 969.18 993.15 967.28 966.95
  C 964.27 925.20 956.42 883.62 945.43 843.63
  A 0.74 0.74 0.0 0 0 944.55 843.11
  Q 867.88 860.85 788.41 868.56
  C 787.60 868.64 786.79 869.20 786.33 869.86
  C 755.34 914.87 721.56 958.59 685.18 998.88
  A 0.63 0.62 -46.7 0 0 685.20 999.75
  C 711.30 1025.31 738.89 1049.46 768.30 1070.35
  Q 794.62 1089.03 821.07 1101.80
  C 841.43 1111.63 864.10 1119.47 885.99 1120.67
  Q 897.65 1121.31 909.30 1118.45
  C 952.36 1107.87 964.57 1055.16 967.35 1017.70
  Z
  M 715.33 874.52
  A 0.42 0.41 -73.2 0 0 714.98 873.86
  Q 646.46 877.19 578.70 873.82
  A 0.52 0.52 0.0 0 0 578.26 874.65
  Q 611.16 919.18 646.44 958.81
  A 0.47 0.47 0.0 0 0 647.14 958.81
  Q 683.04 918.43 715.33 874.52
  Z"
/>
<path fill="#ffffff" d="
  M 353.56 257.84
  C 359.35 228.55 372.57 196.30 402.98 186.02
  C 421.57 179.73 442.32 182.15 461.60 187.83
  Q 481.15 193.58 501.35 203.78
  C 539.45 223.02 574.42 250.42 606.59 279.33
  A 0.92 0.91 43.1 0 1 606.64 280.65
  C 573.22 315.21 542.40 352.63 513.68 391.04
  Q 512.67 392.39 510.97 392.55
  Q 440.54 399.03 369.76 413.91
  Q 366.14 414.67 362.26 415.66
  Q 361.25 415.92 361.04 414.91
  Q 353.81 380.61 350.60 345.37
  C 347.97 316.58 348.01 285.95 353.56 257.84
  Z"
/>
<path fill="#ffffff" d="
  M 761.73 221.19
  C 788.64 203.87 818.98 189.01 849.89 183.74
  C 864.11 181.32 879.69 181.67 893.18 186.98
  C 917.50 196.53 930.48 220.87 937.14 245.75
  C 945.63 277.44 945.99 312.55 942.90 345.87
  Q 939.69 380.58 932.47 415.01
  A 0.77 0.77 0.0 0 1 931.55 415.60
  Q 858.66 399.62 782.89 392.58
  Q 780.66 392.37 779.32 390.55
  Q 736.01 332.02 686.62 280.24
  A 0.52 0.52 0.0 0 1 686.65 279.49
  Q 693.23 273.73 699.66 268.13
  Q 730.23 241.46 761.73 221.19
  Z"
/>
<path fill="#ffffff" d="
  M 700.43 387.18
  Q 647.48 385.13 587.76 387.41
  Q 586.12 387.48 587.15 386.20
  Q 615.37 351.33 646.35 318.74
  Q 646.73 318.33 647.12 318.73
  Q 678.38 351.30 706.71 386.73
  A 0.51 0.51 0.0 0 1 706.27 387.56
  Q 703.38 387.30 700.43 387.18
  Z"
/>
<path fill="#ffffff" d="
  M 536.43 814.61
  C 497.40 754.90 462.94 692.74 433.43 628.10
  A 2.79 2.78 -43.9 0 1 433.48 625.68
  Q 480.87 532.01 541.55 446.35
  Q 542.42 445.13 543.93 445.02
  Q 645.09 437.54 749.35 444.87
  Q 750.97 444.99 751.91 446.31
  Q 812.42 531.50 860.17 625.87
  Q 860.67 626.87 860.21 627.89
  Q 815.90 724.83 756.53 815.45
  Q 756.01 816.25 755.07 816.32
  C 682.91 821.73 611.07 821.69 539.71 816.37
  C 538.17 816.26 537.29 815.93 536.43 814.61
  Z
  M 756.81 630.98
  A 110.04 110.04 0.0 0 0 646.77 520.94
  A 110.04 110.04 0.0 0 0 536.73 630.98
  A 110.04 110.04 0.0 0 0 646.77 741.02
  A 110.04 110.04 0.0 0 0 756.81 630.98
  Z"
/>
<path fill="#ffffff" d="
  M 400.16 547.55
  Q 385.72 508.74 374.61 470.12
  A 0.76 0.76 0.0 0 1 375.18 469.16
  Q 421.99 458.90 469.71 452.71
  A 0.22 0.22 0.0 0 1 469.94 452.85
  Q 470.10 453.23 469.86 453.59
  C 446.95 487.91 425.70 523.53 405.63 560.25
  A 0.43 0.42 -41.3 0 1 404.86 560.20
  Q 402.48 553.78 400.16 547.55
  Z"
/>
<path fill="#ffffff" d="
  M 918.85 470.41
  C 910.19 500.36 900.14 530.74 888.52 560.17
  A 0.38 0.38 0.0 0 1 887.83 560.21
  Q 858.86 506.98 825.71 456.59
  C 825.17 455.76 823.89 454.55 823.56 453.54
  Q 823.23 452.51 824.31 452.66
  Q 872.24 459.10 918.04 469.05
  A 1.09 1.08 14.3 0 1 918.85 470.41
  Z"
/>
<path fill="#ffffff" d="
  M 177.66 544.95
  C 220.94 516.10 270.69 497.90 320.49 482.94
  A 0.45 0.45 0.0 0 1 321.06 483.24
  Q 341.69 555.41 371.89 624.97
  Q 372.13 625.53 371.87 626.07
  Q 336.90 698.60 311.16 775.14
  A 0.69 0.69 0.0 0 1 310.31 775.58
  Q 269.49 763.27 233.54 747.24
  C 202.26 733.30 171.75 715.67 147.32 692.59
  C 122.89 669.50 105.89 639.88 119.79 606.59
  Q 125.92 591.91 138.98 577.66
  Q 155.23 559.90 177.66 544.95
  Z"
/>
<path fill="#ffffff" d="
  M 921.89 624.50
  C 941.76 578.34 958.87 530.94 972.45 483.33
  Q 972.58 482.87 973.03 483.00
  C 1014.61 494.97 1056.04 510.42 1093.73 531.33
  Q 1116.94 544.21 1135.40 559.43
  C 1153.31 574.20 1169.83 592.21 1176.32 613.79
  C 1186.29 647.00 1164.95 676.36 1140.92 697.51
  C 1114.38 720.86 1081.54 738.46 1048.31 752.31
  Q 1016.48 765.57 983.02 775.71
  A 0.47 0.46 -17.4 0 1 982.44 775.42
  Q 957.14 699.67 921.93 626.68
  A 2.62 2.61 -46.1 0 1 921.89 624.50
  Z"
/>
<circle fill="#82d7f6" cx="646.77" cy="630.98" r="110.04"/>
<path fill="#ffffff" d="
  M 382.66 739.41
  Q 392.02 715.38 402.22 691.91
  A 0.32 0.31 -46.7 0 1 402.79 691.89
  Q 431.54 749.90 465.03 804.85
  Q 465.91 806.29 466.89 807.56
  Q 467.77 808.69 466.35 808.50
  Q 414.19 801.57 364.72 790.15
  A 0.44 0.44 0.0 0 1 364.40 789.58
  Q 373.07 764.01 382.66 739.41
  Z"
/>
<path fill="#ffffff" d="
  M 888.16 697.18
  Q 889.39 694.73 890.45 692.12
  A 0.53 0.53 0.0 0 1 891.42 692.11
  Q 912.37 740.33 929.18 789.72
  A 0.34 0.33 74.8 0 1 928.94 790.15
  Q 878.28 801.76 827.09 808.61
  A 0.48 0.48 0.0 0 1 826.62 807.88
  Q 859.80 753.69 888.16 697.18
  Z"
/>
<path fill="#ffffff" d="
  M 378.75 1116.79
  C 345.14 1105.10 332.33 1065.78 327.87 1033.22
  Q 324.74 1010.39 325.39 986.13
  C 326.53 942.90 334.01 898.49 344.84 856.02
  Q 346.42 849.82 347.95 843.54
  A 0.71 0.70 13.1 0 1 348.80 843.02
  Q 424.36 860.63 504.73 868.52
  Q 506.48 868.70 507.50 870.19
  Q 554.32 938.52 608.10 998.70
  Q 608.67 999.34 608.06 999.94
  Q 581.32 1026.38 553.11 1049.25
  C 521.85 1074.59 488.55 1096.72 451.69 1110.68
  Q 428.29 1119.55 407.21 1120.66
  Q 392.19 1121.46 378.75 1116.79
  Z"
/>
<path fill="#ffffff" d="
  M 967.35 1017.70
  C 964.57 1055.16 952.36 1107.87 909.30 1118.45
  Q 897.65 1121.31 885.99 1120.67
  C 864.10 1119.47 841.43 1111.63 821.07 1101.80
  Q 794.62 1089.03 768.30 1070.35
  C 738.89 1049.46 711.30 1025.31 685.20 999.75
  A 0.63 0.62 -46.7 0 1 685.18 998.88
  C 721.56 958.59 755.34 914.87 786.33 869.86
  C 786.79 869.20 787.60 868.64 788.41 868.56
  Q 867.88 860.85 944.55 843.11
  A 0.74 0.74 0.0 0 1 945.43 843.63
  C 956.42 883.62 964.27 925.20 967.28 966.95
  Q 969.18 993.15 967.35 1017.70
  Z"
/>
<path fill="#ffffff" d="
  M 715.33 874.52
  Q 683.04 918.43 647.14 958.81
  A 0.47 0.47 0.0 0 1 646.44 958.81
  Q 611.16 919.18 578.26 874.65
  A 0.52 0.52 0.0 0 1 578.70 873.82
  Q 646.46 877.19 714.98 873.86
  A 0.42 0.41 -73.2 0 1 715.33 874.52
  Z"
/>
</svg>
