<?xml version="1.0" encoding="UTF-8" standalone="no"?>
<!DOCTYPE svg PUBLIC "-//W3C//DTD SVG 1.1//EN" "http://www.w3.org/Graphics/SVG/1.1/DTD/svg11.dtd">
<svg xmlns="http://www.w3.org/2000/svg" version="1.1" viewBox="0.00 0.00 923.00 830.00">
<g stroke-width="2.00" fill="none" stroke-linecap="butt">
<path stroke="#9aa5b0" vector-effect="non-scaling-stroke" d="
  M 732.90 7.43
  L 565.18 7.39
  Q 563.74 7.39 563.02 8.64
  L 459.00 189.23
  A 0.86 0.80 -64.0 0 1 457.98 189.62
  Q 457.84 189.56 457.63 189.16
  Q 451.78 177.81 445.18 166.89
  C 440.53 159.22 436.19 150.61 432.52 144.50
  Q 427.22 135.70 423.77 129.69
  C 415.78 115.75 409.80 105.60 403.07 93.40
  C 401.51 90.57 399.12 87.50 397.80 84.95
  C 391.41 72.62 383.89 61.04 377.31 48.85
  C 372.40 39.78 365.15 29.25 361.60 21.92
  Q 358.01 14.50 353.34 7.92
  A 1.31 1.30 72.2 0 0 352.28 7.37
  L 184.16 7.32"
/>
<path stroke="#9dddc2" vector-effect="non-scaling-stroke" d="
  M 184.16 7.32
  L 2.86 7.20
  A 0.88 0.87 -15.0 0 0 2.10 8.51
  L 457.90 798.51
  A 0.77 0.70 46.6 0 0 459.17 798.61
  L 915.15 8.25
  A 0.66 0.65 14.9 0 0 914.58 7.27
  L 732.90 7.43"
/>
<path stroke="#378373" vector-effect="non-scaling-stroke" d="
  M 184.16 7.32
  Q 190.64 18.29 196.96 29.08
  C 199.40 33.23 202.28 38.96 205.26 43.75
  C 216.80 62.31 226.66 81.58 238.23 100.47
  C 242.22 106.98 245.92 114.37 249.38 120.11
  Q 263.74 143.93 277.26 168.25
  Q 278.22 169.98 282.55 177.14
  C 287.06 184.60 290.63 191.92 295.65 200.22
  Q 299.76 207.02 303.77 214.24
  C 308.20 222.20 312.88 229.80 317.37 237.94
  C 322.32 246.90 329.19 257.98 332.87 264.42
  C 343.43 282.90 354.35 301.22 364.56 319.89
  C 369.09 328.18 374.03 335.42 379.46 345.31
  Q 382.90 351.59 387.77 359.57
  C 392.71 367.65 396.60 375.59 401.27 383.35
  C 410.61 398.87 418.54 414.09 428.46 430.46
  C 434.94 441.15 440.19 451.02 446.27 461.19
  C 450.19 467.74 453.89 474.81 457.88 481.57
  A 0.67 0.67 0.0 0 0 459.03 481.58
  Q 465.62 470.95 471.54 459.78
  C 473.94 455.27 477.51 450.08 480.14 445.36
  C 488.44 430.46 496.61 416.02 505.72 400.83
  Q 509.70 394.19 512.82 388.40
  C 518.23 378.34 521.98 372.96 527.54 362.78
  Q 530.43 357.48 541.87 338.27
  C 544.05 334.60 546.38 329.88 548.90 325.80
  C 554.52 316.70 559.68 307.40 564.97 298.13
  C 579.63 272.41 594.33 246.65 609.35 221.13
  C 615.25 211.10 620.31 201.22 626.39 191.69
  C 632.06 182.81 636.81 173.09 642.17 163.96
  C 647.00 155.76 652.22 146.10 657.59 137.33
  Q 660.98 131.81 664.35 125.71
  C 670.01 115.50 676.16 105.38 681.82 95.31
  C 684.25 91.00 687.74 85.83 690.41 80.89
  C 696.48 69.66 703.17 58.86 709.41 47.73
  C 715.72 36.49 723.59 24.08 730.07 11.85
  Q 730.54 10.96 731.66 9.82
  Q 732.91 8.53 732.90 7.43"
/>
</g>
<path fill="#ffffff" d="
  M 0.00 0.00
  L 923.00 0.00
  L 923.00 830.00
  L 0.00 830.00
  L 0.00 0.00
  Z
  M 732.90 7.43
  L 565.18 7.39
  Q 563.74 7.39 563.02 8.64
  L 459.00 189.23
  A 0.86 0.80 -64.0 0 1 457.98 189.62
  Q 457.84 189.56 457.63 189.16
  Q 451.78 177.81 445.18 166.89
  C 440.53 159.22 436.19 150.61 432.52 144.50
  Q 427.22 135.70 423.77 129.69
  C 415.78 115.75 409.80 105.60 403.07 93.40
  C 401.51 90.57 399.12 87.50 397.80 84.95
  C 391.41 72.62 383.89 61.04 377.31 48.85
  C 372.40 39.78 365.15 29.25 361.60 21.92
  Q 358.01 14.50 353.34 7.92
  A 1.31 1.30 72.2 0 0 352.28 7.37
  L 184.16 7.32
  L 2.86 7.20
  A 0.88 0.87 -15.0 0 0 2.10 8.51
  L 457.90 798.51
  A 0.77 0.70 46.6 0 0 459.17 798.61
  L 915.15 8.25
  A 0.66 0.65 14.9 0 0 914.58 7.27
  L 732.90 7.43
  Z"
/>
<path fill="#3abb84" d="
  M 184.16 7.32
  Q 190.64 18.29 196.96 29.08
  C 199.40 33.23 202.28 38.96 205.26 43.75
  C 216.80 62.31 226.66 81.58 238.23 100.47
  C 242.22 106.98 245.92 114.37 249.38 120.11
  Q 263.74 143.93 277.26 168.25
  Q 278.22 169.98 282.55 177.14
  C 287.06 184.60 290.63 191.92 295.65 200.22
  Q 299.76 207.02 303.77 214.24
  C 308.20 222.20 312.88 229.80 317.37 237.94
  C 322.32 246.90 329.19 257.98 332.87 264.42
  C 343.43 282.90 354.35 301.22 364.56 319.89
  C 369.09 328.18 374.03 335.42 379.46 345.31
  Q 382.90 351.59 387.77 359.57
  C 392.71 367.65 396.60 375.59 401.27 383.35
  C 410.61 398.87 418.54 414.09 428.46 430.46
  C 434.94 441.15 440.19 451.02 446.27 461.19
  C 450.19 467.74 453.89 474.81 457.88 481.57
  A 0.67 0.67 0.0 0 0 459.03 481.58
  Q 465.62 470.95 471.54 459.78
  C 473.94 455.27 477.51 450.08 480.14 445.36
  C 488.44 430.46 496.61 416.02 505.72 400.83
  Q 509.70 394.19 512.82 388.40
  C 518.23 378.34 521.98 372.96 527.54 362.78
  Q 530.43 357.48 541.87 338.27
  C 544.05 334.60 546.38 329.88 548.90 325.80
  C 554.52 316.70 559.68 307.40 564.97 298.13
  C 579.63 272.41 594.33 246.65 609.35 221.13
  C 615.25 211.10 620.31 201.22 626.39 191.69
  C 632.06 182.81 636.81 173.09 642.17 163.96
  C 647.00 155.76 652.22 146.10 657.59 137.33
  Q 660.98 131.81 664.35 125.71
  C 670.01 115.50 676.16 105.38 681.82 95.31
  C 684.25 91.00 687.74 85.83 690.41 80.89
  C 696.48 69.66 703.17 58.86 709.41 47.73
  C 715.72 36.49 723.59 24.08 730.07 11.85
  Q 730.54 10.96 731.66 9.82
  Q 732.91 8.53 732.90 7.43
  L 914.58 7.27
  A 0.66 0.65 14.9 0 1 915.15 8.25
  L 459.17 798.61
  A 0.77 0.70 46.6 0 1 457.90 798.51
  L 2.10 8.51
  A 0.88 0.87 -15.0 0 1 2.86 7.20
  L 184.16 7.32
  Z"
/>
<path fill="#344a61" d="
  M 732.90 7.43
  Q 732.91 8.53 731.66 9.82
  Q 730.54 10.96 730.07 11.85
  C 723.59 24.08 715.72 36.49 709.41 47.73
  C 703.17 58.86 696.48 69.66 690.41 80.89
  C 687.74 85.83 684.25 91.00 681.82 95.31
  C 676.16 105.38 670.01 115.50 664.35 125.71
  Q 660.98 131.81 657.59 137.33
  C 652.22 146.10 647.00 155.76 642.17 163.96
  C 636.81 173.09 632.06 182.81 626.39 191.69
  C 620.31 201.22 615.25 211.10 609.35 221.13
  C 594.33 246.65 579.63 272.41 564.97 298.13
  C 559.68 307.40 554.52 316.70 548.90 325.80
  C 546.38 329.88 544.05 334.60 541.87 338.27
  Q 530.43 357.48 527.54 362.78
  C 521.98 372.96 518.23 378.34 512.82 388.40
  Q 509.70 394.19 505.72 400.83
  C 496.61 416.02 488.44 430.46 480.14 445.36
  C 477.51 450.08 473.94 455.27 471.54 459.78
  Q 465.62 470.95 459.03 481.58
  A 0.67 0.67 0.0 0 1 457.88 481.57
  C 453.89 474.81 450.19 467.74 446.27 461.19
  C 440.19 451.02 434.94 441.15 428.46 430.46
  C 418.54 414.09 410.61 398.87 401.27 383.35
  C 396.60 375.59 392.71 367.65 387.77 359.57
  Q 382.90 351.59 379.46 345.31
  C 374.03 335.42 369.09 328.18 364.56 319.89
  C 354.35 301.22 343.43 282.90 332.87 264.42
  C 329.19 257.98 322.32 246.90 317.37 237.94
  C 312.88 229.80 308.20 222.20 303.77 214.24
  Q 299.76 207.02 295.65 200.22
  C 290.63 191.92 287.06 184.60 282.55 177.14
  Q 278.22 169.98 277.26 168.25
  Q 263.74 143.93 249.38 120.11
  C 245.92 114.37 242.22 106.98 238.23 100.47
  C 226.66 81.58 216.80 62.31 205.26 43.75
  C 202.28 38.96 199.40 33.23 196.96 29.08
  Q 190.64 18.29 184.16 7.32
  L 352.28 7.37
  A 1.31 1.30 72.2 0 1 353.34 7.92
  Q 358.01 14.50 361.60 21.92
  C 365.15 29.25 372.40 39.78 377.31 48.85
  C 383.89 61.04 391.41 72.62 397.80 84.95
  C 399.12 87.50 401.51 90.57 403.07 93.40
  C 409.80 105.60 415.78 115.75 423.77 129.69
  Q 427.22 135.70 432.52 144.50
  C 436.19 150.61 440.53 159.22 445.18 166.89
  Q 451.78 177.81 457.63 189.16
  Q 457.84 189.56 457.98 189.62
  A 0.86 0.80 -64.0 0 0 459.00 189.23
  L 563.02 8.64
  Q 563.74 7.39 565.18 7.39
  L 732.90 7.43
  Z"
/>
</svg>
