<?xml version="1.0" encoding="UTF-8" standalone="no"?>
<!DOCTYPE svg PUBLIC "-//W3C//DTD SVG 1.1//EN" "http://www.w3.org/Graphics/SVG/1.1/DTD/svg11.dtd">
<svg xmlns="http://www.w3.org/2000/svg" version="1.1" viewBox="0.00 0.00 1448.00 1448.00">
<path stroke="#4f8072" stroke-width="2.00" fill="none" stroke-linecap="butt" vector-effect="non-scaling-stroke" d="
  M 315.04 142.49
  L 719.09 843.19
  A 0.51 0.50 -32.1 0 0 719.81 843.35
  Q 720.21 843.07 720.52 842.54
  Q 913.13 508.56 1120.11 149.84
  Q 1122.61 145.51 1123.56 142.53"
/>
<path fill="#65b686" d="
  M 315.04 142.49
  L 719.09 843.19
  A 0.51 0.50 -32.1 0 0 719.81 843.35
  Q 720.21 843.07 720.52 842.54
  Q 913.13 508.56 1120.11 149.84
  Q 1122.61 145.51 1123.56 142.53
  Q 1254.75 142.57 1386.00 142.43
  Q 1389.62 142.42 1392.84 143.21
  A 0.94 0.94 0.0 0 1 1393.41 144.61
  Q 1383.45 160.73 1373.99 177.38
  Q 1369.07 186.04 1364.05 194.74
  Q 1349.23 220.42 1325.76 261.03
  Q 1274.50 349.74 1274.40 349.93
  C 1266.73 363.72 1259.02 376.35 1251.37 389.75
  Q 1232.27 423.24 1213.29 456.00
  Q 1193.44 490.29 1173.11 525.53
  Q 1122.50 613.26 1071.52 701.53
  Q 1069.17 705.61 1066.80 709.76
  Q 1052.63 734.61 1034.05 766.75
  Q 958.00 898.35 881.87 1029.92
  Q 875.71 1040.56 870.67 1049.45
  Q 848.57 1088.36 838.32 1105.82
  Q 828.61 1122.34 819.26 1138.59
  Q 786.43 1195.61 753.48 1252.56
  Q 751.93 1255.25 750.33 1258.03
  Q 736.64 1281.90 721.88 1307.61
  Q 721.20 1308.79 720.48 1309.60
  Q 719.70 1310.48 718.94 1309.59
  Q 717.54 1307.94 716.56 1306.21
  C 705.78 1287.17 694.01 1267.28 682.73 1247.55
  Q 658.59 1205.33 635.71 1165.83
  Q 627.16 1151.08 618.27 1135.71
  Q 576.58 1063.60 532.78 987.68
  Q 308.57 599.05 79.52 202.01
  Q 61.87 171.42 45.57 143.43
  A 0.52 0.52 0.0 0 1 46.02 142.65
  L 315.04 142.49
  Z"
/>
<path fill="#384a5d" d="
  M 315.04 142.49
  L 561.59 142.50
  A 4.38 4.37 -14.2 0 1 565.44 144.79
  C 569.20 151.74 573.35 158.65 577.32 165.56
  Q 603.57 211.25 628.66 254.79
  Q 644.83 282.86 658.86 306.95
  C 678.36 340.41 697.96 375.07 717.77 408.87
  C 718.00 409.27 718.08 409.61 718.14 410.06
  A 0.50 0.50 0.0 0 0 718.77 410.49
  L 719.78 410.20
  Q 720.29 410.06 720.61 409.63
  Q 721.93 407.86 722.93 406.14
  Q 783.33 301.73 844.61 195.57
  Q 860.69 167.71 873.45 145.19
  Q 874.92 142.60 878.00 142.60
  Q 1000.75 142.43 1123.56 142.53
  Q 1122.61 145.51 1120.11 149.84
  Q 913.13 508.56 720.52 842.54
  Q 720.21 843.07 719.81 843.35
  A 0.51 0.50 -32.1 0 1 719.09 843.19
  L 315.04 142.49
  Z"
/>
</svg>
