<?xml version="1.0" encoding="UTF-8" standalone="no"?>
<!DOCTYPE svg PUBLIC "-//W3C//DTD SVG 1.1//EN" "http://www.w3.org/Graphics/SVG/1.1/DTD/svg11.dtd">
<svg xmlns="http://www.w3.org/2000/svg" version="1.1" viewBox="0.00 0.00 1300.00 1300.00">
<g stroke-width="2.00" fill="none" stroke-linecap="butt">
<path stroke="#9ca4ae" vector-effect="non-scaling-stroke" d="
  M 1000.18 134.99
  L 783.01 135.01
  Q 782.31 135.01 781.95 135.62
  L 646.64 370.11
  A 0.38 0.38 0.0 0 1 646.00 370.13
  Q 644.27 367.57 642.45 364.42
  Q 576.43 249.77 510.45 135.50
  A 0.97 0.96 75.0 0 0 509.61 135.01
  L 292.27 135.00"
/>
<path stroke="#b2dbc3" vector-effect="non-scaling-stroke" d="
  M 292.27 135.00
  L 56.61 135.01
  A 0.25 0.25 0.0 0 0 56.40 135.39
  L 645.69 1156.60
  A 0.56 0.56 0.0 0 0 646.55 1156.74
  Q 646.95 1156.38 647.31 1155.77
  Q 941.62 645.59 1235.91 135.61
  A 0.40 0.40 0.0 0 0 1235.56 135.01
  L 1000.18 134.99"
/>
<path stroke="#4e8072" vector-effect="non-scaling-stroke" d="
  M 292.27 135.00
  L 645.70 747.46
  A 0.61 0.61 0.0 0 0 646.76 747.46
  L 1000.18 134.99"
/>
</g>
<path fill="#ffffff" d="
  M 0.00 0.00
  L 1300.00 0.00
  L 1300.00 1300.00
  L 0.00 1300.00
  L 0.00 0.00
  Z
  M 1000.18 134.99
  L 783.01 135.01
  Q 782.31 135.01 781.95 135.62
  L 646.64 370.11
  A 0.38 0.38 0.0 0 1 646.00 370.13
  Q 644.27 367.57 642.45 364.42
  Q 576.43 249.77 510.45 135.50
  A 0.97 0.96 75.0 0 0 509.61 135.01
  L 292.27 135.00
  L 56.61 135.01
  A 0.25 0.25 0.0 0 0 56.40 135.39
  L 645.69 1156.60
  A 0.56 0.56 0.0 0 0 646.55 1156.74
  Q 646.95 1156.38 647.31 1155.77
  Q 941.62 645.59 1235.91 135.61
  A 0.40 0.40 0.0 0 0 1235.56 135.01
  L 1000.18 134.99
  Z"
/>
<path fill="#64b686" d="
  M 292.27 135.00
  L 645.70 747.46
  A 0.61 0.61 0.0 0 0 646.76 747.46
  L 1000.18 134.99
  L 1235.56 135.01
  A 0.40 0.40 0.0 0 1 1235.91 135.61
  Q 941.62 645.59 647.31 1155.77
  Q 646.95 1156.38 646.55 1156.74
  A 0.56 0.56 0.0 0 1 645.69 1156.60
  L 56.40 135.39
  A 0.25 0.25 0.0 0 1 56.61 135.01
  L 292.27 135.00
  Z"
/>
<path fill="#38495d" d="
  M 292.27 135.00
  L 509.61 135.01
  A 0.97 0.96 75.0 0 1 510.45 135.50
  Q 576.43 249.77 642.45 364.42
  Q 644.27 367.57 646.00 370.13
  A 0.38 0.38 0.0 0 0 646.64 370.11
  L 781.95 135.62
  Q 782.31 135.01 783.01 135.01
  L 1000.18 134.99
  L 646.76 747.46
  A 0.61 0.61 0.0 0 1 645.70 747.46
  L 292.27 135.00
  Z"
/>
</svg>
