<svg xmlns="http://www.w3.org/2000/svg" xmlns:v="https://vecta.io/nano" viewBox="0 0 1300 1300"><g fill="none" stroke-width="2"><path stroke="#9ca4ae" vector-effect="non-scaling-stroke" d="M1000.18 134.99l-217.17.02q-.7 0-1.06.61L646.64 370.11a.38.38 0 0 1-.64.02q-1.73-2.56-3.55-5.71-66.02-114.65-132-228.92a.97.96 75 0 0-.84-.49L292.27 135" fill="#000000"/><path stroke="#48ba87" vector-effect="non-scaling-stroke" d="M292.27 135l-235.66.01a.25.25 0 0 0-.21.38L645.69 1156.6a.56.56 0 0 0 .86.14q.4-.36.76-.97 294.31-510.18 588.6-1020.16a.4.4 0 0 0-.35-.6l-235.38-.02" fill="#000000"/><path stroke="#48ba87" vector-effect="non-scaling-stroke" d="M292.27 135L645.7 747.46a.61.61 0 0 0 1.06 0l353.42-612.47" fill="#000000"/></g><path fill="#fff" d="M0 0h1300v1300H0V0zm1000.18 134.99l-217.17.02q-.7 0-1.06.61L646.64 370.11a.38.38 0 0 1-.64.02q-1.73-2.56-3.55-5.71-66.02-114.65-132-228.92a.97.96 75 0 0-.84-.49L292.27 135l-235.66.01a.25.25 0 0 0-.21.38L645.69 1156.6a.56.56 0 0 0 .86.14q.4-.36.76-.97 294.31-510.18 588.6-1020.16a.4.4 0 0 0-.35-.6l-235.38-.02z"/><path fill="#48ba87" d="M292.27 135L645.7 747.46a.61.61 0 0 0 1.06 0l353.42-612.47 235.38.02a.4.4 0 0 1 .35.6q-294.29 509.98-588.6 1020.16-.36.61-.76.97a.56.56 0 0 1-.86-.14L56.4 135.39a.25.25 0 0 1 .21-.38l235.66-.01z"/><path fill="#3a4f63" d="M292.27 135l217.34.01a.97.96 75 0 1 .84.49q65.98 114.27 132 228.92 1.82 3.15 3.55 5.71a.38.38 0 0 0 .64-.02l135.31-234.49q.36-.61 1.06-.61l217.17-.02-353.42 612.47a.61.61 0 0 1-1.06 0L292.27 135z"/></svg>